<svg width="24" height="547" viewBox="0 0 24 547" fill="none" xmlns="http://www.w3.org/2000/svg">
<path opacity="0.3" d="M5 545.54L5 541.76L20 541.76L20 545.54L5 545.54ZM5 533.62L5 529.86L20 529.86L20 533.62L5 533.62ZM10.74 543.44L10.74 532.02L14.06 532.02L14.06 543.44L10.74 543.44ZM5 526.927L5 523.147L20 523.147L20 526.927L5 526.927ZM14.78 518.687C14.78 519.087 14.6867 519.454 14.5 519.787C14.3133 520.107 14.06 520.361 13.74 520.547C13.4067 520.734 13.04 520.827 12.64 520.827C12.24 520.827 11.88 520.734 11.56 520.547C11.24 520.361 10.9867 520.107 10.8 519.787C10.6 519.454 10.5 519.087 10.5 518.687C10.5 518.287 10.6 517.927 10.8 517.607C10.9867 517.287 11.24 517.034 11.56 516.847C11.88 516.661 12.24 516.567 12.64 516.567C13.04 516.567 13.4067 516.661 13.74 516.847C14.06 517.034 14.3133 517.287 14.5 517.607C14.6867 517.927 14.78 518.287 14.78 518.687ZM5 510.451L18.32 510.451L16.66 512.151L16.66 500.911L20 500.911L20 514.231L5 514.231L5 510.451ZM11.1 486.475L13.9 486.475L13.9 497.335L11.1 497.335L11.1 486.475ZM12.5 494.775L18.7 495.775L16.92 497.355L16.92 485.835L20 485.835L20 499.555L12.5 498.395L5 499.555L5 485.935L8.08 485.935L8.08 497.355L6.3 495.775L12.5 494.775ZM13.32 474.872L11.06 474.872L20 467.592L20 472.252L13.58 477.232L13.58 475.432L20 480.432L20 485.012L11.08 477.692L13.3 477.692L5 484.552L5 479.852L10.8 475.312L10.8 477.152L5 472.672L5 468.052L13.32 474.872Z" fill="#111111"/>
<line x1="11.5" y1="460" x2="11.5" y2="-2.18557e-08" stroke="#D2D2D2"/>
</svg>
