<svg width="584" height="1035" viewBox="0 0 584 1035" fill="none" xmlns="http://www.w3.org/2000/svg">
<path opacity="0.3" d="M5 1033.54L5 1029.76L20 1029.76L20 1033.54L5 1033.54ZM5 1021.62L5 1017.86L20 1017.86L20 1021.62L5 1021.62ZM10.74 1031.44L10.74 1020.02L14.06 1020.02L14.06 1031.44L10.74 1031.44ZM5 1014.93L5 1011.15L20 1011.15L20 1014.93L5 1014.93ZM14.78 1006.69C14.78 1007.09 14.6867 1007.45 14.5 1007.79C14.3133 1008.11 14.06 1008.36 13.74 1008.55C13.4067 1008.73 13.04 1008.83 12.64 1008.83C12.24 1008.83 11.88 1008.73 11.56 1008.55C11.24 1008.36 10.9867 1008.11 10.8 1007.79C10.6 1007.45 10.5 1007.09 10.5 1006.69C10.5 1006.29 10.6 1005.93 10.8 1005.61C10.9867 1005.29 11.24 1005.03 11.56 1004.85C11.88 1004.66 12.24 1004.57 12.64 1004.57C13.04 1004.57 13.4067 1004.66 13.74 1004.85C14.06 1005.03 14.3133 1005.29 14.5 1005.61C14.6867 1005.93 14.78 1006.29 14.78 1006.69ZM5 998.451L18.32 998.451L16.66 1000.15L16.66 988.911L20 988.911L20 1002.23L5 1002.23L5 998.451ZM11.1 974.475L13.9 974.475L13.9 985.335L11.1 985.335L11.1 974.475ZM12.5 982.775L18.7 983.775L16.92 985.355L16.92 973.835L20 973.835L20 987.555L12.5 986.395L5 987.555L5 973.935L8.08 973.935L8.08 985.355L6.3 983.775L12.5 982.775ZM13.32 962.872L11.06 962.872L20 955.592L20 960.252L13.58 965.232L13.58 963.432L20 968.432L20 973.012L11.08 965.692L13.3 965.692L5 972.552L5 967.852L10.8 963.312L10.8 965.152L5 960.672L5 956.052L13.32 962.872Z" fill="black"/>
<line x1="11.5" y1="945" x2="11.5" y2="-2.18557e-08" stroke="#D2D2D2"/>
<g clip-path="url(#clip0_283_43)">
<path d="M539.245 384.445L539.255 384.315H408.285H352.475L328.485 506.835H384.305L398.075 436.465H528.935L486.995 650.685L551.135 597.945L583.675 439.285L539.245 384.445Z" fill="#F2F2F2"/>
<path d="M381.345 521.945H325.525L300.325 650.685H352.475H356.135H468.825L481.825 598.535H366.345L381.345 521.945Z" fill="#F2F2F2"/>
</g>
<defs>
<clipPath id="clip0_283_43">
<rect width="283.35" height="266.37" fill="white" transform="translate(300.325 384.315)"/>
</clipPath>
</defs>
</svg>
