<svg width="1293" height="734" viewBox="0 0 1293 734" fill="none" xmlns="http://www.w3.org/2000/svg">
<circle cx="646" cy="362.361" r="249.013" fill="white"/>
<path d="M2 95.3154H318.848L420.171 207.801" stroke="#24C2FF" stroke-width="3.43467" stroke-linecap="round"/>
<path d="M2 636.275H301.675L420.171 515.203" stroke="#000D51" stroke-width="3.43467" stroke-linecap="round"/>
<path d="M1290 95.3154H973.152L871.829 207.801" stroke="#005EB8" stroke-width="3.43467" stroke-linecap="round"/>
<path d="M1290 636.275H990.325L871.829 515.203" stroke="#012391" stroke-width="3.43467" stroke-linecap="round"/>
<rect x="2" y="0.00341797" width="316.848" height="84.1493" rx="13.7387" fill="white"/>
<path d="M38.1448 32.0039V38.4277H40.637V40.6836H38.1448V47.2578H35.3948V32.0039H38.1448ZM38.8108 49.0195V51.2109H25.0393V46.248H27.7893V49.0195H38.8108ZM22.2893 43.2402C23.6965 43.2402 25.3293 43.2295 27.0374 43.1758V42.0371C24.9104 41.7471 23.5784 40.6836 23.5999 39.1582C23.5784 37.2246 25.4905 36.0859 28.3909 36.1074C31.2698 36.0859 33.1604 37.2246 33.1819 39.1582C33.1604 40.6729 31.8606 41.7363 29.7659 42.0371V43.0469C31.3772 42.9502 32.9885 42.7998 34.4924 42.5742L34.6858 44.4648C30.5608 45.2598 25.9417 45.3027 22.5686 45.3457L22.2893 43.2402ZM33.9983 33.5938V35.5488H22.8049V33.5938H27.0374V31.9395H29.7659V33.5938H33.9983ZM28.3909 37.9336C26.9944 37.9336 26.1995 38.3203 26.2209 39.1582C26.1995 39.8887 26.9944 40.2969 28.3909 40.2969C29.7659 40.2969 30.5393 39.8887 30.5608 39.1582C30.5393 38.3203 29.7659 37.9336 28.3909 37.9336ZM57.9963 32.0254V43.2832H55.2678V41.3711H50.8635V39.1797H55.2678V37.3105H51.0569C49.843 40.4043 47.0715 42.5312 42.7639 43.7129L41.6897 41.543C46.1907 40.3613 48.3928 38.2129 48.7795 35.5273H42.7424V33.3359H51.7659C51.7659 33.9697 51.7229 34.582 51.637 35.1621H55.2678V32.0254H57.9963ZM51.4866 43.5195C55.4612 43.5195 58.1252 45.0449 58.1467 47.4727C58.1252 49.9219 55.4612 51.4688 51.4866 51.4688C47.469 51.4688 44.7834 49.9219 44.8049 47.4727C44.7834 45.0449 47.469 43.5195 51.4866 43.5195ZM51.4866 45.668C49.0159 45.6465 47.5334 46.2695 47.5334 47.4727C47.5334 48.6758 49.0159 49.2988 51.4866 49.2988C53.9143 49.2988 55.3967 48.6758 55.3967 47.4727C55.3967 46.2695 53.9143 45.6465 51.4866 45.668ZM76.0432 32.0039V37.6113H78.6858V39.8887H76.0432V46.248H73.2932V32.0039H76.0432ZM76.7522 49.0195V51.2109H63.3674V44.7441H66.0959V49.0195H76.7522ZM66.0315 33.2715C69.0178 33.2715 71.3596 35.334 71.3596 38.2344C71.3596 41.0918 69.0178 43.1973 66.0315 43.1973C63.0237 43.1973 60.6604 41.0918 60.6604 38.2344C60.6604 35.334 63.0237 33.2715 66.0315 33.2715ZM66.0315 35.6562C64.5491 35.6348 63.3459 36.6016 63.3674 38.2344C63.3459 39.8242 64.5491 40.8125 66.0315 40.8125C67.5354 40.8125 68.6741 39.8242 68.6956 38.2344C68.6741 36.6016 67.5354 35.6348 66.0315 35.6562ZM96.0237 32.0254V46.291H93.2952V39.2871H90.094V37.0742H93.2952V32.0254H96.0237ZM96.4963 49.0195V51.2109H83.0471V45.0449H85.7971V49.0195H96.4963ZM86.9358 35.8496C86.9358 38.1055 88.3108 40.5332 91.426 41.543L90.0725 43.7129C87.9026 43.0146 86.4202 41.5859 85.5608 39.8027C84.7014 41.7793 83.1438 43.3477 80.8342 44.1211L79.4377 41.8867C82.6604 40.877 84.1213 38.3203 84.1428 35.8281V35.5273H80.2112V33.3359H90.8245V35.5273H86.9358V35.8496ZM116.455 47.043V49.2773H98.5588V47.043H106.1V43.4336H100.449V33.25H103.199V36.2793H111.729V33.25H114.457V43.4336H108.828V47.043H116.455ZM103.199 41.2422H111.729V38.4707H103.199V41.2422ZM134.051 32.0254V46.3125H131.323V39.9316H127.821V37.6758H131.323V32.0254H134.051ZM127.992 33.4648C127.992 38.707 124.662 42.5742 118.948 44.3574L117.83 42.1875C121.88 40.9199 124.49 38.5889 125.006 35.6992H118.84V33.4648H127.992ZM134.545 49.0195V51.2109H121.16V44.873H123.953V49.0195H134.545ZM158.608 32.0039V51.5547H155.987V32.0039H158.608ZM154.612 32.2832V50.6523H152.033V44.5938H149.735C149.004 46.4951 147.726 47.5801 146.082 47.5801C143.504 47.5801 141.828 44.873 141.828 40.4688C141.828 36.0859 143.504 33.4004 146.082 33.4004C147.715 33.4004 148.993 34.4639 149.735 36.3438H152.033V32.2832H154.612ZM146.082 35.9785C144.944 35.9785 144.299 37.4824 144.321 40.4688C144.299 43.4766 144.944 44.959 146.082 44.9375C147.221 44.959 147.908 43.4766 147.908 40.4688C147.908 37.4824 147.199 35.9785 146.082 35.9785ZM150.272 38.5352C150.358 39.1367 150.401 39.7812 150.401 40.4688C150.401 41.1455 150.358 41.79 150.272 42.3809H152.033V38.5352H150.272ZM169.78 43.9707C173.84 43.9707 176.375 45.3672 176.375 47.752C176.375 50.1797 173.84 51.5762 169.78 51.5762C165.633 51.5762 163.076 50.1797 163.076 47.752C163.076 45.3672 165.633 43.9707 169.78 43.9707ZM169.78 46.0977C167.201 46.0977 165.805 46.6348 165.826 47.752C165.805 48.8691 167.201 49.4492 169.78 49.4492C172.315 49.4492 173.668 48.8691 173.668 47.752C173.668 46.6348 172.315 46.0977 169.78 46.0977ZM176.182 32.0039V36.5371H178.824V38.8359H176.182V43.541H173.432V32.0039H176.182ZM163.979 33.2285V35.6992H167.975V33.2285H170.725V42.4238H161.25V33.2285H163.979ZM163.979 40.2539H167.975V37.8262H163.979V40.2539ZM190.641 33.4219V34.6465C190.641 36 190.641 37.9551 190.19 40.3828L187.504 40.125C187.848 38.2451 187.934 36.8271 187.955 35.6562H180.586V33.4219H190.641ZM185.785 37.9336V41.6719C187.73 41.5967 189.728 41.4463 191.565 41.1777L191.715 43.1543C187.655 43.9062 183.057 43.9707 179.662 43.9922L179.426 41.8008C180.522 41.8008 181.757 41.8008 183.057 41.7578V37.9336H185.785ZM195.432 32.0039V37.9551H197.795V40.2539H195.432V46.6348H192.617V32.0039H195.432ZM196.033 49.0195V51.2109H182.305V45.3242H185.055V49.0195H196.033ZM215.09 32.0039V51.5977H212.362V32.0039H215.09ZM209.031 33.6367V41.1777H202.586V44.7656C205.562 44.7549 208.097 44.583 210.965 44.1211L211.201 46.334C207.979 46.8926 205.078 47.0215 201.512 47.0215H199.75V39.0078H206.239V35.8496H199.729V33.6367H209.031ZM228.883 37.9551C228.883 40.9199 229.957 43.8848 232.729 45.3887L231.225 47.3867C229.463 46.4844 228.292 44.8945 227.615 42.9824C226.928 45.0664 225.757 46.8281 223.985 47.8594L222.416 45.7969C225.231 44.1641 226.283 40.9844 226.305 37.9551V37.5039H223.147V35.3125H226.305V32.6699H228.862V35.3125H231.955V37.5039H228.883V37.9551ZM239.69 32.0039V51.5547H237.09V32.0039H239.69ZM235.694 32.3262V50.6523H233.115V41.6504H230.817V39.416H233.115V32.3262H235.694ZM258.746 32.0039V51.5547H256.168V32.0039H258.746ZM254.664 32.4336V50.6953H252.065V44.25H249.293V42.0371H252.065V39.373H249.658C248.745 42.5957 246.769 45.3242 243.106 47.4941L241.494 45.5605C245.458 43.2188 247.198 40.3721 247.574 36.5371H242.633V34.3242H250.303C250.303 35.3018 250.239 36.2471 250.131 37.1602H252.065V32.4336H254.664ZM276.557 33.1426V34.9043C276.557 36.7305 276.557 38.7285 276.063 41.457H278.641V43.6699H271.014V51.5762H268.264V43.6699H260.809V41.457H273.291C273.785 38.9326 273.828 37.0205 273.828 35.334H262.85V33.1426H276.557ZM297.655 41.6289V43.7988H290.071V45.4961H295.485V51.5332H292.756V47.666H281.799V45.4961H287.364V43.7988H279.823V41.6289H297.655ZM290.071 32.0254V33.7871H295.936V35.9141H290.285C290.597 37.3213 292.584 38.5889 296.86 38.8789L296.022 40.9199C292.434 40.6729 289.942 39.6416 288.717 38.0625C287.482 39.6416 284.99 40.6729 281.412 40.9199L280.574 38.8789C284.828 38.5889 286.816 37.3213 287.149 35.9141H281.541V33.7871H287.364V32.0254H290.071Z" fill="#24C2FF"/>
<rect x="2" y="649.155" width="309.979" height="84.1493" rx="13.7387" fill="white"/>
<path d="M20.3389 682.251V683.906C20.3389 685.56 20.3389 687.418 19.9092 689.814H22.4658V692.005H4.56934V689.814H17.1162C17.5566 687.623 17.6104 685.99 17.6104 684.443H6.76074V682.251H20.3389ZM20.8975 698.15V700.341H6.84668V693.724H9.55371V698.15H20.8975ZM41.4795 696.281V698.537H23.583V696.281H31.124V693.337H25.6455V686.763H36.71V684.615H25.624V682.423H39.417V688.912H28.3955V691.103H39.8682V693.337H33.8525V696.281H41.4795ZM49.8154 686.484C49.7939 689.47 51.3838 692.908 54.6064 694.39L53.0811 696.539C50.9004 695.54 49.3428 693.542 48.4834 691.189C47.6025 693.778 46.002 695.969 43.7354 697.033L42.1455 694.863C45.4111 693.337 47.0439 689.707 47.0654 686.484V685.281H42.9189V683.046H53.7471V685.281H49.8154V686.484ZM58.0225 681.156V688.611H60.9014V690.91H58.0225V700.707H55.2725V681.156H58.0225ZM77.8311 683.111V685.259H73.8779C73.9316 687.225 75.3496 689.202 78.4541 690.029L77.208 692.134C74.9844 691.554 73.4375 690.33 72.5459 688.74C71.6865 690.491 70.1289 691.855 67.8193 692.478L66.5303 690.373C69.6348 689.524 71.1064 687.418 71.1494 685.259H67.2178V683.111H71.1494V681.07H73.9209V683.111H77.8311ZM82.1924 681.156V685.753H84.835V687.988H82.1924V692.607H79.4424V681.156H82.1924ZM82.1924 693.423V700.492H69.4092V693.423H82.1924ZM72.1162 695.593V698.3H79.4854V695.593H72.1162ZM91.0869 682.531C92.8379 682.531 94.2988 683.498 95.1904 685.173H99.4873V681.156H102.194V700.75H99.4873V693.423H95.4053C94.5244 695.357 92.9775 696.474 91.0869 696.474C88.1221 696.474 85.9951 693.789 86.0166 689.492C85.9951 685.238 88.1221 682.531 91.0869 682.531ZM91.0869 685.001C89.626 685.001 88.6162 686.591 88.6377 689.492C88.6162 692.414 89.626 693.982 91.0869 693.982C92.5693 693.982 93.5361 692.414 93.5361 689.492C93.5361 686.591 92.5693 685.001 91.0869 685.001ZM95.9639 687.386C96.082 688.031 96.1572 688.74 96.1572 689.492C96.1572 690.104 96.1035 690.684 96.0283 691.232H99.4873V687.386H95.9639ZM110.101 682.531C111.852 682.531 113.312 683.498 114.204 685.173H118.501V681.156H121.208V700.75H118.501V693.423H114.419C113.538 695.357 111.991 696.474 110.101 696.474C107.136 696.474 105.009 693.789 105.03 689.492C105.009 685.238 107.136 682.531 110.101 682.531ZM110.101 685.001C108.64 685.001 107.63 686.591 107.651 689.492C107.63 692.414 108.64 693.982 110.101 693.982C111.583 693.982 112.55 692.414 112.55 689.492C112.55 686.591 111.583 685.001 110.101 685.001ZM114.978 687.386C115.096 688.031 115.171 688.74 115.171 689.492C115.171 690.104 115.117 690.684 115.042 691.232H118.501V687.386H114.978ZM146.624 690.029V692.242H139.062V693.681C142.467 693.939 144.476 695.164 144.497 697.183C144.476 699.439 141.919 700.707 137.687 700.707C133.39 700.707 130.833 699.439 130.833 697.183C130.833 695.153 132.863 693.928 136.333 693.681V692.242H128.792V690.029H146.624ZM137.687 695.701C134.979 695.722 133.604 696.195 133.626 697.183C133.604 698.128 134.979 698.644 137.687 698.644C140.329 698.644 141.726 698.128 141.747 697.183C141.726 696.195 140.329 695.722 137.687 695.701ZM145.013 681.994V684.142H139.706C140.168 685.517 142.155 686.838 145.872 687.15L144.905 689.298C141.221 688.944 138.729 687.547 137.687 685.646C136.655 687.547 134.206 688.944 130.489 689.298L129.587 687.15C133.207 686.838 135.205 685.506 135.71 684.142H130.425V681.994H145.013ZM164.177 681.177V692.199H161.427V681.177H164.177ZM164.177 693.101V700.492H151.071V693.101H164.177ZM153.778 695.271V698.3H161.491V695.271H153.778ZM155.304 683.777C155.282 686.162 156.722 688.417 159.88 689.406L158.548 691.49C156.313 690.834 154.767 689.481 153.886 687.73C152.994 689.631 151.404 691.135 149.073 691.855L147.741 689.707C151.007 688.718 152.446 686.226 152.446 683.777V681.886H155.304V683.777ZM173.157 682.466C176.251 682.445 178.571 684.464 178.571 687.257C178.571 690.072 176.251 692.07 173.157 692.07C170.063 692.07 167.722 690.072 167.722 687.257C167.722 684.464 170.063 682.445 173.157 682.466ZM173.157 684.83C171.61 684.83 170.429 685.732 170.45 687.257C170.429 688.804 171.61 689.685 173.157 689.685C174.704 689.685 175.886 688.804 175.907 687.257C175.886 685.732 174.726 684.83 173.157 684.83ZM183.255 681.156V700.75H180.526V681.156H183.255ZM166.905 694.519C170.386 694.541 175.22 694.476 179.409 693.896L179.624 695.873C175.284 696.71 170.644 696.753 167.228 696.753L166.905 694.519ZM206.415 681.156V686.763H209.058V689.041H206.415V695.4H203.665V681.156H206.415ZM207.124 698.171V700.363H193.739V693.896H196.468V698.171H207.124ZM196.403 682.423C199.39 682.423 201.731 684.486 201.731 687.386C201.731 690.244 199.39 692.349 196.403 692.349C193.396 692.349 191.032 690.244 191.032 687.386C191.032 684.486 193.396 682.423 196.403 682.423ZM196.403 684.808C194.921 684.787 193.718 685.753 193.739 687.386C193.718 688.976 194.921 689.964 196.403 689.964C197.907 689.964 199.046 688.976 199.067 687.386C199.046 685.753 197.907 684.787 196.403 684.808ZM226.396 681.177V695.443H223.667V688.439H220.466V686.226H223.667V681.177H226.396ZM226.868 698.171V700.363H213.419V694.197H216.169V698.171H226.868ZM217.308 685.001C217.308 687.257 218.683 689.685 221.798 690.695L220.444 692.865C218.274 692.167 216.792 690.738 215.933 688.955C215.073 690.931 213.516 692.5 211.206 693.273L209.81 691.039C213.032 690.029 214.493 687.472 214.515 684.98V684.679H210.583V682.488H221.196V684.679H217.308V685.001ZM246.806 690.824V692.994H239.437V696.367H236.729V692.994H228.909V690.824H246.806ZM244.507 682.015V689.212H231.144V682.015H244.507ZM233.829 684.142V687.085H241.821V684.142H233.829ZM244.829 698.171V700.363H231.015V694.669H233.743V698.171H244.829ZM263.585 681.156V689.105H266.142V691.382H263.585V700.707H260.813V681.156H263.585ZM247.708 695.185C249.137 695.185 250.802 695.185 252.542 695.142V693.466C250.458 693.058 249.104 691.737 249.126 689.921C249.104 687.73 251.081 686.248 253.938 686.248C256.731 686.248 258.729 687.73 258.751 689.921C258.729 691.737 257.354 693.069 255.292 693.466V695.035C256.839 694.959 258.396 694.831 259.847 694.626L260.019 696.625C255.851 697.398 251.382 697.419 248.073 697.419L247.708 695.185ZM259.696 683.326V685.474H248.095V683.326H252.542V681.263H255.292V683.326H259.696ZM253.938 688.332C252.606 688.332 251.704 688.912 251.726 689.921C251.704 690.953 252.606 691.511 253.938 691.511C255.228 691.511 256.108 690.953 256.108 689.921C256.108 688.912 255.228 688.332 253.938 688.332ZM287.776 682.294V684.056C287.776 685.882 287.776 687.88 287.282 690.609H289.86V692.822H282.233V700.728H279.483V692.822H272.028V690.609H284.511C285.005 688.084 285.048 686.172 285.048 684.486H274.069V682.294H287.776ZM308.874 690.781V692.951H301.29V694.648H306.704V700.685H303.976V696.818H293.019V694.648H298.583V692.951H291.042V690.781H308.874ZM301.29 681.177V682.939H307.155V685.066H301.505C301.816 686.473 303.804 687.741 308.079 688.031L307.241 690.072C303.653 689.825 301.161 688.793 299.937 687.214C298.701 688.793 296.209 689.825 292.632 690.072L291.794 688.031C296.048 687.741 298.035 686.473 298.368 685.066H292.761V682.939H298.583V681.177H301.29Z" fill="#000D51"/>
<rect x="985.173" y="0.00341797" width="304.827" height="84.1493" rx="13.7387" fill="white"/>
<path d="M1058.82 33.7012V35.8496H1047.95V33.7012H1052.16V31.832H1054.89V33.7012H1058.82ZM1053.49 36.4082C1056.17 36.4082 1058.11 37.8691 1058.13 39.9746C1058.11 42.0801 1056.17 43.5195 1053.49 43.5195C1050.78 43.5195 1048.89 42.0801 1048.91 39.9746C1048.89 37.8691 1050.78 36.4082 1053.49 36.4082ZM1053.49 38.4492C1052.24 38.4492 1051.45 38.9863 1051.47 39.9746C1051.45 40.9629 1052.24 41.5215 1053.49 41.5215C1054.71 41.5215 1055.57 40.9629 1055.57 39.9746C1055.57 38.9863 1054.71 38.4492 1053.49 38.4492ZM1064.38 32.0039V43.6484H1061.65V42.2305H1058.99V40.0391H1061.65V38.3848H1059.03V36.1719H1061.65V32.0039H1064.38ZM1053.94 44.3789V45.8184H1061.67V44.3789H1064.38V51.3398H1051.19V44.3789H1053.94ZM1053.94 49.2344H1061.67V47.8594H1053.94V49.2344ZM1076.31 33.1426V39.2441H1070.4V41.3281C1073.31 41.3281 1075.03 41.2314 1077.01 40.8555L1077.27 43.0469C1075 43.4551 1072.93 43.5195 1069.15 43.5195H1067.69V37.2031H1073.56V35.291H1067.65V33.1426H1076.31ZM1083.4 32.0254V44.0566H1080.67V41.0488H1077.42V38.8789H1080.67V36.9023H1077.42V34.7324H1080.67V32.0254H1083.4ZM1083.4 44.9375V51.5547H1080.67V47.1289H1069.92V44.9375H1083.4ZM1093.13 36.4297C1093.11 39.9316 1094.61 43.4766 1097.75 44.9805L1096.09 47.1719C1094 46.1406 1092.59 44.207 1091.77 41.8438C1090.93 44.3789 1089.41 46.4521 1087.2 47.5371L1085.5 45.3242C1088.81 43.7988 1090.38 40.0605 1090.38 36.4297V33.5078H1093.13V36.4297ZM1101.36 32.0039V39.5449H1104.24V41.8652H1101.36V51.5547H1098.61V32.0039H1101.36ZM1125.53 32.0039V37.6113H1128.17V39.8887H1125.53V46.248H1122.78V32.0039H1125.53ZM1126.24 49.0195V51.2109H1112.85V44.7441H1115.58V49.0195H1126.24ZM1115.51 33.2715C1118.5 33.2715 1120.84 35.334 1120.84 38.2344C1120.84 41.0918 1118.5 43.1973 1115.51 43.1973C1112.51 43.1973 1110.14 41.0918 1110.14 38.2344C1110.14 35.334 1112.51 33.2715 1115.51 33.2715ZM1115.51 35.6562C1114.03 35.6348 1112.83 36.6016 1112.85 38.2344C1112.83 39.8242 1114.03 40.8125 1115.51 40.8125C1117.02 40.8125 1118.16 39.8242 1118.18 38.2344C1118.16 36.6016 1117.02 35.6348 1115.51 35.6562ZM1145.51 32.0254V46.291H1142.78V39.2871H1139.58V37.0742H1142.78V32.0254H1145.51ZM1145.98 49.0195V51.2109H1132.53V45.0449H1135.28V49.0195H1145.98ZM1136.42 35.8496C1136.42 38.1055 1137.79 40.5332 1140.91 41.543L1139.56 43.7129C1137.39 43.0146 1135.9 41.5859 1135.04 39.8027C1134.18 41.7793 1132.63 43.3477 1130.32 44.1211L1128.92 41.8867C1132.14 40.877 1133.6 38.3203 1133.63 35.8281V35.5273H1129.69V33.3359H1140.31V35.5273H1136.42V35.8496ZM1164.52 44.4434V51.5547H1161.79V46.5918H1151.09V44.4434H1164.52ZM1164.52 32.0039V43.5625H1161.79V41.0918H1157.41C1156.47 42.1016 1155.09 42.7031 1153.5 42.7031C1150.53 42.7031 1148.28 40.6621 1148.3 37.8262C1148.28 35.0547 1150.53 33.0352 1153.5 33.0566C1155.09 33.0459 1156.47 33.6367 1157.41 34.625H1161.79V32.0039H1164.52ZM1153.5 35.3555C1151.97 35.3555 1150.88 36.3008 1150.9 37.8262C1150.88 39.4375 1151.97 40.3613 1153.5 40.3613C1154.94 40.3613 1156.06 39.4375 1156.06 37.8262C1156.06 36.3008 1154.94 35.3555 1153.5 35.3555ZM1158.55 38.9004H1161.79V36.8379H1158.57C1158.62 37.1494 1158.66 37.4824 1158.66 37.8262C1158.66 38.2021 1158.61 38.5566 1158.55 38.9004ZM1185.21 34.625V36.9023H1182.57V38.7715H1185.21V41.0273H1182.57V43.8203H1179.82V32.0254H1182.57V34.625H1185.21ZM1176.72 33.1855V39.0078H1170.49V40.7266C1173.73 40.7051 1175.92 40.5762 1178.4 40.1465L1178.7 42.3379C1175.89 42.8535 1173.37 42.9609 1169.42 42.9609H1167.76V36.9453H1174.06V35.334H1167.74V33.1855H1176.72ZM1176.12 44.1211C1180.18 44.1211 1182.76 45.5391 1182.76 47.8809C1182.76 50.2012 1180.18 51.5332 1176.12 51.5332C1171.98 51.5332 1169.42 50.2012 1169.42 47.8809C1169.42 45.5391 1171.98 44.1211 1176.12 44.1211ZM1176.12 46.248C1173.52 46.248 1172.1 46.7852 1172.13 47.8809C1172.1 48.9336 1173.52 49.4922 1176.12 49.4922C1178.7 49.4922 1180.05 48.9336 1180.05 47.8809C1180.05 46.7852 1178.7 46.248 1176.12 46.248ZM1206.65 32.0039V36.6016H1209.29V38.8359H1206.65V43.3477H1203.9V32.0039H1206.65ZM1201.19 33.293C1201.22 38.5137 1197.93 42.166 1192.11 43.7773L1191.01 41.5645C1195.32 40.415 1197.79 38.2021 1198.21 35.4844H1191.93V33.293H1201.19ZM1200.27 43.584C1204.25 43.584 1206.87 45.1309 1206.87 47.5801C1206.87 50.0508 1204.25 51.5762 1200.27 51.5762C1196.3 51.5762 1193.63 50.0508 1193.65 47.5801C1193.63 45.1309 1196.3 43.584 1200.27 43.584ZM1200.27 45.7109C1197.8 45.7109 1196.34 46.377 1196.36 47.5801C1196.34 48.7617 1197.8 49.4492 1200.27 49.4277C1202.7 49.4492 1204.16 48.7617 1204.16 47.5801C1204.16 46.377 1202.7 45.7109 1200.27 45.7109ZM1225.79 32.0039V39.9531H1228.35V42.2305H1225.79V51.5547H1223.02V32.0039H1225.79ZM1209.92 46.0332C1211.35 46.0332 1213.01 46.0332 1214.75 45.9902V44.3145C1212.67 43.9062 1211.31 42.585 1211.33 40.7695C1211.31 38.5781 1213.29 37.0957 1216.15 37.0957C1218.94 37.0957 1220.94 38.5781 1220.96 40.7695C1220.94 42.585 1219.56 43.917 1217.5 44.3145V45.8828C1219.05 45.8076 1220.61 45.6787 1222.06 45.4746L1222.23 47.4727C1218.06 48.2461 1213.59 48.2676 1210.28 48.2676L1209.92 46.0332ZM1221.91 34.1738V36.3223H1210.3V34.1738H1214.75V32.1113H1217.5V34.1738H1221.91ZM1216.15 39.1797C1214.82 39.1797 1213.91 39.7598 1213.93 40.7695C1213.91 41.8008 1214.82 42.3594 1216.15 42.3594C1217.44 42.3594 1218.32 41.8008 1218.32 40.7695C1218.32 39.7598 1217.44 39.1797 1216.15 39.1797Z" fill="#005EB8"/>
<rect x="1053.87" y="649.155" width="236.133" height="84.1493" rx="13.7387" fill="white"/>
<path d="M1151.39 664.656V684.207H1148.79V674.388H1146.9V683.261H1144.39V664.978H1146.9V672.197H1148.79V664.656H1151.39ZM1142.33 666.912V669.125H1137.79V677.46C1139.69 677.45 1141.36 677.353 1143.25 677.009L1143.45 679.244C1141.06 679.695 1138.98 679.759 1136.4 679.781H1135.04V666.912H1142.33ZM1171.38 673.894V676.042H1153.5V673.894H1161.11V672.218H1155.67V665.515H1169.23V667.642H1158.4V670.07H1169.33V672.218H1163.79V673.894H1171.38ZM1162.39 677.031C1166.63 677.031 1169.18 678.32 1169.21 680.64C1169.18 682.917 1166.63 684.228 1162.39 684.228C1158.12 684.228 1155.54 682.917 1155.54 680.64C1155.54 678.32 1158.12 677.031 1162.39 677.031ZM1162.39 679.115C1159.69 679.115 1158.31 679.63 1158.33 680.64C1158.31 681.671 1159.69 682.144 1162.39 682.144C1165.04 682.144 1166.43 681.671 1166.46 680.64C1166.43 679.63 1165.04 679.115 1162.39 679.115ZM1188.46 673.4V675.57H1182.78V679.738H1190.41V681.972H1172.51V679.738H1180.05V675.57H1174.62V666.031H1188.3V668.222H1177.37V673.4H1188.46ZM1196.92 666.031C1199.56 666.031 1201.53 668.211 1201.93 671.724H1205.32V664.656H1208.03V684.25H1205.32V673.916H1201.95C1201.66 677.675 1199.65 679.974 1196.92 679.974C1193.96 679.974 1191.83 677.289 1191.85 672.992C1191.83 668.738 1193.96 666.031 1196.92 666.031ZM1196.92 668.501C1195.46 668.501 1194.45 670.091 1194.47 672.992C1194.45 675.914 1195.46 677.482 1196.92 677.482C1198.4 677.482 1199.37 675.914 1199.37 672.992C1199.37 670.091 1198.4 668.501 1196.92 668.501ZM1052.09 715.23V699.675H1062.54V702.339H1055.32V706.121H1062V708.785H1055.32V712.566H1062.56V715.23H1052.09ZM1073.49 704.123C1073.36 702.898 1072.38 702.167 1070.81 702.167C1069.17 702.167 1068.27 702.919 1068.25 703.951C1068.23 705.068 1069.41 705.583 1070.74 705.884L1072.14 706.228C1074.8 706.83 1076.8 708.183 1076.8 710.783C1076.8 713.64 1074.57 715.445 1070.79 715.445C1067.03 715.445 1064.62 713.705 1064.53 710.375H1067.67C1067.78 711.943 1069.02 712.738 1070.74 712.738C1072.44 712.738 1073.54 711.943 1073.54 710.783C1073.54 709.73 1072.57 709.236 1070.87 708.806L1069.17 708.398C1066.55 707.753 1064.94 706.443 1064.94 704.166C1064.94 701.33 1067.43 699.46 1070.83 699.46C1074.27 699.46 1076.54 701.373 1076.59 704.123H1073.49ZM1078.91 715.23V699.675H1082.13V706.121H1088.88V699.675H1092.12V715.23H1088.88V708.785H1082.13V715.23H1078.91ZM1108.25 704.123C1108.12 702.898 1107.14 702.167 1105.57 702.167C1103.94 702.167 1103.03 702.919 1103.01 703.951C1102.99 705.068 1104.17 705.583 1105.5 705.884L1106.9 706.228C1109.56 706.83 1111.56 708.183 1111.56 710.783C1111.56 713.64 1109.33 715.445 1105.55 715.445C1101.79 715.445 1099.38 713.705 1099.29 710.375H1102.43C1102.54 711.943 1103.79 712.738 1105.5 712.738C1107.2 712.738 1108.3 711.943 1108.3 710.783C1108.3 709.73 1107.33 709.236 1105.63 708.806L1103.94 708.398C1101.31 707.753 1099.7 706.443 1099.7 704.166C1099.7 701.33 1102.2 699.46 1105.59 699.46C1109.03 699.46 1111.3 701.373 1111.35 704.123H1108.25ZM1112.72 699.675H1116.35L1119.94 706.378H1120.09L1123.66 699.675H1127.29L1121.62 709.687V715.23H1118.39V709.687L1112.72 699.675ZM1137.41 704.123C1137.28 702.898 1136.29 702.167 1134.72 702.167C1133.09 702.167 1132.19 702.919 1132.17 703.951C1132.14 705.068 1133.33 705.583 1134.66 705.884L1136.05 706.228C1138.72 706.83 1140.72 708.183 1140.72 710.783C1140.72 713.64 1138.48 715.445 1134.7 715.445C1130.94 715.445 1128.54 713.705 1128.45 710.375H1131.59C1131.69 711.943 1132.94 712.738 1134.66 712.738C1136.36 712.738 1137.45 711.943 1137.45 710.783C1137.45 709.73 1136.48 709.236 1134.79 708.806L1133.09 708.398C1130.47 707.753 1128.86 706.443 1128.86 704.166C1128.86 701.33 1131.35 699.46 1134.74 699.46C1138.18 699.46 1140.46 701.373 1140.5 704.123H1137.41ZM1142.22 702.339V699.675H1154.96V702.339H1150.19V715.23H1146.99V702.339H1142.22ZM1156.96 715.23V699.675H1167.4V702.339H1160.18V706.121H1166.86V708.785H1160.18V712.566H1167.42V715.23H1156.96ZM1169.91 699.675H1173.91L1178.23 710.224H1178.4L1182.72 699.675H1186.71V715.23H1183.58V705.046H1183.45L1179.39 715.166H1177.24L1173.18 705.003H1173.05V715.23H1169.91V699.675ZM1194.41 715.23V699.675H1197.63V712.566H1204.33V715.23H1194.41ZM1206.42 715.23V699.675H1216.86V702.339H1209.64V706.121H1216.32V708.785H1209.64V712.566H1216.88V715.23H1206.42ZM1222.1 699.675L1225.88 711.535H1226.03L1229.83 699.675H1233.4L1228.03 715.23H1223.88L1218.49 699.675H1222.1ZM1235.16 715.23V699.675H1245.6V702.339H1238.38V706.121H1245.07V708.785H1238.38V712.566H1245.62V715.23H1235.16ZM1248.12 715.23V699.675H1251.34V712.566H1258.04V715.23H1248.12ZM1274.82 699.675H1278.07V709.773C1278.07 713.189 1275.49 715.445 1271.62 715.445C1267.75 715.445 1265.2 713.189 1265.2 709.773V699.675H1268.42V709.515C1268.42 711.298 1269.69 712.609 1271.62 712.609C1273.58 712.609 1274.82 711.298 1274.82 709.515V699.675ZM1280.69 715.23V699.675H1286.79C1290.33 699.675 1292.35 701.845 1292.35 704.917C1292.35 708.033 1290.29 710.16 1286.7 710.16H1283.91V715.23H1280.69ZM1283.91 707.56H1286.19C1288.1 707.56 1289.02 706.486 1289.02 704.917C1289.02 703.371 1288.1 702.318 1286.19 702.318H1283.91V707.56Z" fill="#012391"/>
<path d="M617.273 184.542L566.955 138.191L617.17 91.9346C481.715 107.184 376.073 222.418 376.073 361.874C376.073 365.111 376.15 368.339 376.262 371.551H349.764L379.276 403.588L421.84 449.801L471.128 396.289L493.908 371.551H468.071C467.899 368.348 467.805 365.119 467.805 361.874C467.805 273.045 532.514 199.053 617.264 184.542H617.273Z" fill="#24C2FF"/>
<path d="M647.736 90.2096C646.886 90.2096 646.045 90.2354 645.203 90.244V66.124L617.168 91.9441L566.953 138.201L617.271 184.551L645.203 210.277V181.993C646.045 181.984 646.895 181.958 647.736 181.958C740.618 181.958 817.28 252.695 826.683 343.13L869.607 296.521L919.135 350.291C913.039 205.855 793.65 90.2182 647.736 90.2182V90.2096Z" fill="#005EB8"/>
<path d="M679.807 538.94L647.221 508.93V541.799C560.006 541.559 487.2 478.936 471.126 396.298L421.838 449.81L379.274 403.597C399.375 533.496 511.843 633.29 647.221 633.539V653.074L669.357 632.681L725.471 580.998L679.807 538.94Z" fill="#000D51"/>
<path d="M919.14 350.292L869.612 296.522L826.687 343.13L797.535 374.781H827.194C821.329 457.247 759.651 524.524 679.812 538.949L725.476 581.007L669.362 632.69C804.851 621.965 912.674 511.412 919.088 374.781H941.688L919.14 350.3V350.292Z" fill="#012391"/>
<rect x="633.445" y="338" width="25.76" height="25.76" fill="#000D51"/>
<path d="M645.896 386.085L624 362.043L667.792 362.043L645.896 386.085Z" fill="#000D51"/>
<path d="M541.922 266.633V274.809H545.094V277.68H541.922V286.047H538.422V266.633H541.922ZM542.77 288.289V291.078H525.242V284.762H528.742V288.289H542.77ZM521.742 280.934C523.533 280.934 525.611 280.92 527.785 280.852V279.402C525.078 279.033 523.383 277.68 523.41 275.738C523.383 273.277 525.816 271.828 529.508 271.855C533.172 271.828 535.578 273.277 535.605 275.738C535.578 277.666 533.924 279.02 531.258 279.402V280.688C533.309 280.564 535.359 280.373 537.273 280.086L537.52 282.492C532.27 283.504 526.391 283.559 522.098 283.613L521.742 280.934ZM536.645 268.656V271.145H522.398V268.656H527.785V266.551H531.258V268.656H536.645ZM529.508 274.18C527.73 274.18 526.719 274.672 526.746 275.738C526.719 276.668 527.73 277.188 529.508 277.188C531.258 277.188 532.242 276.668 532.27 275.738C532.242 274.672 531.258 274.18 529.508 274.18ZM567.188 266.66V280.988H563.715V278.555H558.109V275.766H563.715V273.387H558.355C556.811 277.324 553.283 280.031 547.801 281.535L546.434 278.773C552.162 277.27 554.965 274.535 555.457 271.117H547.773V268.328H559.258C559.258 269.135 559.203 269.914 559.094 270.652H563.715V266.66H567.188ZM558.902 281.289C563.961 281.289 567.352 283.23 567.379 286.32C567.352 289.438 563.961 291.406 558.902 291.406C553.789 291.406 550.371 289.438 550.398 286.32C550.371 283.23 553.789 281.289 558.902 281.289ZM558.902 284.023C555.758 283.996 553.871 284.789 553.871 286.32C553.871 287.852 555.758 288.645 558.902 288.645C561.992 288.645 563.879 287.852 563.879 286.32C563.879 284.789 561.992 283.996 558.902 284.023ZM590.156 266.633V273.77H593.52V276.668H590.156V284.762H586.656V266.633H590.156ZM591.059 288.289V291.078H574.023V282.848H577.496V288.289H591.059ZM577.414 268.246C581.215 268.246 584.195 270.871 584.195 274.562C584.195 278.199 581.215 280.879 577.414 280.879C573.586 280.879 570.578 278.199 570.578 274.562C570.578 270.871 573.586 268.246 577.414 268.246ZM577.414 271.281C575.527 271.254 573.996 272.484 574.023 274.562C573.996 276.586 575.527 277.844 577.414 277.844C579.328 277.844 580.777 276.586 580.805 274.562C580.777 272.484 579.328 271.254 577.414 271.281ZM615.586 266.66V284.816H612.113V275.902H608.039V273.086H612.113V266.66H615.586ZM616.188 288.289V291.078H599.07V283.23H602.57V288.289H616.188ZM604.02 271.527C604.02 274.398 605.77 277.488 609.734 278.773L608.012 281.535C605.25 280.646 603.363 278.828 602.27 276.559C601.176 279.074 599.193 281.07 596.254 282.055L594.477 279.211C598.578 277.926 600.438 274.672 600.465 271.5V271.117H595.461V268.328H608.969V271.117H604.02V271.527ZM641.59 285.773V288.617H618.812V285.773H628.41V281.18H621.219V268.219H624.719V272.074H635.574V268.219H639.047V281.18H631.883V285.773H641.59ZM624.719 278.391H635.574V274.863H624.719V278.391ZM663.984 266.66V284.844H660.512V276.723H656.055V273.852H660.512V266.66H663.984ZM656.273 268.492C656.273 275.164 652.035 280.086 644.762 282.355L643.34 279.594C648.494 277.98 651.816 275.014 652.473 271.336H644.625V268.492H656.273ZM664.613 288.289V291.078H647.578V283.012H651.133V288.289H664.613ZM689.961 278.938V281.699H680.582V285.992H677.137V281.699H667.184V278.938H689.961ZM687.035 267.727V276.887H670.027V267.727H687.035ZM673.445 270.434V274.18H683.617V270.434H673.445ZM687.445 288.289V291.078H669.863V283.832H673.336V288.289H687.445ZM711.316 266.633V276.75H714.57V279.648H711.316V291.516H707.789V266.633H711.316ZM691.109 284.488C692.928 284.488 695.047 284.488 697.262 284.434V282.301C694.609 281.781 692.887 280.1 692.914 277.789C692.887 275 695.402 273.113 699.039 273.113C702.594 273.113 705.137 275 705.164 277.789C705.137 280.1 703.387 281.795 700.762 282.301V284.297C702.73 284.201 704.713 284.037 706.559 283.777L706.777 286.32C701.473 287.305 695.785 287.332 691.574 287.332L691.109 284.488ZM706.367 269.395V272.129H691.602V269.395H697.262V266.77H700.762V269.395H706.367ZM699.039 275.766C697.344 275.766 696.195 276.504 696.223 277.789C696.195 279.102 697.344 279.812 699.039 279.812C700.68 279.812 701.801 279.102 701.801 277.789C701.801 276.504 700.68 275.766 699.039 275.766ZM742.105 268.082V270.324C742.105 272.648 742.105 275.191 741.477 278.664H744.758V281.48H735.051V291.543H731.551V281.48H722.062V278.664H737.949C738.578 275.451 738.633 273.018 738.633 270.871H724.66V268.082H742.105ZM768.957 278.883V281.645H759.305V283.805H766.195V291.488H762.723V286.566H748.777V283.805H755.859V281.645H746.262V278.883H768.957ZM759.305 266.66V268.902H766.77V271.609H759.578C759.975 273.4 762.504 275.014 767.945 275.383L766.879 277.98C762.312 277.666 759.141 276.354 757.582 274.344C756.01 276.354 752.838 277.666 748.285 277.98L747.219 275.383C752.633 275.014 755.162 273.4 755.586 271.609H748.449V268.902H755.859V266.66H759.305Z" fill="#192A67"/>
<path d="M563.036 439.331V442.147H553.411V443.979C557.745 444.307 560.301 445.866 560.329 448.436C560.301 451.307 557.048 452.921 551.661 452.921C546.192 452.921 542.938 451.307 542.938 448.436C542.938 445.852 545.522 444.294 549.938 443.979V442.147H540.341V439.331H563.036ZM551.661 446.55C548.216 446.577 546.466 447.178 546.493 448.436C546.466 449.639 548.216 450.296 551.661 450.296C555.024 450.296 556.801 449.639 556.829 448.436C556.801 447.178 555.024 446.577 551.661 446.55ZM560.985 429.104V431.839H554.231C554.819 433.589 557.348 435.27 562.079 435.667L560.848 438.401C556.159 437.95 552.987 436.173 551.661 433.753C550.348 436.173 547.231 437.95 542.501 438.401L541.352 435.667C545.96 435.27 548.503 433.575 549.145 431.839H542.419V429.104H560.985ZM586.059 428.038V452.921H582.751V440.425H580.344V451.718H577.145V428.448H580.344V437.635H582.751V428.038H586.059ZM574.52 430.909V433.725H568.751V444.335C571.157 444.321 573.29 444.198 575.696 443.76L575.942 446.604C572.907 447.178 570.255 447.26 566.973 447.288H565.251V430.909H574.52ZM610.45 428.038V452.921H607.114V440.452H605.008V451.772H601.7V444.635L599.731 447.26C597.421 446.044 595.93 443.979 595.055 441.409C594.221 444.362 592.745 446.755 590.38 448.163L588.219 445.483C591.993 443.35 593.278 438.948 593.278 434.19V433.397H589.067V430.608H600.469V433.397H596.669V434.19C596.669 438.524 597.954 442.653 601.7 444.581V428.393H605.008V437.608H607.114V428.038H610.45ZM624.942 431.839V434.6H612.911V431.839H617.231V428.721H620.676V431.839H624.942ZM618.981 435.721C622.153 435.721 624.423 438.182 624.45 441.628C624.423 445.1 622.153 447.561 618.981 447.561C615.809 447.561 613.485 445.1 613.485 441.628C613.485 438.182 615.809 435.721 618.981 435.721ZM618.981 438.62C617.532 438.62 616.548 439.741 616.548 441.628C616.548 443.514 617.532 444.608 618.981 444.608C620.376 444.608 621.36 443.514 621.387 441.628C621.36 439.741 620.376 438.62 618.981 438.62ZM634.458 428.038V452.921H631.149V440.944H629.126V451.854H625.872V428.53H629.126V438.155H631.149V428.038H634.458ZM646.298 433.671C646.27 438.128 648.184 442.639 652.176 444.553L650.071 447.343C647.405 446.03 645.614 443.569 644.575 440.561C643.495 443.788 641.567 446.427 638.751 447.807L636.591 444.991C640.801 443.05 642.798 438.292 642.798 433.671V429.952H646.298V433.671ZM656.77 428.038V437.635H660.434V440.589H656.77V452.921H653.27V428.038H656.77ZM681.844 430.198V432.55C681.844 435.667 681.844 439.167 680.833 444.444L677.333 444.089C678.276 439.385 678.317 435.885 678.344 432.96H663.688V430.198H681.844ZM684.032 447.042V449.885H661.337V447.042H669.458V438.483H672.93V447.042H684.032ZM692.673 450.405V447.944L702.598 433.999H692.645V430.608H707.739V433.069L697.841 447.014H707.766V450.405H692.673ZM717.501 450.706C712.962 450.706 710.173 447.753 710.173 443.05C710.173 438.456 712.989 435.366 717.337 435.366C721.247 435.366 724.309 437.827 724.309 442.885V444.034H714.165C714.165 446.276 715.505 447.671 717.583 447.671C718.95 447.671 719.934 447.069 720.344 446.167H724.2C723.626 448.901 721.165 450.706 717.501 450.706ZM714.165 441.491H720.481C720.481 439.686 719.223 438.401 717.419 438.401C715.559 438.401 714.233 439.782 714.165 441.491ZM726.852 450.405V435.557H730.762V438.128H730.926C731.473 436.296 732.841 435.339 734.508 435.339C734.919 435.339 735.438 435.393 735.794 435.475V439.085C735.411 438.975 734.645 438.866 734.071 438.866C732.239 438.866 730.899 440.151 730.899 441.956V450.405H726.852ZM743.969 450.706C739.485 450.706 736.696 447.616 736.696 443.022C736.696 438.428 739.485 435.366 743.969 435.366C748.454 435.366 751.27 438.428 751.27 443.022C751.27 447.616 748.454 450.706 743.969 450.706ZM743.997 447.561C746.075 447.561 747.141 445.62 747.141 443.022C747.141 440.397 746.075 438.456 743.997 438.456C741.891 438.456 740.798 440.397 740.798 443.022C740.798 445.62 741.891 447.561 743.997 447.561Z" fill="#192A67"/>
<circle cx="422.746" cy="207.801" r="10.304" fill="white" stroke="#24C2FF" stroke-width="3.43467"/>
<circle cx="422.746" cy="514.345" r="10.304" fill="white" stroke="#000D51" stroke-width="3.43467"/>
<circle cx="871.829" cy="514.345" r="10.304" fill="white" stroke="#012391" stroke-width="3.43467"/>
<circle cx="871.829" cy="207.801" r="10.304" fill="white" stroke="#085BC1" stroke-width="3.43467"/>
</svg>
