<svg xmlns="http://www.w3.org/2000/svg" xmlns:xlink="http://www.w3.org/1999/xlink" width="1400" height="568.088" viewBox="0 0 1400 568.088">
  <defs>
    <linearGradient id="linear-gradient" x1="-3.318" y1="-3.036" x2="-3.295" y2="-3.036" gradientUnits="objectBoundingBox">
      <stop offset="0" stop-color="#79c5d4"/>
      <stop offset="1" stop-color="#276dd7"/>
    </linearGradient>
    <linearGradient id="linear-gradient-2" y1="0.5" x2="1" y2="0.5" gradientUnits="objectBoundingBox">
      <stop offset="0" stop-color="#a4e0ff"/>
      <stop offset="1" stop-color="#04a897"/>
    </linearGradient>
    <linearGradient id="linear-gradient-3" y1="0.5" x2="1" y2="0.5" gradientUnits="objectBoundingBox">
      <stop offset="0" stop-color="#04a897"/>
      <stop offset="1" stop-color="#0661b1"/>
    </linearGradient>
    <linearGradient id="linear-gradient-4" y1="0.5" x2="1" y2="0.5" gradientUnits="objectBoundingBox">
      <stop offset="0" stop-color="#0661b1"/>
      <stop offset="1" stop-color="#0163d2"/>
    </linearGradient>
    <linearGradient id="linear-gradient-5" y1="0.5" x2="1" y2="0.5" gradientUnits="objectBoundingBox">
      <stop offset="0" stop-color="#0163d2"/>
      <stop offset="1" stop-color="#000d4b"/>
    </linearGradient>
  </defs>
  <g id="그룹_3240" data-name="그룹 3240" transform="translate(-260 -3511.344)">
    <g id="그룹_3238" data-name="그룹 3238">
      <g id="그룹_3237" data-name="그룹 3237">
        <g id="right-arrow" transform="translate(353.778 3428.897)" opacity="0.12">
          <g id="SOLID-GRADIENT" transform="translate(146 82.447)">
            <path id="패스_430" data-name="패스 430" d="M731.733,609.152V492H208.757A62.942,62.942,0,0,1,146,429.248V303.734a62.942,62.942,0,0,1,62.757-62.757H731.733V123.83c0-37.759,46.106-54.6,71.271-29.433l257.3,257.3a20.9,20.9,0,0,1,0,29.58L803,638.585c-25.165,25.166-71.271,8.326-71.271-29.433Z" transform="translate(-146 -82.447)" fill-rule="evenodd" fill="url(#linear-gradient)"/>
          </g>
        </g>
        <g id="그룹_3233" data-name="그룹 3233" transform="translate(260 3628)">
          <circle id="타원_136" data-name="타원 136" cx="168.5" cy="168.5" r="168.5" fill="url(#linear-gradient-2)"/>
          <circle id="타원_137" data-name="타원 137" cx="152.5" cy="152.5" r="152.5" transform="translate(16 16)" fill="#fff"/>
        </g>
        <g id="그룹_3234" data-name="그룹 3234" transform="translate(614.418 3628)">
          <circle id="타원_136-2" data-name="타원 136" cx="168.5" cy="168.5" r="168.5" transform="translate(-0.418)" fill="url(#linear-gradient-3)"/>
          <circle id="타원_137-2" data-name="타원 137" cx="152.5" cy="152.5" r="152.5" transform="translate(15.582 16)" fill="#fff"/>
        </g>
        <g id="그룹_3235" data-name="그룹 3235" transform="translate(968.836 3628)">
          <circle id="타원_136-3" data-name="타원 136" cx="168.5" cy="168.5" r="168.5" transform="translate(0.164)" fill="url(#linear-gradient-4)"/>
          <circle id="타원_137-3" data-name="타원 137" cx="152.5" cy="152.5" r="152.5" transform="translate(16.164 16)" fill="#fff"/>
        </g>
        <g id="그룹_3236" data-name="그룹 3236" transform="translate(1323.254 3628)">
          <circle id="타원_136-4" data-name="타원 136" cx="168.5" cy="168.5" r="168.5" transform="translate(-0.254)" fill="url(#linear-gradient-5)"/>
          <circle id="타원_137-4" data-name="타원 137" cx="152.5" cy="152.5" r="152.5" transform="translate(15.746 16)" fill="#fff"/>
        </g>
        <g id="그룹_3226" data-name="그룹 3226" transform="translate(-639 3415)" opacity="0.9">
          <text id="PLAN" transform="translate(1069 450)" fill="#207bff" font-size="50" font-family="Pretendard-Bold, Pretendard" font-weight="700"><tspan x="-65.356" y="0">PLAN</tspan></text>
          <text id="DO" transform="translate(1418 450)" fill="#0454ce" font-size="50" font-family="Pretendard-Bold, Pretendard" font-weight="700"><tspan x="-36.353" y="0">DO</tspan></text>
          <text id="CHECK" transform="translate(1771 450)" fill="#03419f" font-size="50" font-family="Pretendard-Bold, Pretendard" font-weight="700"><tspan x="-85.474" y="0">CHECK</tspan></text>
          <text id="ACTION" transform="translate(2129 450)" fill="#022e6e" font-size="50" font-family="Pretendard-Bold, Pretendard" font-weight="700"><tspan x="-94.458" y="0">ACTION</tspan></text>
        </g>
        <g id="target" transform="translate(1445.263 3713)" opacity="0.73">
          <g id="그룹_3228" data-name="그룹 3228" transform="translate(6.097 9.403)">
            <g id="그룹_3227" data-name="그룹 3227" transform="translate(0)">
              <path id="패스_414" data-name="패스 414" d="M75.491,79.1l-1.616,1.617a8.48,8.48,0,0,1-.649.578A33.556,33.556,0,1,1,53.593,63.256h0a8.889,8.889,0,0,1,1.237-1.571l.83-.831A36.454,36.454,0,1,0,75.491,79.1Z" transform="translate(-6.097 -58.434)"/>
            </g>
          </g>
          <g id="그룹_3230" data-name="그룹 3230" transform="translate(17.933 20.253)">
            <g id="그룹_3229" data-name="그룹 3229">
              <path id="패스_415" data-name="패스 415" d="M126.684,140.138h-3.317a21.7,21.7,0,1,1-9.656-9.177v-3.242a24.656,24.656,0,1,0,12.973,12.418Z" transform="translate(-79.654 -125.86)"/>
            </g>
          </g>
          <g id="그룹_3232" data-name="그룹 3232" transform="translate(30.758 0)">
            <g id="그룹_3231" data-name="그룹 3231" transform="translate(0 0)">
              <path id="패스_416" data-name="패스 416" d="M214.887,12.2a2.232,2.232,0,0,0-.972-.949,3.16,3.16,0,0,0-1.14-.32l-7.044-.7a1.056,1.056,0,0,1-.835-.836l-.705-7.046a2.916,2.916,0,0,0-.55-1.5,2.157,2.157,0,0,0-.718-.608A2.091,2.091,0,0,0,201.968,0a2.372,2.372,0,0,0-1.083.275,3.318,3.318,0,0,0-.8.6L185.864,15.093a6.363,6.363,0,0,0-1.305,2.044,6.4,6.4,0,0,0-.523,2.369v8.119a3.43,3.43,0,0,0,.38,1.539l-6.117,6.3a11.8,11.8,0,1,0,2.127,2.056L186.762,31a3.551,3.551,0,0,0,.728.08h8.124a6.943,6.943,0,0,0,4.414-1.828l14.214-14.213a3.308,3.308,0,0,0,.6-.8,2.357,2.357,0,0,0,.275-1.082A2.043,2.043,0,0,0,214.887,12.2Zm-43.7,41.59A8.877,8.877,0,1,1,176.22,37.6l-6.093,6.275a1.48,1.48,0,0,0,2.123,2.061l6.089-6.27a8.86,8.86,0,0,1-7.151,14.114ZM187,26.509v-7a3.563,3.563,0,0,1,.3-1.237,3.519,3.519,0,0,1,.663-1.084l13.4-13.4.59,5.9a3.7,3.7,0,0,0,.306,1.11Zm10.939.649a3.6,3.6,0,0,1-1.084.663,3.562,3.562,0,0,1-1.237.3h-6.058l14.8-15.245a3.725,3.725,0,0,0,1.075.293l5.9.589Z" transform="translate(-159.352 0)"/>
            </g>
          </g>
        </g>
        <g id="inspection" transform="translate(1091.31 3712.566)" opacity="0.73">
          <path id="패스_417" data-name="패스 417" d="M54.624.434A29.2,29.2,0,0,0,38.556,5.245L32.078,1.51a2.8,2.8,0,0,0-2.112-.266,2.741,2.741,0,0,0-1.69,1.3l-2.1,3.634a18.6,18.6,0,0,0-4.691,0L19.4,2.561a2.754,2.754,0,0,0-1.7-1.318,2.8,2.8,0,0,0-2.125.274L8.3,5.718A2.795,2.795,0,0,0,7.284,9.544l2.1,3.632a17.718,17.718,0,0,0-2.338,4.052h-4.2a2.8,2.8,0,0,0-2.8,2.8v8.4a2.8,2.8,0,0,0,2.8,2.8h4.2a17.743,17.743,0,0,0,2.338,4.052L7.288,38.9A2.794,2.794,0,0,0,8.3,42.735l7.29,4.206a2.8,2.8,0,0,0,2.112.266,2.741,2.741,0,0,0,1.69-1.3l2.1-3.634a18.475,18.475,0,0,0,4.691,0l1.491,2.592-1.7,1.705a4.137,4.137,0,0,0-.807,4.762L20.826,55.66a4.3,4.3,0,0,0-4.753.795L1.229,71.3a4.2,4.2,0,0,0,0,5.938l5.937,5.937a4.2,4.2,0,0,0,5.938,0L27.949,68.33a4.192,4.192,0,0,0,.808-4.766l4.32-4.321a4.135,4.135,0,0,0,3.353.12v1.249a2.8,2.8,0,0,0,2.8,2.8h4.2a17.715,17.715,0,0,0,2.338,4.051l-2.091,3.626a2.8,2.8,0,0,0,1.013,3.835l7.29,4.206a2.8,2.8,0,0,0,2.112.266,2.738,2.738,0,0,0,1.69-1.3l2.1-3.634a18.6,18.6,0,0,0,4.691,0l2.088,3.621a2.75,2.75,0,0,0,1.7,1.318,2.8,2.8,0,0,0,2.125-.274l7.28-4.2A2.795,2.795,0,0,0,76.772,71.1l-2.095-3.633a17.735,17.735,0,0,0,2.337-4.051h4.2a2.8,2.8,0,0,0,2.8-2.8v-8.4a2.8,2.8,0,0,0-2.8-2.8h-4.2c-.053-.13-.127-.264-.185-.4A29.348,29.348,0,0,0,54.624.434Zm26.59,29.389A26.569,26.569,0,0,1,68.742,52.316c-.031.023-.07.035-.1.06A25.836,25.836,0,0,1,51.017,56.14a1.394,1.394,0,0,0-.673-.125c-.018,0-.031.012-.048.015A26.576,26.576,0,1,1,81.214,29.823Zm-12.6,26.591a8.386,8.386,0,0,1-16.335,2.68c.774.062,1.55.119,2.34.119a29.2,29.2,0,0,0,13.939-3.524C68.583,55.931,68.618,56.172,68.618,56.414ZM25.234,29.823c0,.894.056,1.773.134,2.646a8.392,8.392,0,1,1-1.533-16.641,8.232,8.232,0,0,1,4.349,1.247,29.164,29.164,0,0,0-2.949,12.748Zm-4.227,9.54a1.392,1.392,0,0,0-1.465.677l-2.566,4.469-7.269-4.2,2.575-4.464a1.4,1.4,0,0,0-.149-1.609,15.051,15.051,0,0,1-2.806-4.866,1.4,1.4,0,0,0-1.322-.942H2.842v-8.4H8.006a1.4,1.4,0,0,0,1.322-.941,15.055,15.055,0,0,1,2.807-4.866,1.4,1.4,0,0,0,.149-1.609L9.7,8.14l7.268-4.194L19.543,8.41a1.388,1.388,0,0,0,1.465.677,15.792,15.792,0,0,1,5.653,0,1.4,1.4,0,0,0,1.465-.676l2.566-4.469L36.08,7.048A29.594,29.594,0,0,0,29.53,14.6a11.014,11.014,0,0,0-5.7-1.572,11.2,11.2,0,1,0,1.923,22.218,28.988,28.988,0,0,0,1.095,4.109,1.449,1.449,0,0,0-.191.007,15.788,15.788,0,0,1-5.652,0Zm9.9,18.086L26.959,61.4l-1.98-1.979L23,57.445l3.959-3.958.087.087ZM11.125,81.194a1.4,1.4,0,0,1-1.98,0L3.208,75.256a1.4,1.4,0,0,1,0-1.978L5.187,71.3,13.1,79.216ZM25.97,66.351,15.083,77.237,7.167,69.32,18.052,58.434a1.433,1.433,0,0,1,1.979,0l5.938,5.938A1.4,1.4,0,0,1,25.97,66.351ZM33.9,56.474l-.012-.019-4.861-4.861-1.079-1.082a1.393,1.393,0,0,1,0-1.968l2.309-2.31a29.624,29.624,0,0,0,7.9,7.919l-2.3,2.306a1.393,1.393,0,0,1-1.964.014Zm47.316-4.258v8.4H76.05a1.4,1.4,0,0,0-1.322.941,15.043,15.043,0,0,1-2.805,4.866,1.4,1.4,0,0,0-.149,1.609L74.357,72.5l-7.268,4.194-2.575-4.465a1.4,1.4,0,0,0-1.465-.677,15.758,15.758,0,0,1-5.652,0,1.394,1.394,0,0,0-1.465.677L53.364,76.7l-7.269-4.2,2.575-4.465a1.4,1.4,0,0,0-.149-1.609,15.026,15.026,0,0,1-2.806-4.866,1.4,1.4,0,0,0-1.322-.942H39.229V57.044l1.385-1.391A29.179,29.179,0,0,0,49.267,58.7a11.179,11.179,0,1,0,21.88-4.59,29.531,29.531,0,0,0,3.559-2.888c.008.025.02.052.029.076a1.4,1.4,0,0,0,1.314.918Zm0,0" transform="translate(0 0)"/>
          <path id="패스_418" data-name="패스 418" d="M185.571,54.031c-.01.033,0,.064-.008.1a23.745,23.745,0,0,0,6.728,19.939c.3.3.618.559.927.838.008.011.023.018.031.028a23.773,23.773,0,1,0,30.6-36.351,1.389,1.389,0,0,0-.2-.147,23.725,23.725,0,0,0-38.068,15.581Zm21.258,24.061a11.872,11.872,0,0,1,15.048-4.208A20.972,20.972,0,0,1,206.829,78.092ZM224.123,71.9a14.69,14.69,0,0,0-20.238,5.643,20.812,20.812,0,0,1-7.736-3.809,23.712,23.712,0,0,1,2.2-3.066,1.4,1.4,0,0,0,.153-1.611l-3.977-6.9a.755.755,0,0,1,.273-1.038l11.231-6.488a.758.758,0,0,1,.581-.076.74.74,0,0,1,.453.355l3.974,6.9a1.412,1.412,0,0,0,1.463.678,25.064,25.064,0,0,1,9.017,0,1.4,1.4,0,0,0,1.462-.678l3.979-6.907a.73.73,0,0,1,.448-.348.758.758,0,0,1,.575.074l2.048,1.177a20.93,20.93,0,0,1-5.9,16.1Zm5.351-19.647-.107-.061a3.554,3.554,0,0,0-2.694-.345,3.508,3.508,0,0,0-2.149,1.66l-3.492,6.061a27.612,27.612,0,0,0-8.058,0l-3.486-6.053a3.512,3.512,0,0,0-2.154-1.668,3.554,3.554,0,0,0-2.7.35L193.391,58.7a3.553,3.553,0,0,0-1.292,4.861l3.489,6.057a26.479,26.479,0,0,0-1.559,2.207,20.915,20.915,0,0,1-5.85-15.58l2.308.668a3.593,3.593,0,0,0,.89.113,3.548,3.548,0,0,0,3.429-2.67l1.757-6.762a27.935,27.935,0,0,0,3.965-.793,28.2,28.2,0,0,0,3.8-1.352l4.973,4.912a3.578,3.578,0,0,0,5.037-.021l8.674-8.794c.318.282.643.552.949.858a20.836,20.836,0,0,1,5.517,9.857ZM194.27,42.4A21.014,21.014,0,0,1,220.791,39.8l-8.436,8.551a.757.757,0,0,1-1.084.016l-5.668-5.6a1.4,1.4,0,0,0-1.589-.266,25.514,25.514,0,0,1-4.233,1.592,25.231,25.231,0,0,1-4.456.809,1.4,1.4,0,0,0-1.228,1.042l-2,7.706a.742.742,0,0,1-.341.459.734.734,0,0,1-.53.093l-2.736-.791A20.863,20.863,0,0,1,194.27,42.4Zm0,0" transform="translate(-154.446 -27.508)"/>
        </g>
        <g id="paper" transform="translate(739.035 3710.95)" opacity="0.73">
          <path id="패스_419" data-name="패스 419" d="M54.372,16.5V11.46a2.621,2.621,0,0,0-2.618-2.618H26.9A2.621,2.621,0,0,0,24.28,11.46V16.5A2.621,2.621,0,0,0,26.9,19.118H51.754A2.621,2.621,0,0,0,54.372,16.5Zm-27.513,0,.039-5.079H51.754a.039.039,0,0,1,.039.039l-.039,5.079Z" transform="translate(6.167 1.965)"/>
          <path id="패스_420" data-name="패스 420" d="M29.571,27.438a1.289,1.289,0,0,0,0,2.579H52.745a1.289,1.289,0,0,0,0-2.579Z" transform="translate(7.325 7.345)"/>
          <path id="패스_421" data-name="패스 421" d="M46.7,32.582H29.571a1.289,1.289,0,1,0,0,2.579H46.7a1.289,1.289,0,0,0,0-2.579Z" transform="translate(7.325 8.834)"/>
          <path id="패스_422" data-name="패스 422" d="M39.776,46.732H29.571a1.289,1.289,0,0,0,0,2.579H39.776a1.289,1.289,0,0,0,0-2.579Z" transform="translate(7.325 12.928)"/>
          <path id="패스_423" data-name="패스 423" d="M37.113,51.876H29.571a1.289,1.289,0,0,0,0,2.579h7.542a1.289,1.289,0,0,0,0-2.579Z" transform="translate(7.325 14.416)"/>
          <path id="패스_424" data-name="패스 424" d="M24.182,24.035H13.531A3.67,3.67,0,0,0,9.865,27.7V38.353a3.67,3.67,0,0,0,3.667,3.667H24.182a3.67,3.67,0,0,0,3.667-3.667V27.7a3.67,3.67,0,0,0-3.667-3.666ZM25.27,38.353a1.09,1.09,0,0,1-1.088,1.088H13.531a1.09,1.09,0,0,1-1.088-1.088V27.7a1.09,1.09,0,0,1,1.088-1.088H24.182A1.09,1.09,0,0,1,25.27,27.7Z" transform="translate(1.996 6.361)"/>
          <path id="패스_425" data-name="패스 425" d="M24.182,43.329H13.531A3.671,3.671,0,0,0,9.865,47v10.65a3.67,3.67,0,0,0,3.667,3.667H24.182a3.67,3.67,0,0,0,3.667-3.667V47A3.671,3.671,0,0,0,24.182,43.329ZM25.27,57.647a1.09,1.09,0,0,1-1.088,1.088H13.531a1.09,1.09,0,0,1-1.088-1.088V47a1.09,1.09,0,0,1,1.088-1.089H24.182A1.09,1.09,0,0,1,25.27,47Z" transform="translate(1.996 11.943)"/>
          <path id="패스_426" data-name="패스 426" d="M19.207,29.248l-2.492,1.837-.564-.787a1.289,1.289,0,0,0-2.1,1.5l1.326,1.848a1.29,1.29,0,0,0,1.813.286l3.543-2.613a1.289,1.289,0,1,0-1.531-2.075Z" transform="translate(3.139 7.796)"/>
          <path id="패스_427" data-name="패스 427" d="M19.343,48.542l-2.492,1.837-.564-.786a1.289,1.289,0,1,0-2.1,1.5l1.326,1.847a1.291,1.291,0,0,0,.846.523,1.371,1.371,0,0,0,.2.015,1.289,1.289,0,0,0,.766-.252l3.543-2.613a1.289,1.289,0,1,0-1.531-2.075Z" transform="translate(3.178 13.379)"/>
          <path id="패스_428" data-name="패스 428" d="M79.86,29.693a7.675,7.675,0,0,0-10.7,2.231l-.271.413V13.577A11.539,11.539,0,0,0,57.362,2.05H23.7a11.562,11.562,0,0,0-8.033,3.275L6.446,14.286a11.476,11.476,0,0,0-3.481,8.252V72.912A11.539,11.539,0,0,0,14.491,84.438h42.87A11.539,11.539,0,0,0,68.888,72.912V59.528l12.88-19.675a7.442,7.442,0,0,0-1.908-10.16ZM8.251,16.129,17.47,7.169a8.438,8.438,0,0,1,3.069-1.934V17.187a1.97,1.97,0,0,1-1.973,1.96H6.227a9.058,9.058,0,0,1,2.024-3.017ZM66.309,72.912a8.953,8.953,0,0,1-8.948,8.948H14.491a8.953,8.953,0,0,1-8.948-8.948V22.537q0-.406.039-.812H18.566a4.548,4.548,0,0,0,4.551-4.538V4.654c.6-.04,33.639-.026,34.245-.026a8.961,8.961,0,0,1,8.948,8.948V36.282L54.9,53.713a10.291,10.291,0,0,0-1.637,4.925l-.529,8.535a2.184,2.184,0,0,0,3.159,2.063L63.5,65.343a10.015,10.015,0,0,0,2.811-2.166v9.735ZM55.995,57.659l7.3,4.783a6.556,6.556,0,0,1-.967.606L55.35,66.607l.49-7.813a5.5,5.5,0,0,1,.155-1.1Zm9.193,2.811a.342.342,0,0,1-.064.077l-8.136-5.325c.026-.039.039-.064.064-.1l11.63-17.754,8.149,5.325ZM79.615,38.435l-1.38,2.115-8.123-5.325,1.3-2.024.013-.013a5.094,5.094,0,0,1,6.949-1.392,4.876,4.876,0,0,1,1.238,6.64Z"/>
        </g>
        <g id="project-management" transform="translate(391.231 3712.177)" opacity="0.73">
          <path id="패스_429" data-name="패스 429" d="M71.25,17.825H68.508V15.053A1.25,1.25,0,0,0,67.259,13.8H63.553A1.25,1.25,0,0,0,62.3,15.053v2.771H54.439V15.053A1.25,1.25,0,0,0,53.191,13.8H49.484a1.25,1.25,0,0,0-1.248,1.248v2.771H40.37V15.053A1.25,1.25,0,0,0,39.122,13.8H35.415a1.25,1.25,0,0,0-1.248,1.248v2.771H26.3V15.053A1.25,1.25,0,0,0,25.053,13.8H21.347A1.25,1.25,0,0,0,20.1,15.053v2.771H12.233V15.053A1.25,1.25,0,0,0,10.984,13.8H7.278A1.25,1.25,0,0,0,6.03,15.053v2.771H3.287A3.291,3.291,0,0,0,0,21.112V81.035a3.291,3.291,0,0,0,3.287,3.287H18.1a1.092,1.092,0,1,0,0-2.184H14.244V54.175h9.875V82.139H23.2a1.092,1.092,0,0,0,0,2.184H71.25a3.291,3.291,0,0,0,3.287-3.287V21.112a3.291,3.291,0,0,0-3.287-3.287Zm-6.762-1.836h1.836v5.856H64.488Zm-14.069,0h1.836v5.856H50.419Zm-14.069,0h1.836v5.856H36.351Zm-14.069,0h1.836v5.856H22.282Zm-14.069,0h1.836v5.856H8.213Zm-4.926,4.02H6.029V22.78a1.25,1.25,0,0,0,1.248,1.248h3.706a1.25,1.25,0,0,0,1.248-1.248V20.008H20.1V22.78a1.25,1.25,0,0,0,1.248,1.248h3.707A1.25,1.25,0,0,0,26.3,22.78V20.008h7.865V22.78a1.25,1.25,0,0,0,1.248,1.248h3.707A1.25,1.25,0,0,0,40.37,22.78V20.008h7.865V22.78a1.25,1.25,0,0,0,1.248,1.248H53.19a1.25,1.25,0,0,0,1.248-1.248V20.008H62.3V22.78a1.25,1.25,0,0,0,1.248,1.248h3.706a1.25,1.25,0,0,0,1.248-1.248V20.008h2.742a1.1,1.1,0,0,1,1.1,1.1v6.762h-51.7a1.092,1.092,0,1,0,0,2.184h3.466v9.875H20.273V35.153a1.251,1.251,0,0,0-1.25-1.25H14.244V30.058h1.313a1.092,1.092,0,0,0,0-2.184H2.184V21.112a1.1,1.1,0,0,1,1.1-1.1Zm55.171,56.1V72.262h7.865v3.845Zm7.865-6.029H54.438V66.233H66.323ZM53.5,64.05a1.251,1.251,0,0,0-1.25,1.25v5.713a1.251,1.251,0,0,0,1.25,1.25h2.77v4.779a1.251,1.251,0,0,0,1.25,1.25h2.77v3.847H50.419V60.2H55.2a1.251,1.251,0,0,0,1.25-1.25V53.241a1.251,1.251,0,0,0-1.25-1.25H50.419V30.058h9.875V64.05ZM14.244,51.991V48.146h15.9v3.846Zm3.846-15.9v3.846H6.2V36.087Zm-7.865,6.029H24.118v3.846H10.224ZM36.177,30.058V51.991H32.331V47.212a1.251,1.251,0,0,0-1.25-1.25H26.3v-15.9Zm9.529,21.934a1.092,1.092,0,1,0,0,2.184h8.558V58.02H32.331V54.175h8.28a1.092,1.092,0,0,0,0-2.184h-2.25V30.058h9.875V51.991ZM32.331,60.2h9.875V64.05H32.331ZM43.14,66.233a1.251,1.251,0,0,0,1.25-1.25V60.2h3.846V82.139H38.361V66.233ZM3.287,82.139a1.1,1.1,0,0,1-1.1-1.1V30.058h9.877V33.9H5.271a1.251,1.251,0,0,0-1.25,1.25v5.713a1.251,1.251,0,0,0,1.25,1.25H8.04V46.9a1.251,1.251,0,0,0,1.25,1.25h2.77c0,5.96,0,9.86,0,33.993ZM26.3,54.175h3.845V64.983a1.251,1.251,0,0,0,1.25,1.25h4.78V82.139H26.3V54.175ZM72.353,81.035a1.1,1.1,0,0,1-1.1,1.1H62.478V78.292h4.779a1.251,1.251,0,0,0,1.25-1.25V65.3a1.251,1.251,0,0,0-1.25-1.25H62.478V30.058h9.875Z"/>
        </g>
      </g>
    </g>
  </g>
</svg>
