<svg width="1292" height="734" viewBox="0 0 1292 734" fill="none" xmlns="http://www.w3.org/2000/svg">
<circle cx="646" cy="362.361" r="249.013" fill="white"/>
<path d="M2 95.3154H318.848L420.171 207.801" stroke="#24C2FF" stroke-width="3.43467" stroke-linecap="round"/>
<path d="M2 636.275H301.675L420.171 515.203" stroke="#000D51" stroke-width="3.43467" stroke-linecap="round"/>
<path d="M1290 95.3154H973.152L871.829 207.801" stroke="#005EB8" stroke-width="3.43467" stroke-linecap="round"/>
<path d="M1290 636.275H990.325L871.829 515.203" stroke="#012391" stroke-width="3.43467" stroke-linecap="round"/>
<rect x="2" y="0.00341797" width="316.848" height="84.1493" rx="13.7387" fill="white"/>
<path d="M23.4963 35.0781V22.3516H32.0393V24.5312H26.1331V27.625H31.5999V29.8047H26.1331V32.8984H32.0569V35.0781H23.4963ZM39.4924 28.3633C39.387 27.6953 38.7893 27.2559 37.928 27.2559C37.0842 27.2559 36.4338 27.6602 36.4514 28.2402C36.4338 28.6621 36.7854 28.9961 37.6819 29.1895L39.387 29.541C41.2327 29.9277 42.1292 30.7539 42.1467 32.125C42.1292 34.0059 40.4417 35.2715 37.9104 35.2715C35.3264 35.2715 33.8147 34.1113 33.6038 32.248H36.2229C36.3459 33.0039 36.9612 33.3906 37.9104 33.3906C38.8596 33.3906 39.4924 33.0039 39.4924 32.3887C39.4924 31.8965 39.0881 31.5977 38.1917 31.4043L36.6096 31.0879C34.7991 30.7363 33.8499 29.7871 33.8674 28.3809C33.8499 26.5527 35.4319 25.4102 37.8928 25.4102C40.301 25.4102 41.7952 26.5527 41.9358 28.3633H39.4924ZM48.7737 25.5332V27.4844H46.9807V32.1426C46.9807 32.8984 47.3499 33.0918 47.8772 33.1094C48.1409 33.1094 48.5979 33.0918 48.9143 33.0566V35.1133C48.6331 35.166 48.176 35.2012 47.5256 35.2012C45.6448 35.2012 44.3616 34.3574 44.3792 32.5117V27.4844H43.0608V25.5332H44.3792V23.248H46.9807V25.5332H48.7737ZM49.9514 32.4062C49.9514 30.2793 51.6741 29.5762 53.5022 29.4707C54.1877 29.4268 55.4709 29.3652 55.8752 29.3477V28.5742C55.8577 27.7832 55.3127 27.3086 54.3459 27.3086C53.467 27.3086 52.9045 27.7129 52.7639 28.3633H50.2854C50.4436 26.7109 51.885 25.4102 54.4163 25.4102C56.4905 25.4102 58.4592 26.3418 58.4592 28.6445V35.0781H55.9983V33.7598H55.928C55.4534 34.6387 54.5569 35.2539 53.1331 35.2539C51.3049 35.2539 49.9514 34.3047 49.9514 32.4062ZM52.4475 32.3359C52.4475 33.0742 53.0452 33.4609 53.8713 33.4609C55.0491 33.4609 55.8928 32.6699 55.8752 31.668V30.9648C55.4797 30.9824 54.3723 31.0439 53.9241 31.0879C53.0276 31.1758 52.4475 31.5977 52.4475 32.3359ZM60.4983 35.0781V22.3516H63.0999V27.1328H63.1702C63.5393 26.3594 64.2952 25.4102 65.8948 25.4102C68.0042 25.4102 69.7795 27.0449 69.7795 30.3145C69.7795 33.4961 68.0745 35.2363 65.8948 35.2363C64.3303 35.2363 63.5393 34.3398 63.1702 33.5488H63.0647V35.0781H60.4983ZM63.0471 30.2969C63.0471 32.0195 63.7854 33.1621 65.0686 33.1621C66.4045 33.1621 67.1077 31.9844 67.1077 30.2969C67.1077 28.627 66.4045 27.4844 65.0686 27.4844C63.7678 27.4844 63.0471 28.5742 63.0471 30.2969ZM74.051 22.3516V35.0781H71.4495V22.3516H74.051ZM76.0725 35.0781V25.5332H78.6741V35.0781H76.0725ZM77.3733 24.2852C76.5823 24.2852 75.9495 23.6875 75.9495 22.9668C75.9495 22.2285 76.5823 21.6309 77.3733 21.6309C78.1467 21.6309 78.7795 22.2285 78.7795 22.9668C78.7795 23.6875 78.1467 24.2852 77.3733 24.2852ZM86.1448 28.3633C86.0393 27.6953 85.4417 27.2559 84.5803 27.2559C83.7366 27.2559 83.0862 27.6602 83.1038 28.2402C83.0862 28.6621 83.4377 28.9961 84.3342 29.1895L86.0393 29.541C87.885 29.9277 88.7815 30.7539 88.7991 32.125C88.7815 34.0059 87.094 35.2715 84.5627 35.2715C81.9788 35.2715 80.467 34.1113 80.2561 32.248H82.8752C82.9983 33.0039 83.6135 33.3906 84.5627 33.3906C85.512 33.3906 86.1448 33.0039 86.1448 32.3887C86.1448 31.8965 85.7405 31.5977 84.844 31.4043L83.262 31.0879C81.4514 30.7363 80.5022 29.7871 80.5198 28.3809C80.5022 26.5527 82.0842 25.4102 84.5452 25.4102C86.9534 25.4102 88.4475 26.5527 88.5881 28.3633H86.1448ZM93.0002 29.5586V35.0781H90.3987V22.3516H92.9299V27.2031H93.0354C93.4749 26.0957 94.4417 25.4102 95.8831 25.4102C97.8694 25.4102 99.1877 26.7461 99.1877 28.9961V35.0781H96.5862V29.4531C96.5862 28.2754 95.9534 27.5723 94.8635 27.5723C93.7737 27.5723 93.0002 28.293 93.0002 29.5586ZM101.192 35.0781V25.5332H103.67V27.2031H103.776C104.18 26.0957 105.147 25.4102 106.43 25.4102C107.748 25.4102 108.715 26.0957 109.031 27.2031H109.119C109.524 26.1133 110.596 25.4102 112.002 25.4102C113.778 25.4102 115.008 26.5879 115.008 28.6621V35.0781H112.406V29.1719C112.406 28.082 111.774 27.5547 110.912 27.5547C109.928 27.5547 109.365 28.2402 109.365 29.2422V35.0781H106.834V29.1016C106.834 28.1523 106.237 27.5547 105.358 27.5547C104.479 27.5547 103.793 28.2578 103.793 29.3477V35.0781H101.192ZM121.336 35.2715C118.418 35.2715 116.625 33.373 116.625 30.3496C116.625 27.3965 118.436 25.4102 121.231 25.4102C123.744 25.4102 125.713 26.9922 125.713 30.2441V30.9824H119.192C119.192 32.4238 120.053 33.3203 121.389 33.3203C122.268 33.3203 122.901 32.9336 123.164 32.3535H125.643C125.274 34.1113 123.692 35.2715 121.336 35.2715ZM119.192 29.3477H123.252C123.252 28.1875 122.444 27.3613 121.283 27.3613C120.088 27.3613 119.236 28.249 119.192 29.3477ZM129.949 29.5586V35.0781H127.348V25.5332H129.826V27.2031H129.932C130.371 26.0957 131.391 25.4102 132.797 25.4102C134.783 25.4102 136.102 26.7637 136.084 28.9961V35.0781H133.5V29.4531C133.5 28.2754 132.85 27.5723 131.778 27.5723C130.688 27.5723 129.949 28.293 129.949 29.5586ZM143.133 25.5332V27.4844H141.34V32.1426C141.34 32.8984 141.709 33.0918 142.237 33.1094C142.5 33.1094 142.957 33.0918 143.274 33.0566V35.1133C142.992 35.166 142.535 35.2012 141.885 35.2012C140.004 35.2012 138.721 34.3574 138.739 32.5117V27.4844H137.42V25.5332H138.739V23.248H141.34V25.5332H143.133ZM153.205 35.2715C150.323 35.2715 148.53 33.2852 148.53 30.332C148.53 27.3789 150.323 25.4102 153.205 25.4102C156.088 25.4102 157.899 27.3789 157.899 30.332C157.899 33.2852 156.088 35.2715 153.205 35.2715ZM153.223 33.25C154.559 33.25 155.244 32.002 155.244 30.332C155.244 28.6445 154.559 27.3965 153.223 27.3965C151.869 27.3965 151.166 28.6445 151.166 30.332C151.166 32.002 151.869 33.25 153.223 33.25ZM164.614 25.5332V27.4844H162.715V35.0781H160.114V27.4844H158.76V25.5332H160.114V24.8125C160.114 22.8086 161.326 21.7539 163.242 21.7539C163.84 21.7539 164.332 21.8066 164.789 21.9121V23.8809C164.42 23.8457 164.139 23.8281 163.998 23.8281C163.155 23.8281 162.715 24.1621 162.715 24.9531V25.5332H164.614ZM170.678 30.2266C170.678 26.9219 171.698 24.1797 173.385 21.8066H175.864C174.651 23.5645 173.385 27.0801 173.385 30.2266C173.385 33.3906 174.651 36.9062 175.864 38.6641H173.385C171.698 36.291 170.678 33.5312 170.678 30.2266ZM177.358 35.0781V22.3516H185.901V24.5312H179.994V27.625H185.461V29.8047H179.994V32.8984H185.918V35.0781H177.358ZM194.865 25.9902C194.76 24.9883 193.951 24.3906 192.668 24.3906C191.332 24.3906 190.594 25.0059 190.576 25.8496C190.559 26.7637 191.526 27.1855 192.615 27.4316L193.758 27.7129C195.938 28.2051 197.573 29.3125 197.573 31.4395C197.573 33.7773 195.744 35.2539 192.651 35.2539C189.574 35.2539 187.606 33.8301 187.535 31.1055H190.102C190.19 32.3887 191.209 33.0391 192.615 33.0391C194.004 33.0391 194.901 32.3887 194.901 31.4395C194.901 30.5781 194.11 30.1738 192.721 29.8223L191.332 29.4883C189.188 28.9609 187.869 27.8887 187.869 26.0254C187.869 23.7051 189.908 22.1758 192.686 22.1758C195.498 22.1758 197.362 23.7402 197.397 25.9902H194.865ZM199.295 35.0781V22.3516H201.932V27.625H207.451V22.3516H210.106V35.0781H207.451V29.8047H201.932V35.0781H199.295ZM216.785 30.2266C216.785 33.5312 215.766 36.291 214.078 38.6641H211.6C212.813 36.9062 214.078 33.3906 214.078 30.2266C214.078 27.0801 212.813 23.5645 211.6 21.8066H214.078C215.766 24.1797 216.785 26.9219 216.785 30.2266ZM23.4963 62.0781V49.3516H28.4885C31.3889 49.3516 33.0413 51.127 33.0413 53.6406C33.0413 56.1895 31.3538 57.9297 28.4182 57.9297H26.1331V62.0781H23.4963ZM26.1331 55.8027H27.9963C29.5608 55.8027 30.3167 54.9238 30.3167 53.6406C30.3167 52.375 29.5608 51.5137 27.9963 51.5137H26.1331V55.8027ZM34.6584 62.0781V52.5332H37.1721V54.1855H37.2776C37.6292 53.0078 38.5081 52.3926 39.5803 52.3926C39.844 52.3926 40.178 52.4277 40.4065 52.4805V54.8008C40.1604 54.7305 39.6682 54.6602 39.2991 54.6602C38.1213 54.6602 37.26 55.4863 37.26 56.6465V62.0781H34.6584ZM45.6975 62.2715C42.7795 62.2715 40.9866 60.373 40.9866 57.3496C40.9866 54.3965 42.7971 52.4102 45.592 52.4102C48.1057 52.4102 50.0745 53.9922 50.0745 57.2441V57.9824H43.553C43.553 59.4238 44.4143 60.3203 45.7502 60.3203C46.6292 60.3203 47.262 59.9336 47.5256 59.3535H50.0042C49.635 61.1113 48.053 62.2715 45.6975 62.2715ZM43.553 56.3477H47.6135C47.6135 55.1875 46.8049 54.3613 45.6448 54.3613C44.4495 54.3613 43.5969 55.249 43.553 56.3477ZM60.3049 52.5332L56.9475 62.0781H54.0295L50.6897 52.5332H53.4319L55.4358 59.3887H55.5413L57.5452 52.5332H60.3049ZM65.5784 62.2715C62.6604 62.2715 60.8674 60.373 60.8674 57.3496C60.8674 54.3965 62.678 52.4102 65.4729 52.4102C67.9866 52.4102 69.9553 53.9922 69.9553 57.2441V57.9824H63.4338C63.4338 59.4238 64.2952 60.3203 65.6311 60.3203C66.51 60.3203 67.1428 59.9336 67.4065 59.3535H69.885C69.5159 61.1113 67.9338 62.2715 65.5784 62.2715ZM63.4338 56.3477H67.4944C67.4944 55.1875 66.6858 54.3613 65.5256 54.3613C64.3303 54.3613 63.4778 55.249 63.4338 56.3477ZM74.1917 56.5586V62.0781H71.5901V52.5332H74.0686V54.2031H74.1741C74.6135 53.0957 75.6331 52.4102 77.0393 52.4102C79.0256 52.4102 80.344 53.7637 80.3264 55.9961V62.0781H77.7424V56.4531C77.7424 55.2754 77.092 54.5723 76.0198 54.5723C74.9299 54.5723 74.1917 55.293 74.1917 56.5586ZM87.3752 52.5332V54.4844H85.5823V59.1426C85.5823 59.8984 85.9514 60.0918 86.4788 60.1094C86.7424 60.1094 87.1995 60.0918 87.5159 60.0566V62.1133C87.2346 62.166 86.7776 62.2012 86.1272 62.2012C84.2463 62.2012 82.9631 61.3574 82.9807 59.5117V54.4844H81.6624V52.5332H82.9807V50.248H85.5823V52.5332H87.3752ZM89.01 62.0781V52.5332H91.6116V62.0781H89.01ZM90.3108 51.2852C89.5198 51.2852 88.887 50.6875 88.887 49.9668C88.887 49.2285 89.5198 48.6309 90.3108 48.6309C91.0842 48.6309 91.717 49.2285 91.717 49.9668C91.717 50.6875 91.0842 51.2852 90.3108 51.2852ZM97.9221 62.2715C95.0393 62.2715 93.2463 60.2852 93.2463 57.332C93.2463 54.3789 95.0393 52.4102 97.9221 52.4102C100.805 52.4102 102.615 54.3789 102.615 57.332C102.615 60.2852 100.805 62.2715 97.9221 62.2715ZM97.9397 60.25C99.2756 60.25 99.9612 59.002 99.9612 57.332C99.9612 55.6445 99.2756 54.3965 97.9397 54.3965C96.5862 54.3965 95.8831 55.6445 95.8831 57.332C95.8831 59.002 96.5862 60.25 97.9397 60.25ZM106.852 56.5586V62.0781H104.25V52.5332H106.729V54.2031H106.834C107.274 53.0957 108.293 52.4102 109.699 52.4102C111.686 52.4102 113.004 53.7637 112.987 55.9961V62.0781H110.403V56.4531C110.403 55.2754 109.752 54.5723 108.68 54.5723C107.59 54.5723 106.852 55.293 106.852 56.5586ZM119.209 49.3516H122.479L126.012 57.9824H126.153L129.686 49.3516H132.955V62.0781H130.389V53.7461H130.283L126.961 62.0254H125.203L121.881 53.7109H121.776V62.0781H119.209V49.3516ZM134.59 59.4062C134.59 57.2793 136.313 56.5762 138.141 56.4707C138.826 56.4268 140.11 56.3652 140.514 56.3477V55.5742C140.496 54.7832 139.951 54.3086 138.985 54.3086C138.106 54.3086 137.543 54.7129 137.403 55.3633H134.924C135.082 53.7109 136.524 52.4102 139.055 52.4102C141.129 52.4102 143.098 53.3418 143.098 55.6445V62.0781H140.637V60.7598H140.567C140.092 61.6387 139.196 62.2539 137.772 62.2539C135.944 62.2539 134.59 61.3047 134.59 59.4062ZM137.086 59.3359C137.086 60.0742 137.684 60.4609 138.51 60.4609C139.688 60.4609 140.531 59.6699 140.514 58.668V57.9648C140.118 57.9824 139.011 58.0439 138.563 58.0879C137.666 58.1758 137.086 58.5977 137.086 59.3359ZM147.686 56.5586V62.0781H145.084V52.5332H147.563V54.2031H147.668C148.108 53.0957 149.127 52.4102 150.533 52.4102C152.52 52.4102 153.838 53.7637 153.821 55.9961V62.0781H151.237V56.4531C151.237 55.2754 150.586 54.5723 149.514 54.5723C148.424 54.5723 147.686 55.293 147.686 56.5586ZM155.385 59.4062C155.385 57.2793 157.108 56.5762 158.936 56.4707C159.621 56.4268 160.905 56.3652 161.309 56.3477V55.5742C161.291 54.7832 160.746 54.3086 159.78 54.3086C158.901 54.3086 158.338 54.7129 158.198 55.3633H155.719C155.877 53.7109 157.319 52.4102 159.85 52.4102C161.924 52.4102 163.893 53.3418 163.893 55.6445V62.0781H161.432V60.7598H161.362C160.887 61.6387 159.99 62.2539 158.567 62.2539C156.739 62.2539 155.385 61.3047 155.385 59.4062ZM157.881 59.3359C157.881 60.0742 158.479 60.4609 159.305 60.4609C160.483 60.4609 161.326 59.6699 161.309 58.668V57.9648C160.913 57.9824 159.806 58.0439 159.358 58.0879C158.461 58.1758 157.881 58.5977 157.881 59.3359ZM170.168 65.8574C167.531 65.8574 165.914 64.6797 165.756 62.8691H168.323C168.463 63.625 169.184 63.9766 170.221 63.9766C171.434 63.9766 172.242 63.4668 172.242 62.1309V60.3906H172.119C171.768 61.1641 170.924 61.9375 169.395 61.9375C167.233 61.9375 165.51 60.4258 165.51 57.2441C165.51 54.0098 167.285 52.4102 169.395 52.4102C170.994 52.4102 171.768 53.3594 172.119 54.1328H172.225V52.5332H174.809V62.1836C174.809 64.6094 172.875 65.8574 170.168 65.8574ZM170.203 59.9863C171.504 59.9863 172.242 58.9668 172.242 57.2793C172.242 55.5742 171.504 54.4844 170.203 54.4844C168.885 54.4844 168.182 55.627 168.182 57.2793C168.182 58.9316 168.885 59.9863 170.203 59.9863ZM181.155 62.2715C178.237 62.2715 176.444 60.373 176.444 57.3496C176.444 54.3965 178.254 52.4102 181.049 52.4102C183.563 52.4102 185.531 53.9922 185.531 57.2441V57.9824H179.01C179.01 59.4238 179.871 60.3203 181.207 60.3203C182.086 60.3203 182.719 59.9336 182.983 59.3535H185.461C185.092 61.1113 183.51 62.2715 181.155 62.2715ZM179.01 56.3477H183.071C183.071 55.1875 182.262 54.3613 181.102 54.3613C179.906 54.3613 179.054 55.249 179.01 56.3477ZM187.166 62.0781V52.5332H189.645V54.2031H189.75C190.155 53.0957 191.121 52.4102 192.405 52.4102C193.723 52.4102 194.69 53.0957 195.006 54.2031H195.094C195.498 53.1133 196.571 52.4102 197.977 52.4102C199.752 52.4102 200.983 53.5879 200.983 55.6621V62.0781H198.381V56.1719C198.381 55.082 197.748 54.5547 196.887 54.5547C195.903 54.5547 195.34 55.2402 195.34 56.2422V62.0781H192.809V56.1016C192.809 55.1523 192.211 54.5547 191.332 54.5547C190.453 54.5547 189.768 55.2578 189.768 56.3477V62.0781H187.166ZM207.311 62.2715C204.393 62.2715 202.6 60.373 202.6 57.3496C202.6 54.3965 204.41 52.4102 207.205 52.4102C209.719 52.4102 211.688 53.9922 211.688 57.2441V57.9824H205.166C205.166 59.4238 206.028 60.3203 207.364 60.3203C208.242 60.3203 208.875 59.9336 209.139 59.3535H211.617C211.248 61.1113 209.666 62.2715 207.311 62.2715ZM205.166 56.3477H209.227C209.227 55.1875 208.418 54.3613 207.258 54.3613C206.063 54.3613 205.21 55.249 205.166 56.3477ZM215.924 56.5586V62.0781H213.323V52.5332H215.801V54.2031H215.906C216.346 53.0957 217.365 52.4102 218.772 52.4102C220.758 52.4102 222.076 53.7637 222.059 55.9961V62.0781H219.475V56.4531C219.475 55.2754 218.824 54.5723 217.752 54.5723C216.662 54.5723 215.924 55.293 215.924 56.5586ZM229.108 52.5332V54.4844H227.315V59.1426C227.315 59.8984 227.684 60.0918 228.211 60.1094C228.475 60.1094 228.932 60.0918 229.248 60.0566V62.1133C228.967 62.166 228.51 62.2012 227.86 62.2012C225.979 62.2012 224.696 61.3574 224.713 59.5117V54.4844H223.395V52.5332H224.713V50.248H227.315V52.5332H229.108ZM241.852 52.9902C241.746 51.9883 240.938 51.3906 239.655 51.3906C238.319 51.3906 237.58 52.0059 237.563 52.8496C237.545 53.7637 238.512 54.1855 239.602 54.4316L240.744 54.7129C242.924 55.2051 244.559 56.3125 244.559 58.4395C244.559 60.7773 242.731 62.2539 239.637 62.2539C236.561 62.2539 234.592 60.8301 234.522 58.1055H237.088C237.176 59.3887 238.196 60.0391 239.602 60.0391C240.99 60.0391 241.887 59.3887 241.887 58.4395C241.887 57.5781 241.096 57.1738 239.707 56.8223L238.319 56.4883C236.174 55.9609 234.856 54.8887 234.856 53.0254C234.856 50.7051 236.895 49.1758 239.672 49.1758C242.485 49.1758 244.348 50.7402 244.383 52.9902H241.852ZM247.758 65.6641C247.248 65.6641 246.774 65.6465 246.44 65.6113V63.5898C246.774 63.6074 247.16 63.625 247.494 63.625C248.004 63.625 248.426 63.5723 248.742 62.7461L248.901 62.3418L245.473 52.5332H248.198L250.201 59.5645H250.307L252.328 52.5332H255.088L251.362 63.1328C250.817 64.6621 249.78 65.6641 247.758 65.6641ZM261.803 55.3633C261.698 54.6953 261.1 54.2559 260.239 54.2559C259.395 54.2559 258.744 54.6602 258.762 55.2402C258.744 55.6621 259.096 55.9961 259.992 56.1895L261.698 56.541C263.543 56.9277 264.44 57.7539 264.457 59.125C264.44 61.0059 262.752 62.2715 260.221 62.2715C257.637 62.2715 256.125 61.1113 255.914 59.248H258.533C258.656 60.0039 259.272 60.3906 260.221 60.3906C261.17 60.3906 261.803 60.0039 261.803 59.3887C261.803 58.8965 261.399 58.5977 260.502 58.4043L258.92 58.0879C257.11 57.7363 256.16 56.7871 256.178 55.3809C256.16 53.5527 257.742 52.4102 260.203 52.4102C262.612 52.4102 264.106 53.5527 264.246 55.3633H261.803ZM271.084 52.5332V54.4844H269.291V59.1426C269.291 59.8984 269.66 60.0918 270.188 60.1094C270.451 60.1094 270.908 60.0918 271.225 60.0566V62.1133C270.944 62.166 270.487 62.2012 269.836 62.2012C267.955 62.2012 266.672 61.3574 266.69 59.5117V54.4844H265.371V52.5332H266.69V50.248H269.291V52.5332H271.084ZM276.938 62.2715C274.02 62.2715 272.227 60.373 272.227 57.3496C272.227 54.3965 274.037 52.4102 276.832 52.4102C279.346 52.4102 281.315 53.9922 281.315 57.2441V57.9824H274.793C274.793 59.4238 275.655 60.3203 276.99 60.3203C277.869 60.3203 278.502 59.9336 278.766 59.3535H281.244C280.875 61.1113 279.293 62.2715 276.938 62.2715ZM274.793 56.3477H278.854C278.854 55.1875 278.045 54.3613 276.885 54.3613C275.69 54.3613 274.837 55.249 274.793 56.3477ZM282.949 62.0781V52.5332H285.428V54.2031H285.533C285.938 53.0957 286.905 52.4102 288.188 52.4102C289.506 52.4102 290.473 53.0957 290.789 54.2031H290.877C291.281 53.1133 292.354 52.4102 293.76 52.4102C295.535 52.4102 296.766 53.5879 296.766 55.6621V62.0781H294.164V56.1719C294.164 55.082 293.531 54.5547 292.67 54.5547C291.686 54.5547 291.123 55.2402 291.123 56.2422V62.0781H288.592V56.1016C288.592 55.1523 287.994 54.5547 287.115 54.5547C286.237 54.5547 285.551 55.2578 285.551 56.3477V62.0781H282.949Z" fill="#24C2FF"/>
<rect x="2" y="649.155" width="309.979" height="84.1493" rx="13.7387" fill="white"/>
<path d="M23.0615 684.23V671.503H28.124C30.9365 671.503 32.3428 672.857 32.3428 674.773C32.3428 676.267 31.376 677.199 30.0576 677.498V677.621C31.499 677.691 32.8525 678.833 32.8525 680.714C32.8525 682.736 31.3408 684.23 28.458 684.23H23.0615ZM27.9307 682.05C29.46 682.05 30.1104 681.417 30.1104 680.468C30.1104 679.396 29.3018 678.64 28.001 678.64H25.6982V682.05H27.9307ZM27.7373 676.83C28.8447 676.83 29.6709 676.214 29.6709 675.195C29.6709 674.281 29.0029 673.648 27.79 673.648H25.6982V676.83H27.7373ZM40.5869 680.169V674.685H43.1885V684.23H40.6924V682.507H40.5869C40.1475 683.615 39.1279 684.353 37.6865 684.353C35.7705 684.353 34.4697 683 34.4697 680.767V674.685H37.0713V680.31C37.0713 681.435 37.7217 682.156 38.7412 682.156C39.6904 682.156 40.5869 681.47 40.5869 680.169ZM45.21 684.23V674.685H47.8115V684.23H45.21ZM46.5107 673.437C45.7197 673.437 45.0869 672.839 45.0869 672.119C45.0869 671.38 45.7197 670.783 46.5107 670.783C47.2842 670.783 47.917 671.38 47.917 672.119C47.917 672.839 47.2842 673.437 46.5107 673.437ZM52.4346 671.503V684.23H49.833V671.503H52.4346ZM57.9717 684.388C55.792 684.388 54.0869 682.648 54.0869 679.466C54.0869 676.197 55.8623 674.562 57.9717 674.562C59.5713 674.562 60.3271 675.511 60.6787 676.285H60.7666V671.503H63.3682V684.23H60.8018V682.701H60.6787C60.3096 683.492 59.5186 684.388 57.9717 684.388ZM58.7803 682.314C60.0811 682.314 60.8193 681.171 60.8193 679.449C60.8193 677.726 60.0811 676.636 58.7803 676.636C57.4619 676.636 56.7588 677.779 56.7588 679.449C56.7588 681.136 57.4619 682.314 58.7803 682.314ZM65.46 684.23V674.685H68.0615V684.23H65.46ZM66.7607 673.437C65.9697 673.437 65.3369 672.839 65.3369 672.119C65.3369 671.38 65.9697 670.783 66.7607 670.783C67.5342 670.783 68.167 671.38 68.167 672.119C68.167 672.839 67.5342 673.437 66.7607 673.437ZM72.6846 678.71V684.23H70.083V674.685H72.5615V676.355H72.667C73.1064 675.248 74.126 674.562 75.5322 674.562C77.5186 674.562 78.8369 675.916 78.8193 678.148V684.23H76.2354V678.605C76.2354 677.427 75.585 676.724 74.5127 676.724C73.4229 676.724 72.6846 677.445 72.6846 678.71ZM85.1299 688.009C82.4932 688.009 80.876 686.832 80.7178 685.021H83.2842C83.4248 685.777 84.1455 686.128 85.1826 686.128C86.3955 686.128 87.2041 685.619 87.2041 684.283V682.542H87.0811C86.7295 683.316 85.8857 684.089 84.3564 684.089C82.1943 684.089 80.4717 682.578 80.4717 679.396C80.4717 676.162 82.2471 674.562 84.3564 674.562C85.9561 674.562 86.7295 675.511 87.0811 676.285H87.1865V674.685H89.7705V684.335C89.7705 686.761 87.8369 688.009 85.1299 688.009ZM85.165 682.138C86.4658 682.138 87.2041 681.119 87.2041 679.431C87.2041 677.726 86.4658 676.636 85.165 676.636C83.8467 676.636 83.1436 677.779 83.1436 679.431C83.1436 681.083 83.8467 682.138 85.165 682.138ZM95.4834 681.558C95.4834 679.431 97.2061 678.728 99.0342 678.623C99.7197 678.579 101.003 678.517 101.407 678.5V677.726C101.39 676.935 100.845 676.46 99.8779 676.46C98.999 676.46 98.4365 676.865 98.2959 677.515H95.8174C95.9756 675.863 97.417 674.562 99.9482 674.562C102.022 674.562 103.991 675.494 103.991 677.796V684.23H101.53V682.912H101.46C100.985 683.791 100.089 684.406 98.665 684.406C96.8369 684.406 95.4834 683.457 95.4834 681.558ZM97.9795 681.488C97.9795 682.226 98.5771 682.613 99.4033 682.613C100.581 682.613 101.425 681.822 101.407 680.82V680.117C101.012 680.134 99.9043 680.196 99.4561 680.24C98.5596 680.328 97.9795 680.75 97.9795 681.488ZM113.026 684.23L109.388 671.503H112.271L114.415 680.398H114.521L116.858 671.503H119.337L121.675 680.416H121.78L123.925 671.503H126.808L123.169 684.23H120.585L118.159 675.828H118.054L115.61 684.23H113.026ZM131.36 684.423C128.478 684.423 126.685 682.437 126.685 679.484C126.685 676.531 128.478 674.562 131.36 674.562C134.243 674.562 136.054 676.531 136.054 679.484C136.054 682.437 134.243 684.423 131.36 684.423ZM131.378 682.402C132.714 682.402 133.399 681.154 133.399 679.484C133.399 677.796 132.714 676.548 131.378 676.548C130.024 676.548 129.321 677.796 129.321 679.484C129.321 681.154 130.024 682.402 131.378 682.402ZM137.688 684.23V674.685H140.202V676.337H140.308C140.659 675.16 141.538 674.544 142.61 674.544C142.874 674.544 143.208 674.58 143.437 674.632V676.953C143.19 676.882 142.698 676.812 142.329 676.812C141.151 676.812 140.29 677.638 140.29 678.798V684.23H137.688ZM144.702 684.23V671.503H147.304V678.341H147.444L150.538 674.685H153.526L149.976 678.816L153.72 684.23H150.661L148.042 680.345L147.304 681.171V684.23H144.702ZM158.659 684.423C155.741 684.423 153.948 682.525 153.948 679.501C153.948 676.548 155.759 674.562 158.554 674.562C161.067 674.562 163.036 676.144 163.036 679.396V680.134H156.515C156.515 681.576 157.376 682.472 158.712 682.472C159.591 682.472 160.224 682.085 160.487 681.505H162.966C162.597 683.263 161.015 684.423 158.659 684.423ZM156.515 678.5H160.575C160.575 677.339 159.767 676.513 158.606 676.513C157.411 676.513 156.559 677.401 156.515 678.5ZM164.671 684.23V674.685H167.185V676.337H167.29C167.642 675.16 168.521 674.544 169.593 674.544C169.856 674.544 170.19 674.58 170.419 674.632V676.953C170.173 676.882 169.681 676.812 169.312 676.812C168.134 676.812 167.272 677.638 167.272 678.798V684.23H164.671ZM175.886 684.23V671.503H180.878C183.778 671.503 185.431 673.279 185.431 675.792C185.431 678.341 183.743 680.082 180.808 680.082H178.522V684.23H175.886ZM178.522 677.955H180.386C181.95 677.955 182.706 677.076 182.706 675.792C182.706 674.527 181.95 673.666 180.386 673.666H178.522V677.955ZM186.345 681.558C186.345 679.431 188.067 678.728 189.896 678.623C190.581 678.579 191.864 678.517 192.269 678.5V677.726C192.251 676.935 191.706 676.46 190.739 676.46C189.86 676.46 189.298 676.865 189.157 677.515H186.679C186.837 675.863 188.278 674.562 190.81 674.562C192.884 674.562 194.853 675.494 194.853 677.796V684.23H192.392V682.912H192.321C191.847 683.791 190.95 684.406 189.526 684.406C187.698 684.406 186.345 683.457 186.345 681.558ZM188.841 681.488C188.841 682.226 189.438 682.613 190.265 682.613C191.442 682.613 192.286 681.822 192.269 680.82V680.117C191.873 680.134 190.766 680.196 190.317 680.24C189.421 680.328 188.841 680.75 188.841 681.488ZM196.839 684.23V674.685H199.353V676.337H199.458C199.81 675.16 200.688 674.544 201.761 674.544C202.024 674.544 202.358 674.58 202.587 674.632V676.953C202.341 676.882 201.849 676.812 201.479 676.812C200.302 676.812 199.44 677.638 199.44 678.798V684.23H196.839ZM209.354 674.685V676.636H207.562V681.294C207.562 682.05 207.931 682.244 208.458 682.261C208.722 682.261 209.179 682.244 209.495 682.208V684.265C209.214 684.318 208.757 684.353 208.106 684.353C206.226 684.353 204.942 683.509 204.96 681.664V676.636H203.642V674.685H204.96V672.4H207.562V674.685H209.354ZM210.989 684.23V674.685H213.591V684.23H210.989ZM212.29 673.437C211.499 673.437 210.866 672.839 210.866 672.119C210.866 671.38 211.499 670.783 212.29 670.783C213.063 670.783 213.696 671.38 213.696 672.119C213.696 672.839 213.063 673.437 212.29 673.437ZM219.901 684.423C216.983 684.423 215.226 682.402 215.226 679.484C215.226 676.566 217.001 674.562 219.901 674.562C222.362 674.562 224.032 676.003 224.138 678.183H221.694C221.536 677.234 220.921 676.583 219.937 676.583C218.688 676.583 217.862 677.638 217.862 679.449C217.862 681.294 218.671 682.349 219.937 682.349C220.851 682.349 221.536 681.787 221.694 680.767H224.138C224.015 682.929 222.433 684.423 219.901 684.423ZM225.755 684.23V674.685H228.356V684.23H225.755ZM227.056 673.437C226.265 673.437 225.632 672.839 225.632 672.119C225.632 671.38 226.265 670.783 227.056 670.783C227.829 670.783 228.462 671.38 228.462 672.119C228.462 672.839 227.829 673.437 227.056 673.437ZM230.378 687.816V674.685H232.944V676.285H233.05C233.401 675.511 234.175 674.562 235.774 674.562C237.884 674.562 239.642 676.197 239.642 679.466C239.642 682.648 237.954 684.388 235.774 684.388C234.21 684.388 233.419 683.492 233.05 682.701H232.979V687.816H230.378ZM232.927 679.449C232.927 681.171 233.665 682.314 234.948 682.314C236.284 682.314 236.987 681.136 236.987 679.449C236.987 677.779 236.284 676.636 234.948 676.636C233.647 676.636 232.927 677.726 232.927 679.449ZM240.872 681.558C240.872 679.431 242.595 678.728 244.423 678.623C245.108 678.579 246.392 678.517 246.796 678.5V677.726C246.778 676.935 246.233 676.46 245.267 676.46C244.388 676.46 243.825 676.865 243.685 677.515H241.206C241.364 675.863 242.806 674.562 245.337 674.562C247.411 674.562 249.38 675.494 249.38 677.796V684.23H246.919V682.912H246.849C246.374 683.791 245.478 684.406 244.054 684.406C242.226 684.406 240.872 683.457 240.872 681.558ZM243.368 681.488C243.368 682.226 243.966 682.613 244.792 682.613C245.97 682.613 246.813 681.822 246.796 680.82V680.117C246.4 680.134 245.293 680.196 244.845 680.24C243.948 680.328 243.368 680.75 243.368 681.488ZM256.394 674.685V676.636H254.601V681.294C254.601 682.05 254.97 682.244 255.497 682.261C255.761 682.261 256.218 682.244 256.534 682.208V684.265C256.253 684.318 255.796 684.353 255.146 684.353C253.265 684.353 251.981 683.509 251.999 681.664V676.636H250.681V674.685H251.999V672.4H254.601V674.685H256.394ZM258.028 684.23V674.685H260.63V684.23H258.028ZM259.329 673.437C258.538 673.437 257.905 672.839 257.905 672.119C257.905 671.38 258.538 670.783 259.329 670.783C260.103 670.783 260.735 671.38 260.735 672.119C260.735 672.839 260.103 673.437 259.329 673.437ZM266.94 684.423C264.058 684.423 262.265 682.437 262.265 679.484C262.265 676.531 264.058 674.562 266.94 674.562C269.823 674.562 271.634 676.531 271.634 679.484C271.634 682.437 269.823 684.423 266.94 684.423ZM266.958 682.402C268.294 682.402 268.979 681.154 268.979 679.484C268.979 677.796 268.294 676.548 266.958 676.548C265.604 676.548 264.901 677.796 264.901 679.484C264.901 681.154 265.604 682.402 266.958 682.402ZM275.87 678.71V684.23H273.269V674.685H275.747V676.355H275.853C276.292 675.248 277.312 674.562 278.718 674.562C280.704 674.562 282.022 675.916 282.005 678.148V684.23H279.421V678.605C279.421 677.427 278.771 676.724 277.698 676.724C276.608 676.724 275.87 677.445 275.87 678.71ZM289.95 677.955V680.029H284.149V677.955H289.95ZM31.5693 702.933C31.3584 701.527 30.2686 700.666 28.792 700.666C26.8057 700.666 25.5049 702.195 25.5049 704.867C25.5049 707.609 26.8232 709.068 28.7744 709.068C30.2334 709.068 31.3057 708.259 31.5693 706.888L34.2412 706.906C33.9424 709.261 31.9736 711.406 28.7393 711.406C25.3291 711.406 22.8154 709.015 22.8154 704.867C22.8154 700.718 25.3818 698.328 28.7393 698.328C31.6748 698.328 33.8896 700.015 34.2412 702.933H31.5693ZM40.3584 711.423C37.4404 711.423 35.6475 709.525 35.6475 706.501C35.6475 703.548 37.458 701.562 40.2529 701.562C42.7666 701.562 44.7354 703.144 44.7354 706.396V707.134H38.2139C38.2139 708.576 39.0752 709.472 40.4111 709.472C41.29 709.472 41.9229 709.085 42.1865 708.505H44.665C44.2959 710.263 42.7139 711.423 40.3584 711.423ZM38.2139 705.5H42.2744C42.2744 704.339 41.4658 703.513 40.3057 703.513C39.1104 703.513 38.2578 704.401 38.2139 705.5ZM48.9717 705.71V711.23H46.3701V701.685H48.8486V703.355H48.9541C49.3936 702.248 50.4131 701.562 51.8193 701.562C53.8057 701.562 55.124 702.916 55.1064 705.148V711.23H52.5225V705.605C52.5225 704.427 51.8721 703.724 50.7998 703.724C49.71 703.724 48.9717 704.445 48.9717 705.71ZM62.1553 701.685V703.636H60.3623V708.294C60.3623 709.05 60.7314 709.244 61.2588 709.261C61.5225 709.261 61.9795 709.244 62.2959 709.208V711.265C62.0146 711.318 61.5576 711.353 60.9072 711.353C59.0264 711.353 57.7432 710.509 57.7607 708.664V703.636H56.4424V701.685H57.7607V699.4H60.3623V701.685H62.1553ZM68.0088 711.423C65.0908 711.423 63.2979 709.525 63.2979 706.501C63.2979 703.548 65.1084 701.562 67.9033 701.562C70.417 701.562 72.3857 703.144 72.3857 706.396V707.134H65.8643C65.8643 708.576 66.7256 709.472 68.0615 709.472C68.9404 709.472 69.5732 709.085 69.8369 708.505H72.3154C71.9463 710.263 70.3643 711.423 68.0088 711.423ZM65.8643 705.5H69.9248C69.9248 704.339 69.1162 703.513 67.9561 703.513C66.7607 703.513 65.9082 704.401 65.8643 705.5ZM74.0205 711.23V701.685H76.5342V703.337H76.6396C76.9912 702.16 77.8701 701.544 78.9424 701.544C79.2061 701.544 79.54 701.58 79.7686 701.632V703.953C79.5225 703.882 79.0303 703.812 78.6611 703.812C77.4834 703.812 76.6221 704.638 76.6221 705.798V711.23H74.0205ZM85.0596 711.423C82.1416 711.423 80.3486 709.525 80.3486 706.501C80.3486 703.548 82.1592 701.562 84.9541 701.562C87.4678 701.562 89.4365 703.144 89.4365 706.396V707.134H82.915C82.915 708.576 83.7764 709.472 85.1123 709.472C85.9912 709.472 86.624 709.085 86.8877 708.505H89.3662C88.9971 710.263 87.415 711.423 85.0596 711.423ZM82.915 705.5H86.9756C86.9756 704.339 86.167 703.513 85.0068 703.513C83.8115 703.513 82.959 704.401 82.915 705.5ZM94.5869 711.388C92.4072 711.388 90.7021 709.648 90.7021 706.466C90.7021 703.197 92.4775 701.562 94.5869 701.562C96.1865 701.562 96.9424 702.511 97.2939 703.285H97.3818V698.503H99.9834V711.23H97.417V709.701H97.2939C96.9248 710.492 96.1338 711.388 94.5869 711.388ZM95.3955 709.314C96.6963 709.314 97.4346 708.171 97.4346 706.449C97.4346 704.726 96.6963 703.636 95.3955 703.636C94.0771 703.636 93.374 704.779 93.374 706.449C93.374 708.136 94.0771 709.314 95.3955 709.314ZM113.185 702.142C113.079 701.14 112.271 700.542 110.987 700.542C109.651 700.542 108.913 701.158 108.896 702.001C108.878 702.916 109.845 703.337 110.935 703.583L112.077 703.865C114.257 704.357 115.892 705.464 115.892 707.591C115.892 709.929 114.063 711.406 110.97 711.406C107.894 711.406 105.925 709.982 105.854 707.257H108.421C108.509 708.541 109.528 709.191 110.935 709.191C112.323 709.191 113.22 708.541 113.22 707.591C113.22 706.73 112.429 706.326 111.04 705.974L109.651 705.64C107.507 705.113 106.188 704.041 106.188 702.177C106.188 699.857 108.228 698.328 111.005 698.328C113.817 698.328 115.681 699.892 115.716 702.142H113.185ZM117.104 708.558C117.104 706.431 118.827 705.728 120.655 705.623C121.341 705.579 122.624 705.517 123.028 705.5V704.726C123.011 703.935 122.466 703.46 121.499 703.46C120.62 703.46 120.058 703.865 119.917 704.515H117.438C117.597 702.863 119.038 701.562 121.569 701.562C123.644 701.562 125.612 702.494 125.612 704.796V711.23H123.151V709.912H123.081C122.606 710.791 121.71 711.406 120.286 711.406C118.458 711.406 117.104 710.457 117.104 708.558ZM119.601 708.488C119.601 709.226 120.198 709.613 121.024 709.613C122.202 709.613 123.046 708.822 123.028 707.82V707.117C122.633 707.134 121.525 707.196 121.077 707.24C120.181 707.328 119.601 707.75 119.601 708.488ZM132.679 701.685V703.636H130.78V711.23H128.179V703.636H126.825V701.685H128.179V700.964C128.179 698.96 129.392 697.906 131.308 697.906C131.905 697.906 132.397 697.958 132.854 698.064V700.033C132.485 699.998 132.204 699.98 132.063 699.98C131.22 699.98 130.78 700.314 130.78 701.105V701.685H132.679ZM138.181 711.423C135.263 711.423 133.47 709.525 133.47 706.501C133.47 703.548 135.28 701.562 138.075 701.562C140.589 701.562 142.558 703.144 142.558 706.396V707.134H136.036C136.036 708.576 136.897 709.472 138.233 709.472C139.112 709.472 139.745 709.085 140.009 708.505H142.487C142.118 710.263 140.536 711.423 138.181 711.423ZM136.036 705.5H140.097C140.097 704.339 139.288 703.513 138.128 703.513C136.933 703.513 136.08 704.401 136.036 705.5ZM149.22 701.685V703.636H147.427V708.294C147.427 709.05 147.796 709.244 148.323 709.261C148.587 709.261 149.044 709.244 149.36 709.208V711.265C149.079 711.318 148.622 711.353 147.972 711.353C146.091 711.353 144.808 710.509 144.825 708.664V703.636H143.507V701.685H144.825V699.4H147.427V701.685H149.22ZM152.384 714.816C151.874 714.816 151.399 714.798 151.065 714.763V712.742C151.399 712.759 151.786 712.777 152.12 712.777C152.63 712.777 153.052 712.724 153.368 711.898L153.526 711.494L150.099 701.685H152.823L154.827 708.716H154.933L156.954 701.685H159.714L155.987 712.285C155.442 713.814 154.405 714.816 152.384 714.816ZM173.688 702.933C173.478 701.527 172.388 700.666 170.911 700.666C168.925 700.666 167.624 702.195 167.624 704.867C167.624 707.609 168.942 709.068 170.894 709.068C172.353 709.068 173.425 708.259 173.688 706.888L176.36 706.906C176.062 709.261 174.093 711.406 170.858 711.406C167.448 711.406 164.935 709.015 164.935 704.867C164.935 700.718 167.501 698.328 170.858 698.328C173.794 698.328 176.009 700.015 176.36 702.933H173.688ZM184.271 707.169V701.685H186.872V711.23H184.376V709.507H184.271C183.831 710.615 182.812 711.353 181.37 711.353C179.454 711.353 178.153 710 178.153 707.767V701.685H180.755V707.31C180.755 708.435 181.405 709.156 182.425 709.156C183.374 709.156 184.271 708.47 184.271 707.169ZM191.495 698.503V711.23H188.894V698.503H191.495ZM198.544 701.685V703.636H196.751V708.294C196.751 709.05 197.12 709.244 197.647 709.261C197.911 709.261 198.368 709.244 198.685 709.208V711.265C198.403 711.318 197.946 711.353 197.296 711.353C195.415 711.353 194.132 710.509 194.149 708.664V703.636H192.831V701.685H194.149V699.4H196.751V701.685H198.544ZM206.296 707.169V701.685H208.897V711.23H206.401V709.507H206.296C205.856 710.615 204.837 711.353 203.396 711.353C201.479 711.353 200.179 710 200.179 707.767V701.685H202.78V707.31C202.78 708.435 203.431 709.156 204.45 709.156C205.399 709.156 206.296 708.47 206.296 707.169ZM210.919 711.23V701.685H213.433V703.337H213.538C213.89 702.16 214.769 701.544 215.841 701.544C216.104 701.544 216.438 701.58 216.667 701.632V703.953C216.421 703.882 215.929 703.812 215.56 703.812C214.382 703.812 213.521 704.638 213.521 705.798V711.23H210.919ZM221.958 711.423C219.04 711.423 217.247 709.525 217.247 706.501C217.247 703.548 219.058 701.562 221.853 701.562C224.366 701.562 226.335 703.144 226.335 706.396V707.134H219.813C219.813 708.576 220.675 709.472 222.011 709.472C222.89 709.472 223.522 709.085 223.786 708.505H226.265C225.896 710.263 224.313 711.423 221.958 711.423ZM219.813 705.5H223.874C223.874 704.339 223.065 703.513 221.905 703.513C220.71 703.513 219.857 704.401 219.813 705.5Z" fill="#000D51"/>
<rect x="985.173" y="0.00341797" width="304.827" height="84.1493" rx="13.7387" fill="white"/>
<path d="M1064.87 35.0781V22.3516H1073.42V24.5312H1067.51V27.625H1072.98V29.8047H1067.51V32.8984H1073.43V35.0781H1064.87ZM1078.02 29.5586V35.0781H1075.42V25.5332H1077.9V27.2031H1078C1078.44 26.0957 1079.46 25.4102 1080.87 25.4102C1082.85 25.4102 1084.17 26.7637 1084.16 28.9961V35.0781H1081.57V29.4531C1081.57 28.2754 1080.92 27.5723 1079.85 27.5723C1078.76 27.5723 1078.02 28.293 1078.02 29.5586ZM1088.78 29.5586V35.0781H1086.18V22.3516H1088.71V27.2031H1088.81C1089.25 26.0957 1090.22 25.4102 1091.66 25.4102C1093.65 25.4102 1094.97 26.7461 1094.97 28.9961V35.0781H1092.36V29.4531C1092.36 28.2754 1091.73 27.5723 1090.64 27.5723C1089.55 27.5723 1088.78 28.293 1088.78 29.5586ZM1096.51 32.4062C1096.51 30.2793 1098.24 29.5762 1100.06 29.4707C1100.75 29.4268 1102.03 29.3652 1102.44 29.3477V28.5742C1102.42 27.7832 1101.87 27.3086 1100.91 27.3086C1100.03 27.3086 1099.47 27.7129 1099.33 28.3633H1096.85C1097 26.7109 1098.45 25.4102 1100.98 25.4102C1103.05 25.4102 1105.02 26.3418 1105.02 28.6445V35.0781H1102.56V33.7598H1102.49C1102.01 34.6387 1101.12 35.2539 1099.69 35.2539C1097.87 35.2539 1096.51 34.3047 1096.51 32.4062ZM1099.01 32.3359C1099.01 33.0742 1099.61 33.4609 1100.43 33.4609C1101.61 33.4609 1102.45 32.6699 1102.44 31.668V30.9648C1102.04 30.9824 1100.93 31.0439 1100.49 31.0879C1099.59 31.1758 1099.01 31.5977 1099.01 32.3359ZM1109.61 29.5586V35.0781H1107.01V25.5332H1109.49V27.2031H1109.59C1110.03 26.0957 1111.05 25.4102 1112.46 25.4102C1114.44 25.4102 1115.76 26.7637 1115.74 28.9961V35.0781H1113.16V29.4531C1113.16 28.2754 1112.51 27.5723 1111.44 27.5723C1110.35 27.5723 1109.61 28.293 1109.61 29.5586ZM1122.05 35.2715C1119.14 35.2715 1117.38 33.25 1117.38 30.332C1117.38 27.4141 1119.15 25.4102 1122.05 25.4102C1124.51 25.4102 1126.18 26.8516 1126.29 29.0312H1123.85C1123.69 28.082 1123.07 27.4316 1122.09 27.4316C1120.84 27.4316 1120.01 28.4863 1120.01 30.2969C1120.01 32.1426 1120.82 33.1973 1122.09 33.1973C1123 33.1973 1123.69 32.6348 1123.85 31.6152H1126.29C1126.17 33.7773 1124.58 35.2715 1122.05 35.2715ZM1132.23 35.2715C1129.31 35.2715 1127.52 33.373 1127.52 30.3496C1127.52 27.3965 1129.33 25.4102 1132.13 25.4102C1134.64 25.4102 1136.61 26.9922 1136.61 30.2441V30.9824H1130.09C1130.09 32.4238 1130.95 33.3203 1132.28 33.3203C1133.16 33.3203 1133.8 32.9336 1134.06 32.3535H1136.54C1136.17 34.1113 1134.59 35.2715 1132.23 35.2715ZM1130.09 29.3477H1134.15C1134.15 28.1875 1133.34 27.3613 1132.18 27.3613C1130.98 27.3613 1130.13 28.249 1130.09 29.3477ZM1138.24 35.0781V25.5332H1140.72V27.2031H1140.83C1141.23 26.0957 1142.2 25.4102 1143.48 25.4102C1144.8 25.4102 1145.77 26.0957 1146.08 27.2031H1146.17C1146.58 26.1133 1147.65 25.4102 1149.05 25.4102C1150.83 25.4102 1152.06 26.5879 1152.06 28.6621V35.0781H1149.46V29.1719C1149.46 28.082 1148.83 27.5547 1147.96 27.5547C1146.98 27.5547 1146.42 28.2402 1146.42 29.2422V35.0781H1143.89V29.1016C1143.89 28.1523 1143.29 27.5547 1142.41 27.5547C1141.53 27.5547 1140.84 28.2578 1140.84 29.3477V35.0781H1138.24ZM1158.39 35.2715C1155.47 35.2715 1153.68 33.373 1153.68 30.3496C1153.68 27.3965 1155.49 25.4102 1158.28 25.4102C1160.8 25.4102 1162.76 26.9922 1162.76 30.2441V30.9824H1156.24C1156.24 32.4238 1157.1 33.3203 1158.44 33.3203C1159.32 33.3203 1159.95 32.9336 1160.22 32.3535H1162.69C1162.33 34.1113 1160.74 35.2715 1158.39 35.2715ZM1156.24 29.3477H1160.3C1160.3 28.1875 1159.5 27.3613 1158.33 27.3613C1157.14 27.3613 1156.29 28.249 1156.24 29.3477ZM1167 29.5586V35.0781H1164.4V25.5332H1166.88V27.2031H1166.98C1167.42 26.0957 1168.44 25.4102 1169.85 25.4102C1171.83 25.4102 1173.15 26.7637 1173.14 28.9961V35.0781H1170.55V29.4531C1170.55 28.2754 1169.9 27.5723 1168.83 27.5723C1167.74 27.5723 1167 28.293 1167 29.5586ZM1180.18 25.5332V27.4844H1178.39V32.1426C1178.39 32.8984 1178.76 33.0918 1179.29 33.1094C1179.55 33.1094 1180.01 33.0918 1180.33 33.0566V35.1133C1180.04 35.166 1179.59 35.2012 1178.94 35.2012C1177.06 35.2012 1175.77 34.3574 1175.79 32.5117V27.4844H1174.47V25.5332H1175.79V23.248H1178.39V25.5332H1180.18ZM1190.26 35.2715C1187.37 35.2715 1185.58 33.2852 1185.58 30.332C1185.58 27.3789 1187.37 25.4102 1190.26 25.4102C1193.14 25.4102 1194.95 27.3789 1194.95 30.332C1194.95 33.2852 1193.14 35.2715 1190.26 35.2715ZM1190.27 33.25C1191.61 33.25 1192.3 32.002 1192.3 30.332C1192.3 28.6445 1191.61 27.3965 1190.27 27.3965C1188.92 27.3965 1188.22 28.6445 1188.22 30.332C1188.22 32.002 1188.92 33.25 1190.27 33.25ZM1201.67 25.5332V27.4844H1199.77V35.0781H1197.17V27.4844H1195.81V25.5332H1197.17V24.8125C1197.17 22.8086 1198.38 21.7539 1200.29 21.7539C1200.89 21.7539 1201.38 21.8066 1201.84 21.9121V23.8809C1201.47 23.8457 1201.19 23.8281 1201.05 23.8281C1200.21 23.8281 1199.77 24.1621 1199.77 24.9531V25.5332H1201.67ZM1207.4 35.0781V22.3516H1212.39C1215.29 22.3516 1216.94 24.127 1216.94 26.6406C1216.94 29.1895 1215.25 30.9297 1212.32 30.9297H1210.03V35.0781H1207.4ZM1210.03 28.8027H1211.9C1213.46 28.8027 1214.22 27.9238 1214.22 26.6406C1214.22 25.375 1213.46 24.5137 1211.9 24.5137H1210.03V28.8027ZM1217.85 32.4062C1217.85 30.2793 1219.58 29.5762 1221.41 29.4707C1222.09 29.4268 1223.37 29.3652 1223.78 29.3477V28.5742C1223.76 27.7832 1223.22 27.3086 1222.25 27.3086C1221.37 27.3086 1220.81 27.7129 1220.67 28.3633H1218.19C1218.35 26.7109 1219.79 25.4102 1222.32 25.4102C1224.39 25.4102 1226.36 26.3418 1226.36 28.6445V35.0781H1223.9V33.7598H1223.83C1223.36 34.6387 1222.46 35.2539 1221.04 35.2539C1219.21 35.2539 1217.85 34.3047 1217.85 32.4062ZM1220.35 32.3359C1220.35 33.0742 1220.95 33.4609 1221.77 33.4609C1222.95 33.4609 1223.8 32.6699 1223.78 31.668V30.9648C1223.38 30.9824 1222.28 31.0439 1221.83 31.0879C1220.93 31.1758 1220.35 31.5977 1220.35 32.3359ZM1228.35 35.0781V25.5332H1230.86V27.1855H1230.97C1231.32 26.0078 1232.2 25.3926 1233.27 25.3926C1233.53 25.3926 1233.87 25.4277 1234.1 25.4805V27.8008C1233.85 27.7305 1233.36 27.6602 1232.99 27.6602C1231.81 27.6602 1230.95 28.4863 1230.95 29.6465V35.0781H1228.35ZM1240.86 25.5332V27.4844H1239.07V32.1426C1239.07 32.8984 1239.44 33.0918 1239.97 33.1094C1240.23 33.1094 1240.69 33.0918 1241 33.0566V35.1133C1240.72 35.166 1240.27 35.2012 1239.62 35.2012C1237.74 35.2012 1236.45 34.3574 1236.47 32.5117V27.4844H1235.15V25.5332H1236.47V23.248H1239.07V25.5332H1240.86ZM1245.1 29.5586V35.0781H1242.5V25.5332H1244.98V27.2031H1245.08C1245.52 26.0957 1246.54 25.4102 1247.95 25.4102C1249.93 25.4102 1251.25 26.7637 1251.24 28.9961V35.0781H1248.65V29.4531C1248.65 28.2754 1248 27.5723 1246.93 27.5723C1245.84 27.5723 1245.1 28.293 1245.1 29.5586ZM1257.58 35.2715C1254.66 35.2715 1252.87 33.373 1252.87 30.3496C1252.87 27.3965 1254.68 25.4102 1257.48 25.4102C1259.99 25.4102 1261.96 26.9922 1261.96 30.2441V30.9824H1255.44C1255.44 32.4238 1256.3 33.3203 1257.63 33.3203C1258.51 33.3203 1259.15 32.9336 1259.41 32.3535H1261.89C1261.52 34.1113 1259.94 35.2715 1257.58 35.2715ZM1255.44 29.3477H1259.5C1259.5 28.1875 1258.69 27.3613 1257.53 27.3613C1256.33 27.3613 1255.48 28.249 1255.44 29.3477ZM1263.59 35.0781V25.5332H1266.11V27.1855H1266.21C1266.56 26.0078 1267.44 25.3926 1268.51 25.3926C1268.78 25.3926 1269.11 25.4277 1269.34 25.4805V27.8008C1269.09 27.7305 1268.6 27.6602 1268.23 27.6602C1267.06 27.6602 1266.19 28.4863 1266.19 29.6465V35.0781H1263.59ZM1015.25 53.7812C1015.04 52.375 1013.95 51.5137 1012.47 51.5137C1010.49 51.5137 1009.18 53.043 1009.18 55.7148C1009.18 58.457 1010.5 59.916 1012.45 59.916C1013.91 59.916 1014.99 59.1074 1015.25 57.7363L1017.92 57.7539C1017.62 60.1094 1015.65 62.2539 1012.42 62.2539C1009.01 62.2539 1006.5 59.8633 1006.5 55.7148C1006.5 51.5664 1009.06 49.1758 1012.42 49.1758C1015.35 49.1758 1017.57 50.8633 1017.92 53.7812H1015.25ZM1024 62.2715C1021.12 62.2715 1019.33 60.2852 1019.33 57.332C1019.33 54.3789 1021.12 52.4102 1024 52.4102C1026.89 52.4102 1028.7 54.3789 1028.7 57.332C1028.7 60.2852 1026.89 62.2715 1024 62.2715ZM1024.02 60.25C1025.36 60.25 1026.04 59.002 1026.04 57.332C1026.04 55.6445 1025.36 54.3965 1024.02 54.3965C1022.67 54.3965 1021.96 55.6445 1021.96 57.332C1021.96 59.002 1022.67 60.25 1024.02 60.25ZM1030.33 62.0781V52.5332H1032.81V54.2031H1032.92C1033.32 53.0957 1034.29 52.4102 1035.57 52.4102C1036.89 52.4102 1037.85 53.0957 1038.17 54.2031H1038.26C1038.66 53.1133 1039.74 52.4102 1041.14 52.4102C1042.92 52.4102 1044.15 53.5879 1044.15 55.6621V62.0781H1041.55V56.1719C1041.55 55.082 1040.91 54.5547 1040.05 54.5547C1039.07 54.5547 1038.5 55.2402 1038.5 56.2422V62.0781H1035.97V56.1016C1035.97 55.1523 1035.38 54.5547 1034.5 54.5547C1033.62 54.5547 1032.93 55.2578 1032.93 56.3477V62.0781H1030.33ZM1046.15 65.6641V52.5332H1048.72V54.1328H1048.82C1049.17 53.3594 1049.95 52.4102 1051.55 52.4102C1053.66 52.4102 1055.42 54.0449 1055.42 57.3145C1055.42 60.4961 1053.73 62.2363 1051.55 62.2363C1049.98 62.2363 1049.19 61.3398 1048.82 60.5488H1048.75V65.6641H1046.15ZM1048.7 57.2969C1048.7 59.0195 1049.44 60.1621 1050.72 60.1621C1052.06 60.1621 1052.76 58.9844 1052.76 57.2969C1052.76 55.627 1052.06 54.4844 1050.72 54.4844C1049.42 54.4844 1048.7 55.5742 1048.7 57.2969ZM1056.65 59.4062C1056.65 57.2793 1058.37 56.5762 1060.2 56.4707C1060.88 56.4268 1062.17 56.3652 1062.57 56.3477V55.5742C1062.55 54.7832 1062.01 54.3086 1061.04 54.3086C1060.16 54.3086 1059.6 54.7129 1059.46 55.3633H1056.98C1057.14 53.7109 1058.58 52.4102 1061.11 52.4102C1063.18 52.4102 1065.15 53.3418 1065.15 55.6445V62.0781H1062.69V60.7598H1062.62C1062.15 61.6387 1061.25 62.2539 1059.83 62.2539C1058 62.2539 1056.65 61.3047 1056.65 59.4062ZM1059.14 59.3359C1059.14 60.0742 1059.74 60.4609 1060.57 60.4609C1061.74 60.4609 1062.59 59.6699 1062.57 58.668V57.9648C1062.17 57.9824 1061.07 58.0439 1060.62 58.0879C1059.72 58.1758 1059.14 58.5977 1059.14 59.3359ZM1069.74 56.5586V62.0781H1067.14V52.5332H1069.62V54.2031H1069.72C1070.16 53.0957 1071.18 52.4102 1072.59 52.4102C1074.58 52.4102 1075.89 53.7637 1075.88 55.9961V62.0781H1073.29V56.4531C1073.29 55.2754 1072.64 54.5723 1071.57 54.5723C1070.48 54.5723 1069.74 55.293 1069.74 56.5586ZM1077.9 62.0781V52.5332H1080.5V62.0781H1077.9ZM1079.2 51.2852C1078.41 51.2852 1077.77 50.6875 1077.77 49.9668C1077.77 49.2285 1078.41 48.6309 1079.2 48.6309C1079.97 48.6309 1080.6 49.2285 1080.6 49.9668C1080.6 50.6875 1079.97 51.2852 1079.2 51.2852ZM1086.84 62.2715C1083.93 62.2715 1082.13 60.373 1082.13 57.3496C1082.13 54.3965 1083.94 52.4102 1086.74 52.4102C1089.25 52.4102 1091.22 53.9922 1091.22 57.2441V57.9824H1084.7C1084.7 59.4238 1085.56 60.3203 1086.9 60.3203C1087.78 60.3203 1088.41 59.9336 1088.67 59.3535H1091.15C1090.78 61.1113 1089.2 62.2715 1086.84 62.2715ZM1084.7 56.3477H1088.76C1088.76 55.1875 1087.95 54.3613 1086.79 54.3613C1085.6 54.3613 1084.74 55.249 1084.7 56.3477ZM1098.31 55.3633C1098.2 54.6953 1097.6 54.2559 1096.74 54.2559C1095.9 54.2559 1095.25 54.6602 1095.26 55.2402C1095.25 55.6621 1095.6 55.9961 1096.5 56.1895L1098.2 56.541C1100.05 56.9277 1100.94 57.7539 1100.96 59.125C1100.94 61.0059 1099.25 62.2715 1096.72 62.2715C1094.14 62.2715 1092.63 61.1113 1092.42 59.248H1095.04C1095.16 60.0039 1095.77 60.3906 1096.72 60.3906C1097.67 60.3906 1098.31 60.0039 1098.31 59.3887C1098.31 58.8965 1097.9 58.5977 1097 58.4043L1095.42 58.0879C1093.61 57.7363 1092.66 56.7871 1092.68 55.3809C1092.66 53.5527 1094.25 52.4102 1096.71 52.4102C1099.11 52.4102 1100.61 53.5527 1100.75 55.3633H1098.31ZM1105.6 49.3516L1104.09 54.3613H1102.23L1103.1 49.3516H1105.6ZM1118.42 52.9902C1118.31 51.9883 1117.5 51.3906 1116.22 51.3906C1114.88 51.3906 1114.14 52.0059 1114.13 52.8496C1114.11 53.7637 1115.08 54.1855 1116.17 54.4316L1117.31 54.7129C1119.49 55.2051 1121.12 56.3125 1121.12 58.4395C1121.12 60.7773 1119.29 62.2539 1116.2 62.2539C1113.12 62.2539 1111.16 60.8301 1111.08 58.1055H1113.65C1113.74 59.3887 1114.76 60.0391 1116.17 60.0391C1117.55 60.0391 1118.45 59.3887 1118.45 58.4395C1118.45 57.5781 1117.66 57.1738 1116.27 56.8223L1114.88 56.4883C1112.74 55.9609 1111.42 54.8887 1111.42 53.0254C1111.42 50.7051 1113.46 49.1758 1116.24 49.1758C1119.05 49.1758 1120.91 50.7402 1120.95 52.9902H1118.42ZM1122.33 59.4062C1122.33 57.2793 1124.06 56.5762 1125.89 56.4707C1126.57 56.4268 1127.85 56.3652 1128.26 56.3477V55.5742C1128.24 54.7832 1127.7 54.3086 1126.73 54.3086C1125.85 54.3086 1125.29 54.7129 1125.15 55.3633H1122.67C1122.83 53.7109 1124.27 52.4102 1126.8 52.4102C1128.87 52.4102 1130.84 53.3418 1130.84 55.6445V62.0781H1128.38V60.7598H1128.31C1127.84 61.6387 1126.94 62.2539 1125.52 62.2539C1123.69 62.2539 1122.33 61.3047 1122.33 59.4062ZM1124.83 59.3359C1124.83 60.0742 1125.43 60.4609 1126.25 60.4609C1127.43 60.4609 1128.28 59.6699 1128.26 58.668V57.9648C1127.86 57.9824 1126.76 58.0439 1126.31 58.0879C1125.41 58.1758 1124.83 58.5977 1124.83 59.3359ZM1137.91 52.5332V54.4844H1136.01V62.0781H1133.41V54.4844H1132.06V52.5332H1133.41V51.8125C1133.41 49.8086 1134.62 48.7539 1136.54 48.7539C1137.14 48.7539 1137.63 48.8066 1138.08 48.9121V50.8809C1137.72 50.8457 1137.43 50.8281 1137.29 50.8281C1136.45 50.8281 1136.01 51.1621 1136.01 51.9531V52.5332H1137.91ZM1143.41 62.2715C1140.49 62.2715 1138.7 60.373 1138.7 57.3496C1138.7 54.3965 1140.51 52.4102 1143.31 52.4102C1145.82 52.4102 1147.79 53.9922 1147.79 57.2441V57.9824H1141.27C1141.27 59.4238 1142.13 60.3203 1143.46 60.3203C1144.34 60.3203 1144.98 59.9336 1145.24 59.3535H1147.72C1147.35 61.1113 1145.77 62.2715 1143.41 62.2715ZM1141.27 56.3477H1145.33C1145.33 55.1875 1144.52 54.3613 1143.36 54.3613C1142.16 54.3613 1141.31 55.249 1141.27 56.3477ZM1154.45 52.5332V54.4844H1152.66V59.1426C1152.66 59.8984 1153.03 60.0918 1153.55 60.1094C1153.82 60.1094 1154.27 60.0918 1154.59 60.0566V62.1133C1154.31 62.166 1153.85 62.2012 1153.2 62.2012C1151.32 62.2012 1150.04 61.3574 1150.06 59.5117V54.4844H1148.74V52.5332H1150.06V50.248H1152.66V52.5332H1154.45ZM1157.61 65.6641C1157.1 65.6641 1156.63 65.6465 1156.3 65.6113V63.5898C1156.63 63.6074 1157.02 63.625 1157.35 63.625C1157.86 63.625 1158.28 63.5723 1158.6 62.7461L1158.76 62.3418L1155.33 52.5332H1158.05L1160.06 59.5645H1160.16L1162.18 52.5332H1164.94L1161.22 63.1328C1160.67 64.6621 1159.64 65.6641 1157.61 65.6641ZM1178.92 53.7812C1178.71 52.375 1177.62 51.5137 1176.14 51.5137C1174.16 51.5137 1172.85 53.043 1172.85 55.7148C1172.85 58.457 1174.17 59.916 1176.12 59.916C1177.58 59.916 1178.66 59.1074 1178.92 57.7363L1181.59 57.7539C1181.29 60.1094 1179.32 62.2539 1176.09 62.2539C1172.68 62.2539 1170.17 59.8633 1170.17 55.7148C1170.17 51.5664 1172.73 49.1758 1176.09 49.1758C1179.02 49.1758 1181.24 50.8633 1181.59 53.7812H1178.92ZM1182.93 59.4062C1182.93 57.2793 1184.65 56.5762 1186.48 56.4707C1187.16 56.4268 1188.45 56.3652 1188.85 56.3477V55.5742C1188.83 54.7832 1188.29 54.3086 1187.32 54.3086C1186.44 54.3086 1185.88 54.7129 1185.74 55.3633H1183.26C1183.42 53.7109 1184.86 52.4102 1187.39 52.4102C1189.47 52.4102 1191.43 53.3418 1191.43 55.6445V62.0781H1188.97V60.7598H1188.9C1188.43 61.6387 1187.53 62.2539 1186.11 62.2539C1184.28 62.2539 1182.93 61.3047 1182.93 59.4062ZM1185.42 59.3359C1185.42 60.0742 1186.02 60.4609 1186.85 60.4609C1188.02 60.4609 1188.87 59.6699 1188.85 58.668V57.9648C1188.46 57.9824 1187.35 58.0439 1186.9 58.0879C1186 58.1758 1185.42 58.5977 1185.42 59.3359ZM1193.42 65.6641V52.5332H1195.99V54.1328H1196.09C1196.44 53.3594 1197.22 52.4102 1198.82 52.4102C1200.93 52.4102 1202.68 54.0449 1202.68 57.3145C1202.68 60.4961 1201 62.2363 1198.82 62.2363C1197.25 62.2363 1196.46 61.3398 1196.09 60.5488H1196.02V65.6641H1193.42ZM1195.97 57.2969C1195.97 59.0195 1196.71 60.1621 1197.99 60.1621C1199.33 60.1621 1200.03 58.9844 1200.03 57.2969C1200.03 55.627 1199.33 54.4844 1197.99 54.4844C1196.69 54.4844 1195.97 55.5742 1195.97 57.2969ZM1203.92 59.4062C1203.92 57.2793 1205.64 56.5762 1207.47 56.4707C1208.15 56.4268 1209.43 56.3652 1209.84 56.3477V55.5742C1209.82 54.7832 1209.28 54.3086 1208.31 54.3086C1207.43 54.3086 1206.87 54.7129 1206.73 55.3633H1204.25C1204.41 53.7109 1205.85 52.4102 1208.38 52.4102C1210.45 52.4102 1212.42 53.3418 1212.42 55.6445V62.0781H1209.96V60.7598H1209.89C1209.42 61.6387 1208.52 62.2539 1207.1 62.2539C1205.27 62.2539 1203.92 61.3047 1203.92 59.4062ZM1206.41 59.3359C1206.41 60.0742 1207.01 60.4609 1207.83 60.4609C1209.01 60.4609 1209.86 59.6699 1209.84 58.668V57.9648C1209.44 57.9824 1208.34 58.0439 1207.89 58.0879C1206.99 58.1758 1206.41 58.5977 1206.41 59.3359ZM1214.46 62.0781V49.3516H1217.06V54.1328H1217.13C1217.5 53.3594 1218.26 52.4102 1219.86 52.4102C1221.97 52.4102 1223.74 54.0449 1223.74 57.3145C1223.74 60.4961 1222.04 62.2363 1219.86 62.2363C1218.29 62.2363 1217.5 61.3398 1217.13 60.5488H1217.03V62.0781H1214.46ZM1217.01 57.2969C1217.01 59.0195 1217.75 60.1621 1219.03 60.1621C1220.37 60.1621 1221.07 58.9844 1221.07 57.2969C1221.07 55.627 1220.37 54.4844 1219.03 54.4844C1217.73 54.4844 1217.01 55.5742 1217.01 57.2969ZM1225.41 62.0781V52.5332H1228.01V62.0781H1225.41ZM1226.71 51.2852C1225.92 51.2852 1225.29 50.6875 1225.29 49.9668C1225.29 49.2285 1225.92 48.6309 1226.71 48.6309C1227.49 48.6309 1228.12 49.2285 1228.12 49.9668C1228.12 50.6875 1227.49 51.2852 1226.71 51.2852ZM1232.64 49.3516V62.0781H1230.04V49.3516H1232.64ZM1234.66 62.0781V52.5332H1237.26V62.0781H1234.66ZM1235.96 51.2852C1235.17 51.2852 1234.54 50.6875 1234.54 49.9668C1234.54 49.2285 1235.17 48.6309 1235.96 48.6309C1236.73 48.6309 1237.37 49.2285 1237.37 49.9668C1237.37 50.6875 1236.73 51.2852 1235.96 51.2852ZM1244.31 52.5332V54.4844H1242.52V59.1426C1242.52 59.8984 1242.89 60.0918 1243.41 60.1094C1243.68 60.1094 1244.13 60.0918 1244.45 60.0566V62.1133C1244.17 62.166 1243.71 62.2012 1243.06 62.2012C1241.18 62.2012 1239.9 61.3574 1239.92 59.5117V54.4844H1238.6V52.5332H1239.92V50.248H1242.52V52.5332H1244.31ZM1245.94 62.0781V52.5332H1248.55V62.0781H1245.94ZM1247.25 51.2852C1246.45 51.2852 1245.82 50.6875 1245.82 49.9668C1245.82 49.2285 1246.45 48.6309 1247.25 48.6309C1248.02 48.6309 1248.65 49.2285 1248.65 49.9668C1248.65 50.6875 1248.02 51.2852 1247.25 51.2852ZM1254.89 62.2715C1251.97 62.2715 1250.18 60.373 1250.18 57.3496C1250.18 54.3965 1251.99 52.4102 1254.79 52.4102C1257.3 52.4102 1259.27 53.9922 1259.27 57.2441V57.9824H1252.75C1252.75 59.4238 1253.61 60.3203 1254.94 60.3203C1255.82 60.3203 1256.46 59.9336 1256.72 59.3535H1259.2C1258.83 61.1113 1257.25 62.2715 1254.89 62.2715ZM1252.75 56.3477H1256.81C1256.81 55.1875 1256 54.3613 1254.84 54.3613C1253.64 54.3613 1252.79 55.249 1252.75 56.3477ZM1266.35 55.3633C1266.25 54.6953 1265.65 54.2559 1264.79 54.2559C1263.94 54.2559 1263.29 54.6602 1263.31 55.2402C1263.29 55.6621 1263.65 55.9961 1264.54 56.1895L1266.25 56.541C1268.09 56.9277 1268.99 57.7539 1269.01 59.125C1268.99 61.0059 1267.3 62.2715 1264.77 62.2715C1262.19 62.2715 1260.67 61.1113 1260.46 59.248H1263.08C1263.21 60.0039 1263.82 60.3906 1264.77 60.3906C1265.72 60.3906 1266.35 60.0039 1266.35 59.3887C1266.35 58.8965 1265.95 58.5977 1265.05 58.4043L1263.47 58.0879C1261.66 57.7363 1260.71 56.7871 1260.73 55.3809C1260.71 53.5527 1262.29 52.4102 1264.75 52.4102C1267.16 52.4102 1268.66 53.5527 1268.8 55.3633H1266.35Z" fill="#005EB8"/>
<rect x="1053.87" y="649.155" width="236.133" height="84.1493" rx="13.7387" fill="white"/>
<path d="M1155.65 684.23H1151.16V671.503H1155.7C1159.53 671.503 1161.87 673.894 1161.87 677.849C1161.87 681.839 1159.53 684.23 1155.65 684.23ZM1153.8 681.962H1155.54C1157.97 681.962 1159.23 680.697 1159.23 677.849C1159.23 675.019 1157.97 673.771 1155.56 673.771H1153.8V681.962ZM1163.28 681.558C1163.28 679.431 1165 678.728 1166.83 678.623C1167.51 678.579 1168.79 678.517 1169.2 678.5V677.726C1169.18 676.935 1168.64 676.46 1167.67 676.46C1166.79 676.46 1166.23 676.865 1166.09 677.515H1163.61C1163.77 675.863 1165.21 674.562 1167.74 674.562C1169.81 674.562 1171.78 675.494 1171.78 677.796V684.23H1169.32V682.912H1169.25C1168.78 683.791 1167.88 684.406 1166.46 684.406C1164.63 684.406 1163.28 683.457 1163.28 681.558ZM1165.77 681.488C1165.77 682.226 1166.37 682.613 1167.2 682.613C1168.37 682.613 1169.22 681.822 1169.2 680.82V680.117C1168.8 680.134 1167.7 680.196 1167.25 680.24C1166.35 680.328 1165.77 680.75 1165.77 681.488ZM1178.09 684.423C1175.18 684.423 1173.38 682.525 1173.38 679.501C1173.38 676.548 1175.19 674.562 1177.99 674.562C1180.5 674.562 1182.47 676.144 1182.47 679.396V680.134H1175.95C1175.95 681.576 1176.81 682.472 1178.15 682.472C1179.03 682.472 1179.66 682.085 1179.92 681.505H1182.4C1182.03 683.263 1180.45 684.423 1178.09 684.423ZM1175.95 678.5H1180.01C1180.01 677.339 1179.2 676.513 1178.04 676.513C1176.85 676.513 1175.99 677.401 1175.95 678.5ZM1187.62 684.388C1185.44 684.388 1183.74 682.648 1183.74 679.466C1183.74 676.197 1185.51 674.562 1187.62 674.562C1189.22 674.562 1189.98 675.511 1190.33 676.285H1190.42V671.503H1193.02V684.23H1190.45V682.701H1190.33C1189.96 683.492 1189.17 684.388 1187.62 684.388ZM1188.43 682.314C1189.73 682.314 1190.47 681.171 1190.47 679.449C1190.47 677.726 1189.73 676.636 1188.43 676.636C1187.11 676.636 1186.41 677.779 1186.41 679.449C1186.41 681.136 1187.11 682.314 1188.43 682.314ZM1199.4 684.423C1196.52 684.423 1194.72 682.437 1194.72 679.484C1194.72 676.531 1196.52 674.562 1199.4 674.562C1202.28 674.562 1204.09 676.531 1204.09 679.484C1204.09 682.437 1202.28 684.423 1199.4 684.423ZM1199.42 682.402C1200.75 682.402 1201.44 681.154 1201.44 679.484C1201.44 677.796 1200.75 676.548 1199.42 676.548C1198.06 676.548 1197.36 677.796 1197.36 679.484C1197.36 681.154 1198.06 682.402 1199.42 682.402ZM1208.33 678.71V684.23H1205.73V674.685H1208.21V676.355H1208.31C1208.75 675.248 1209.77 674.562 1211.18 674.562C1213.16 674.562 1214.48 675.916 1214.46 678.148V684.23H1211.88V678.605C1211.88 677.427 1211.23 676.724 1210.16 676.724C1209.07 676.724 1208.33 677.445 1208.33 678.71ZM1220.77 688.009C1218.14 688.009 1216.52 686.832 1216.36 685.021H1218.93C1219.07 685.777 1219.79 686.128 1220.83 686.128C1222.04 686.128 1222.85 685.619 1222.85 684.283V682.542H1222.72C1222.37 683.316 1221.53 684.089 1220 684.089C1217.84 684.089 1216.12 682.578 1216.12 679.396C1216.12 676.162 1217.89 674.562 1220 674.562C1221.6 674.562 1222.37 675.511 1222.72 676.285H1222.83V674.685H1225.41V684.335C1225.41 686.761 1223.48 688.009 1220.77 688.009ZM1220.81 682.138C1222.11 682.138 1222.85 681.119 1222.85 679.431C1222.85 677.726 1222.11 676.636 1220.81 676.636C1219.49 676.636 1218.79 677.779 1218.79 679.431C1218.79 681.083 1219.49 682.138 1220.81 682.138ZM1236.12 684.23H1231.64V671.503H1236.17C1240 671.503 1242.34 673.894 1242.34 677.849C1242.34 681.839 1240 684.23 1236.12 684.23ZM1234.27 681.962H1236.01C1238.44 681.962 1239.71 680.697 1239.71 677.849C1239.71 675.019 1238.44 673.771 1236.03 673.771H1234.27V681.962ZM1248.49 684.423C1245.61 684.423 1243.82 682.437 1243.82 679.484C1243.82 676.531 1245.61 674.562 1248.49 674.562C1251.38 674.562 1253.19 676.531 1253.19 679.484C1253.19 682.437 1251.38 684.423 1248.49 684.423ZM1248.51 682.402C1249.85 682.402 1250.53 681.154 1250.53 679.484C1250.53 677.796 1249.85 676.548 1248.51 676.548C1247.16 676.548 1246.46 677.796 1246.46 679.484C1246.46 681.154 1247.16 682.402 1248.51 682.402ZM1259.11 684.423C1256.23 684.423 1254.44 682.437 1254.44 679.484C1254.44 676.531 1256.23 674.562 1259.11 674.562C1261.99 674.562 1263.8 676.531 1263.8 679.484C1263.8 682.437 1261.99 684.423 1259.11 684.423ZM1259.13 682.402C1260.46 682.402 1261.15 681.154 1261.15 679.484C1261.15 677.796 1260.46 676.548 1259.13 676.548C1257.78 676.548 1257.07 677.796 1257.07 679.484C1257.07 681.154 1257.78 682.402 1259.13 682.402ZM1265.44 684.23V674.685H1267.95V676.337H1268.06C1268.41 675.16 1269.29 674.544 1270.36 674.544C1270.62 674.544 1270.96 674.58 1271.19 674.632V676.953C1270.94 676.882 1270.45 676.812 1270.08 676.812C1268.9 676.812 1268.04 677.638 1268.04 678.798V684.23H1265.44ZM1074.26 711.23V698.503H1082.8V700.683H1076.9V703.777H1082.36V705.957H1076.9V709.05H1082.82V711.23H1074.26ZM1091.77 702.142C1091.66 701.14 1090.85 700.542 1089.57 700.542C1088.23 700.542 1087.5 701.158 1087.48 702.001C1087.46 702.916 1088.43 703.337 1089.52 703.583L1090.66 703.865C1092.84 704.357 1094.47 705.464 1094.47 707.591C1094.47 709.929 1092.65 711.406 1089.55 711.406C1086.48 711.406 1084.51 709.982 1084.44 707.257H1087C1087.09 708.541 1088.11 709.191 1089.52 709.191C1090.91 709.191 1091.8 708.541 1091.8 707.591C1091.8 706.73 1091.01 706.326 1089.62 705.974L1088.23 705.64C1086.09 705.113 1084.77 704.041 1084.77 702.177C1084.77 699.857 1086.81 698.328 1089.59 698.328C1092.4 698.328 1094.26 699.892 1094.3 702.142H1091.77ZM1096.2 711.23V698.503H1098.83V703.777H1104.35V698.503H1107.01V711.23H1104.35V705.957H1098.83V711.23H1096.2ZM1120.21 702.142C1120.1 701.14 1119.29 700.542 1118.01 700.542C1116.68 700.542 1115.94 701.158 1115.92 702.001C1115.9 702.916 1116.87 703.337 1117.96 703.583L1119.1 703.865C1121.28 704.357 1122.92 705.464 1122.92 707.591C1122.92 709.929 1121.09 711.406 1117.99 711.406C1114.92 711.406 1112.95 709.982 1112.88 707.257H1115.45C1115.53 708.541 1116.55 709.191 1117.96 709.191C1119.35 709.191 1120.24 708.541 1120.24 707.591C1120.24 706.73 1119.45 706.326 1118.06 705.974L1116.68 705.64C1114.53 705.113 1113.21 704.041 1113.21 702.177C1113.21 699.857 1115.25 698.328 1118.03 698.328C1120.84 698.328 1122.71 699.892 1122.74 702.142H1120.21ZM1123.87 698.503H1126.84L1129.77 703.988H1129.89L1132.81 698.503H1135.78L1131.14 706.695V711.23H1128.51V706.695L1123.87 698.503ZM1144.06 702.142C1143.96 701.14 1143.15 700.542 1141.87 700.542C1140.53 700.542 1139.79 701.158 1139.77 702.001C1139.76 702.916 1140.72 703.337 1141.81 703.583L1142.96 703.865C1145.13 704.357 1146.77 705.464 1146.77 707.591C1146.77 709.929 1144.94 711.406 1141.85 711.406C1138.77 711.406 1136.8 709.982 1136.73 707.257H1139.3C1139.39 708.541 1140.41 709.191 1141.81 709.191C1143.2 709.191 1144.1 708.541 1144.1 707.591C1144.1 706.73 1143.31 706.326 1141.92 705.974L1140.53 705.64C1138.38 705.113 1137.07 704.041 1137.07 702.177C1137.07 699.857 1139.11 698.328 1141.88 698.328C1144.7 698.328 1146.56 699.892 1146.59 702.142H1144.06ZM1148 700.683V698.503H1158.42V700.683H1154.52V711.23H1151.9V700.683H1148ZM1160.06 711.23V698.503H1168.6V700.683H1162.7V703.777H1168.16V705.957H1162.7V709.05H1168.62V711.23H1160.06ZM1170.66 698.503H1173.93L1177.46 707.134H1177.6L1181.13 698.503H1184.4V711.23H1181.84V702.898H1181.73L1178.41 711.177H1176.65L1173.33 702.863H1173.22V711.23H1170.66V698.503ZM1190.7 711.23V698.503H1193.33V709.05H1198.82V711.23H1190.7ZM1200.52 711.23V698.503H1209.07V700.683H1203.16V703.777H1208.63V705.957H1203.16V709.05H1209.08V711.23H1200.52ZM1213.36 698.503L1216.45 708.207H1216.57L1219.68 698.503H1222.6L1218.21 711.23H1214.81L1210.4 698.503H1213.36ZM1224.04 711.23V698.503H1232.59V700.683H1226.68V703.777H1232.15V705.957H1226.68V709.05H1232.6V711.23H1224.04ZM1234.64 711.23V698.503H1237.28V709.05H1242.76V711.23H1234.64ZM1256.49 698.503H1259.15V706.765C1259.15 709.56 1257.04 711.406 1253.87 711.406C1250.71 711.406 1248.62 709.56 1248.62 706.765V698.503H1251.25V706.554C1251.25 708.013 1252.29 709.085 1253.87 709.085C1255.47 709.085 1256.49 708.013 1256.49 706.554V698.503ZM1261.29 711.23V698.503H1266.28C1269.18 698.503 1270.84 700.279 1270.84 702.792C1270.84 705.341 1269.15 707.082 1266.21 707.082H1263.93V711.23H1261.29ZM1263.93 704.955H1265.79C1267.36 704.955 1268.11 704.076 1268.11 702.792C1268.11 701.527 1267.36 700.666 1265.79 700.666H1263.93V704.955Z" fill="#012391"/>
<path d="M617.273 184.542L566.955 138.191L617.17 91.9346C481.715 107.184 376.073 222.418 376.073 361.874C376.073 365.111 376.15 368.339 376.262 371.551H349.764L379.276 403.588L421.84 449.801L471.128 396.289L493.908 371.551H468.071C467.899 368.348 467.805 365.119 467.805 361.874C467.805 273.045 532.514 199.053 617.264 184.542H617.273Z" fill="#24C2FF"/>
<path d="M647.736 90.2096C646.886 90.2096 646.045 90.2354 645.203 90.244V66.124L617.168 91.9441L566.953 138.201L617.271 184.551L645.203 210.277V181.993C646.045 181.984 646.895 181.958 647.736 181.958C740.618 181.958 817.28 252.695 826.683 343.13L869.607 296.521L919.135 350.291C913.039 205.855 793.65 90.2182 647.736 90.2182V90.2096Z" fill="#005EB8"/>
<path d="M679.807 538.94L647.221 508.93V541.799C560.006 541.559 487.2 478.936 471.126 396.298L421.838 449.81L379.274 403.597C399.375 533.496 511.843 633.29 647.221 633.539V653.074L669.357 632.681L725.471 580.998L679.807 538.94Z" fill="#000D51"/>
<path d="M919.14 350.292L869.612 296.522L826.687 343.13L797.535 374.781H827.194C821.329 457.247 759.651 524.524 679.812 538.949L725.476 581.007L669.362 632.69C804.851 621.965 912.674 511.412 919.088 374.781H941.688L919.14 350.3V350.292Z" fill="#012391"/>
<rect x="633.894" y="326.296" width="25.76" height="25.76" fill="#000D51"/>
<path d="M646.345 374.382L624.449 350.339L668.241 350.339L646.345 374.382Z" fill="#000D51"/>
<path d="M536.165 271.008V251.211H549.454V254.602H540.266V259.414H548.77V262.805H540.266V267.617H549.481V271.008H536.165ZM561.048 260.562C560.884 259.523 559.954 258.84 558.614 258.84C557.302 258.84 556.29 259.469 556.317 260.371C556.29 261.027 556.837 261.547 558.231 261.848L560.884 262.395C563.755 262.996 565.149 264.281 565.177 266.414C565.149 269.34 562.524 271.309 558.587 271.309C554.567 271.309 552.216 269.504 551.888 266.605H555.962C556.153 267.781 557.11 268.383 558.587 268.383C560.063 268.383 561.048 267.781 561.048 266.824C561.048 266.059 560.419 265.594 559.024 265.293L556.563 264.801C553.747 264.254 552.27 262.777 552.298 260.59C552.27 257.746 554.731 255.969 558.559 255.969C562.306 255.969 564.63 257.746 564.848 260.562H561.048ZM575.485 256.16V259.195H572.696V266.441C572.696 267.617 573.27 267.918 574.091 267.945C574.501 267.945 575.212 267.918 575.704 267.863V271.062C575.266 271.145 574.556 271.199 573.544 271.199C570.618 271.199 568.622 269.887 568.649 267.016V259.195H566.598V256.16H568.649V252.605H572.696V256.16H575.485ZM577.317 266.852C577.317 263.543 579.997 262.449 582.841 262.285C583.907 262.217 585.903 262.121 586.532 262.094V260.891C586.505 259.66 585.657 258.922 584.153 258.922C582.786 258.922 581.911 259.551 581.692 260.562H577.837C578.083 257.992 580.325 255.969 584.263 255.969C587.489 255.969 590.552 257.418 590.552 261V271.008H586.723V268.957H586.614C585.876 270.324 584.481 271.281 582.266 271.281C579.423 271.281 577.317 269.805 577.317 266.852ZM581.2 266.742C581.2 267.891 582.13 268.492 583.415 268.492C585.247 268.492 586.559 267.262 586.532 265.703V264.609C585.917 264.637 584.194 264.732 583.497 264.801C582.102 264.938 581.2 265.594 581.2 266.742ZM593.723 271.008V251.211H597.77V258.648H597.88C598.454 257.445 599.63 255.969 602.118 255.969C605.399 255.969 608.161 258.512 608.161 263.598C608.161 268.547 605.509 271.254 602.118 271.254C599.684 271.254 598.454 269.859 597.88 268.629H597.716V271.008H593.723ZM597.688 263.57C597.688 266.25 598.837 268.027 600.833 268.027C602.911 268.027 604.005 266.195 604.005 263.57C604.005 260.973 602.911 259.195 600.833 259.195C598.809 259.195 597.688 260.891 597.688 263.57ZM614.806 251.211V271.008H610.759V251.211H614.806ZM617.95 271.008V256.16H621.997V271.008H617.95ZM619.973 254.219C618.743 254.219 617.759 253.289 617.759 252.168C617.759 251.02 618.743 250.09 619.973 250.09C621.177 250.09 622.161 251.02 622.161 252.168C622.161 253.289 621.177 254.219 619.973 254.219ZM633.618 260.562C633.454 259.523 632.524 258.84 631.184 258.84C629.872 258.84 628.86 259.469 628.888 260.371C628.86 261.027 629.407 261.547 630.802 261.848L633.454 262.395C636.325 262.996 637.72 264.281 637.747 266.414C637.72 269.34 635.095 271.309 631.157 271.309C627.138 271.309 624.786 269.504 624.458 266.605H628.532C628.723 267.781 629.681 268.383 631.157 268.383C632.634 268.383 633.618 267.781 633.618 266.824C633.618 266.059 632.989 265.594 631.595 265.293L629.134 264.801C626.317 264.254 624.841 262.777 624.868 260.59C624.841 257.746 627.302 255.969 631.13 255.969C634.876 255.969 637.2 257.746 637.419 260.562H633.618ZM644.282 262.422V271.008H640.235V251.211H644.173V258.758H644.337C645.02 257.035 646.524 255.969 648.766 255.969C651.856 255.969 653.907 258.047 653.907 261.547V271.008H649.86V262.258C649.86 260.426 648.876 259.332 647.181 259.332C645.485 259.332 644.282 260.453 644.282 262.422ZM657.024 271.008V256.16H660.88V258.758H661.044C661.673 257.035 663.177 255.969 665.173 255.969C667.223 255.969 668.727 257.035 669.22 258.758H669.356C669.985 257.062 671.653 255.969 673.841 255.969C676.602 255.969 678.516 257.801 678.516 261.027V271.008H674.47V261.82C674.47 260.125 673.485 259.305 672.145 259.305C670.614 259.305 669.739 260.371 669.739 261.93V271.008H665.802V261.711C665.802 260.234 664.872 259.305 663.505 259.305C662.138 259.305 661.071 260.398 661.071 262.094V271.008H657.024ZM688.36 271.309C683.821 271.309 681.032 268.355 681.032 263.652C681.032 259.059 683.848 255.969 688.196 255.969C692.106 255.969 695.169 258.43 695.169 263.488V264.637H685.024C685.024 266.879 686.364 268.273 688.442 268.273C689.809 268.273 690.794 267.672 691.204 266.77H695.059C694.485 269.504 692.024 271.309 688.36 271.309ZM685.024 262.094H691.341C691.341 260.289 690.083 259.004 688.278 259.004C686.419 259.004 685.093 260.385 685.024 262.094ZM701.759 262.422V271.008H697.712V256.16H701.567V258.758H701.731C702.415 257.035 704.001 255.969 706.188 255.969C709.278 255.969 711.329 258.074 711.302 261.547V271.008H707.282V262.258C707.282 260.426 706.27 259.332 704.602 259.332C702.907 259.332 701.759 260.453 701.759 262.422ZM722.266 256.16V259.195H719.477V266.441C719.477 267.617 720.052 267.918 720.872 267.945C721.282 267.945 721.993 267.918 722.485 267.863V271.062C722.048 271.145 721.337 271.199 720.325 271.199C717.399 271.199 715.403 269.887 715.431 267.016V259.195H713.38V256.16H715.431V252.605H719.477V256.16H722.266ZM737.934 271.309C733.45 271.309 730.661 268.219 730.661 263.625C730.661 259.031 733.45 255.969 737.934 255.969C742.419 255.969 745.235 259.031 745.235 263.625C745.235 268.219 742.419 271.309 737.934 271.309ZM737.962 268.164C740.04 268.164 741.106 266.223 741.106 263.625C741.106 261 740.04 259.059 737.962 259.059C735.856 259.059 734.763 261 734.763 263.625C734.763 266.223 735.856 268.164 737.962 268.164ZM755.681 256.16V259.195H752.727V271.008H748.681V259.195H746.575V256.16H748.681V255.039C748.681 251.922 750.567 250.281 753.548 250.281C754.477 250.281 755.243 250.363 755.954 250.527V253.59C755.38 253.535 754.942 253.508 754.723 253.508C753.411 253.508 752.727 254.027 752.727 255.258V256.16H755.681ZM567.911 307.008V287.211H581.2V290.602H572.013V295.414H580.516V298.805H572.013V303.617H581.227V307.008H567.911ZM595.145 292.871C594.981 291.312 593.723 290.383 591.727 290.383C589.649 290.383 588.501 291.34 588.473 292.652C588.446 294.074 589.95 294.73 591.645 295.113L593.423 295.551C596.813 296.316 599.356 298.039 599.356 301.348C599.356 304.984 596.513 307.281 591.7 307.281C586.915 307.281 583.852 305.066 583.743 300.828H587.735C587.872 302.824 589.458 303.836 591.645 303.836C593.806 303.836 595.2 302.824 595.2 301.348C595.2 300.008 593.97 299.379 591.809 298.832L589.649 298.312C586.313 297.492 584.263 295.824 584.263 292.926C584.263 289.316 587.434 286.938 591.755 286.938C596.13 286.938 599.028 289.371 599.083 292.871H595.145ZM602.036 307.008V287.211H606.138V295.414H614.723V287.211H618.852V307.008H614.723V298.805H606.138V307.008H602.036ZM641.876 294.102C641.548 291.914 639.852 290.574 637.556 290.574C634.466 290.574 632.442 292.953 632.442 297.109C632.442 301.375 634.493 303.645 637.528 303.645C639.798 303.645 641.466 302.387 641.876 300.254L646.032 300.281C645.567 303.945 642.505 307.281 637.473 307.281C632.169 307.281 628.259 303.562 628.259 297.109C628.259 290.656 632.251 286.938 637.473 286.938C642.04 286.938 645.485 289.562 646.032 294.102H641.876ZM658.337 300.691V292.16H662.384V307.008H658.501V304.328H658.337C657.653 306.051 656.067 307.199 653.825 307.199C650.845 307.199 648.821 305.094 648.821 301.621V292.16H652.868V300.91C652.868 302.66 653.88 303.781 655.466 303.781C656.942 303.781 658.337 302.715 658.337 300.691ZM669.575 287.211V307.008H665.528V287.211H669.575ZM680.54 292.16V295.195H677.751V302.441C677.751 303.617 678.325 303.918 679.145 303.945C679.556 303.945 680.266 303.918 680.759 303.863V307.062C680.321 307.145 679.61 307.199 678.598 307.199C675.673 307.199 673.677 305.887 673.704 303.016V295.195H671.653V292.16H673.704V288.605H677.751V292.16H680.54ZM692.598 300.691V292.16H696.645V307.008H692.763V304.328H692.598C691.915 306.051 690.329 307.199 688.087 307.199C685.106 307.199 683.083 305.094 683.083 301.621V292.16H687.13V300.91C687.13 302.66 688.141 303.781 689.727 303.781C691.204 303.781 692.598 302.715 692.598 300.691ZM699.79 307.008V292.16H703.7V294.73H703.864C704.411 292.898 705.778 291.941 707.446 291.941C707.856 291.941 708.376 291.996 708.731 292.078V295.688C708.348 295.578 707.583 295.469 707.009 295.469C705.177 295.469 703.837 296.754 703.837 298.559V307.008H699.79ZM716.962 307.309C712.423 307.309 709.634 304.355 709.634 299.652C709.634 295.059 712.45 291.969 716.798 291.969C720.708 291.969 723.77 294.43 723.77 299.488V300.637H713.626C713.626 302.879 714.966 304.273 717.044 304.273C718.411 304.273 719.395 303.672 719.806 302.77H723.661C723.087 305.504 720.626 307.309 716.962 307.309ZM713.626 298.094H719.942C719.942 296.289 718.684 295.004 716.88 295.004C715.02 295.004 713.694 296.385 713.626 298.094Z" fill="#192A67"/>
<path d="M576.147 414.405V411.944L586.073 397.999H576.12V394.608H591.214V397.069L581.315 411.014H591.241V414.405H576.147ZM600.975 414.706C596.436 414.706 593.647 411.753 593.647 407.05C593.647 402.456 596.464 399.366 600.811 399.366C604.721 399.366 607.784 401.827 607.784 406.885V408.034H597.639C597.639 410.276 598.979 411.671 601.057 411.671C602.424 411.671 603.409 411.069 603.819 410.167H607.674C607.1 412.901 604.639 414.706 600.975 414.706ZM597.639 405.491H603.956C603.956 403.686 602.698 402.401 600.893 402.401C599.034 402.401 597.708 403.782 597.639 405.491ZM610.327 414.405V399.557H614.237V402.128H614.401C614.948 400.296 616.315 399.339 617.983 399.339C618.393 399.339 618.913 399.393 619.268 399.475V403.085C618.885 402.975 618.12 402.866 617.546 402.866C615.714 402.866 614.374 404.151 614.374 405.956V414.405H610.327ZM627.444 414.706C622.96 414.706 620.171 411.616 620.171 407.022C620.171 402.428 622.96 399.366 627.444 399.366C631.928 399.366 634.745 402.428 634.745 407.022C634.745 411.616 631.928 414.706 627.444 414.706ZM627.471 411.561C629.549 411.561 630.616 409.62 630.616 407.022C630.616 404.397 629.549 402.456 627.471 402.456C625.366 402.456 624.272 404.397 624.272 407.022C624.272 409.62 625.366 411.561 627.471 411.561ZM643.823 394.608H648.909L654.405 408.034H654.624L660.12 394.608H665.206V414.405H661.214V401.444H661.049L655.882 414.323H653.147L647.979 401.389H647.815V414.405H643.823V394.608ZM667.749 410.249C667.749 406.94 670.428 405.846 673.272 405.682C674.339 405.614 676.335 405.518 676.964 405.491V404.288C676.936 403.057 676.089 402.319 674.585 402.319C673.217 402.319 672.342 402.948 672.124 403.96H668.268C668.514 401.389 670.757 399.366 674.694 399.366C677.921 399.366 680.983 400.815 680.983 404.397V414.405H677.155V412.354H677.046C676.307 413.721 674.913 414.678 672.698 414.678C669.854 414.678 667.749 413.202 667.749 410.249ZM671.632 410.139C671.632 411.288 672.561 411.889 673.846 411.889C675.678 411.889 676.991 410.659 676.964 409.1V408.007C676.348 408.034 674.626 408.13 673.928 408.198C672.534 408.335 671.632 408.991 671.632 410.139ZM684.073 399.557H688.12V415.143C688.12 418.561 686.014 419.983 682.542 419.983L681.721 419.956V416.784C681.94 416.784 682.077 416.811 682.268 416.811C683.581 416.811 684.073 416.21 684.073 415.089V399.557ZM686.069 397.616C684.839 397.616 683.854 396.686 683.854 395.565C683.854 394.417 684.839 393.487 686.069 393.487C687.272 393.487 688.257 394.417 688.257 395.565C688.257 396.686 687.272 397.616 686.069 397.616ZM697.936 414.706C693.452 414.706 690.663 411.616 690.663 407.022C690.663 402.428 693.452 399.366 697.936 399.366C702.421 399.366 705.237 402.428 705.237 407.022C705.237 411.616 702.421 414.706 697.936 414.706ZM697.964 411.561C700.042 411.561 701.108 409.62 701.108 407.022C701.108 404.397 700.042 402.456 697.964 402.456C695.858 402.456 694.764 404.397 694.764 407.022C694.764 409.62 695.858 411.561 697.964 411.561ZM707.78 414.405V399.557H711.69V402.128H711.854C712.401 400.296 713.768 399.339 715.436 399.339C715.846 399.339 716.366 399.393 716.721 399.475V403.085C716.339 402.975 715.573 402.866 714.999 402.866C713.167 402.866 711.827 404.151 711.827 405.956V414.405H707.78ZM589.505 430.608V450.405H585.403V430.608H589.505ZM596.805 441.819V450.405H592.758V435.557H596.614V438.155H596.778C597.462 436.432 599.048 435.366 601.235 435.366C604.325 435.366 606.376 437.471 606.348 440.944V450.405H602.329V441.655C602.329 439.823 601.317 438.729 599.649 438.729C597.954 438.729 596.805 439.85 596.805 441.819ZM614.962 450.651C611.571 450.651 608.919 447.944 608.919 442.995C608.919 437.909 611.68 435.366 614.962 435.366C617.45 435.366 618.626 436.843 619.173 438.046H619.309V430.608H623.356V450.405H619.364V448.026H619.173C618.598 449.257 617.368 450.651 614.962 450.651ZM616.219 447.425C618.243 447.425 619.391 445.647 619.391 442.968C619.391 440.288 618.243 438.593 616.219 438.593C614.169 438.593 613.075 440.37 613.075 442.968C613.075 445.593 614.169 447.425 616.219 447.425ZM636.126 444.089V435.557H640.173V450.405H636.29V447.725H636.126C635.442 449.448 633.856 450.596 631.614 450.596C628.633 450.596 626.61 448.491 626.61 445.018V435.557H630.657V444.307C630.657 446.057 631.669 447.178 633.255 447.178C634.731 447.178 636.126 446.112 636.126 444.089ZM651.794 439.96C651.63 438.921 650.7 438.237 649.36 438.237C648.048 438.237 647.036 438.866 647.063 439.768C647.036 440.425 647.583 440.944 648.977 441.245L651.63 441.792C654.501 442.393 655.895 443.678 655.923 445.811C655.895 448.737 653.27 450.706 649.333 450.706C645.313 450.706 642.962 448.901 642.633 446.003H646.708C646.899 447.178 647.856 447.78 649.333 447.78C650.809 447.78 651.794 447.178 651.794 446.221C651.794 445.456 651.165 444.991 649.77 444.69L647.309 444.198C644.493 443.651 643.016 442.175 643.044 439.987C643.016 437.143 645.477 435.366 649.305 435.366C653.051 435.366 655.376 437.143 655.594 439.96H651.794ZM666.231 435.557V438.593H663.442V445.839C663.442 447.014 664.016 447.315 664.837 447.343C665.247 447.343 665.958 447.315 666.45 447.26V450.46C666.012 450.542 665.301 450.596 664.29 450.596C661.364 450.596 659.368 449.284 659.395 446.413V438.593H657.344V435.557H659.395V432.003H663.442V435.557H666.231ZM668.774 450.405V435.557H672.684V438.128H672.848C673.395 436.296 674.762 435.339 676.43 435.339C676.841 435.339 677.36 435.393 677.716 435.475V439.085C677.333 438.975 676.567 438.866 675.993 438.866C674.161 438.866 672.821 440.151 672.821 441.956V450.405H668.774ZM679.684 450.405V435.557H683.731V450.405H679.684ZM681.708 433.616C680.477 433.616 679.493 432.686 679.493 431.565C679.493 430.417 680.477 429.487 681.708 429.487C682.911 429.487 683.895 430.417 683.895 431.565C683.895 432.686 682.911 433.616 681.708 433.616ZM686.165 446.249C686.165 442.94 688.844 441.846 691.688 441.682C692.755 441.614 694.751 441.518 695.38 441.491V440.288C695.352 439.057 694.505 438.319 693.001 438.319C691.633 438.319 690.758 438.948 690.54 439.96H686.684C686.93 437.389 689.173 435.366 693.11 435.366C696.337 435.366 699.399 436.815 699.399 440.397V450.405H695.571V448.354H695.462C694.723 449.721 693.329 450.678 691.114 450.678C688.27 450.678 686.165 449.202 686.165 446.249ZM690.048 446.139C690.048 447.288 690.977 447.889 692.262 447.889C694.094 447.889 695.407 446.659 695.38 445.1V444.007C694.764 444.034 693.042 444.13 692.344 444.198C690.95 444.335 690.048 444.991 690.048 446.139ZM706.536 430.608V450.405H702.489V430.608H706.536ZM584.227 486.405H579.798L586.661 466.608H591.938L598.774 486.405H594.372L592.895 481.839H585.731L584.227 486.405ZM586.77 478.639H591.856L589.368 471.065H589.231L586.77 478.639ZM606.923 486.706C602.383 486.706 599.649 483.561 599.649 479.022C599.649 474.483 602.411 471.366 606.923 471.366C610.751 471.366 613.348 473.608 613.512 476.999H609.712C609.466 475.522 608.508 474.51 606.977 474.51C605.036 474.51 603.751 476.151 603.751 478.968C603.751 481.839 605.008 483.479 606.977 483.479C608.399 483.479 609.466 482.604 609.712 481.018H613.512C613.321 484.382 610.86 486.706 606.923 486.706ZM622.7 486.706C618.161 486.706 615.426 483.561 615.426 479.022C615.426 474.483 618.188 471.366 622.7 471.366C626.528 471.366 629.126 473.608 629.29 476.999H625.489C625.243 475.522 624.286 474.51 622.755 474.51C620.813 474.51 619.528 476.151 619.528 478.968C619.528 481.839 620.786 483.479 622.755 483.479C624.176 483.479 625.243 482.604 625.489 481.018H629.29C629.098 484.382 626.637 486.706 622.7 486.706ZM631.805 486.405V471.557H635.852V486.405H631.805ZM633.829 469.616C632.598 469.616 631.614 468.686 631.614 467.565C631.614 466.417 632.598 465.487 633.829 465.487C635.032 465.487 636.016 466.417 636.016 467.565C636.016 468.686 635.032 469.616 633.829 469.616ZM644.466 486.651C641.075 486.651 638.423 483.944 638.423 478.995C638.423 473.909 641.184 471.366 644.466 471.366C646.954 471.366 648.13 472.843 648.676 474.046H648.813V466.608H652.86V486.405H648.868V484.026H648.676C648.102 485.257 646.872 486.651 644.466 486.651ZM645.723 483.425C647.747 483.425 648.895 481.647 648.895 478.968C648.895 476.288 647.747 474.593 645.723 474.593C643.673 474.593 642.579 476.37 642.579 478.968C642.579 481.593 643.673 483.425 645.723 483.425ZM662.841 486.706C658.301 486.706 655.512 483.753 655.512 479.05C655.512 474.456 658.329 471.366 662.676 471.366C666.587 471.366 669.649 473.827 669.649 478.885V480.034H659.505C659.505 482.276 660.844 483.671 662.923 483.671C664.29 483.671 665.274 483.069 665.684 482.167H669.54C668.966 484.901 666.505 486.706 662.841 486.706ZM659.505 477.491H665.821C665.821 475.686 664.563 474.401 662.758 474.401C660.899 474.401 659.573 475.782 659.505 477.491ZM676.239 477.819V486.405H672.192V471.557H676.048V474.155H676.212C676.895 472.432 678.481 471.366 680.669 471.366C683.758 471.366 685.809 473.471 685.782 476.944V486.405H681.762V477.655C681.762 475.823 680.751 474.729 679.083 474.729C677.387 474.729 676.239 475.85 676.239 477.819ZM696.747 471.557V474.593H693.958V481.839C693.958 483.014 694.532 483.315 695.352 483.343C695.762 483.343 696.473 483.315 696.966 483.26V486.46C696.528 486.542 695.817 486.596 694.805 486.596C691.88 486.596 689.883 485.284 689.911 482.413V474.593H687.86V471.557H689.911V468.003H693.958V471.557H696.747ZM707.548 475.96C707.383 474.921 706.454 474.237 705.114 474.237C703.801 474.237 702.79 474.866 702.817 475.768C702.79 476.425 703.337 476.944 704.731 477.245L707.383 477.792C710.255 478.393 711.649 479.678 711.676 481.811C711.649 484.737 709.024 486.706 705.087 486.706C701.067 486.706 698.716 484.901 698.387 482.003H702.462C702.653 483.178 703.61 483.78 705.087 483.78C706.563 483.78 707.548 483.178 707.548 482.221C707.548 481.456 706.919 480.991 705.524 480.69L703.063 480.198C700.247 479.651 698.77 478.175 698.798 475.987C698.77 473.143 701.231 471.366 705.059 471.366C708.805 471.366 711.13 473.143 711.348 475.96H707.548Z" fill="#192A67"/>
<circle cx="422.746" cy="207.801" r="10.304" fill="white" stroke="#24C2FF" stroke-width="3.43467"/>
<circle cx="422.746" cy="514.345" r="10.304" fill="white" stroke="#000D51" stroke-width="3.43467"/>
<circle cx="871.829" cy="514.345" r="10.304" fill="white" stroke="#012391" stroke-width="3.43467"/>
<circle cx="871.829" cy="207.801" r="10.304" fill="white" stroke="#085BC1" stroke-width="3.43467"/>
</svg>
