<svg width="1250" height="336" viewBox="0 0 1250 336" fill="none" xmlns="http://www.w3.org/2000/svg">
<path d="M611.994 168C611.994 249.738 545.732 316 463.994 316C382.256 316 315.994 249.738 315.994 168" stroke="#F2F2F2" stroke-width="40"/>
<path d="M1203.99 168C1203.99 249.738 1137.73 316 1055.99 316C974.256 316 907.994 249.738 907.994 168" stroke="#F2F2F2" stroke-width="40"/>
<rect width="160" height="160" transform="translate(87.9968 61.8008)" fill="white"/>
<path d="M198.036 94.6074C199.383 94.6076 200.475 95.6994 200.475 97.0469V111.108L204.957 106.626L208.949 102.635C212.02 99.5633 217.018 99.5632 220.089 102.635H220.087C223.159 105.706 223.159 110.704 220.087 113.775L216.095 117.768L200.472 133.39V167.442H209.599C210.947 167.442 212.038 168.534 212.039 169.882V174.529C212.038 182.245 205.991 188.572 198.386 189.022C198.27 189.039 198.154 189.051 198.033 189.051H141.618C134.104 189.051 127.991 182.938 127.991 175.424V114.7C127.993 114.642 127.995 114.586 128 114.528C128 114.505 128.002 114.484 128.004 114.463C128.014 114.393 128.023 114.324 128.037 114.257C128.039 114.236 128.047 114.214 128.051 114.193C128.063 114.147 128.074 114.098 128.088 114.052C128.098 114.022 128.106 113.994 128.116 113.966C128.13 113.924 128.146 113.885 128.163 113.843C128.172 113.817 128.181 113.794 128.193 113.769C128.221 113.708 128.248 113.648 128.281 113.588C128.29 113.572 128.302 113.555 128.311 113.536C128.336 113.492 128.364 113.448 128.392 113.404C128.406 113.383 128.42 113.362 128.434 113.344C128.462 113.302 128.492 113.26 128.525 113.221C128.539 113.205 128.55 113.188 128.564 113.172C128.61 113.118 128.657 113.065 128.708 113.014L146.402 95.3203C146.453 95.2694 146.506 95.223 146.559 95.1768C146.575 95.1628 146.592 95.1506 146.608 95.1367C146.647 95.1065 146.689 95.0761 146.731 95.0459C146.752 95.0343 146.771 95.0207 146.792 95.0068C146.833 94.979 146.88 94.9513 146.924 94.9258C146.94 94.9165 146.957 94.9048 146.975 94.8955C147.033 94.863 147.096 94.8322 147.157 94.8066C147.182 94.7951 147.205 94.7856 147.231 94.7764C147.273 94.7602 147.314 94.7444 147.356 94.7305C147.384 94.7212 147.412 94.7143 147.44 94.7051C147.486 94.6911 147.536 94.6796 147.584 94.668C147.605 94.6633 147.626 94.6579 147.647 94.6533C147.714 94.6394 147.784 94.6281 147.854 94.6211C147.875 94.6188 147.896 94.6162 147.917 94.6162C147.974 94.6116 148.032 94.6074 148.09 94.6074H198.036ZM150.565 99.4863V114.74C150.565 116.088 149.473 117.18 148.125 117.18H132.873V175.424C132.873 180.247 136.796 184.171 141.62 184.171H142.368C142.544 184.087 142.732 184.023 142.932 183.983C147.419 183.089 150.676 179.113 150.676 174.529V169.882C150.676 168.534 151.769 167.442 153.117 167.442H195.596L195.598 167.447V138.274L179.746 154.127C179.439 154.431 179.055 154.652 178.637 154.761L168.218 157.486C168.014 157.54 167.807 157.565 167.6 157.565C166.961 157.565 166.337 157.312 165.875 156.85C165.263 156.239 165.021 155.347 165.24 154.508L166.306 150.431H141.655C140.307 150.431 139.215 149.338 139.215 147.99C139.216 146.643 140.307 145.551 141.655 145.551H167.584L167.965 144.092C168.075 143.671 168.293 143.29 168.6 142.983L172.617 138.967H141.655C140.307 138.967 139.215 137.874 139.215 136.526C139.216 135.179 140.307 134.087 141.655 134.087H177.496L184.079 127.505H141.655C140.307 127.505 139.215 126.413 139.215 125.065C139.215 123.718 140.307 122.626 141.655 122.626H186.058C186.848 122.626 187.55 123.005 187.996 123.588L195.596 115.987V99.4863H150.565ZM155.556 172.321V174.529C155.556 178.184 154.18 181.583 151.882 184.171H197.519C198.548 184.171 199.543 184.009 200.475 183.707C204.35 182.455 207.161 178.816 207.162 174.529V172.321H155.556ZM165.087 157.011C166.435 157.011 167.527 158.103 167.527 159.45C167.527 160.798 166.435 161.889 165.087 161.89H141.655C140.307 161.889 139.215 160.798 139.215 159.45C139.215 158.103 140.307 157.011 141.655 157.011H165.087ZM172.517 145.967L171.348 150.431L171.014 151.711L175.907 150.431L176.757 150.207L181.082 145.883L176.841 141.643L172.517 145.967ZM180.292 138.192L184.532 142.433L195.596 131.369L200.475 126.489L210.921 116.043L206.681 111.803L180.292 138.192ZM186.065 111.163C187.413 111.163 188.504 112.256 188.504 113.604C188.504 114.951 187.412 116.043 186.065 116.043H158.493C157.145 116.043 156.053 114.951 156.053 113.604C156.053 112.256 157.145 111.163 158.493 111.163H186.065ZM216.639 106.085C215.47 104.916 213.568 104.916 212.399 106.085L210.131 108.353L214.372 112.593L216.639 110.325C217.808 109.156 217.808 107.254 216.639 106.085ZM136.323 112.3H145.686V102.937L136.323 112.3Z" fill="#005EB8"/>
<rect width="160" height="160" transform="translate(383.997 61.8008)" fill="white"/>
<g clip-path="url(#clip0_69_621)">
<path d="M491.6 193.8H437.188C430.355 193.8 424.794 188.24 424.794 181.407V107.905C424.794 101.073 430.355 95.5154 437.188 95.5154H444.972V101.203H437.188C433.491 101.203 430.482 104.211 430.482 107.908V181.41C430.482 185.106 433.491 188.115 437.188 188.115H491.6C495.297 188.115 498.306 185.106 498.306 181.41V107.905C498.306 104.209 495.297 101.2 491.6 101.2H484.812V95.5127H491.6C498.433 95.5127 503.994 101.073 503.994 107.905V181.407C503.994 188.24 498.433 193.8 491.6 193.8Z" fill="#111111"/>
<path d="M487.066 130.372H465.156C463.586 130.372 462.312 129.099 462.312 127.528C462.312 125.957 463.586 124.685 465.156 124.685H487.066C488.637 124.685 489.91 125.957 489.91 127.528C489.91 129.099 488.637 130.372 487.066 130.372Z" fill="#111111"/>
<path d="M487.066 150.631H465.156C463.586 150.631 462.312 149.358 462.312 147.787C462.312 146.217 463.586 144.944 465.156 144.944H487.066C488.637 144.944 489.91 146.217 489.91 147.787C489.91 149.358 488.637 150.631 487.066 150.631Z" fill="#111111"/>
<path d="M487.066 170.893H465.156C463.586 170.893 462.312 169.62 462.312 168.05C462.312 166.479 463.586 165.206 465.156 165.206H487.066C488.637 165.206 489.91 166.479 489.91 168.05C489.91 169.62 488.637 170.893 487.066 170.893Z" fill="#111111"/>
<path d="M482.678 107.627H446.625C443.879 107.627 441.644 105.392 441.644 102.646V93.9803C441.644 91.2342 443.879 89 446.625 89H482.678C485.425 89 487.659 91.2342 487.659 93.9803V102.646C487.659 105.392 485.425 107.627 482.678 107.627ZM447.332 101.94H481.971V94.6871H447.332V101.94Z" fill="#111111"/>
<path d="M445.426 135.011C444.697 135.011 443.971 134.734 443.416 134.176L439.383 130.144C438.273 129.034 438.273 127.233 439.383 126.122C440.494 125.012 442.295 125.012 443.405 126.122L445.426 128.143L452.693 120.877C453.803 119.766 455.605 119.766 456.715 120.877C457.826 121.987 457.826 123.788 456.715 124.898L447.438 134.174C446.883 134.729 446.154 135.008 445.429 135.008L445.426 135.011Z" fill="#111111"/>
<path d="M445.426 155.27C444.673 155.27 443.947 154.969 443.416 154.436L439.383 150.403C438.273 149.293 438.273 147.492 439.383 146.382C440.494 145.271 442.295 145.271 443.405 146.382L445.426 148.402L452.693 141.136C453.803 140.026 455.605 140.026 456.715 141.136C457.826 142.246 457.826 144.047 456.715 145.158L447.438 154.433C446.905 154.967 446.182 155.267 445.429 155.267L445.426 155.27Z" fill="#111111"/>
<path d="M445.426 175.532C444.673 175.532 443.947 175.231 443.416 174.698L439.383 170.665C438.273 169.555 438.273 167.754 439.383 166.644C440.494 165.534 442.295 165.534 443.405 166.644L445.426 168.664L452.693 161.398C453.803 160.288 455.605 160.288 456.715 161.398C457.826 162.509 457.826 164.309 456.715 165.42L447.438 174.695C446.905 175.229 446.182 175.529 445.429 175.529L445.426 175.532Z" fill="#111111"/>
</g>
<rect width="160" height="160" transform="translate(679.997 61.8008)" fill="white"/>
<mask id="path-12-outside-1_69_621" maskUnits="userSpaceOnUse" x="719.794" y="92" width="95" height="109" fill="black">
<rect fill="white" x="719.794" y="92" width="95" height="109"/>
<path fill-rule="evenodd" clip-rule="evenodd" d="M736.698 112.8C736.889 112.67 737.105 112.58 737.331 112.534C737.558 112.488 737.791 112.487 738.018 112.532C738.245 112.577 738.46 112.666 738.653 112.794C738.845 112.922 739.01 113.088 739.138 113.28L739.994 114.328L743.066 110.432C743.206 110.237 743.385 110.073 743.591 109.95C743.798 109.827 744.027 109.747 744.265 109.716C744.503 109.685 744.745 109.703 744.976 109.768C745.207 109.834 745.422 109.947 745.608 110.099C745.794 110.251 745.947 110.439 746.057 110.652C746.167 110.866 746.233 111.099 746.249 111.339C746.266 111.578 746.234 111.819 746.154 112.045C746.074 112.272 745.949 112.48 745.786 112.656L741.274 118.328C741.154 118.479 741.014 118.614 740.858 118.728C740.665 118.859 740.447 118.95 740.218 118.996C739.989 119.043 739.753 119.043 739.524 118.998C739.295 118.952 739.077 118.862 738.883 118.732C738.689 118.602 738.523 118.435 738.394 118.24L736.218 115.24C735.961 114.852 735.867 114.378 735.957 113.921C736.046 113.465 736.313 113.062 736.698 112.8ZM785.698 149C789.714 149.002 793.655 150.089 797.104 152.145C800.553 154.202 803.382 157.153 805.293 160.685C807.203 164.218 808.124 168.201 807.957 172.213C807.79 176.225 806.543 180.118 804.346 183.48L813.994 193.992L807.346 200.072L798.042 189.872C795.145 191.79 791.839 193.004 788.389 193.418C784.939 193.831 781.441 193.432 778.172 192.253C774.904 191.073 771.957 189.146 769.566 186.625C767.175 184.103 765.406 181.058 764.402 177.732C763.397 174.406 763.184 170.891 763.78 167.467C764.376 164.044 765.763 160.808 767.832 158.016C769.901 155.225 772.594 152.956 775.696 151.39C778.798 149.825 782.223 149.006 785.698 149ZM753.17 151.832C752.528 151.797 751.926 151.512 751.492 151.037C751.059 150.563 750.828 149.938 750.85 149.296C750.832 148.976 750.878 148.656 750.985 148.354C751.092 148.052 751.259 147.775 751.475 147.539C751.691 147.303 751.953 147.112 752.244 146.978C752.535 146.844 752.85 146.77 753.17 146.76H760.37C761.012 146.795 761.614 147.08 762.048 147.555C762.481 148.029 762.712 148.654 762.69 149.296C762.708 149.616 762.662 149.936 762.555 150.238C762.448 150.54 762.281 150.817 762.065 151.053C761.848 151.29 761.587 151.48 761.296 151.614C761.005 151.748 760.69 151.822 760.37 151.832H753.17ZM795.194 137.712C794.746 139.4 790.946 139.656 790.09 137.712V98.944C790.092 98.8318 790.072 98.7203 790.031 98.616C789.99 98.5116 789.928 98.4164 789.85 98.336C789.689 98.1814 789.473 98.0954 789.25 98.096H726.706C726.597 98.0958 726.489 98.118 726.388 98.1612C726.288 98.2043 726.198 98.2676 726.123 98.347C726.048 98.4265 725.99 98.5204 725.953 98.6231C725.915 98.7258 725.899 98.835 725.906 98.944V178.392C725.901 178.5 725.917 178.609 725.955 178.71C725.993 178.812 726.051 178.905 726.126 178.984C726.201 179.062 726.291 179.125 726.39 179.168C726.49 179.21 726.597 179.232 726.706 179.232H750.97C753.538 179.504 753.61 183.936 750.97 184.336H726.738C725.165 184.326 723.659 183.696 722.547 182.583C721.434 181.471 720.804 179.965 720.794 178.392V98.944C720.791 98.1637 720.945 97.3907 721.246 96.6707C721.547 95.9507 721.989 95.2983 722.546 94.752C723.094 94.1965 723.746 93.7556 724.466 93.4548C725.186 93.154 725.958 92.9994 726.738 93H789.274C790.054 92.9981 790.827 93.152 791.547 93.4529C792.267 93.7538 792.919 94.1955 793.466 94.752C794.016 95.3027 794.451 95.9564 794.748 96.6758C795.044 97.3951 795.196 98.1659 795.194 98.944C795.194 128.192 795.194 93.344 795.194 137.712ZM753.146 116.576C752.503 116.543 751.899 116.258 751.463 115.784C751.028 115.31 750.796 114.684 750.818 114.04C750.8 113.72 750.846 113.399 750.954 113.096C751.062 112.794 751.229 112.517 751.446 112.28C751.663 112.044 751.925 111.853 752.217 111.72C752.509 111.586 752.825 111.513 753.146 111.504H776.962C777.605 111.537 778.209 111.822 778.645 112.296C779.08 112.77 779.312 113.397 779.29 114.04C779.308 114.36 779.262 114.681 779.154 114.984C779.046 115.286 778.879 115.564 778.662 115.8C778.445 116.036 778.183 116.227 777.891 116.36C777.599 116.494 777.283 116.567 776.962 116.576H753.146ZM753.146 134.176C752.504 134.145 751.899 133.862 751.464 133.389C751.028 132.916 750.796 132.291 750.818 131.648C750.8 131.328 750.846 131.007 750.954 130.704C751.062 130.402 751.229 130.125 751.446 129.888C751.663 129.652 751.925 129.461 752.217 129.328C752.509 129.194 752.825 129.121 753.146 129.112H776.962C777.605 129.145 778.209 129.43 778.645 129.904C779.08 130.378 779.312 131.005 779.29 131.648C779.307 131.968 779.26 132.288 779.152 132.589C779.043 132.891 778.876 133.167 778.659 133.403C778.442 133.638 778.18 133.828 777.889 133.961C777.597 134.094 777.282 134.167 776.962 134.176H753.146ZM777.298 173.376C777.185 173.255 777.083 173.124 776.994 172.984C776.904 172.842 776.826 172.692 776.762 172.536C776.526 171.985 776.471 171.373 776.605 170.788C776.739 170.203 777.056 169.676 777.509 169.283C777.961 168.89 778.528 168.651 779.125 168.6C779.723 168.549 780.321 168.689 780.834 169C780.996 169.09 781.147 169.2 781.282 169.328C782.082 170.072 782.306 170.224 783.17 170.992L783.906 171.656L789.97 165.152C792.538 162.512 796.626 166.376 794.066 169.072L786.514 177.208L786.138 177.608C785.629 178.158 784.923 178.485 784.174 178.518C783.425 178.55 782.694 178.287 782.138 177.784L781.594 177.224C781.13 176.808 780.65 176.424 780.162 175.968C779.042 174.992 778.386 174.456 777.33 173.4L777.298 173.376ZM785.714 153.68C789.223 153.677 792.654 154.715 795.574 156.662C798.493 158.61 800.768 161.38 802.113 164.621C803.457 167.863 803.81 171.43 803.126 174.872C802.442 178.314 800.753 181.476 798.271 183.957C795.79 186.439 792.628 188.128 789.186 188.812C785.744 189.496 782.177 189.143 778.935 187.799C775.694 186.454 772.924 184.179 770.976 181.26C769.029 178.341 767.991 174.909 767.994 171.4C767.998 166.702 769.867 162.197 773.189 158.875C776.511 155.553 781.016 153.684 785.714 153.68ZM741.226 145.472C742.034 145.47 742.824 145.709 743.496 146.156C744.168 146.604 744.692 147.241 745.002 147.987C745.312 148.733 745.393 149.554 745.236 150.346C745.079 151.138 744.69 151.866 744.119 152.437C743.548 153.008 742.82 153.397 742.028 153.554C741.236 153.711 740.415 153.63 739.669 153.32C738.923 153.01 738.286 152.486 737.838 151.814C737.391 151.142 737.152 150.352 737.154 149.544C737.154 149.009 737.259 148.48 737.464 147.986C737.669 147.492 737.969 147.043 738.347 146.665C738.725 146.287 739.174 145.987 739.668 145.782C740.162 145.577 740.691 145.472 741.226 145.472ZM742.922 128.2C743.078 128.039 743.264 127.912 743.47 127.824C743.677 127.737 743.898 127.692 744.122 127.692C744.346 127.692 744.567 127.737 744.773 127.824C744.98 127.912 745.166 128.039 745.322 128.2C745.48 128.358 745.605 128.545 745.69 128.75C745.776 128.956 745.819 129.177 745.819 129.4C745.819 129.623 745.776 129.844 745.69 130.05C745.605 130.255 745.48 130.443 745.322 130.6L743.666 132.304L745.322 134.008C745.64 134.326 745.819 134.758 745.819 135.208C745.819 135.658 745.64 136.09 745.322 136.408C745.004 136.726 744.572 136.905 744.122 136.905C743.672 136.905 743.24 136.726 742.922 136.408L741.282 134.728L739.626 136.416C739.471 136.579 739.285 136.708 739.079 136.797C738.873 136.885 738.65 136.931 738.426 136.931C738.202 136.931 737.979 136.885 737.773 136.797C737.567 136.708 737.381 136.579 737.226 136.416C736.909 136.097 736.732 135.666 736.732 135.216C736.732 134.766 736.909 134.335 737.226 134.016L738.89 132.312L737.25 130.6C737.09 130.444 736.964 130.257 736.877 130.051C736.79 129.845 736.746 129.624 736.746 129.4C736.746 129.177 736.79 128.955 736.877 128.749C736.964 128.543 737.09 128.356 737.25 128.2C737.404 128.045 737.587 127.921 737.789 127.837C737.991 127.753 738.207 127.71 738.426 127.71C738.645 127.71 738.861 127.753 739.063 127.837C739.265 127.921 739.448 128.045 739.602 128.2L741.25 129.888L742.922 128.2Z"/>
</mask>
<path fill-rule="evenodd" clip-rule="evenodd" d="M736.698 112.8C736.889 112.67 737.105 112.58 737.331 112.534C737.558 112.488 737.791 112.487 738.018 112.532C738.245 112.577 738.46 112.666 738.653 112.794C738.845 112.922 739.01 113.088 739.138 113.28L739.994 114.328L743.066 110.432C743.206 110.237 743.385 110.073 743.591 109.95C743.798 109.827 744.027 109.747 744.265 109.716C744.503 109.685 744.745 109.703 744.976 109.768C745.207 109.834 745.422 109.947 745.608 110.099C745.794 110.251 745.947 110.439 746.057 110.652C746.167 110.866 746.233 111.099 746.249 111.339C746.266 111.578 746.234 111.819 746.154 112.045C746.074 112.272 745.949 112.48 745.786 112.656L741.274 118.328C741.154 118.479 741.014 118.614 740.858 118.728C740.665 118.859 740.447 118.95 740.218 118.996C739.989 119.043 739.753 119.043 739.524 118.998C739.295 118.952 739.077 118.862 738.883 118.732C738.689 118.602 738.523 118.435 738.394 118.24L736.218 115.24C735.961 114.852 735.867 114.378 735.957 113.921C736.046 113.465 736.313 113.062 736.698 112.8ZM785.698 149C789.714 149.002 793.655 150.089 797.104 152.145C800.553 154.202 803.382 157.153 805.293 160.685C807.203 164.218 808.124 168.201 807.957 172.213C807.79 176.225 806.543 180.118 804.346 183.48L813.994 193.992L807.346 200.072L798.042 189.872C795.145 191.79 791.839 193.004 788.389 193.418C784.939 193.831 781.441 193.432 778.172 192.253C774.904 191.073 771.957 189.146 769.566 186.625C767.175 184.103 765.406 181.058 764.402 177.732C763.397 174.406 763.184 170.891 763.78 167.467C764.376 164.044 765.763 160.808 767.832 158.016C769.901 155.225 772.594 152.956 775.696 151.39C778.798 149.825 782.223 149.006 785.698 149ZM753.17 151.832C752.528 151.797 751.926 151.512 751.492 151.037C751.059 150.563 750.828 149.938 750.85 149.296C750.832 148.976 750.878 148.656 750.985 148.354C751.092 148.052 751.259 147.775 751.475 147.539C751.691 147.303 751.953 147.112 752.244 146.978C752.535 146.844 752.85 146.77 753.17 146.76H760.37C761.012 146.795 761.614 147.08 762.048 147.555C762.481 148.029 762.712 148.654 762.69 149.296C762.708 149.616 762.662 149.936 762.555 150.238C762.448 150.54 762.281 150.817 762.065 151.053C761.848 151.29 761.587 151.48 761.296 151.614C761.005 151.748 760.69 151.822 760.37 151.832H753.17ZM795.194 137.712C794.746 139.4 790.946 139.656 790.09 137.712V98.944C790.092 98.8318 790.072 98.7203 790.031 98.616C789.99 98.5116 789.928 98.4164 789.85 98.336C789.689 98.1814 789.473 98.0954 789.25 98.096H726.706C726.597 98.0958 726.489 98.118 726.388 98.1612C726.288 98.2043 726.198 98.2676 726.123 98.347C726.048 98.4265 725.99 98.5204 725.953 98.6231C725.915 98.7258 725.899 98.835 725.906 98.944V178.392C725.901 178.5 725.917 178.609 725.955 178.71C725.993 178.812 726.051 178.905 726.126 178.984C726.201 179.062 726.291 179.125 726.39 179.168C726.49 179.21 726.597 179.232 726.706 179.232H750.97C753.538 179.504 753.61 183.936 750.97 184.336H726.738C725.165 184.326 723.659 183.696 722.547 182.583C721.434 181.471 720.804 179.965 720.794 178.392V98.944C720.791 98.1637 720.945 97.3907 721.246 96.6707C721.547 95.9507 721.989 95.2983 722.546 94.752C723.094 94.1965 723.746 93.7556 724.466 93.4548C725.186 93.154 725.958 92.9994 726.738 93H789.274C790.054 92.9981 790.827 93.152 791.547 93.4529C792.267 93.7538 792.919 94.1955 793.466 94.752C794.016 95.3027 794.451 95.9564 794.748 96.6758C795.044 97.3951 795.196 98.1659 795.194 98.944C795.194 128.192 795.194 93.344 795.194 137.712ZM753.146 116.576C752.503 116.543 751.899 116.258 751.463 115.784C751.028 115.31 750.796 114.684 750.818 114.04C750.8 113.72 750.846 113.399 750.954 113.096C751.062 112.794 751.229 112.517 751.446 112.28C751.663 112.044 751.925 111.853 752.217 111.72C752.509 111.586 752.825 111.513 753.146 111.504H776.962C777.605 111.537 778.209 111.822 778.645 112.296C779.08 112.77 779.312 113.397 779.29 114.04C779.308 114.36 779.262 114.681 779.154 114.984C779.046 115.286 778.879 115.564 778.662 115.8C778.445 116.036 778.183 116.227 777.891 116.36C777.599 116.494 777.283 116.567 776.962 116.576H753.146ZM753.146 134.176C752.504 134.145 751.899 133.862 751.464 133.389C751.028 132.916 750.796 132.291 750.818 131.648C750.8 131.328 750.846 131.007 750.954 130.704C751.062 130.402 751.229 130.125 751.446 129.888C751.663 129.652 751.925 129.461 752.217 129.328C752.509 129.194 752.825 129.121 753.146 129.112H776.962C777.605 129.145 778.209 129.43 778.645 129.904C779.08 130.378 779.312 131.005 779.29 131.648C779.307 131.968 779.26 132.288 779.152 132.589C779.043 132.891 778.876 133.167 778.659 133.403C778.442 133.638 778.18 133.828 777.889 133.961C777.597 134.094 777.282 134.167 776.962 134.176H753.146ZM777.298 173.376C777.185 173.255 777.083 173.124 776.994 172.984C776.904 172.842 776.826 172.692 776.762 172.536C776.526 171.985 776.471 171.373 776.605 170.788C776.739 170.203 777.056 169.676 777.509 169.283C777.961 168.89 778.528 168.651 779.125 168.6C779.723 168.549 780.321 168.689 780.834 169C780.996 169.09 781.147 169.2 781.282 169.328C782.082 170.072 782.306 170.224 783.17 170.992L783.906 171.656L789.97 165.152C792.538 162.512 796.626 166.376 794.066 169.072L786.514 177.208L786.138 177.608C785.629 178.158 784.923 178.485 784.174 178.518C783.425 178.55 782.694 178.287 782.138 177.784L781.594 177.224C781.13 176.808 780.65 176.424 780.162 175.968C779.042 174.992 778.386 174.456 777.33 173.4L777.298 173.376ZM785.714 153.68C789.223 153.677 792.654 154.715 795.574 156.662C798.493 158.61 800.768 161.38 802.113 164.621C803.457 167.863 803.81 171.43 803.126 174.872C802.442 178.314 800.753 181.476 798.271 183.957C795.79 186.439 792.628 188.128 789.186 188.812C785.744 189.496 782.177 189.143 778.935 187.799C775.694 186.454 772.924 184.179 770.976 181.26C769.029 178.341 767.991 174.909 767.994 171.4C767.998 166.702 769.867 162.197 773.189 158.875C776.511 155.553 781.016 153.684 785.714 153.68ZM741.226 145.472C742.034 145.47 742.824 145.709 743.496 146.156C744.168 146.604 744.692 147.241 745.002 147.987C745.312 148.733 745.393 149.554 745.236 150.346C745.079 151.138 744.69 151.866 744.119 152.437C743.548 153.008 742.82 153.397 742.028 153.554C741.236 153.711 740.415 153.63 739.669 153.32C738.923 153.01 738.286 152.486 737.838 151.814C737.391 151.142 737.152 150.352 737.154 149.544C737.154 149.009 737.259 148.48 737.464 147.986C737.669 147.492 737.969 147.043 738.347 146.665C738.725 146.287 739.174 145.987 739.668 145.782C740.162 145.577 740.691 145.472 741.226 145.472ZM742.922 128.2C743.078 128.039 743.264 127.912 743.47 127.824C743.677 127.737 743.898 127.692 744.122 127.692C744.346 127.692 744.567 127.737 744.773 127.824C744.98 127.912 745.166 128.039 745.322 128.2C745.48 128.358 745.605 128.545 745.69 128.75C745.776 128.956 745.819 129.177 745.819 129.4C745.819 129.623 745.776 129.844 745.69 130.05C745.605 130.255 745.48 130.443 745.322 130.6L743.666 132.304L745.322 134.008C745.64 134.326 745.819 134.758 745.819 135.208C745.819 135.658 745.64 136.09 745.322 136.408C745.004 136.726 744.572 136.905 744.122 136.905C743.672 136.905 743.24 136.726 742.922 136.408L741.282 134.728L739.626 136.416C739.471 136.579 739.285 136.708 739.079 136.797C738.873 136.885 738.65 136.931 738.426 136.931C738.202 136.931 737.979 136.885 737.773 136.797C737.567 136.708 737.381 136.579 737.226 136.416C736.909 136.097 736.732 135.666 736.732 135.216C736.732 134.766 736.909 134.335 737.226 134.016L738.89 132.312L737.25 130.6C737.09 130.444 736.964 130.257 736.877 130.051C736.79 129.845 736.746 129.624 736.746 129.4C736.746 129.177 736.79 128.955 736.877 128.749C736.964 128.543 737.09 128.356 737.25 128.2C737.404 128.045 737.587 127.921 737.789 127.837C737.991 127.753 738.207 127.71 738.426 127.71C738.645 127.71 738.861 127.753 739.063 127.837C739.265 127.921 739.448 128.045 739.602 128.2L741.25 129.888L742.922 128.2Z" fill="#24C2FF"/>
<path fill-rule="evenodd" clip-rule="evenodd" d="M736.698 112.8C736.889 112.67 737.105 112.58 737.331 112.534C737.558 112.488 737.791 112.487 738.018 112.532C738.245 112.577 738.46 112.666 738.653 112.794C738.845 112.922 739.01 113.088 739.138 113.28L739.994 114.328L743.066 110.432C743.206 110.237 743.385 110.073 743.591 109.95C743.798 109.827 744.027 109.747 744.265 109.716C744.503 109.685 744.745 109.703 744.976 109.768C745.207 109.834 745.422 109.947 745.608 110.099C745.794 110.251 745.947 110.439 746.057 110.652C746.167 110.866 746.233 111.099 746.249 111.339C746.266 111.578 746.234 111.819 746.154 112.045C746.074 112.272 745.949 112.48 745.786 112.656L741.274 118.328C741.154 118.479 741.014 118.614 740.858 118.728C740.665 118.859 740.447 118.95 740.218 118.996C739.989 119.043 739.753 119.043 739.524 118.998C739.295 118.952 739.077 118.862 738.883 118.732C738.689 118.602 738.523 118.435 738.394 118.24L736.218 115.24C735.961 114.852 735.867 114.378 735.957 113.921C736.046 113.465 736.313 113.062 736.698 112.8ZM785.698 149C789.714 149.002 793.655 150.089 797.104 152.145C800.553 154.202 803.382 157.153 805.293 160.685C807.203 164.218 808.124 168.201 807.957 172.213C807.79 176.225 806.543 180.118 804.346 183.48L813.994 193.992L807.346 200.072L798.042 189.872C795.145 191.79 791.839 193.004 788.389 193.418C784.939 193.831 781.441 193.432 778.172 192.253C774.904 191.073 771.957 189.146 769.566 186.625C767.175 184.103 765.406 181.058 764.402 177.732C763.397 174.406 763.184 170.891 763.78 167.467C764.376 164.044 765.763 160.808 767.832 158.016C769.901 155.225 772.594 152.956 775.696 151.39C778.798 149.825 782.223 149.006 785.698 149ZM753.17 151.832C752.528 151.797 751.926 151.512 751.492 151.037C751.059 150.563 750.828 149.938 750.85 149.296C750.832 148.976 750.878 148.656 750.985 148.354C751.092 148.052 751.259 147.775 751.475 147.539C751.691 147.303 751.953 147.112 752.244 146.978C752.535 146.844 752.85 146.77 753.17 146.76H760.37C761.012 146.795 761.614 147.08 762.048 147.555C762.481 148.029 762.712 148.654 762.69 149.296C762.708 149.616 762.662 149.936 762.555 150.238C762.448 150.54 762.281 150.817 762.065 151.053C761.848 151.29 761.587 151.48 761.296 151.614C761.005 151.748 760.69 151.822 760.37 151.832H753.17ZM795.194 137.712C794.746 139.4 790.946 139.656 790.09 137.712V98.944C790.092 98.8318 790.072 98.7203 790.031 98.616C789.99 98.5116 789.928 98.4164 789.85 98.336C789.689 98.1814 789.473 98.0954 789.25 98.096H726.706C726.597 98.0958 726.489 98.118 726.388 98.1612C726.288 98.2043 726.198 98.2676 726.123 98.347C726.048 98.4265 725.99 98.5204 725.953 98.6231C725.915 98.7258 725.899 98.835 725.906 98.944V178.392C725.901 178.5 725.917 178.609 725.955 178.71C725.993 178.812 726.051 178.905 726.126 178.984C726.201 179.062 726.291 179.125 726.39 179.168C726.49 179.21 726.597 179.232 726.706 179.232H750.97C753.538 179.504 753.61 183.936 750.97 184.336H726.738C725.165 184.326 723.659 183.696 722.547 182.583C721.434 181.471 720.804 179.965 720.794 178.392V98.944C720.791 98.1637 720.945 97.3907 721.246 96.6707C721.547 95.9507 721.989 95.2983 722.546 94.752C723.094 94.1965 723.746 93.7556 724.466 93.4548C725.186 93.154 725.958 92.9994 726.738 93H789.274C790.054 92.9981 790.827 93.152 791.547 93.4529C792.267 93.7538 792.919 94.1955 793.466 94.752C794.016 95.3027 794.451 95.9564 794.748 96.6758C795.044 97.3951 795.196 98.1659 795.194 98.944C795.194 128.192 795.194 93.344 795.194 137.712ZM753.146 116.576C752.503 116.543 751.899 116.258 751.463 115.784C751.028 115.31 750.796 114.684 750.818 114.04C750.8 113.72 750.846 113.399 750.954 113.096C751.062 112.794 751.229 112.517 751.446 112.28C751.663 112.044 751.925 111.853 752.217 111.72C752.509 111.586 752.825 111.513 753.146 111.504H776.962C777.605 111.537 778.209 111.822 778.645 112.296C779.08 112.77 779.312 113.397 779.29 114.04C779.308 114.36 779.262 114.681 779.154 114.984C779.046 115.286 778.879 115.564 778.662 115.8C778.445 116.036 778.183 116.227 777.891 116.36C777.599 116.494 777.283 116.567 776.962 116.576H753.146ZM753.146 134.176C752.504 134.145 751.899 133.862 751.464 133.389C751.028 132.916 750.796 132.291 750.818 131.648C750.8 131.328 750.846 131.007 750.954 130.704C751.062 130.402 751.229 130.125 751.446 129.888C751.663 129.652 751.925 129.461 752.217 129.328C752.509 129.194 752.825 129.121 753.146 129.112H776.962C777.605 129.145 778.209 129.43 778.645 129.904C779.08 130.378 779.312 131.005 779.29 131.648C779.307 131.968 779.26 132.288 779.152 132.589C779.043 132.891 778.876 133.167 778.659 133.403C778.442 133.638 778.18 133.828 777.889 133.961C777.597 134.094 777.282 134.167 776.962 134.176H753.146ZM777.298 173.376C777.185 173.255 777.083 173.124 776.994 172.984C776.904 172.842 776.826 172.692 776.762 172.536C776.526 171.985 776.471 171.373 776.605 170.788C776.739 170.203 777.056 169.676 777.509 169.283C777.961 168.89 778.528 168.651 779.125 168.6C779.723 168.549 780.321 168.689 780.834 169C780.996 169.09 781.147 169.2 781.282 169.328C782.082 170.072 782.306 170.224 783.17 170.992L783.906 171.656L789.97 165.152C792.538 162.512 796.626 166.376 794.066 169.072L786.514 177.208L786.138 177.608C785.629 178.158 784.923 178.485 784.174 178.518C783.425 178.55 782.694 178.287 782.138 177.784L781.594 177.224C781.13 176.808 780.65 176.424 780.162 175.968C779.042 174.992 778.386 174.456 777.33 173.4L777.298 173.376ZM785.714 153.68C789.223 153.677 792.654 154.715 795.574 156.662C798.493 158.61 800.768 161.38 802.113 164.621C803.457 167.863 803.81 171.43 803.126 174.872C802.442 178.314 800.753 181.476 798.271 183.957C795.79 186.439 792.628 188.128 789.186 188.812C785.744 189.496 782.177 189.143 778.935 187.799C775.694 186.454 772.924 184.179 770.976 181.26C769.029 178.341 767.991 174.909 767.994 171.4C767.998 166.702 769.867 162.197 773.189 158.875C776.511 155.553 781.016 153.684 785.714 153.68ZM741.226 145.472C742.034 145.47 742.824 145.709 743.496 146.156C744.168 146.604 744.692 147.241 745.002 147.987C745.312 148.733 745.393 149.554 745.236 150.346C745.079 151.138 744.69 151.866 744.119 152.437C743.548 153.008 742.82 153.397 742.028 153.554C741.236 153.711 740.415 153.63 739.669 153.32C738.923 153.01 738.286 152.486 737.838 151.814C737.391 151.142 737.152 150.352 737.154 149.544C737.154 149.009 737.259 148.48 737.464 147.986C737.669 147.492 737.969 147.043 738.347 146.665C738.725 146.287 739.174 145.987 739.668 145.782C740.162 145.577 740.691 145.472 741.226 145.472ZM742.922 128.2C743.078 128.039 743.264 127.912 743.47 127.824C743.677 127.737 743.898 127.692 744.122 127.692C744.346 127.692 744.567 127.737 744.773 127.824C744.98 127.912 745.166 128.039 745.322 128.2C745.48 128.358 745.605 128.545 745.69 128.75C745.776 128.956 745.819 129.177 745.819 129.4C745.819 129.623 745.776 129.844 745.69 130.05C745.605 130.255 745.48 130.443 745.322 130.6L743.666 132.304L745.322 134.008C745.64 134.326 745.819 134.758 745.819 135.208C745.819 135.658 745.64 136.09 745.322 136.408C745.004 136.726 744.572 136.905 744.122 136.905C743.672 136.905 743.24 136.726 742.922 136.408L741.282 134.728L739.626 136.416C739.471 136.579 739.285 136.708 739.079 136.797C738.873 136.885 738.65 136.931 738.426 136.931C738.202 136.931 737.979 136.885 737.773 136.797C737.567 136.708 737.381 136.579 737.226 136.416C736.909 136.097 736.732 135.666 736.732 135.216C736.732 134.766 736.909 134.335 737.226 134.016L738.89 132.312L737.25 130.6C737.09 130.444 736.964 130.257 736.877 130.051C736.79 129.845 736.746 129.624 736.746 129.4C736.746 129.177 736.79 128.955 736.877 128.749C736.964 128.543 737.09 128.356 737.25 128.2C737.404 128.045 737.587 127.921 737.789 127.837C737.991 127.753 738.207 127.71 738.426 127.71C738.645 127.71 738.861 127.753 739.063 127.837C739.265 127.921 739.448 128.045 739.602 128.2L741.25 129.888L742.922 128.2Z" stroke="#24C2FF" stroke-width="0.8" mask="url(#path-12-outside-1_69_621)"/>
<rect width="160" height="160" transform="translate(975.192 61.8008)" fill="white"/>
<path d="M1090.12 149.373C1090.12 169.302 1073.9 185.518 1053.97 185.518C1034.04 185.518 1017.83 169.302 1017.83 149.373C1017.83 129.443 1034.04 113.228 1053.97 113.228C1061.47 113.228 1068.44 115.522 1074.21 119.441L1079.04 114.617C1071.98 109.517 1063.32 106.505 1053.97 106.505C1030.34 106.505 1011.11 125.737 1011.11 149.373C1011.11 173.008 1030.34 192.24 1053.97 192.24C1077.61 192.24 1096.84 173.011 1096.84 149.373C1096.84 140.404 1094.07 132.071 1089.34 125.18L1084.49 130.029C1088.05 135.625 1090.12 142.264 1090.12 149.373H1090.12Z" fill="#192A67"/>
<path d="M1073.51 149.374C1073.51 160.152 1064.75 168.92 1053.97 168.92C1043.19 168.92 1034.42 160.152 1034.42 149.374C1034.42 138.595 1043.19 129.828 1053.97 129.828C1056.85 129.828 1059.59 130.461 1062.06 131.59L1067.05 126.601C1063.2 124.377 1058.73 123.105 1053.97 123.105C1039.48 123.105 1027.7 134.89 1027.7 149.374C1027.7 163.858 1039.48 175.642 1053.97 175.642C1068.45 175.642 1080.24 163.858 1080.24 149.374C1080.24 145.004 1079.16 140.878 1077.26 137.251L1072.19 142.324C1073.04 144.511 1073.51 146.889 1073.51 149.374Z" fill="#192A67"/>
<path d="M1058.78 152.309C1057.84 153.242 1056.6 153.758 1055.28 153.758C1053.96 153.758 1052.71 153.245 1051.78 152.309C1050.85 151.377 1050.33 150.133 1050.33 148.811C1050.33 147.489 1050.84 146.245 1051.78 145.312L1058.03 139.063C1058.02 138.898 1058.02 138.73 1058.02 138.565C1056.76 138.091 1055.4 137.833 1053.97 137.833C1047.6 137.833 1042.43 143.001 1042.43 149.377C1042.43 155.752 1047.6 160.92 1053.97 160.92C1060.35 160.92 1065.52 155.752 1065.52 149.377C1065.52 148.225 1065.35 147.113 1065.03 146.063L1058.78 152.315L1058.78 152.309Z" fill="#192A67"/>
<path d="M1120.37 99.3522C1120.37 99.3522 1120.37 99.3466 1120.37 99.3438C1120.33 99.2962 1120.29 99.2486 1120.24 99.2037C1120.23 99.1953 1120.22 99.1869 1120.21 99.1785C1120.18 99.1449 1120.14 99.1113 1120.1 99.0805C1120.08 99.0637 1120.06 99.0497 1120.04 99.0329C1120.01 99.0133 1119.98 98.9909 1119.95 98.9713C1119.94 98.9601 1119.92 98.9489 1119.9 98.9376C1119.87 98.9152 1119.83 98.8956 1119.79 98.876C1119.78 98.8704 1119.77 98.8676 1119.76 98.862C1119.51 98.7332 1119.23 98.6575 1118.92 98.6575H1105.43V85.1648C1105.43 84.8623 1105.36 84.5766 1105.23 84.3245C1105.22 84.3161 1105.22 84.3049 1105.21 84.2965C1105.19 84.2601 1105.17 84.2265 1105.15 84.1901C1105.14 84.1704 1105.13 84.1536 1105.12 84.134C1105.1 84.106 1105.08 84.078 1105.06 84.05C1105.04 84.0276 1105.03 84.0052 1105.01 83.9856C1104.98 83.9492 1104.94 83.9127 1104.91 83.8763C1104.9 83.8679 1104.89 83.8595 1104.89 83.8483C1104.84 83.8035 1104.79 83.7615 1104.75 83.7223C1104.75 83.7223 1104.74 83.7195 1104.74 83.7167C1104.41 83.4562 1104.01 83.2993 1103.57 83.2993C1103.12 83.2993 1102.71 83.4562 1102.4 83.7167C1102.4 83.7167 1102.39 83.7195 1102.39 83.7223C1102.34 83.7615 1102.29 83.8035 1102.25 83.8483L1089.75 96.3495C1089.73 96.3691 1089.71 96.3915 1089.69 96.4139C1089.67 96.4363 1089.64 96.4587 1089.62 96.4811C1089.59 96.5175 1089.57 96.5539 1089.54 96.5932C1089.53 96.6044 1089.52 96.6156 1089.52 96.6268C1089.49 96.6632 1089.47 96.7024 1089.45 96.7416C1089.44 96.7556 1089.43 96.7696 1089.42 96.7836C1089.4 96.8172 1089.39 96.8537 1089.37 96.8873C1089.36 96.9069 1089.35 96.9293 1089.34 96.9489C1089.33 96.9797 1089.32 97.0105 1089.31 97.0385C1089.3 97.0665 1089.29 97.0945 1089.28 97.1226C1089.27 97.1478 1089.27 97.1758 1089.26 97.201C1089.25 97.2346 1089.24 97.2682 1089.24 97.3018C1089.23 97.3298 1089.23 97.3578 1089.22 97.3859C1089.22 97.4167 1089.21 97.4503 1089.21 97.4811C1089.2 97.5455 1089.2 97.6099 1089.2 97.6744V108.419L1081.27 116.346L1076.49 121.125L1069.45 128.167L1064.62 132.999L1062.15 135.466C1060.92 136.699 1060.54 138.472 1061.01 140.035L1060.9 140.147L1053.76 147.292C1052.92 148.127 1052.92 149.494 1053.76 150.329C1054.17 150.746 1054.73 150.956 1055.28 150.956C1055.82 150.956 1056.38 150.746 1056.79 150.329L1063.8 143.323L1064.05 143.071C1064.49 143.203 1064.94 143.267 1065.39 143.267C1066.56 143.267 1067.73 142.822 1068.62 141.934L1070.91 139.645L1075.79 134.766L1082.87 127.688L1087.66 122.895L1095.66 114.89H1106.41C1106.41 114.89 1106.41 114.89 1106.42 114.89C1106.48 114.89 1106.54 114.887 1106.61 114.881C1106.64 114.878 1106.67 114.873 1106.7 114.867C1106.73 114.864 1106.76 114.859 1106.78 114.853C1106.82 114.848 1106.85 114.836 1106.89 114.828C1106.91 114.822 1106.94 114.817 1106.96 114.808C1106.99 114.8 1107.02 114.789 1107.05 114.78C1107.08 114.769 1107.11 114.761 1107.14 114.747C1107.16 114.738 1107.18 114.727 1107.2 114.719C1107.24 114.702 1107.27 114.685 1107.3 114.668C1107.32 114.66 1107.33 114.652 1107.34 114.643C1107.38 114.621 1107.42 114.598 1107.46 114.573C1107.47 114.565 1107.48 114.556 1107.49 114.548C1107.53 114.523 1107.57 114.495 1107.61 114.464C1107.63 114.444 1107.65 114.425 1107.67 114.402C1107.69 114.383 1107.72 114.366 1107.74 114.343L1120.24 101.842C1120.28 101.798 1120.32 101.75 1120.36 101.702C1120.36 101.702 1120.37 101.697 1120.37 101.694C1120.63 101.372 1120.79 100.966 1120.79 100.523C1120.79 100.08 1120.63 99.6715 1120.37 99.3522H1120.37Z" fill="#192A67"/>
<path d="M132.829 243.801V224.004H140.266C144.805 224.004 147.239 226.766 147.239 230.566C147.239 234.367 144.778 237.102 140.212 237.102H136.384V243.801H132.829ZM136.384 234.176H139.719C142.399 234.176 143.602 232.672 143.602 230.566C143.602 228.434 142.399 226.984 139.719 226.984H136.384V234.176ZM150.11 243.801V224.004H153.665V240.793H162.415V243.801H150.11ZM168.54 243.801H164.739L171.712 224.004H176.087L183.087 243.801H179.286L177.645 238.906H170.18L168.54 243.801ZM171.137 236.035H176.688L173.981 228.051H173.817L171.137 236.035ZM201.708 224.004V243.801H198.536L189.157 230.266H188.993V243.801H185.438V224.004H188.665L197.989 237.539H198.18V224.004H201.708Z" fill="#005EB8"/>
<path d="M452.556 243.801H445.829V224.004H452.665C458.571 224.004 462.153 227.723 462.153 233.875C462.153 240.055 458.571 243.801 452.556 243.801ZM449.384 240.711H452.364C456.493 240.711 458.599 238.441 458.599 233.875C458.599 229.336 456.493 227.094 452.474 227.094H449.384V240.711ZM482.962 233.902C482.962 240.301 479.079 244.074 473.884 244.074C468.688 244.074 464.806 240.273 464.806 233.902C464.806 227.504 468.688 223.73 473.884 223.73C479.079 223.73 482.962 227.504 482.962 233.902ZM479.38 233.902C479.38 229.391 477.11 226.93 473.884 226.93C470.657 226.93 468.388 229.391 468.388 233.902C468.388 238.414 470.657 240.875 473.884 240.875C477.11 240.875 479.38 238.414 479.38 233.902Z" fill="#111111"/>
<path d="M727.173 230.676C726.763 228.297 724.849 226.93 722.442 226.93C719.188 226.93 716.919 229.418 716.919 233.902C716.919 238.441 719.216 240.875 722.442 240.875C724.794 240.875 726.708 239.562 727.173 237.238H730.755C730.208 241.039 727.091 244.074 722.388 244.074C717.165 244.074 713.337 240.273 713.337 233.902C713.337 227.504 717.22 223.73 722.388 223.73C726.763 223.73 730.153 226.273 730.755 230.676H727.173ZM733.817 243.801V224.004H737.372V232.398H746.587V224.004H750.169V243.801H746.587V235.379H737.372V243.801H733.817ZM753.833 243.801V224.004H766.712V226.984H757.388V232.398H766.028V235.379H757.388V240.793H766.767V243.801H753.833ZM783.474 230.676C783.063 228.297 781.149 226.93 778.743 226.93C775.489 226.93 773.22 229.418 773.22 233.902C773.22 238.441 775.517 240.875 778.743 240.875C781.095 240.875 783.009 239.562 783.474 237.238H787.056C786.509 241.039 783.392 244.074 778.688 244.074C773.466 244.074 769.638 240.273 769.638 233.902C769.638 227.504 773.521 223.73 778.688 223.73C783.063 223.73 786.454 226.273 787.056 230.676H783.474ZM790.118 243.801V224.004H793.673V233.109H793.946L801.685 224.004H806.032L798.376 232.891L806.114 243.801H801.821L795.888 235.297L793.673 237.895V243.801H790.118Z" fill="#24C2FF"/>
<path d="M1008.34 243.801H1004.54L1011.52 224.004H1015.89L1022.89 243.801H1019.09L1017.45 238.906H1009.99L1008.34 243.801ZM1010.94 236.035H1016.49L1013.79 228.051H1013.62L1010.94 236.035ZM1037.66 230.676C1037.25 228.297 1035.33 226.93 1032.93 226.93C1029.67 226.93 1027.4 229.418 1027.4 233.902C1027.4 238.441 1029.7 240.875 1032.93 240.875C1035.28 240.875 1037.19 239.562 1037.66 237.238H1041.24C1040.69 241.039 1037.58 244.074 1032.87 244.074C1027.65 244.074 1023.82 240.273 1023.82 233.902C1023.82 227.504 1027.7 223.73 1032.87 223.73C1037.25 223.73 1040.64 226.273 1041.24 230.676H1037.66ZM1043.43 226.984V224.004H1059.2V226.984H1053.11V243.801H1049.55V226.984H1043.43ZM1065.55 224.004V243.801H1061.99V224.004H1065.55ZM1086.9 233.902C1086.9 240.301 1083.02 244.074 1077.83 244.074C1072.63 244.074 1068.75 240.273 1068.75 233.902C1068.75 227.504 1072.63 223.73 1077.83 223.73C1083.02 223.73 1086.9 227.504 1086.9 233.902ZM1083.32 233.902C1083.32 229.391 1081.05 226.93 1077.83 226.93C1074.6 226.93 1072.33 229.391 1072.33 233.902C1072.33 238.414 1074.6 240.875 1077.83 240.875C1081.05 240.875 1083.32 238.414 1083.32 233.902ZM1106.34 224.004V243.801H1103.17L1093.79 230.266H1093.63V243.801H1090.08V224.004H1093.3L1102.63 237.539H1102.82V224.004H1106.34Z" fill="#192A67"/>
<path d="M315.994 168C315.994 249.738 249.732 316 167.994 316C86.2555 316 19.9937 249.738 19.9937 168" stroke="#005EB8" stroke-width="40"/>
<path d="M19.9936 168C19.9936 86.2619 86.2555 20 167.994 20C249.732 20 315.994 86.2619 315.994 168" stroke="#F2F2F2" stroke-width="40"/>
<path d="M611.994 168C611.994 86.2619 678.255 20 759.994 20C841.732 20 907.994 86.2619 907.994 168" stroke="#F2F2F2" stroke-width="40"/>
<path d="M611.994 168C611.994 86.2619 545.732 20 463.994 20C382.256 20 315.994 86.2619 315.994 168" stroke="#111111" stroke-width="40"/>
<path d="M907.994 168C907.994 249.738 841.732 316 759.994 316C678.256 316 611.994 249.738 611.994 168" stroke="#24C2FF" stroke-width="40"/>
<path d="M1203.99 168C1203.99 86.2619 1137.73 20 1055.99 20C974.256 20 907.994 86.2619 907.994 168" stroke="#192A67" stroke-width="40"/>
<path d="M1203.99 219.2L1158.39 164L1249.59 164L1203.99 219.2Z" fill="#192A67"/>
<defs>
<clipPath id="clip0_69_621">
<rect width="79.2" height="104.8" fill="white" transform="translate(424.794 89)"/>
</clipPath>
</defs>
</svg>
