<svg xmlns="http://www.w3.org/2000/svg" xmlns:xlink="http://www.w3.org/1999/xlink" width="1016" height="782.79" viewBox="0 0 1016 782.79">
  <defs>
    <filter id="사각형_4807" x="0" y="533.395" width="387" height="137" filterUnits="userSpaceOnUse">
      <feOffset dy="3" input="SourceAlpha"/>
      <feGaussianBlur stdDeviation="3" result="blur"/>
      <feFlood flood-opacity="0.161"/>
      <feComposite operator="in" in2="blur"/>
      <feComposite in="SourceGraphic"/>
    </filter>
    <filter id="사각형_4807-2" x="629" y="533.395" width="387" height="137" filterUnits="userSpaceOnUse">
      <feOffset dy="3" input="SourceAlpha"/>
      <feGaussianBlur stdDeviation="3" result="blur-2"/>
      <feFlood flood-opacity="0.161"/>
      <feComposite operator="in" in2="blur-2"/>
      <feComposite in="SourceGraphic"/>
    </filter>
    <filter id="사각형_4807-3" x="0" y="101.395" width="387" height="137" filterUnits="userSpaceOnUse">
      <feOffset dy="3" input="SourceAlpha"/>
      <feGaussianBlur stdDeviation="3" result="blur-3"/>
      <feFlood flood-opacity="0.161"/>
      <feComposite operator="in" in2="blur-3"/>
      <feComposite in="SourceGraphic"/>
    </filter>
    <filter id="사각형_4807-4" x="629" y="101.395" width="387" height="137" filterUnits="userSpaceOnUse">
      <feOffset dy="3" input="SourceAlpha"/>
      <feGaussianBlur stdDeviation="3" result="blur-4"/>
      <feFlood flood-opacity="0.161"/>
      <feComposite operator="in" in2="blur-4"/>
      <feComposite in="SourceGraphic"/>
    </filter>
    <filter id="사각형_4807-5" x="349" y="286.395" width="315" height="216" filterUnits="userSpaceOnUse">
      <feOffset dy="3" input="SourceAlpha"/>
      <feGaussianBlur stdDeviation="3" result="blur-5"/>
      <feFlood flood-opacity="0.161"/>
      <feComposite operator="in" in2="blur-5"/>
      <feComposite in="SourceGraphic"/>
    </filter>
  </defs>
  <g id="그룹_3239" data-name="그룹 3239" transform="translate(-452 -2377.605)">
    <g id="arrows" transform="translate(567.604 2376.604)" opacity="0.13">
      <path id="패스_410" data-name="패스 410" d="M293.511,318.181H269.824A351.286,351.286,0,0,0,80.866,6.94v.81a70.927,70.927,0,0,1-24.7,53.718L38.89,76.315A270.345,270.345,0,0,1,188.842,318.181H165.154a16.7,16.7,0,0,0-12.728,27.574l64.165,74.571a16.831,16.831,0,0,0,25.482,0l64.192-74.571a16.7,16.7,0,0,0-12.755-27.574Z" transform="translate(473.495 74.216)" fill="#6fcde2"/>
      <path id="패스_411" data-name="패스 411" d="M61.468,255,76.45,272.408A269.94,269.94,0,0,1,318.181,122.456v23.687a16.7,16.7,0,0,0,27.574,12.728l74.571-64.165a16.831,16.831,0,0,0,0-25.482L345.755,5.032a16.7,16.7,0,0,0-27.574,12.755V41.474A351.286,351.286,0,0,0,6.94,230.432h.81A70.792,70.792,0,0,1,61.468,255Z" transform="translate(74.215)" fill="#346d92"/>
      <path id="패스_412" data-name="패스 412" d="M386.692,56.166,371.845,38.89A270.345,270.345,0,0,1,129.979,188.842V165.154A16.7,16.7,0,0,0,102.4,152.427L27.833,216.592a16.831,16.831,0,0,0,0,25.482L102.4,306.266a16.7,16.7,0,0,0,27.574-12.755V269.824A351.286,351.286,0,0,0,441.22,80.866h-.81A70.927,70.927,0,0,1,386.692,56.166Z" transform="translate(262.418 473.495)" fill="#25a3da"/>
      <path id="패스_413" data-name="패스 413" d="M122.456,129.979h23.687A16.7,16.7,0,0,0,158.871,102.4L94.707,27.833a16.831,16.831,0,0,0-25.482,0L5.032,102.4a16.7,16.7,0,0,0,12.755,27.574H41.474A351.287,351.287,0,0,0,230.432,441.22v-.81A70.306,70.306,0,0,1,255,386.827l17.411-14.982A270.345,270.345,0,0,1,122.456,129.979Z" transform="translate(0 262.418)" fill="#4d88a9"/>
    </g>
    <g id="그룹_3221" data-name="그룹 3221" transform="translate(199 370)">
      <g id="그룹_3217" data-name="그룹 3217" transform="translate(262 2547)" opacity="0.9">
        <g transform="matrix(1, 0, 0, 1, -9, -539.4)" filter="url(#사각형_4807)">
          <g id="사각형_4807-6" data-name="사각형 4807" transform="translate(9 539.4)" fill="#fff" stroke="#707070" stroke-width="1">
            <rect width="369" height="119" rx="9" stroke="none"/>
            <rect x="0.5" y="0.5" width="368" height="118" rx="8.5" fill="none"/>
          </g>
        </g>
      </g>
      <g id="그룹_3218" data-name="그룹 3218" transform="translate(-1198 2324)" opacity="0.9">
        <text id="근로자_참여_중심의_안전문화_구축" data-name="근로자 참여 중심의 안전문화 구축" transform="translate(1481 292)" fill="#7b7b7b" font-size="25" font-family="Pretendard-Regular, Pretendard"><tspan x="0" y="0">근로자 참여 중심의 안전문화 구축</tspan></text>
      </g>
    </g>
    <g id="그룹_3222" data-name="그룹 3222" transform="translate(828 370)">
      <g id="그룹_3217-2" data-name="그룹 3217" transform="translate(262 2547)" opacity="0.9">
        <g transform="matrix(1, 0, 0, 1, -638, -539.4)" filter="url(#사각형_4807-2)">
          <g id="사각형_4807-7" data-name="사각형 4807" transform="translate(638 539.4)" fill="#fff" stroke="#707070" stroke-width="1">
            <rect width="369" height="119" rx="9" stroke="none"/>
            <rect x="0.5" y="0.5" width="368" height="118" rx="8.5" fill="none"/>
          </g>
        </g>
      </g>
      <g id="그룹_3218-2" data-name="그룹 3218" transform="translate(-1168 2309)" opacity="0.9">
        <text id="대동도어_ESH_SYSTEM_LEVEL_UP" data-name="대동도어
ESH SYSTEM LEVEL UP" transform="translate(1614 292)" fill="#7b7b7b" font-size="25" font-family="Pretendard-Regular, Pretendard"><tspan x="-43.213" y="0">대동도어</tspan><tspan x="-133.398" y="30">ESH SYSTEM LEVEL UP</tspan></text>
      </g>
    </g>
    <g id="그룹_3219" data-name="그룹 3219" transform="translate(199 -62)">
      <g id="그룹_3217-3" data-name="그룹 3217" transform="translate(262 2547)">
        <g transform="matrix(1, 0, 0, 1, -9, -107.4)" filter="url(#사각형_4807-3)">
          <g id="사각형_4807-8" data-name="사각형 4807" transform="translate(9 107.4)" fill="#fff" stroke="#707070" stroke-width="1">
            <rect width="369" height="119" rx="9" stroke="none"/>
            <rect x="0.5" y="0.5" width="368" height="118" rx="8.5" fill="none"/>
          </g>
        </g>
      </g>
      <g id="그룹_3218-3" data-name="그룹 3218" transform="translate(-1192 2324)" opacity="0.9">
        <text id="환경안전보건_예방관리_체계구축" data-name="환경안전보건 예방관리 체계구축" transform="translate(1481 292)" fill="#7b7b7b" font-size="25" font-family="Pretendard-Regular, Pretendard"><tspan x="0" y="0">환경안전보건 예방관리 체계구축</tspan></text>
      </g>
    </g>
    <g id="그룹_3220" data-name="그룹 3220" transform="translate(828 -62)">
      <g id="그룹_3217-4" data-name="그룹 3217" transform="translate(262 2547)">
        <g transform="matrix(1, 0, 0, 1, -638, -107.4)" filter="url(#사각형_4807-4)">
          <g id="사각형_4807-9" data-name="사각형 4807" transform="translate(638 107.4)" fill="#fff" stroke="#707070" stroke-width="1">
            <rect width="369" height="119" rx="9" stroke="none"/>
            <rect x="0.5" y="0.5" width="368" height="118" rx="8.5" fill="none"/>
          </g>
        </g>
      </g>
      <g id="그룹_3218-4" data-name="그룹 3218" transform="translate(-1138 2324)" opacity="0.9">
        <text id="협력사_안전역량_강화" data-name="협력사 안전역량 강화" transform="translate(1481 292)" fill="#7b7b7b" font-size="25" font-family="Pretendard-Regular, Pretendard"><tspan x="0" y="0">협력사 안전역량 강화</tspan></text>
      </g>
    </g>
    <g id="그룹_3224" data-name="그룹 3224" transform="translate(548.031 148)">
      <g id="그룹_3217-5" data-name="그룹 3217" transform="translate(261.969 2522)">
        <g transform="matrix(1, 0, 0, 1, -358, -292.4)" filter="url(#사각형_4807-5)">
          <g id="사각형_4807-10" data-name="사각형 4807" transform="translate(358 292.4)" fill="#008e9e" stroke="#707070" stroke-width="1">
            <rect width="297" height="198" rx="9" stroke="none"/>
            <rect x="0.5" y="0.5" width="296" height="197" rx="8.5" fill="none"/>
          </g>
        </g>
      </g>
      <g id="그룹_3218-5" data-name="그룹 3218" transform="translate(299.153 2576)" opacity="0.9">
        <text id="환경안전보건문화_구축_중대재해사고_Zero" data-name="환경안전보건문화 구축


중대재해사고 Zero" transform="translate(112.815 8)" fill="#fff" font-size="25" font-family="Pretendard-Regular, Pretendard"><tspan x="-111.169" y="0">환경안전보건문화 구축</tspan><tspan x="0" y="30"></tspan><tspan x="0" y="60"></tspan><tspan x="-95.178" y="90">중대재해사고 </tspan><tspan y="90" font-family="Pretendard-Bold, Pretendard" font-weight="700">Zero</tspan></text>
      </g>
    </g>
    <g id="그룹_3225" data-name="그룹 3225">
      <line id="선_271" data-name="선 271" y2="33" transform="translate(958.5 2750.5)" fill="none" stroke="#fff" stroke-linecap="round" stroke-width="3"/>
      <line id="선_272" data-name="선 272" x1="8" y2="10" transform="translate(958.5 2773.5)" fill="none" stroke="#fff" stroke-linecap="round" stroke-width="3"/>
      <line id="선_273" data-name="선 273" x2="8" y2="10" transform="translate(950.5 2773.5)" fill="none" stroke="#fff" stroke-linecap="round" stroke-width="3"/>
    </g>
  </g>
</svg>
