<svg width="834" height="694" viewBox="0 0 834 694" fill="none" xmlns="http://www.w3.org/2000/svg">
<circle opacity="0.08" cx="416.41" cy="348.408" r="201.409" fill="#24C2FF"/>
<circle opacity="0.1" cx="416.406" cy="348.408" r="171.233" fill="#24C2FF"/>
<circle cx="416.411" cy="348.409" r="140.355" fill="#005EB8"/>
<circle cx="417.214" cy="84.2118" r="83.5112" fill="white" stroke="#005EB8" stroke-width="1.40355"/>
<circle cx="84.214" cy="348.212" r="83.5112" fill="white" stroke="#005EB8" stroke-width="1.40355"/>
<circle cx="749.214" cy="348.212" r="83.5112" fill="white" stroke="#005EB8" stroke-width="1.40355"/>
<circle cx="417.214" cy="609.212" r="83.5112" fill="white" stroke="#005EB8" stroke-width="1.40355"/>
<path d="M341.704 310.108H338.223L343.616 294.553H347.762L353.133 310.108H349.674L348.514 306.52H342.885L341.704 310.108ZM343.702 304.007H347.698L345.743 298.055H345.635L343.702 304.007ZM358.59 310.302C355.926 310.302 353.842 308.175 353.842 304.286C353.842 300.29 356.012 298.292 358.59 298.292C360.545 298.292 361.469 299.452 361.899 300.397H362.006V294.553H365.186V310.108H362.049V308.239H361.899C361.448 309.206 360.481 310.302 358.59 310.302ZM359.579 307.766C361.168 307.766 362.071 306.37 362.071 304.264C362.071 302.159 361.168 300.827 359.579 300.827C357.967 300.827 357.108 302.223 357.108 304.264C357.108 306.327 357.967 307.766 359.579 307.766ZM378.571 298.442L374.467 310.108H370.901L366.819 298.442H370.17L372.62 306.821H372.748L375.198 298.442H378.571ZM379.237 306.843C379.237 304.243 381.342 303.384 383.577 303.255C384.414 303.201 385.983 303.126 386.477 303.104V302.159C386.455 301.192 385.789 300.612 384.608 300.612C383.534 300.612 382.846 301.106 382.674 301.901H379.645C379.838 299.882 381.6 298.292 384.694 298.292C387.229 298.292 389.635 299.43 389.635 302.245V310.108H386.627V308.497H386.541C385.961 309.571 384.866 310.323 383.125 310.323C380.891 310.323 379.237 309.163 379.237 306.843ZM382.287 306.757C382.287 307.659 383.018 308.132 384.028 308.132C385.467 308.132 386.498 307.165 386.477 305.94V305.081C385.994 305.102 384.64 305.177 384.092 305.231C382.996 305.339 382.287 305.854 382.287 306.757ZM395.243 303.362V310.108H392.063V298.442H395.092V300.483H395.221C395.758 299.13 397.004 298.292 398.723 298.292C401.151 298.292 402.762 299.946 402.741 302.675V310.108H399.582V303.233C399.582 301.794 398.787 300.934 397.477 300.934C396.145 300.934 395.243 301.815 395.243 303.362ZM410.454 310.344C406.887 310.344 404.739 307.874 404.739 304.307C404.739 300.741 406.909 298.292 410.454 298.292C413.461 298.292 415.502 300.053 415.631 302.718H412.645C412.452 301.557 411.7 300.762 410.496 300.762C408.971 300.762 407.961 302.052 407.961 304.264C407.961 306.52 408.95 307.809 410.496 307.809C411.614 307.809 412.452 307.122 412.645 305.876H415.631C415.481 308.518 413.547 310.344 410.454 310.344ZM417.608 310.108V298.442H420.787V310.108H417.608ZM419.198 296.917C418.231 296.917 417.457 296.186 417.457 295.305C417.457 294.403 418.231 293.673 419.198 293.673C420.143 293.673 420.916 294.403 420.916 295.305C420.916 296.186 420.143 296.917 419.198 296.917ZM426.438 303.362V310.108H423.258V298.442H426.287V300.483H426.416C426.954 299.13 428.2 298.292 429.918 298.292C432.346 298.292 433.957 299.946 433.936 302.675V310.108H430.778V303.233C430.778 301.794 429.983 300.934 428.672 300.934C427.34 300.934 426.438 301.815 426.438 303.362ZM441.649 314.727C438.426 314.727 436.45 313.288 436.256 311.075H439.393C439.565 311.999 440.446 312.428 441.713 312.428C443.196 312.428 444.184 311.805 444.184 310.173V308.046H444.034C443.604 308.991 442.573 309.936 440.704 309.936C438.061 309.936 435.955 308.089 435.955 304.2C435.955 300.247 438.125 298.292 440.704 298.292C442.659 298.292 443.604 299.452 444.034 300.397H444.163V298.442H447.321V310.237C447.321 313.202 444.957 314.727 441.649 314.727ZM441.692 307.552C443.282 307.552 444.184 306.305 444.184 304.243C444.184 302.159 443.282 300.827 441.692 300.827C440.08 300.827 439.221 302.223 439.221 304.243C439.221 306.262 440.08 307.552 441.692 307.552ZM454.303 306.843C454.303 304.243 456.409 303.384 458.643 303.255C459.481 303.201 461.049 303.126 461.543 303.104V302.159C461.522 301.192 460.856 300.612 459.674 300.612C458.6 300.612 457.913 301.106 457.741 301.901H454.711C454.905 299.882 456.666 298.292 459.76 298.292C462.295 298.292 464.702 299.43 464.702 302.245V310.108H461.694V308.497H461.608C461.028 309.571 459.932 310.323 458.192 310.323C455.957 310.323 454.303 309.163 454.303 306.843ZM457.354 306.757C457.354 307.659 458.084 308.132 459.094 308.132C460.534 308.132 461.565 307.165 461.543 305.94V305.081C461.06 305.102 459.706 305.177 459.159 305.231C458.063 305.339 457.354 305.854 457.354 306.757ZM473.789 301.901C473.661 301.085 472.93 300.548 471.877 300.548C470.846 300.548 470.051 301.042 470.073 301.751C470.051 302.266 470.481 302.675 471.577 302.911L473.661 303.341C475.916 303.813 477.012 304.823 477.034 306.499C477.012 308.798 474.95 310.344 471.856 310.344C468.698 310.344 466.85 308.927 466.592 306.649H469.793C469.944 307.573 470.696 308.046 471.856 308.046C473.016 308.046 473.789 307.573 473.789 306.821C473.789 306.219 473.295 305.854 472.2 305.618L470.266 305.231C468.053 304.802 466.893 303.641 466.914 301.923C466.893 299.688 468.827 298.292 471.834 298.292C474.778 298.292 476.604 299.688 476.776 301.901H473.789ZM483.5 306.843C483.5 304.243 485.606 303.384 487.84 303.255C488.678 303.201 490.246 303.126 490.741 303.104V302.159C490.719 301.192 490.053 300.612 488.871 300.612C487.797 300.612 487.11 301.106 486.938 301.901H483.909C484.102 299.882 485.864 298.292 488.957 298.292C491.493 298.292 493.899 299.43 493.899 302.245V310.108H490.891V308.497H490.805C490.225 309.571 489.129 310.323 487.389 310.323C485.155 310.323 483.5 309.163 483.5 306.843ZM486.551 306.757C486.551 307.659 487.282 308.132 488.291 308.132C489.731 308.132 490.762 307.165 490.741 305.94V305.081C490.257 305.102 488.904 305.177 488.356 305.231C487.26 305.339 486.551 305.854 486.551 306.757ZM316.717 347.727C313.495 347.727 311.518 346.288 311.325 344.075H314.461C314.633 344.999 315.514 345.428 316.782 345.428C318.264 345.428 319.252 344.805 319.252 343.173V341.046H319.102C318.672 341.991 317.641 342.936 315.772 342.936C313.129 342.936 311.024 341.089 311.024 337.2C311.024 333.247 313.194 331.292 315.772 331.292C317.727 331.292 318.672 332.452 319.102 333.397H319.231V331.442H322.389V343.237C322.389 346.202 320.026 347.727 316.717 347.727ZM316.76 340.552C318.35 340.552 319.252 339.305 319.252 337.243C319.252 335.159 318.35 333.827 316.76 333.827C315.149 333.827 314.289 335.223 314.289 337.243C314.289 339.262 315.149 340.552 316.76 340.552ZM328.039 327.553V343.108H324.86V327.553H328.039ZM335.752 343.344C332.229 343.344 330.037 340.917 330.037 337.307C330.037 333.698 332.229 331.292 335.752 331.292C339.276 331.292 341.489 333.698 341.489 337.307C341.489 340.917 339.276 343.344 335.752 343.344ZM335.774 340.874C337.407 340.874 338.245 339.348 338.245 337.307C338.245 335.245 337.407 333.719 335.774 333.719C334.12 333.719 333.26 335.245 333.26 337.307C333.26 339.348 334.12 340.874 335.774 340.874ZM343.551 343.108V327.553H346.731V333.397H346.817C347.268 332.452 348.192 331.292 350.147 331.292C352.725 331.292 354.895 333.29 354.895 337.286C354.895 341.175 352.811 343.302 350.147 343.302C348.235 343.302 347.268 342.206 346.817 341.239H346.688V343.108H343.551ZM346.666 337.264C346.666 339.37 347.569 340.766 349.137 340.766C350.77 340.766 351.629 339.327 351.629 337.264C351.629 335.223 350.77 333.827 349.137 333.827C347.547 333.827 346.666 335.159 346.666 337.264ZM356.377 339.843C356.377 337.243 358.483 336.384 360.717 336.255C361.555 336.201 363.123 336.126 363.618 336.104V335.159C363.596 334.192 362.93 333.612 361.748 333.612C360.674 333.612 359.987 334.106 359.815 334.901H356.786C356.979 332.882 358.741 331.292 361.834 331.292C364.37 331.292 366.776 332.43 366.776 335.245V343.108H363.768V341.497H363.682C363.102 342.571 362.006 343.323 360.266 343.323C358.032 343.323 356.377 342.163 356.377 339.843ZM359.428 339.757C359.428 340.659 360.159 341.132 361.168 341.132C362.608 341.132 363.639 340.165 363.618 338.94V338.081C363.134 338.102 361.781 338.177 361.233 338.231C360.137 338.339 359.428 338.854 359.428 339.757ZM372.383 327.553V343.108H369.204V327.553H372.383ZM379.924 347.491V331.442H383.061V333.397H383.19C383.62 332.452 384.565 331.292 386.52 331.292C389.098 331.292 391.246 333.29 391.246 337.286C391.246 341.175 389.184 343.302 386.52 343.302C384.608 343.302 383.641 342.206 383.19 341.239H383.104V347.491H379.924ZM383.039 337.264C383.039 339.37 383.942 340.766 385.51 340.766C387.143 340.766 388.002 339.327 388.002 337.264C388.002 335.223 387.143 333.827 385.51 333.827C383.92 333.827 383.039 335.159 383.039 337.264ZM392.75 339.843C392.75 337.243 394.856 336.384 397.09 336.255C397.928 336.201 399.496 336.126 399.991 336.104V335.159C399.969 334.192 399.303 333.612 398.121 333.612C397.047 333.612 396.36 334.106 396.188 334.901H393.159C393.352 332.882 395.114 331.292 398.207 331.292C400.743 331.292 403.149 332.43 403.149 335.245V343.108H400.141V341.497H400.055C399.475 342.571 398.379 343.323 396.639 343.323C394.405 343.323 392.75 342.163 392.75 339.843ZM395.801 339.757C395.801 340.659 396.532 341.132 397.541 341.132C398.981 341.132 400.012 340.165 399.991 338.94V338.081C399.507 338.102 398.154 338.177 397.606 338.231C396.51 338.339 395.801 338.854 395.801 339.757ZM405.577 343.108V331.442H408.649V333.462H408.778C409.207 332.022 410.282 331.27 411.592 331.27C411.914 331.27 412.323 331.313 412.602 331.378V334.214C412.301 334.128 411.7 334.042 411.248 334.042C409.809 334.042 408.756 335.052 408.756 336.469V343.108H405.577ZM420.873 331.442V333.827H418.682V339.52C418.682 340.444 419.133 340.68 419.778 340.702C420.1 340.702 420.659 340.68 421.045 340.637V343.151C420.702 343.216 420.143 343.259 419.348 343.259C417.049 343.259 415.481 342.227 415.502 339.971V333.827H413.891V331.442H415.502V328.649H418.682V331.442H420.873ZM429.36 334.901C429.231 334.085 428.5 333.548 427.448 333.548C426.416 333.548 425.621 334.042 425.643 334.751C425.621 335.266 426.051 335.675 427.147 335.911L429.231 336.341C431.487 336.813 432.582 337.823 432.604 339.499C432.582 341.798 430.52 343.344 427.426 343.344C424.268 343.344 422.42 341.927 422.162 339.649H425.364C425.514 340.573 426.266 341.046 427.426 341.046C428.586 341.046 429.36 340.573 429.36 339.821C429.36 339.219 428.866 338.854 427.77 338.618L425.836 338.231C423.623 337.802 422.463 336.641 422.485 334.923C422.463 332.688 424.397 331.292 427.405 331.292C430.348 331.292 432.174 332.688 432.346 334.901H429.36ZM446.289 334.901C446.161 334.085 445.43 333.548 444.377 333.548C443.346 333.548 442.551 334.042 442.573 334.751C442.551 335.266 442.981 335.675 444.077 335.911L446.161 336.341C448.416 336.813 449.512 337.823 449.534 339.499C449.512 341.798 447.45 343.344 444.356 343.344C441.198 343.344 439.35 341.927 439.092 339.649H442.293C442.444 340.573 443.196 341.046 444.356 341.046C445.516 341.046 446.289 340.573 446.289 339.821C446.289 339.219 445.795 338.854 444.7 338.618L442.766 338.231C440.553 337.802 439.393 336.641 439.414 334.923C439.393 332.688 441.327 331.292 444.334 331.292C447.278 331.292 449.104 332.688 449.276 334.901H446.289ZM458.965 338.145V331.442H462.145V343.108H459.094V341.003H458.965C458.428 342.356 457.182 343.259 455.42 343.259C453.079 343.259 451.489 341.604 451.489 338.876V331.442H454.668V338.317C454.668 339.692 455.463 340.573 456.709 340.573C457.87 340.573 458.965 339.735 458.965 338.145ZM464.616 347.491V331.442H467.752V333.397H467.881C468.311 332.452 469.256 331.292 471.211 331.292C473.789 331.292 475.938 333.29 475.938 337.286C475.938 341.175 473.875 343.302 471.211 343.302C469.299 343.302 468.332 342.206 467.881 341.239H467.795V347.491H464.616ZM467.731 337.264C467.731 339.37 468.633 340.766 470.202 340.766C471.834 340.766 472.694 339.327 472.694 337.264C472.694 335.223 471.834 333.827 470.202 333.827C468.612 333.827 467.731 335.159 467.731 337.264ZM478 347.491V331.442H481.137V333.397H481.266C481.696 332.452 482.641 331.292 484.596 331.292C487.174 331.292 489.323 333.29 489.323 337.286C489.323 341.175 487.26 343.302 484.596 343.302C482.684 343.302 481.717 342.206 481.266 341.239H481.18V347.491H478ZM481.116 337.264C481.116 339.37 482.018 340.766 483.586 340.766C485.219 340.766 486.079 339.327 486.079 337.264C486.079 335.223 485.219 333.827 483.586 333.827C481.996 333.827 481.116 335.159 481.116 337.264ZM494.565 327.553V343.108H491.385V327.553H494.565ZM497.036 343.108V331.442H500.215V343.108H497.036ZM498.625 329.917C497.659 329.917 496.885 329.186 496.885 328.305C496.885 327.403 497.659 326.673 498.625 326.673C499.571 326.673 500.344 327.403 500.344 328.305C500.344 329.186 499.571 329.917 498.625 329.917ZM507.971 343.344C504.405 343.344 502.213 341.024 502.213 337.329C502.213 333.719 504.426 331.292 507.842 331.292C510.914 331.292 513.321 333.225 513.321 337.2V338.102H505.35C505.35 339.864 506.403 340.96 508.036 340.96C509.11 340.96 509.883 340.487 510.205 339.778H513.235C512.784 341.927 510.85 343.344 507.971 343.344ZM505.35 336.104H510.313C510.313 334.686 509.325 333.677 507.907 333.677C506.446 333.677 505.404 334.761 505.35 336.104ZM515.319 343.108V331.442H518.391V333.462H518.52C518.95 332.022 520.024 331.27 521.334 331.27C521.657 331.27 522.065 331.313 522.344 331.378V334.214C522.043 334.128 521.442 334.042 520.991 334.042C519.551 334.042 518.498 335.052 518.498 336.469V343.108H515.319ZM359.514 376.108L356.334 364.442H359.557L361.383 372.327H361.491L363.403 364.442H366.561L368.495 372.284H368.602L370.407 364.442H373.629L370.428 376.108H367.077L365.057 368.696H364.907L362.887 376.108H359.514ZM375.241 376.108V364.442H378.42V376.108H375.241ZM376.83 362.917C375.864 362.917 375.09 362.186 375.09 361.305C375.09 360.403 375.864 359.673 376.83 359.673C377.776 359.673 378.549 360.403 378.549 361.305C378.549 362.186 377.776 362.917 376.83 362.917ZM387.036 364.442V366.827H384.844V372.52C384.844 373.444 385.295 373.68 385.94 373.702C386.262 373.702 386.821 373.68 387.207 373.637V376.151C386.864 376.216 386.305 376.259 385.51 376.259C383.211 376.259 381.643 375.227 381.664 372.971V366.827H380.053V364.442H381.664V361.649H384.844V364.442H387.036ZM392.471 369.362V376.108H389.291V360.553H392.385V366.483H392.514C393.051 365.13 394.233 364.292 395.995 364.292C398.422 364.292 400.034 365.925 400.034 368.675V376.108H396.854V369.233C396.854 367.794 396.08 366.934 394.748 366.934C393.416 366.934 392.471 367.815 392.471 369.362ZM415.266 380.491V374.239H415.159C414.707 375.206 413.741 376.302 411.85 376.302C409.186 376.302 407.102 374.175 407.102 370.286C407.102 366.29 409.272 364.292 411.85 364.292C413.805 364.292 414.729 365.452 415.159 366.397H415.309V364.442H418.446V380.491H415.266ZM412.838 373.766C414.428 373.766 415.33 372.37 415.33 370.264C415.33 368.159 414.428 366.827 412.838 366.827C411.227 366.827 410.368 368.223 410.368 370.264C410.368 372.327 411.227 373.766 412.838 373.766ZM428.414 371.145V364.442H431.594V376.108H428.543V374.003H428.414C427.877 375.356 426.631 376.259 424.87 376.259C422.528 376.259 420.938 374.604 420.938 371.876V364.442H424.118V371.317C424.118 372.692 424.912 373.573 426.159 373.573C427.319 373.573 428.414 372.735 428.414 371.145ZM433.506 372.843C433.506 370.243 435.612 369.384 437.846 369.255C438.684 369.201 440.252 369.126 440.746 369.104V368.159C440.725 367.192 440.059 366.612 438.877 366.612C437.803 366.612 437.116 367.106 436.944 367.901H433.914C434.108 365.882 435.87 364.292 438.963 364.292C441.498 364.292 443.905 365.43 443.905 368.245V376.108H440.897V374.497H440.811C440.231 375.571 439.135 376.323 437.395 376.323C435.161 376.323 433.506 375.163 433.506 372.843ZM436.557 372.757C436.557 373.659 437.288 374.132 438.297 374.132C439.737 374.132 440.768 373.165 440.746 371.94V371.081C440.263 371.102 438.91 371.177 438.362 371.231C437.266 371.339 436.557 371.854 436.557 372.757ZM449.512 360.553V376.108H446.332V360.553H449.512ZM451.983 376.108V364.442H455.163V376.108H451.983ZM453.573 362.917C452.606 362.917 451.832 362.186 451.832 361.305C451.832 360.403 452.606 359.673 453.573 359.673C454.518 359.673 455.291 360.403 455.291 361.305C455.291 362.186 454.518 362.917 453.573 362.917ZM463.778 364.442V366.827H461.586V372.52C461.586 373.444 462.038 373.68 462.682 373.702C463.004 373.702 463.563 373.68 463.95 373.637V376.151C463.606 376.216 463.047 376.259 462.252 376.259C459.954 376.259 458.385 375.227 458.407 372.971V366.827H456.795V364.442H458.407V361.649H461.586V364.442H463.778ZM467.645 380.491C467.022 380.491 466.442 380.469 466.034 380.427V377.956C466.442 377.977 466.914 377.999 467.323 377.999C467.946 377.999 468.461 377.934 468.848 376.925L469.041 376.43L464.852 364.442H468.182L470.631 373.036H470.76L473.231 364.442H476.604L472.049 377.397C471.383 379.266 470.116 380.491 467.645 380.491ZM336.708 409.344C333.142 409.344 330.994 406.874 330.994 403.307C330.994 399.741 333.163 397.292 336.708 397.292C339.716 397.292 341.757 399.053 341.886 401.718H338.9C338.706 400.557 337.954 399.762 336.751 399.762C335.226 399.762 334.216 401.052 334.216 403.264C334.216 405.52 335.204 406.809 336.751 406.809C337.869 406.809 338.706 406.122 338.9 404.876H341.886C341.736 407.518 339.802 409.344 336.708 409.344ZM349.105 409.344C345.581 409.344 343.39 406.917 343.39 403.307C343.39 399.698 345.581 397.292 349.105 397.292C352.628 397.292 354.841 399.698 354.841 403.307C354.841 406.917 352.628 409.344 349.105 409.344ZM349.126 406.874C350.759 406.874 351.597 405.348 351.597 403.307C351.597 401.245 350.759 399.719 349.126 399.719C347.472 399.719 346.613 401.245 346.613 403.307C346.613 405.348 347.472 406.874 349.126 406.874ZM356.839 409.108V397.442H359.869V399.483H359.997C360.492 398.13 361.673 397.292 363.242 397.292C364.853 397.292 366.035 398.13 366.421 399.483H366.529C367.023 398.151 368.333 397.292 370.052 397.292C372.222 397.292 373.726 398.731 373.726 401.266V409.108H370.546V401.889C370.546 400.557 369.773 399.913 368.72 399.913C367.517 399.913 366.829 400.751 366.829 401.975V409.108H363.736V401.803C363.736 400.643 363.005 399.913 361.931 399.913C360.857 399.913 360.019 400.772 360.019 402.104V409.108H356.839ZM376.175 413.491V397.442H379.312V399.397H379.441C379.871 398.452 380.816 397.292 382.771 397.292C385.349 397.292 387.497 399.29 387.497 403.286C387.497 407.175 385.435 409.302 382.771 409.302C380.859 409.302 379.892 408.206 379.441 407.239H379.355V413.491H376.175ZM379.29 403.264C379.29 405.37 380.193 406.766 381.761 406.766C383.394 406.766 384.253 405.327 384.253 403.264C384.253 401.223 383.394 399.827 381.761 399.827C380.171 399.827 379.29 401.159 379.29 403.264ZM394.845 409.344C391.279 409.344 389.087 407.024 389.087 403.329C389.087 399.719 391.3 397.292 394.716 397.292C397.788 397.292 400.195 399.225 400.195 403.2V404.102H392.224C392.224 405.864 393.277 406.96 394.91 406.96C395.984 406.96 396.757 406.487 397.079 405.778H400.109C399.658 407.927 397.724 409.344 394.845 409.344ZM392.224 402.104H397.187C397.187 400.686 396.199 399.677 394.781 399.677C393.32 399.677 392.278 400.761 392.224 402.104ZM408.337 397.442V399.827H406.146V405.52C406.146 406.444 406.597 406.68 407.242 406.702C407.564 406.702 408.122 406.68 408.509 406.637V409.151C408.165 409.216 407.607 409.259 406.812 409.259C404.513 409.259 402.945 408.227 402.966 405.971V399.827H401.355V397.442H402.966V394.649H406.146V397.442H408.337ZM410.335 409.108V397.442H413.515V409.108H410.335ZM411.925 395.917C410.958 395.917 410.185 395.186 410.185 394.305C410.185 393.403 410.958 392.673 411.925 392.673C412.871 392.673 413.644 393.403 413.644 394.305C413.644 395.186 412.871 395.917 411.925 395.917ZM422.13 397.442V399.827H419.939V405.52C419.939 406.444 420.39 406.68 421.035 406.702C421.357 406.702 421.915 406.68 422.302 406.637V409.151C421.958 409.216 421.4 409.259 420.605 409.259C418.306 409.259 416.738 408.227 416.759 405.971V399.827H415.148V397.442H416.759V394.649H419.939V397.442H422.13ZM424.128 409.108V397.442H427.308V409.108H424.128ZM425.718 395.917C424.751 395.917 423.978 395.186 423.978 394.305C423.978 393.403 424.751 392.673 425.718 392.673C426.663 392.673 427.437 393.403 427.437 394.305C427.437 395.186 426.663 395.917 425.718 395.917ZM440.607 397.442L436.503 409.108H432.937L428.855 397.442H432.206L434.656 405.821H434.785L437.234 397.442H440.607ZM447.052 409.344C443.486 409.344 441.294 407.024 441.294 403.329C441.294 399.719 443.507 397.292 446.923 397.292C449.996 397.292 452.402 399.225 452.402 403.2V404.102H444.431C444.431 405.864 445.484 406.96 447.117 406.96C448.191 406.96 448.964 406.487 449.287 405.778H452.316C451.865 407.927 449.931 409.344 447.052 409.344ZM444.431 402.104H449.394C449.394 400.686 448.406 399.677 446.988 399.677C445.527 399.677 444.485 400.761 444.431 402.104ZM457.579 402.362V409.108H454.4V397.442H457.429V399.483H457.558C458.095 398.13 459.341 397.292 461.06 397.292C463.488 397.292 465.099 398.946 465.078 401.675V409.108H461.919V402.233C461.919 400.794 461.124 399.934 459.814 399.934C458.482 399.934 457.579 400.815 457.579 402.362ZM472.833 409.344C469.267 409.344 467.076 407.024 467.076 403.329C467.076 399.719 469.288 397.292 472.704 397.292C475.777 397.292 478.183 399.225 478.183 403.2V404.102H470.212C470.212 405.864 471.265 406.96 472.898 406.96C473.972 406.96 474.746 406.487 475.068 405.778H478.097C477.646 407.927 475.712 409.344 472.833 409.344ZM470.212 402.104H475.175C475.175 400.686 474.187 399.677 472.769 399.677C471.308 399.677 470.266 400.761 470.212 402.104ZM486.841 400.901C486.712 400.085 485.982 399.548 484.929 399.548C483.898 399.548 483.103 400.042 483.124 400.751C483.103 401.266 483.533 401.675 484.628 401.911L486.712 402.341C488.968 402.813 490.064 403.823 490.085 405.499C490.064 407.798 488.001 409.344 484.908 409.344C481.749 409.344 479.902 407.927 479.644 405.649H482.845C482.996 406.573 483.747 407.046 484.908 407.046C486.068 407.046 486.841 406.573 486.841 405.821C486.841 405.219 486.347 404.854 485.251 404.618L483.318 404.231C481.105 403.802 479.945 402.641 479.966 400.923C479.945 398.688 481.878 397.292 484.886 397.292C487.829 397.292 489.656 398.688 489.828 400.901H486.841ZM498.701 400.901C498.572 400.085 497.841 399.548 496.788 399.548C495.757 399.548 494.962 400.042 494.984 400.751C494.962 401.266 495.392 401.675 496.488 401.911L498.572 402.341C500.828 402.813 501.923 403.823 501.945 405.499C501.923 407.798 499.861 409.344 496.767 409.344C493.609 409.344 491.761 407.927 491.503 405.649H494.704C494.855 406.573 495.607 407.046 496.767 407.046C497.927 407.046 498.701 406.573 498.701 405.821C498.701 405.219 498.206 404.854 497.111 404.618L495.177 404.231C492.964 403.802 491.804 402.641 491.826 400.923C491.804 398.688 493.738 397.292 496.746 397.292C499.689 397.292 501.515 398.688 501.687 400.901H498.701Z" fill="white"/>
<path d="M389.86 45.9207C389.767 45.03 389.048 44.4988 387.907 44.4988C386.72 44.4988 386.063 45.0457 386.048 45.7957C386.032 46.6082 386.892 46.9832 387.86 47.2019L388.876 47.4519C390.813 47.8894 392.267 48.8738 392.267 50.7644C392.267 52.8425 390.642 54.155 387.892 54.155C385.157 54.155 383.407 52.8894 383.345 50.4675H385.626C385.704 51.6082 386.61 52.1863 387.86 52.1863C389.095 52.1863 389.892 51.6082 389.892 50.7644C389.892 49.9988 389.188 49.6394 387.954 49.3269L386.72 49.03C384.813 48.5613 383.642 47.6082 383.642 45.9519C383.642 43.8894 385.454 42.53 387.923 42.53C390.423 42.53 392.079 43.9207 392.11 45.9207H389.86ZM397.595 54.1707C395.001 54.1707 393.407 52.4832 393.407 49.7957C393.407 47.1707 395.017 45.405 397.501 45.405C399.735 45.405 401.485 46.8113 401.485 49.7019V50.3582H395.688C395.688 51.6394 396.454 52.4363 397.642 52.4363C398.423 52.4363 398.985 52.0925 399.22 51.5769H401.423C401.095 53.1394 399.688 54.1707 397.595 54.1707ZM395.688 48.905H399.298C399.298 47.8738 398.579 47.1394 397.548 47.1394C396.485 47.1394 395.728 47.9285 395.688 48.905ZM406.751 54.1707C404.157 54.1707 402.595 52.3738 402.595 49.78C402.595 47.1863 404.173 45.405 406.751 45.405C408.938 45.405 410.423 46.6863 410.517 48.6238H408.345C408.204 47.78 407.657 47.2019 406.782 47.2019C405.673 47.2019 404.938 48.1394 404.938 49.7488C404.938 51.3894 405.657 52.3269 406.782 52.3269C407.595 52.3269 408.204 51.8269 408.345 50.9207H410.517C410.407 52.8425 409.001 54.1707 406.751 54.1707ZM417.392 50.3894V45.5144H419.704V53.9988H417.485V52.4675H417.392C417.001 53.4519 416.095 54.1082 414.813 54.1082C413.11 54.1082 411.954 52.905 411.954 50.9207V45.5144H414.267V50.5144C414.267 51.5144 414.845 52.155 415.751 52.155C416.595 52.155 417.392 51.5457 417.392 50.3894ZM421.501 53.9988V45.5144H423.735V46.9832H423.829C424.142 45.9363 424.923 45.3894 425.876 45.3894C426.11 45.3894 426.407 45.4207 426.61 45.4675V47.53C426.392 47.4675 425.954 47.405 425.626 47.405C424.579 47.405 423.813 48.1394 423.813 49.1707V53.9988H421.501ZM427.735 53.9988V45.5144H430.048V53.9988H427.735ZM428.892 44.405C428.188 44.405 427.626 43.8738 427.626 43.2332C427.626 42.5769 428.188 42.0457 428.892 42.0457C429.579 42.0457 430.142 42.5769 430.142 43.2332C430.142 43.8738 429.579 44.405 428.892 44.405ZM434.157 49.0925V53.9988H431.845V45.5144H434.048V46.9988H434.142C434.532 46.0144 435.438 45.405 436.688 45.405C438.454 45.405 439.626 46.6082 439.61 48.5925V53.9988H437.313V48.9988C437.313 47.9519 436.735 47.3269 435.782 47.3269C434.813 47.3269 434.157 47.9675 434.157 49.0925ZM445.22 57.3582C442.876 57.3582 441.438 56.3113 441.298 54.7019H443.579C443.704 55.3738 444.345 55.6863 445.267 55.6863C446.345 55.6863 447.063 55.2332 447.063 54.0457V52.4988H446.954C446.642 53.1863 445.892 53.8738 444.532 53.8738C442.61 53.8738 441.079 52.53 441.079 49.7019C441.079 46.8269 442.657 45.405 444.532 45.405C445.954 45.405 446.642 46.2488 446.954 46.9363H447.048V45.5144H449.345V54.0925C449.345 56.2488 447.626 57.3582 445.22 57.3582ZM445.251 52.1394C446.407 52.1394 447.063 51.2332 447.063 49.7332C447.063 48.2175 446.407 47.2488 445.251 47.2488C444.079 47.2488 443.454 48.2644 443.454 49.7332C443.454 51.2019 444.079 52.1394 445.251 52.1394ZM352.149 78.1707C349.556 78.1707 347.993 76.3738 347.993 73.78C347.993 71.1863 349.571 69.405 352.149 69.405C354.337 69.405 355.821 70.6863 355.915 72.6238H353.743C353.603 71.78 353.056 71.2019 352.181 71.2019C351.071 71.2019 350.337 72.1394 350.337 73.7488C350.337 75.3894 351.056 76.3269 352.181 76.3269C352.993 76.3269 353.603 75.8269 353.743 74.9207H355.915C355.806 76.8425 354.399 78.1707 352.149 78.1707ZM362.79 74.3894V69.5144H365.103V77.9988H362.884V76.4675H362.79C362.399 77.4519 361.493 78.1082 360.212 78.1082C358.509 78.1082 357.353 76.905 357.353 74.9207V69.5144H359.665V74.5144C359.665 75.5144 360.243 76.155 361.149 76.155C361.993 76.155 362.79 75.5457 362.79 74.3894ZM366.899 77.9988V69.5144H369.134V70.9832H369.228C369.54 69.9363 370.321 69.3894 371.274 69.3894C371.509 69.3894 371.806 69.4207 372.009 69.4675V71.53C371.79 71.4675 371.353 71.405 371.024 71.405C369.978 71.405 369.212 72.1394 369.212 73.1707V77.9988H366.899ZM377.978 72.03C377.884 71.4363 377.353 71.0457 376.587 71.0457C375.837 71.0457 375.259 71.405 375.274 71.9207C375.259 72.2957 375.571 72.5925 376.368 72.7644L377.884 73.0769C379.524 73.4207 380.321 74.155 380.337 75.3738C380.321 77.0457 378.821 78.1707 376.571 78.1707C374.274 78.1707 372.931 77.1394 372.743 75.4832H375.071C375.181 76.155 375.728 76.4988 376.571 76.4988C377.415 76.4988 377.978 76.155 377.978 75.6082C377.978 75.1707 377.618 74.905 376.821 74.7332L375.415 74.4519C373.806 74.1394 372.962 73.2957 372.978 72.0457C372.962 70.4207 374.368 69.405 376.556 69.405C378.696 69.405 380.024 70.4207 380.149 72.03H377.978ZM386.228 69.5144V71.2488H384.634V75.3894C384.634 76.0613 384.962 76.2332 385.431 76.2488C385.665 76.2488 386.071 76.2332 386.353 76.2019V78.03C386.103 78.0769 385.696 78.1082 385.118 78.1082C383.446 78.1082 382.306 77.3582 382.321 75.7175V71.2488H381.149V69.5144H382.321V67.4832H384.634V69.5144H386.228ZM391.399 78.1707C388.837 78.1707 387.243 76.405 387.243 73.78C387.243 71.155 388.837 69.405 391.399 69.405C393.962 69.405 395.571 71.155 395.571 73.78C395.571 76.405 393.962 78.1707 391.399 78.1707ZM391.415 76.3738C392.603 76.3738 393.212 75.2644 393.212 73.78C393.212 72.28 392.603 71.1707 391.415 71.1707C390.212 71.1707 389.587 72.28 389.587 73.78C389.587 75.2644 390.212 76.3738 391.415 76.3738ZM397.024 77.9988V69.5144H399.228V70.9988H399.321C399.681 70.0144 400.54 69.405 401.681 69.405C402.853 69.405 403.712 70.0144 403.993 70.9988H404.071C404.431 70.03 405.384 69.405 406.634 69.405C408.212 69.405 409.306 70.4519 409.306 72.2957V77.9988H406.993V72.7488C406.993 71.78 406.431 71.3113 405.665 71.3113C404.79 71.3113 404.29 71.9207 404.29 72.8113V77.9988H402.04V72.6863C402.04 71.8425 401.509 71.3113 400.728 71.3113C399.946 71.3113 399.337 71.9363 399.337 72.905V77.9988H397.024ZM414.931 78.1707C412.337 78.1707 410.743 76.4832 410.743 73.7957C410.743 71.1707 412.353 69.405 414.837 69.405C417.071 69.405 418.821 70.8113 418.821 73.7019V74.3582H413.024C413.024 75.6394 413.79 76.4363 414.978 76.4363C415.759 76.4363 416.321 76.0925 416.556 75.5769H418.759C418.431 77.1394 417.024 78.1707 414.931 78.1707ZM413.024 72.905H416.634C416.634 71.8738 415.915 71.1394 414.884 71.1394C413.821 71.1394 413.063 71.9285 413.024 72.905ZM420.274 77.9988V69.5144H422.509V70.9832H422.603C422.915 69.9363 423.696 69.3894 424.649 69.3894C424.884 69.3894 425.181 69.4207 425.384 69.4675V71.53C425.165 71.4675 424.728 71.405 424.399 71.405C423.353 71.405 422.587 72.1394 422.587 73.1707V77.9988H420.274ZM431.509 72.4207V74.2644H426.353V72.4207H431.509ZM437.243 78.1707C434.649 78.1707 433.087 76.3738 433.087 73.78C433.087 71.1863 434.665 69.405 437.243 69.405C439.431 69.405 440.915 70.6863 441.009 72.6238H438.837C438.696 71.78 438.149 71.2019 437.274 71.2019C436.165 71.2019 435.431 72.1394 435.431 73.7488C435.431 75.3894 436.149 76.3269 437.274 76.3269C438.087 76.3269 438.696 75.8269 438.837 74.9207H441.009C440.899 76.8425 439.493 78.1707 437.243 78.1707ZM446.29 78.1707C443.696 78.1707 442.103 76.4832 442.103 73.7957C442.103 71.1707 443.712 69.405 446.196 69.405C448.431 69.405 450.181 70.8113 450.181 73.7019V74.3582H444.384C444.384 75.6394 445.149 76.4363 446.337 76.4363C447.118 76.4363 447.681 76.0925 447.915 75.5769H450.118C449.79 77.1394 448.384 78.1707 446.29 78.1707ZM444.384 72.905H447.993C447.993 71.8738 447.274 71.1394 446.243 71.1394C445.181 71.1394 444.423 71.9285 444.384 72.905ZM453.946 73.0925V77.9988H451.634V69.5144H453.837V70.9988H453.931C454.321 70.0144 455.228 69.405 456.478 69.405C458.243 69.405 459.415 70.6082 459.399 72.5925V77.9988H457.103V72.9988C457.103 71.9519 456.524 71.3269 455.571 71.3269C454.603 71.3269 453.946 71.9675 453.946 73.0925ZM465.665 69.5144V71.2488H464.071V75.3894C464.071 76.0613 464.399 76.2332 464.868 76.2488C465.103 76.2488 465.509 76.2332 465.79 76.2019V78.03C465.54 78.0769 465.134 78.1082 464.556 78.1082C462.884 78.1082 461.743 77.3582 461.759 75.7175V71.2488H460.587V69.5144H461.759V67.4832H464.071V69.5144H465.665ZM467.118 77.9988V69.5144H469.353V70.9832H469.446C469.759 69.9363 470.54 69.3894 471.493 69.3894C471.728 69.3894 472.024 69.4207 472.228 69.4675V71.53C472.009 71.4675 471.571 71.405 471.243 71.405C470.196 71.405 469.431 72.1394 469.431 73.1707V77.9988H467.118ZM473.353 77.9988V69.5144H475.665V77.9988H473.353ZM474.509 68.405C473.806 68.405 473.243 67.8738 473.243 67.2332C473.243 66.5769 473.806 66.0457 474.509 66.0457C475.196 66.0457 475.759 66.5769 475.759 67.2332C475.759 67.8738 475.196 68.405 474.509 68.405ZM481.274 78.1707C478.681 78.1707 477.118 76.3738 477.118 73.78C477.118 71.1863 478.696 69.405 481.274 69.405C483.462 69.405 484.946 70.6863 485.04 72.6238H482.868C482.728 71.78 482.181 71.2019 481.306 71.2019C480.196 71.2019 479.462 72.1394 479.462 73.7488C479.462 75.3894 480.181 76.3269 481.306 76.3269C482.118 76.3269 482.728 75.8269 482.868 74.9207H485.04C484.931 76.8425 483.524 78.1707 481.274 78.1707ZM397.345 105.186V100.639H397.267C396.938 101.343 396.235 102.139 394.86 102.139C392.923 102.139 391.407 100.593 391.407 97.7644C391.407 94.8582 392.985 93.405 394.86 93.405C396.282 93.405 396.954 94.2488 397.267 94.9363H397.376V93.5144H399.657V105.186H397.345ZM395.579 100.296C396.735 100.296 397.392 99.28 397.392 97.7488C397.392 96.2175 396.735 95.2488 395.579 95.2488C394.407 95.2488 393.782 96.2644 393.782 97.7488C393.782 99.2488 394.407 100.296 395.579 100.296ZM406.907 98.3894V93.5144H409.22V101.999H407.001V100.468H406.907C406.517 101.452 405.61 102.108 404.329 102.108C402.626 102.108 401.47 100.905 401.47 98.9207V93.5144H403.782V98.5144C403.782 99.5144 404.36 100.155 405.267 100.155C406.11 100.155 406.907 99.5457 406.907 98.3894ZM410.61 99.6238C410.61 97.7332 412.142 97.1082 413.767 97.0144C414.376 96.9753 415.517 96.9207 415.876 96.905V96.2175C415.86 95.5144 415.376 95.0925 414.517 95.0925C413.735 95.0925 413.235 95.4519 413.11 96.03H410.907C411.048 94.5613 412.329 93.405 414.579 93.405C416.423 93.405 418.173 94.2332 418.173 96.28V101.999H415.985V100.827H415.923C415.501 101.608 414.704 102.155 413.438 102.155C411.813 102.155 410.61 101.311 410.61 99.6238ZM412.829 99.5613C412.829 100.218 413.36 100.561 414.095 100.561C415.142 100.561 415.892 99.8582 415.876 98.9675V98.3425C415.524 98.3582 414.54 98.4128 414.142 98.4519C413.345 98.53 412.829 98.905 412.829 99.5613ZM422.251 90.6863V101.999H419.938V90.6863H422.251ZM424.048 101.999V93.5144H426.36V101.999H424.048ZM425.204 92.405C424.501 92.405 423.938 91.8738 423.938 91.2332C423.938 90.5769 424.501 90.0457 425.204 90.0457C425.892 90.0457 426.454 90.5769 426.454 91.2332C426.454 91.8738 425.892 92.405 425.204 92.405ZM432.626 93.5144V95.2488H431.032V99.3894C431.032 100.061 431.36 100.233 431.829 100.249C432.063 100.249 432.47 100.233 432.751 100.202V102.03C432.501 102.077 432.095 102.108 431.517 102.108C429.845 102.108 428.704 101.358 428.72 99.7175V95.2488H427.548V93.5144H428.72V91.4832H431.032V93.5144H432.626ZM435.438 105.186C434.985 105.186 434.563 105.171 434.267 105.139V103.343C434.563 103.358 434.907 103.374 435.204 103.374C435.657 103.374 436.032 103.327 436.313 102.593L436.454 102.233L433.407 93.5144H435.829L437.61 99.7644H437.704L439.501 93.5144H441.954L438.642 102.936C438.157 104.296 437.235 105.186 435.438 105.186ZM358.517 126.171C355.923 126.171 354.36 124.374 354.36 121.78C354.36 119.186 355.938 117.405 358.517 117.405C360.704 117.405 362.188 118.686 362.282 120.624H360.11C359.97 119.78 359.423 119.202 358.548 119.202C357.438 119.202 356.704 120.139 356.704 121.749C356.704 123.389 357.423 124.327 358.548 124.327C359.36 124.327 359.97 123.827 360.11 122.921H362.282C362.173 124.843 360.767 126.171 358.517 126.171ZM367.532 126.171C364.97 126.171 363.376 124.405 363.376 121.78C363.376 119.155 364.97 117.405 367.532 117.405C370.095 117.405 371.704 119.155 371.704 121.78C371.704 124.405 370.095 126.171 367.532 126.171ZM367.548 124.374C368.735 124.374 369.345 123.264 369.345 121.78C369.345 120.28 368.735 119.171 367.548 119.171C366.345 119.171 365.72 120.28 365.72 121.78C365.72 123.264 366.345 124.374 367.548 124.374ZM373.157 125.999V117.514H375.36V118.999H375.454C375.813 118.014 376.673 117.405 377.813 117.405C378.985 117.405 379.845 118.014 380.126 118.999H380.204C380.563 118.03 381.517 117.405 382.767 117.405C384.345 117.405 385.438 118.452 385.438 120.296V125.999H383.126V120.749C383.126 119.78 382.563 119.311 381.798 119.311C380.923 119.311 380.423 119.921 380.423 120.811V125.999H378.173V120.686C378.173 119.843 377.642 119.311 376.86 119.311C376.079 119.311 375.47 119.936 375.47 120.905V125.999H373.157ZM387.22 129.186V117.514H389.501V118.936H389.595C389.907 118.249 390.595 117.405 392.017 117.405C393.892 117.405 395.454 118.858 395.454 121.764C395.454 124.593 393.954 126.139 392.017 126.139C390.626 126.139 389.923 125.343 389.595 124.639H389.532V129.186H387.22ZM389.485 121.749C389.485 123.28 390.142 124.296 391.282 124.296C392.47 124.296 393.095 123.249 393.095 121.749C393.095 120.264 392.47 119.249 391.282 119.249C390.126 119.249 389.485 120.218 389.485 121.749ZM400.798 126.171C398.204 126.171 396.61 124.483 396.61 121.796C396.61 119.171 398.22 117.405 400.704 117.405C402.938 117.405 404.688 118.811 404.688 121.702V122.358H398.892C398.892 123.639 399.657 124.436 400.845 124.436C401.626 124.436 402.188 124.093 402.423 123.577H404.626C404.298 125.139 402.892 126.171 400.798 126.171ZM398.892 120.905H402.501C402.501 119.874 401.782 119.139 400.751 119.139C399.688 119.139 398.931 119.928 398.892 120.905ZM410.61 117.514V119.249H409.017V123.389C409.017 124.061 409.345 124.233 409.813 124.249C410.048 124.249 410.454 124.233 410.735 124.202V126.03C410.485 126.077 410.079 126.108 409.501 126.108C407.829 126.108 406.688 125.358 406.704 123.718V119.249H405.532V117.514H406.704V115.483H409.017V117.514H410.61ZM412.063 125.999V117.514H414.376V125.999H412.063ZM413.22 116.405C412.517 116.405 411.954 115.874 411.954 115.233C411.954 114.577 412.517 114.046 413.22 114.046C413.907 114.046 414.47 114.577 414.47 115.233C414.47 115.874 413.907 116.405 413.22 116.405ZM420.642 117.514V119.249H419.048V123.389C419.048 124.061 419.376 124.233 419.845 124.249C420.079 124.249 420.485 124.233 420.767 124.202V126.03C420.517 126.077 420.11 126.108 419.532 126.108C417.86 126.108 416.72 125.358 416.735 123.718V119.249H415.563V117.514H416.735V115.483H419.048V117.514H420.642ZM422.095 125.999V117.514H424.407V125.999H422.095ZM423.251 116.405C422.548 116.405 421.985 115.874 421.985 115.233C421.985 114.577 422.548 114.046 423.251 114.046C423.938 114.046 424.501 114.577 424.501 115.233C424.501 115.874 423.938 116.405 423.251 116.405ZM434.079 117.514L431.095 125.999H428.501L425.532 117.514H427.97L429.751 123.608H429.845L431.626 117.514H434.079ZM438.767 126.171C436.173 126.171 434.579 124.483 434.579 121.796C434.579 119.171 436.188 117.405 438.673 117.405C440.907 117.405 442.657 118.811 442.657 121.702V122.358H436.86C436.86 123.639 437.626 124.436 438.813 124.436C439.595 124.436 440.157 124.093 440.392 123.577H442.595C442.267 125.139 440.86 126.171 438.767 126.171ZM436.86 120.905H440.47C440.47 119.874 439.751 119.139 438.72 119.139C437.657 119.139 436.899 119.928 436.86 120.905ZM446.423 121.093V125.999H444.11V117.514H446.313V118.999H446.407C446.798 118.014 447.704 117.405 448.954 117.405C450.72 117.405 451.892 118.608 451.876 120.593V125.999H449.579V120.999C449.579 119.952 449.001 119.327 448.048 119.327C447.079 119.327 446.423 119.968 446.423 121.093ZM457.517 126.171C454.923 126.171 453.329 124.483 453.329 121.796C453.329 119.171 454.938 117.405 457.423 117.405C459.657 117.405 461.407 118.811 461.407 121.702V122.358H455.61C455.61 123.639 456.376 124.436 457.563 124.436C458.345 124.436 458.907 124.093 459.142 123.577H461.345C461.017 125.139 459.61 126.171 457.517 126.171ZM455.61 120.905H459.22C459.22 119.874 458.501 119.139 457.47 119.139C456.407 119.139 455.649 119.928 455.61 120.905ZM467.704 120.03C467.61 119.436 467.079 119.046 466.313 119.046C465.563 119.046 464.985 119.405 465.001 119.921C464.985 120.296 465.298 120.593 466.095 120.764L467.61 121.077C469.251 121.421 470.048 122.155 470.063 123.374C470.048 125.046 468.548 126.171 466.298 126.171C464.001 126.171 462.657 125.139 462.47 123.483H464.798C464.907 124.155 465.454 124.499 466.298 124.499C467.142 124.499 467.704 124.155 467.704 123.608C467.704 123.171 467.345 122.905 466.548 122.733L465.142 122.452C463.532 122.139 462.688 121.296 462.704 120.046C462.688 118.421 464.095 117.405 466.282 117.405C468.423 117.405 469.751 118.421 469.876 120.03H467.704ZM476.329 120.03C476.235 119.436 475.704 119.046 474.938 119.046C474.188 119.046 473.61 119.405 473.626 119.921C473.61 120.296 473.923 120.593 474.72 120.764L476.235 121.077C477.876 121.421 478.673 122.155 478.688 123.374C478.673 125.046 477.173 126.171 474.923 126.171C472.626 126.171 471.282 125.139 471.095 123.483H473.423C473.532 124.155 474.079 124.499 474.923 124.499C475.767 124.499 476.329 124.155 476.329 123.608C476.329 123.171 475.97 122.905 475.173 122.733L473.767 122.452C472.157 122.139 471.313 121.296 471.329 120.046C471.313 118.421 472.72 117.405 474.907 117.405C477.048 117.405 478.376 118.421 478.501 120.03H476.329Z" fill="#005EB8"/>
<path d="M49.2588 305.999H46.7275L50.6494 294.686H53.665L57.5713 305.999H55.0557L54.2119 303.389H50.1182L49.2588 305.999ZM50.7119 301.561H53.6182L52.1963 297.233H52.1182L50.7119 301.561ZM62.2275 306.171C59.6338 306.171 58.0713 304.374 58.0713 301.78C58.0713 299.186 59.6494 297.405 62.2275 297.405C64.415 297.405 65.8994 298.686 65.9932 300.624H63.8213C63.6807 299.78 63.1338 299.202 62.2588 299.202C61.1494 299.202 60.415 300.139 60.415 301.749C60.415 303.389 61.1338 304.327 62.2588 304.327C63.0713 304.327 63.6807 303.827 63.8213 302.921H65.9932C65.8838 304.843 64.4775 306.171 62.2275 306.171ZM69.7432 301.093V305.999H67.4307V294.686H69.6807V298.999H69.7744C70.165 298.014 71.0244 297.405 72.3057 297.405C74.0713 297.405 75.2432 298.593 75.2432 300.593V305.999H72.9307V300.999C72.9307 299.952 72.3682 299.327 71.3994 299.327C70.4307 299.327 69.7432 299.968 69.7432 301.093ZM77.0244 305.999V297.514H79.3369V305.999H77.0244ZM78.1807 296.405C77.4775 296.405 76.915 295.874 76.915 295.233C76.915 294.577 77.4775 294.046 78.1807 294.046C78.8682 294.046 79.4307 294.577 79.4307 295.233C79.4307 295.874 78.8682 296.405 78.1807 296.405ZM84.9775 306.171C82.3838 306.171 80.79 304.483 80.79 301.796C80.79 299.171 82.3994 297.405 84.8838 297.405C87.1182 297.405 88.8682 298.811 88.8682 301.702V302.358H83.0713C83.0713 303.639 83.8369 304.436 85.0244 304.436C85.8057 304.436 86.3682 304.093 86.6025 303.577H88.8057C88.4775 305.139 87.0713 306.171 84.9775 306.171ZM83.0713 300.905H86.6807C86.6807 299.874 85.9619 299.139 84.9307 299.139C83.8682 299.139 83.1104 299.928 83.0713 300.905ZM97.9619 297.514L94.9775 305.999H92.3838L89.415 297.514H91.8525L93.6338 303.608H93.7275L95.5088 297.514H97.9619ZM99.0869 305.999V297.514H101.399V305.999H99.0869ZM100.243 296.405C99.54 296.405 98.9775 295.874 98.9775 295.233C98.9775 294.577 99.54 294.046 100.243 294.046C100.931 294.046 101.493 294.577 101.493 295.233C101.493 295.874 100.931 296.405 100.243 296.405ZM105.509 301.093V305.999H103.196V297.514H105.399V298.999H105.493C105.884 298.014 106.79 297.405 108.04 297.405C109.806 297.405 110.978 298.608 110.962 300.593V305.999H108.665V300.999C108.665 299.952 108.087 299.327 107.134 299.327C106.165 299.327 105.509 299.968 105.509 301.093ZM116.571 309.358C114.228 309.358 112.79 308.311 112.649 306.702H114.931C115.056 307.374 115.696 307.686 116.618 307.686C117.696 307.686 118.415 307.233 118.415 306.046V304.499H118.306C117.993 305.186 117.243 305.874 115.884 305.874C113.962 305.874 112.431 304.53 112.431 301.702C112.431 298.827 114.009 297.405 115.884 297.405C117.306 297.405 117.993 298.249 118.306 298.936H118.399V297.514H120.696V306.093C120.696 308.249 118.978 309.358 116.571 309.358ZM116.603 304.139C117.759 304.139 118.415 303.233 118.415 301.733C118.415 300.218 117.759 299.249 116.603 299.249C115.431 299.249 114.806 300.264 114.806 301.733C114.806 303.202 115.431 304.139 116.603 304.139ZM46.0947 324.03C46.001 323.436 45.4697 323.046 44.7041 323.046C43.9541 323.046 43.376 323.405 43.3916 323.921C43.376 324.296 43.6885 324.593 44.4854 324.764L46.001 325.077C47.6416 325.421 48.4385 326.155 48.4541 327.374C48.4385 329.046 46.9385 330.171 44.6885 330.171C42.3916 330.171 41.0479 329.139 40.8604 327.483H43.1885C43.2979 328.155 43.8447 328.499 44.6885 328.499C45.5322 328.499 46.0947 328.155 46.0947 327.608C46.0947 327.171 45.7354 326.905 44.9385 326.733L43.5322 326.452C41.9229 326.139 41.0791 325.296 41.0947 324.046C41.0791 322.421 42.4854 321.405 44.6729 321.405C46.8135 321.405 48.1416 322.421 48.2666 324.03H46.0947ZM55.3135 326.389V321.514H57.626V329.999H55.4072V328.468H55.3135C54.9229 329.452 54.0166 330.108 52.7354 330.108C51.0322 330.108 49.876 328.905 49.876 326.921V321.514H52.1885V326.514C52.1885 327.514 52.7666 328.155 53.6729 328.155C54.5166 328.155 55.3135 327.546 55.3135 326.389ZM64.2666 324.03C64.1729 323.436 63.6416 323.046 62.876 323.046C62.126 323.046 61.5479 323.405 61.5635 323.921C61.5479 324.296 61.8604 324.593 62.6572 324.764L64.1729 325.077C65.8135 325.421 66.6104 326.155 66.626 327.374C66.6104 329.046 65.1104 330.171 62.8604 330.171C60.5635 330.171 59.2197 329.139 59.0322 327.483H61.3604C61.4697 328.155 62.0166 328.499 62.8604 328.499C63.7041 328.499 64.2666 328.155 64.2666 327.608C64.2666 327.171 63.9072 326.905 63.1104 326.733L61.7041 326.452C60.0947 326.139 59.251 325.296 59.2666 324.046C59.251 322.421 60.6572 321.405 62.8447 321.405C64.9854 321.405 66.3135 322.421 66.4385 324.03H64.2666ZM72.5166 321.514V323.249H70.9229V327.389C70.9229 328.061 71.251 328.233 71.7197 328.249C71.9541 328.249 72.3604 328.233 72.6416 328.202V330.03C72.3916 330.077 71.9854 330.108 71.4072 330.108C69.7354 330.108 68.5947 329.358 68.6104 327.718V323.249H67.4385V321.514H68.6104V319.483H70.9229V321.514H72.5166ZM73.5635 327.624C73.5635 325.733 75.0947 325.108 76.7197 325.014C77.3291 324.975 78.4697 324.921 78.8291 324.905V324.218C78.8135 323.514 78.3291 323.093 77.4697 323.093C76.6885 323.093 76.1885 323.452 76.0635 324.03H73.8604C74.001 322.561 75.2822 321.405 77.5322 321.405C79.376 321.405 81.126 322.233 81.126 324.28V329.999H78.9385V328.827H78.876C78.4541 329.608 77.6572 330.155 76.3916 330.155C74.7666 330.155 73.5635 329.311 73.5635 327.624ZM75.7822 327.561C75.7822 328.218 76.3135 328.561 77.0479 328.561C78.0947 328.561 78.8447 327.858 78.8291 326.968V326.343C78.4775 326.358 77.4932 326.413 77.0947 326.452C76.2979 326.53 75.7822 326.905 75.7822 327.561ZM82.8916 329.999V321.514H85.2041V329.999H82.8916ZM84.0479 320.405C83.3447 320.405 82.7822 319.874 82.7822 319.233C82.7822 318.577 83.3447 318.046 84.0479 318.046C84.7354 318.046 85.2979 318.577 85.2979 319.233C85.2979 319.874 84.7354 320.405 84.0479 320.405ZM89.3135 325.093V329.999H87.001V321.514H89.2041V322.999H89.2979C89.6885 322.014 90.5947 321.405 91.8447 321.405C93.6104 321.405 94.7822 322.608 94.7666 324.593V329.999H92.4697V324.999C92.4697 323.952 91.8916 323.327 90.9385 323.327C89.9697 323.327 89.3135 323.968 89.3135 325.093ZM96.1572 327.624C96.1572 325.733 97.6885 325.108 99.3135 325.014C99.9229 324.975 101.063 324.921 101.423 324.905V324.218C101.407 323.514 100.923 323.093 100.063 323.093C99.2822 323.093 98.7822 323.452 98.6572 324.03H96.4541C96.5947 322.561 97.876 321.405 100.126 321.405C101.97 321.405 103.72 322.233 103.72 324.28V329.999H101.532V328.827H101.47C101.048 329.608 100.251 330.155 98.9854 330.155C97.3604 330.155 96.1572 329.311 96.1572 327.624ZM98.376 327.561C98.376 328.218 98.9072 328.561 99.6416 328.561C100.688 328.561 101.438 327.858 101.423 326.968V326.343C101.071 326.358 100.087 326.413 99.6885 326.452C98.8916 326.53 98.376 326.905 98.376 327.561ZM105.532 329.999V318.686H107.845V322.936H107.907C108.235 322.249 108.907 321.405 110.329 321.405C112.204 321.405 113.782 322.858 113.782 325.764C113.782 328.593 112.267 330.139 110.329 330.139C108.938 330.139 108.235 329.343 107.907 328.639H107.813V329.999H105.532ZM107.798 325.749C107.798 327.28 108.454 328.296 109.595 328.296C110.782 328.296 111.407 327.249 111.407 325.749C111.407 324.264 110.782 323.249 109.595 323.249C108.438 323.249 107.798 324.218 107.798 325.749ZM117.579 318.686V329.999H115.267V318.686H117.579ZM123.22 330.171C120.626 330.171 119.032 328.483 119.032 325.796C119.032 323.171 120.642 321.405 123.126 321.405C125.36 321.405 127.11 322.811 127.11 325.702V326.358H121.313C121.313 327.639 122.079 328.436 123.267 328.436C124.048 328.436 124.61 328.093 124.845 327.577H127.048C126.72 329.139 125.313 330.171 123.22 330.171ZM121.313 324.905H124.923C124.923 323.874 124.204 323.139 123.173 323.139C122.11 323.139 121.353 323.928 121.313 324.905ZM30.0166 357.358C27.6729 357.358 26.2354 356.311 26.0947 354.702H28.376C28.501 355.374 29.1416 355.686 30.0635 355.686C31.1416 355.686 31.8604 355.233 31.8604 354.046V352.499H31.751C31.4385 353.186 30.6885 353.874 29.3291 353.874C27.4072 353.874 25.876 352.53 25.876 349.702C25.876 346.827 27.4541 345.405 29.3291 345.405C30.751 345.405 31.4385 346.249 31.751 346.936H31.8447V345.514H34.1416V354.093C34.1416 356.249 32.4229 357.358 30.0166 357.358ZM30.0479 352.139C31.2041 352.139 31.8604 351.233 31.8604 349.733C31.8604 348.218 31.2041 347.249 30.0479 347.249C28.876 347.249 28.251 348.264 28.251 349.733C28.251 351.202 28.876 352.139 30.0479 352.139ZM35.9385 353.999V345.514H38.1729V346.983H38.2666C38.5791 345.936 39.3604 345.389 40.3135 345.389C40.5479 345.389 40.8447 345.421 41.0479 345.468V347.53C40.8291 347.468 40.3916 347.405 40.0635 347.405C39.0166 347.405 38.251 348.139 38.251 349.171V353.999H35.9385ZM45.7197 354.171C43.1572 354.171 41.5635 352.405 41.5635 349.78C41.5635 347.155 43.1572 345.405 45.7197 345.405C48.2822 345.405 49.8916 347.155 49.8916 349.78C49.8916 352.405 48.2822 354.171 45.7197 354.171ZM45.7354 352.374C46.9229 352.374 47.5322 351.264 47.5322 349.78C47.5322 348.28 46.9229 347.171 45.7354 347.171C44.5322 347.171 43.9072 348.28 43.9072 349.78C43.9072 351.264 44.5322 352.374 45.7354 352.374ZM52.7979 353.999L50.4854 345.514H52.8291L54.1572 351.249H54.2354L55.626 345.514H57.9229L59.3291 351.218H59.4072L60.7197 345.514H63.0635L60.7354 353.999H58.2979L56.8291 348.608H56.7197L55.251 353.999H52.7979ZM68.7041 345.514V347.249H67.1104V351.389C67.1104 352.061 67.4385 352.233 67.9072 352.249C68.1416 352.249 68.5479 352.233 68.8291 352.202V354.03C68.5791 354.077 68.1729 354.108 67.5947 354.108C65.9229 354.108 64.7822 353.358 64.7979 351.718V347.249H63.626V345.514H64.7979V343.483H67.1104V345.514H68.7041ZM72.6572 349.093V353.999H70.3447V342.686H72.5947V346.999H72.6885C73.0791 346.014 73.9385 345.405 75.2197 345.405C76.9854 345.405 78.1572 346.593 78.1572 348.593V353.999H75.8447V348.999C75.8447 347.952 75.2822 347.327 74.3135 347.327C73.3447 347.327 72.6572 347.968 72.6572 349.093ZM88.0947 345.514V347.249H86.501V351.389C86.501 352.061 86.8291 352.233 87.2979 352.249C87.5322 352.249 87.9385 352.233 88.2197 352.202V354.03C87.9697 354.077 87.5635 354.108 86.9854 354.108C85.3135 354.108 84.1729 353.358 84.1885 351.718V347.249H83.0166V345.514H84.1885V343.483H86.501V345.514H88.0947ZM92.0479 349.093V353.999H89.7354V342.686H91.9854V346.999H92.0791C92.4697 346.014 93.3291 345.405 94.6104 345.405C96.376 345.405 97.5479 346.593 97.5479 348.593V353.999H95.2354V348.999C95.2354 347.952 94.6729 347.327 93.7041 347.327C92.7354 347.327 92.0479 347.968 92.0479 349.093ZM99.3291 353.999V345.514H101.563V346.983H101.657C101.97 345.936 102.751 345.389 103.704 345.389C103.938 345.389 104.235 345.421 104.438 345.468V347.53C104.22 347.468 103.782 347.405 103.454 347.405C102.407 347.405 101.642 348.139 101.642 349.171V353.999H99.3291ZM109.11 354.171C106.548 354.171 104.954 352.405 104.954 349.78C104.954 347.155 106.548 345.405 109.11 345.405C111.673 345.405 113.282 347.155 113.282 349.78C113.282 352.405 111.673 354.171 109.11 354.171ZM109.126 352.374C110.313 352.374 110.923 351.264 110.923 349.78C110.923 348.28 110.313 347.171 109.126 347.171C107.923 347.171 107.298 348.28 107.298 349.78C107.298 351.264 107.923 352.374 109.126 352.374ZM120.173 350.389V345.514H122.485V353.999H120.267V352.468H120.173C119.782 353.452 118.876 354.108 117.595 354.108C115.892 354.108 114.735 352.905 114.735 350.921V345.514H117.048V350.514C117.048 351.514 117.626 352.155 118.532 352.155C119.376 352.155 120.173 351.546 120.173 350.389ZM128.095 357.358C125.751 357.358 124.313 356.311 124.173 354.702H126.454C126.579 355.374 127.22 355.686 128.142 355.686C129.22 355.686 129.938 355.233 129.938 354.046V352.499H129.829C129.517 353.186 128.767 353.874 127.407 353.874C125.485 353.874 123.954 352.53 123.954 349.702C123.954 346.827 125.532 345.405 127.407 345.405C128.829 345.405 129.517 346.249 129.829 346.936H129.923V345.514H132.22V354.093C132.22 356.249 130.501 357.358 128.095 357.358ZM128.126 352.139C129.282 352.139 129.938 351.233 129.938 349.733C129.938 348.218 129.282 347.249 128.126 347.249C126.954 347.249 126.329 348.264 126.329 349.733C126.329 351.202 126.954 352.139 128.126 352.139ZM136.329 349.093V353.999H134.017V342.686H136.267V346.999H136.36C136.751 346.014 137.61 345.405 138.892 345.405C140.657 345.405 141.829 346.593 141.829 348.593V353.999H139.517V348.999C139.517 347.952 138.954 347.327 137.985 347.327C137.017 347.327 136.329 347.968 136.329 349.093ZM32.7041 381.186V376.639H32.626C32.2979 377.343 31.5947 378.139 30.2197 378.139C28.2822 378.139 26.7666 376.593 26.7666 373.764C26.7666 370.858 28.3447 369.405 30.2197 369.405C31.6416 369.405 32.3135 370.249 32.626 370.936H32.7354V369.514H35.0166V381.186H32.7041ZM30.9385 376.296C32.0947 376.296 32.751 375.28 32.751 373.749C32.751 372.218 32.0947 371.249 30.9385 371.249C29.7666 371.249 29.1416 372.264 29.1416 373.749C29.1416 375.249 29.7666 376.296 30.9385 376.296ZM42.2666 374.389V369.514H44.5791V377.999H42.3604V376.468H42.2666C41.876 377.452 40.9697 378.108 39.6885 378.108C37.9854 378.108 36.8291 376.905 36.8291 374.921V369.514H39.1416V374.514C39.1416 375.514 39.7197 376.155 40.626 376.155C41.4697 376.155 42.2666 375.546 42.2666 374.389ZM45.9697 375.624C45.9697 373.733 47.501 373.108 49.126 373.014C49.7354 372.975 50.876 372.921 51.2354 372.905V372.218C51.2197 371.514 50.7354 371.093 49.876 371.093C49.0947 371.093 48.5947 371.452 48.4697 372.03H46.2666C46.4072 370.561 47.6885 369.405 49.9385 369.405C51.7822 369.405 53.5322 370.233 53.5322 372.28V377.999H51.3447V376.827H51.2822C50.8604 377.608 50.0635 378.155 48.7979 378.155C47.1729 378.155 45.9697 377.311 45.9697 375.624ZM48.1885 375.561C48.1885 376.218 48.7197 376.561 49.4541 376.561C50.501 376.561 51.251 375.858 51.2354 374.968V374.343C50.8838 374.358 49.8994 374.413 49.501 374.452C48.7041 374.53 48.1885 374.905 48.1885 375.561ZM57.6104 366.686V377.999H55.2979V366.686H57.6104ZM59.4072 377.999V369.514H61.7197V377.999H59.4072ZM60.5635 368.405C59.8604 368.405 59.2979 367.874 59.2979 367.233C59.2979 366.577 59.8604 366.046 60.5635 366.046C61.251 366.046 61.8135 366.577 61.8135 367.233C61.8135 367.874 61.251 368.405 60.5635 368.405ZM67.9854 369.514V371.249H66.3916V375.389C66.3916 376.061 66.7197 376.233 67.1885 376.249C67.4229 376.249 67.8291 376.233 68.1104 376.202V378.03C67.8604 378.077 67.4541 378.108 66.876 378.108C65.2041 378.108 64.0635 377.358 64.0791 375.718V371.249H62.9072V369.514H64.0791V367.483H66.3916V369.514H67.9854ZM70.7979 381.186C70.3447 381.186 69.9229 381.171 69.626 381.139V379.343C69.9229 379.358 70.2666 379.374 70.5635 379.374C71.0166 379.374 71.3916 379.327 71.6729 378.593L71.8135 378.233L68.7666 369.514H71.1885L72.9697 375.764H73.0635L74.8604 369.514H77.3135L74.001 378.936C73.5166 380.296 72.5947 381.186 70.7979 381.186ZM82.126 381.186V369.514H84.4072V370.936H84.501C84.8135 370.249 85.501 369.405 86.9229 369.405C88.7979 369.405 90.3604 370.858 90.3604 373.764C90.3604 376.593 88.8604 378.139 86.9229 378.139C85.5322 378.139 84.8291 377.343 84.501 376.639H84.4385V381.186H82.126ZM84.3916 373.749C84.3916 375.28 85.0479 376.296 86.1885 376.296C87.376 376.296 88.001 375.249 88.001 373.749C88.001 372.264 87.376 371.249 86.1885 371.249C85.0322 371.249 84.3916 372.218 84.3916 373.749ZM91.8604 377.999V369.514H94.0947V370.983H94.1885C94.501 369.936 95.2822 369.389 96.2354 369.389C96.4697 369.389 96.7666 369.421 96.9697 369.468V371.53C96.751 371.468 96.3135 371.405 95.9854 371.405C94.9385 371.405 94.1729 372.139 94.1729 373.171V377.999H91.8604ZM101.642 378.171C99.0791 378.171 97.4854 376.405 97.4854 373.78C97.4854 371.155 99.0791 369.405 101.642 369.405C104.204 369.405 105.813 371.155 105.813 373.78C105.813 376.405 104.204 378.171 101.642 378.171ZM101.657 376.374C102.845 376.374 103.454 375.264 103.454 373.78C103.454 372.28 102.845 371.171 101.657 371.171C100.454 371.171 99.8291 372.28 99.8291 373.78C99.8291 375.264 100.454 376.374 101.657 376.374ZM111.079 378.171C108.485 378.171 106.923 376.374 106.923 373.78C106.923 371.186 108.501 369.405 111.079 369.405C113.267 369.405 114.751 370.686 114.845 372.624H112.673C112.532 371.78 111.985 371.202 111.11 371.202C110.001 371.202 109.267 372.139 109.267 373.749C109.267 375.389 109.985 376.327 111.11 376.327C111.923 376.327 112.532 375.827 112.673 374.921H114.845C114.735 376.843 113.329 378.171 111.079 378.171ZM120.126 378.171C117.532 378.171 115.938 376.483 115.938 373.796C115.938 371.171 117.548 369.405 120.032 369.405C122.267 369.405 124.017 370.811 124.017 373.702V374.358H118.22C118.22 375.639 118.985 376.436 120.173 376.436C120.954 376.436 121.517 376.093 121.751 375.577H123.954C123.626 377.139 122.22 378.171 120.126 378.171ZM118.22 372.905H121.829C121.829 371.874 121.11 371.139 120.079 371.139C119.017 371.139 118.259 371.928 118.22 372.905ZM130.313 372.03C130.22 371.436 129.688 371.046 128.923 371.046C128.173 371.046 127.595 371.405 127.61 371.921C127.595 372.296 127.907 372.593 128.704 372.764L130.22 373.077C131.86 373.421 132.657 374.155 132.673 375.374C132.657 377.046 131.157 378.171 128.907 378.171C126.61 378.171 125.267 377.139 125.079 375.483H127.407C127.517 376.155 128.063 376.499 128.907 376.499C129.751 376.499 130.313 376.155 130.313 375.608C130.313 375.171 129.954 374.905 129.157 374.733L127.751 374.452C126.142 374.139 125.298 373.296 125.313 372.046C125.298 370.421 126.704 369.405 128.892 369.405C131.032 369.405 132.36 370.421 132.485 372.03H130.313ZM138.938 372.03C138.845 371.436 138.313 371.046 137.548 371.046C136.798 371.046 136.22 371.405 136.235 371.921C136.22 372.296 136.532 372.593 137.329 372.764L138.845 373.077C140.485 373.421 141.282 374.155 141.298 375.374C141.282 377.046 139.782 378.171 137.532 378.171C135.235 378.171 133.892 377.139 133.704 375.483H136.032C136.142 376.155 136.688 376.499 137.532 376.499C138.376 376.499 138.938 376.155 138.938 375.608C138.938 375.171 138.579 374.905 137.782 374.733L136.376 374.452C134.767 374.139 133.923 373.296 133.938 372.046C133.923 370.421 135.329 369.405 137.517 369.405C139.657 369.405 140.985 370.421 141.11 372.03H138.938ZM45.3525 401.999V393.514H47.665V401.999H45.3525ZM46.5088 392.405C45.8057 392.405 45.2432 391.874 45.2432 391.233C45.2432 390.577 45.8057 390.046 46.5088 390.046C47.1963 390.046 47.7588 390.577 47.7588 391.233C47.7588 391.874 47.1963 392.405 46.5088 392.405ZM51.7744 397.093V401.999H49.4619V393.514H51.665V394.999H51.7588C52.1494 394.014 53.0557 393.405 54.3057 393.405C56.0713 393.405 57.2432 394.608 57.2275 396.593V401.999H54.9307V396.999C54.9307 395.952 54.3525 395.327 53.3994 395.327C52.4307 395.327 51.7744 395.968 51.7744 397.093ZM61.3369 397.093V401.999H59.0244V393.514H61.2275V394.999H61.3213C61.7119 394.014 62.6182 393.405 63.8682 393.405C65.6338 393.405 66.8057 394.608 66.79 396.593V401.999H64.4932V396.999C64.4932 395.952 63.915 395.327 62.9619 395.327C61.9932 395.327 61.3369 395.968 61.3369 397.093ZM72.3994 402.171C69.8369 402.171 68.2432 400.405 68.2432 397.78C68.2432 395.155 69.8369 393.405 72.3994 393.405C74.9619 393.405 76.5713 395.155 76.5713 397.78C76.5713 400.405 74.9619 402.171 72.3994 402.171ZM72.415 400.374C73.6025 400.374 74.2119 399.264 74.2119 397.78C74.2119 396.28 73.6025 395.171 72.415 395.171C71.2119 395.171 70.5869 396.28 70.5869 397.78C70.5869 399.264 71.2119 400.374 72.415 400.374ZM85.6182 393.514L82.6338 401.999H80.04L77.0713 393.514H79.5088L81.29 399.608H81.3838L83.165 393.514H85.6182ZM86.1025 399.624C86.1025 397.733 87.6338 397.108 89.2588 397.014C89.8682 396.975 91.0088 396.921 91.3682 396.905V396.218C91.3525 395.514 90.8682 395.093 90.0088 395.093C89.2275 395.093 88.7275 395.452 88.6025 396.03H86.3994C86.54 394.561 87.8213 393.405 90.0713 393.405C91.915 393.405 93.665 394.233 93.665 396.28V401.999H91.4775V400.827H91.415C90.9932 401.608 90.1963 402.155 88.9307 402.155C87.3057 402.155 86.1025 401.311 86.1025 399.624ZM88.3213 399.561C88.3213 400.218 88.8525 400.561 89.5869 400.561C90.6338 400.561 91.3838 399.858 91.3682 398.968V398.343C91.0166 398.358 90.0322 398.413 89.6338 398.452C88.8369 398.53 88.3213 398.905 88.3213 399.561ZM99.8994 393.514V395.249H98.3057V399.389C98.3057 400.061 98.6338 400.233 99.1025 400.249C99.3369 400.249 99.7432 400.233 100.024 400.202V402.03C99.7744 402.077 99.3682 402.108 98.79 402.108C97.1182 402.108 95.9775 401.358 95.9932 399.718V395.249H94.8213V393.514H95.9932V391.483H98.3057V393.514H99.8994ZM101.353 401.999V393.514H103.665V401.999H101.353ZM102.509 392.405C101.806 392.405 101.243 391.874 101.243 391.233C101.243 390.577 101.806 390.046 102.509 390.046C103.196 390.046 103.759 390.577 103.759 391.233C103.759 391.874 103.196 392.405 102.509 392.405ZM109.274 402.171C106.712 402.171 105.118 400.405 105.118 397.78C105.118 395.155 106.712 393.405 109.274 393.405C111.837 393.405 113.446 395.155 113.446 397.78C113.446 400.405 111.837 402.171 109.274 402.171ZM109.29 400.374C110.478 400.374 111.087 399.264 111.087 397.78C111.087 396.28 110.478 395.171 109.29 395.171C108.087 395.171 107.462 396.28 107.462 397.78C107.462 399.264 108.087 400.374 109.29 400.374ZM117.212 397.093V401.999H114.899V393.514H117.103V394.999H117.196C117.587 394.014 118.493 393.405 119.743 393.405C121.509 393.405 122.681 394.608 122.665 396.593V401.999H120.368V396.999C120.368 395.952 119.79 395.327 118.837 395.327C117.868 395.327 117.212 395.968 117.212 397.093Z" fill="#005EB8"/>
<path d="M711.827 318.999V308.303H719.007V310.135H714.043V312.735H718.637V314.567H714.043V317.167H719.021V318.999H711.827ZM722.877 314.36V318.999H720.691V310.977H722.774V312.38H722.862C723.232 311.45 724.089 310.874 725.27 310.874C726.94 310.874 728.048 312.011 728.033 313.887V318.999H725.861V314.271C725.861 313.282 725.315 312.691 724.414 312.691C723.498 312.691 722.877 313.296 722.877 314.36ZM731.918 314.36V318.999H729.732V308.303H731.859V312.38H731.948C732.317 311.45 733.13 310.874 734.341 310.874C736.01 310.874 737.118 311.996 737.118 313.887V318.999H734.932V314.271C734.932 313.282 734.4 312.691 733.484 312.691C732.568 312.691 731.918 313.296 731.918 314.36ZM738.418 316.753C738.418 314.966 739.866 314.375 741.403 314.286C741.979 314.249 743.057 314.198 743.397 314.183V313.533C743.382 312.868 742.924 312.469 742.112 312.469C741.373 312.469 740.9 312.809 740.782 313.355H738.699C738.832 311.967 740.043 310.874 742.171 310.874C743.914 310.874 745.569 311.657 745.569 313.592V318.999H743.5V317.891H743.441C743.042 318.629 742.289 319.147 741.092 319.147C739.556 319.147 738.418 318.349 738.418 316.753ZM740.516 316.694C740.516 317.315 741.018 317.64 741.713 317.64C742.703 317.64 743.412 316.975 743.397 316.133V315.542C743.065 315.557 742.134 315.608 741.757 315.645C741.004 315.719 740.516 316.074 740.516 316.694ZM749.424 314.36V318.999H747.238V310.977H749.321V312.38H749.41C749.779 311.45 750.636 310.874 751.818 310.874C753.487 310.874 754.595 312.011 754.58 313.887V318.999H752.408V314.271C752.408 313.282 751.862 312.691 750.961 312.691C750.045 312.691 749.424 313.296 749.424 314.36ZM759.884 319.161C757.431 319.161 755.954 317.462 755.954 315.01C755.954 312.558 757.446 310.874 759.884 310.874C761.952 310.874 763.355 312.085 763.444 313.917H761.39C761.257 313.119 760.74 312.573 759.913 312.573C758.864 312.573 758.17 313.459 758.17 314.981C758.17 316.532 758.849 317.418 759.913 317.418C760.681 317.418 761.257 316.945 761.39 316.089H763.444C763.34 317.906 762.011 319.161 759.884 319.161ZM764.803 318.999V310.977H766.989V318.999H764.803ZM765.896 309.928C765.231 309.928 764.7 309.426 764.7 308.82C764.7 308.2 765.231 307.697 765.896 307.697C766.546 307.697 767.078 308.2 767.078 308.82C767.078 309.426 766.546 309.928 765.896 309.928ZM770.875 314.36V318.999H768.688V310.977H770.771V312.38H770.86C771.229 311.45 772.086 310.874 773.268 310.874C774.937 310.874 776.045 312.011 776.03 313.887V318.999H773.859V314.271C773.859 313.282 773.312 312.691 772.411 312.691C771.495 312.691 770.875 313.296 770.875 314.36ZM781.334 322.175C779.118 322.175 777.759 321.185 777.626 319.664H779.783C779.901 320.299 780.507 320.594 781.378 320.594C782.398 320.594 783.077 320.166 783.077 319.043V317.581H782.974C782.678 318.231 781.969 318.881 780.684 318.881C778.867 318.881 777.419 317.61 777.419 314.936C777.419 312.218 778.911 310.874 780.684 310.874C782.028 310.874 782.678 311.671 782.974 312.321H783.062V310.977H785.234V319.087C785.234 321.126 783.609 322.175 781.334 322.175ZM781.363 317.241C782.457 317.241 783.077 316.384 783.077 314.966C783.077 313.533 782.457 312.617 781.363 312.617C780.256 312.617 779.665 313.577 779.665 314.966C779.665 316.354 780.256 317.241 781.363 317.241ZM718.32 342.161C715.867 342.161 714.361 340.566 714.361 338.025C714.361 335.543 715.882 333.874 718.231 333.874C720.344 333.874 721.998 335.203 721.998 337.936V338.557H716.517C716.517 339.768 717.241 340.521 718.364 340.521C719.103 340.521 719.635 340.196 719.856 339.709H721.939C721.629 341.186 720.299 342.161 718.32 342.161ZM716.517 337.183H719.93C719.93 336.208 719.25 335.513 718.275 335.513C717.271 335.513 716.554 336.259 716.517 337.183ZM723.372 341.999V333.977H725.455V335.38H725.544C725.884 334.45 726.696 333.874 727.774 333.874C728.882 333.874 729.695 334.45 729.961 335.38H730.035C730.375 334.465 731.276 333.874 732.458 333.874C733.95 333.874 734.984 334.863 734.984 336.607V341.999H732.797V337.035C732.797 336.119 732.265 335.676 731.542 335.676C730.714 335.676 730.242 336.252 730.242 337.094V341.999H728.114V336.976C728.114 336.178 727.612 335.676 726.873 335.676C726.135 335.676 725.559 336.267 725.559 337.183V341.999H723.372ZM736.668 345.012V333.977H738.825V335.321H738.913C739.209 334.671 739.859 333.874 741.203 333.874C742.976 333.874 744.453 335.248 744.453 337.995C744.453 340.669 743.035 342.132 741.203 342.132C739.888 342.132 739.224 341.378 738.913 340.714H738.854V345.012H736.668ZM738.81 337.981C738.81 339.428 739.43 340.389 740.509 340.389C741.632 340.389 742.222 339.399 742.222 337.981C742.222 336.577 741.632 335.617 740.509 335.617C739.416 335.617 738.81 336.533 738.81 337.981ZM748.058 331.303V341.999H745.871V331.303H748.058ZM753.361 342.161C750.939 342.161 749.432 340.492 749.432 338.01C749.432 335.528 750.939 333.874 753.361 333.874C755.784 333.874 757.306 335.528 757.306 338.01C757.306 340.492 755.784 342.161 753.361 342.161ZM753.376 340.462C754.499 340.462 755.075 339.414 755.075 338.01C755.075 336.592 754.499 335.543 753.376 335.543C752.239 335.543 751.648 336.592 751.648 338.01C751.648 339.414 752.239 340.462 753.376 340.462ZM759.699 345.012C759.27 345.012 758.872 344.998 758.591 344.968V343.269C758.872 343.284 759.197 343.299 759.477 343.299C759.906 343.299 760.26 343.254 760.526 342.56L760.659 342.22L757.778 333.977H760.068L761.752 339.886H761.841L763.54 333.977H765.859L762.727 342.885C762.269 344.17 761.398 345.012 759.699 345.012ZM770.291 342.161C767.839 342.161 766.332 340.566 766.332 338.025C766.332 335.543 767.854 333.874 770.202 333.874C772.315 333.874 773.97 335.203 773.97 337.936V338.557H768.489C768.489 339.768 769.213 340.521 770.335 340.521C771.074 340.521 771.606 340.196 771.828 339.709H773.911C773.6 341.186 772.271 342.161 770.291 342.161ZM768.489 337.183H771.901C771.901 336.208 771.222 335.513 770.247 335.513C769.242 335.513 768.526 336.259 768.489 337.183ZM778.978 342.161C776.525 342.161 775.018 340.566 775.018 338.025C775.018 335.543 776.54 333.874 778.889 333.874C781.002 333.874 782.656 335.203 782.656 337.936V338.557H777.175C777.175 339.768 777.899 340.521 779.022 340.521C779.761 340.521 780.292 340.196 780.514 339.709H782.597C782.287 341.186 780.957 342.161 778.978 342.161ZM777.175 337.183H780.588C780.588 336.208 779.908 335.513 778.933 335.513C777.929 335.513 777.212 336.259 777.175 337.183ZM692.947 365.161C690.495 365.161 688.988 363.566 688.988 361.025C688.988 358.543 690.51 356.874 692.859 356.874C694.971 356.874 696.626 358.203 696.626 360.936V361.557H691.145C691.145 362.768 691.869 363.521 692.991 363.521C693.73 363.521 694.262 363.196 694.484 362.709H696.567C696.256 364.186 694.927 365.161 692.947 365.161ZM691.145 360.183H694.557C694.557 359.208 693.878 358.513 692.903 358.513C691.898 358.513 691.182 359.259 691.145 360.183ZM700.186 360.36V364.999H698V356.977H700.083V358.38H700.171C700.54 357.45 701.397 356.874 702.579 356.874C704.249 356.874 705.356 358.011 705.342 359.887V364.999H703.17V360.271C703.17 359.282 702.623 358.691 701.722 358.691C700.806 358.691 700.186 359.296 700.186 360.36ZM710.645 368.175C708.429 368.175 707.07 367.185 706.937 365.664H709.094C709.212 366.299 709.818 366.594 710.69 366.594C711.709 366.594 712.388 366.166 712.388 365.043V363.581H712.285C711.99 364.231 711.28 364.881 709.995 364.881C708.178 364.881 706.73 363.61 706.73 360.936C706.73 358.218 708.222 356.874 709.995 356.874C711.34 356.874 711.99 357.671 712.285 358.321H712.374V356.977H714.545V365.087C714.545 367.126 712.92 368.175 710.645 368.175ZM710.675 363.241C711.768 363.241 712.388 362.384 712.388 360.966C712.388 359.533 711.768 358.617 710.675 358.617C709.567 358.617 708.976 359.577 708.976 360.966C708.976 362.354 709.567 363.241 710.675 363.241ZM715.86 362.753C715.86 360.966 717.308 360.375 718.844 360.286C719.42 360.249 720.499 360.198 720.839 360.183V359.533C720.824 358.868 720.366 358.469 719.553 358.469C718.815 358.469 718.342 358.809 718.224 359.355H716.141C716.274 357.967 717.485 356.874 719.612 356.874C721.356 356.874 723.01 357.657 723.01 359.592V364.999H720.942V363.891H720.883C720.484 364.629 719.731 365.147 718.534 365.147C716.998 365.147 715.86 364.349 715.86 362.753ZM717.958 362.694C717.958 363.315 718.46 363.64 719.154 363.64C720.144 363.64 720.853 362.975 720.839 362.133V361.542C720.506 361.557 719.575 361.608 719.199 361.645C718.445 361.719 717.958 362.074 717.958 362.694ZM728.284 368.175C726.068 368.175 724.709 367.185 724.576 365.664H726.733C726.851 366.299 727.457 366.594 728.328 366.594C729.348 366.594 730.027 366.166 730.027 365.043V363.581H729.924C729.628 364.231 728.919 364.881 727.634 364.881C725.817 364.881 724.369 363.61 724.369 360.936C724.369 358.218 725.861 356.874 727.634 356.874C728.978 356.874 729.628 357.671 729.924 358.321H730.013V356.977H732.184V365.087C732.184 367.126 730.559 368.175 728.284 368.175ZM728.314 363.241C729.407 363.241 730.027 362.384 730.027 360.966C730.027 359.533 729.407 358.617 728.314 358.617C727.206 358.617 726.615 359.577 726.615 360.966C726.615 362.354 727.206 363.241 728.314 363.241ZM737.517 365.161C735.065 365.161 733.558 363.566 733.558 361.025C733.558 358.543 735.08 356.874 737.429 356.874C739.541 356.874 741.196 358.203 741.196 360.936V361.557H735.715C735.715 362.768 736.439 363.521 737.562 363.521C738.3 363.521 738.832 363.196 739.054 362.709H741.137C740.826 364.186 739.497 365.161 737.517 365.161ZM735.715 360.183H739.128C739.128 359.208 738.448 358.513 737.473 358.513C736.468 358.513 735.752 359.259 735.715 360.183ZM742.57 364.999V356.977H744.653V358.38H744.741C745.081 357.45 745.894 356.874 746.972 356.874C748.08 356.874 748.892 357.45 749.158 358.38H749.232C749.572 357.465 750.473 356.874 751.655 356.874C753.147 356.874 754.181 357.863 754.181 359.607V364.999H751.995V360.035C751.995 359.119 751.463 358.676 750.739 358.676C749.912 358.676 749.439 359.252 749.439 360.094V364.999H747.312V359.976C747.312 359.178 746.809 358.676 746.071 358.676C745.332 358.676 744.756 359.267 744.756 360.183V364.999H742.57ZM759.499 365.161C757.047 365.161 755.54 363.566 755.54 361.025C755.54 358.543 757.062 356.874 759.411 356.874C761.523 356.874 763.178 358.203 763.178 360.936V361.557H757.697C757.697 362.768 758.421 363.521 759.544 363.521C760.282 363.521 760.814 363.196 761.036 362.709H763.119C762.809 364.186 761.479 365.161 759.499 365.161ZM757.697 360.183H761.11C761.11 359.208 760.43 358.513 759.455 358.513C758.451 358.513 757.734 359.259 757.697 360.183ZM766.738 360.36V364.999H764.552V356.977H766.635V358.38H766.723C767.093 357.45 767.95 356.874 769.131 356.874C770.801 356.874 771.909 358.011 771.894 359.887V364.999H769.722V360.271C769.722 359.282 769.176 358.691 768.275 358.691C767.359 358.691 766.738 359.296 766.738 360.36ZM777.818 356.977V358.617H776.311V362.532C776.311 363.167 776.621 363.329 777.065 363.344C777.286 363.344 777.67 363.329 777.936 363.3V365.028C777.7 365.073 777.316 365.102 776.769 365.102C775.188 365.102 774.11 364.393 774.125 362.842V358.617H773.017V356.977H774.125V355.057H776.311V356.977H777.818ZM782.294 362.753C782.294 360.966 783.742 360.375 785.278 360.286C785.854 360.249 786.933 360.198 787.273 360.183V359.533C787.258 358.868 786.8 358.469 785.987 358.469C785.249 358.469 784.776 358.809 784.658 359.355H782.575C782.708 357.967 783.919 356.874 786.047 356.874C787.79 356.874 789.444 357.657 789.444 359.592V364.999H787.376V363.891H787.317C786.918 364.629 786.165 365.147 784.968 365.147C783.432 365.147 782.294 364.349 782.294 362.753ZM784.392 362.694C784.392 363.315 784.894 363.64 785.589 363.64C786.578 363.64 787.287 362.975 787.273 362.133V361.542C786.94 361.557 786.01 361.608 785.633 361.645C784.879 361.719 784.392 362.074 784.392 362.694ZM793.3 360.36V364.999H791.114V356.977H793.197V358.38H793.285C793.655 357.45 794.511 356.874 795.693 356.874C797.363 356.874 798.471 358.011 798.456 359.887V364.999H796.284V360.271C796.284 359.282 795.738 358.691 794.836 358.691C793.921 358.691 793.3 359.296 793.3 360.36ZM803.109 365.132C801.277 365.132 799.844 363.669 799.844 360.995C799.844 358.248 801.337 356.874 803.109 356.874C804.454 356.874 805.089 357.671 805.384 358.321H805.458V354.303H807.645V364.999H805.488V363.714H805.384C805.074 364.378 804.409 365.132 803.109 365.132ZM803.789 363.389C804.882 363.389 805.503 362.428 805.503 360.981C805.503 359.533 804.882 358.617 803.789 358.617C802.681 358.617 802.09 359.577 802.09 360.981C802.09 362.399 802.681 363.389 803.789 363.389ZM718.157 388.161C715.705 388.161 714.228 386.462 714.228 384.01C714.228 381.558 715.72 379.874 718.157 379.874C720.225 379.874 721.629 381.085 721.718 382.917H719.664C719.531 382.119 719.014 381.573 718.187 381.573C717.138 381.573 716.444 382.459 716.444 383.981C716.444 385.532 717.123 386.418 718.187 386.418C718.955 386.418 719.531 385.945 719.664 385.089H721.718C721.614 386.906 720.285 388.161 718.157 388.161ZM722.693 385.753C722.693 383.966 724.14 383.375 725.677 383.286C726.253 383.249 727.331 383.198 727.671 383.183V382.533C727.656 381.868 727.198 381.469 726.386 381.469C725.647 381.469 725.174 381.809 725.056 382.355H722.973C723.106 380.967 724.318 379.874 726.445 379.874C728.188 379.874 729.843 380.657 729.843 382.592V387.999H727.774V386.891H727.715C727.317 387.629 726.563 388.147 725.366 388.147C723.83 388.147 722.693 387.349 722.693 385.753ZM724.79 385.694C724.79 386.315 725.293 386.64 725.987 386.64C726.977 386.64 727.686 385.975 727.671 385.133V384.542C727.339 384.557 726.408 384.608 726.031 384.645C725.278 384.719 724.79 385.074 724.79 385.694ZM731.512 391.012V379.977H733.669V381.321H733.758C734.053 380.671 734.703 379.874 736.047 379.874C737.82 379.874 739.297 381.248 739.297 383.995C739.297 386.669 737.879 388.132 736.047 388.132C734.733 388.132 734.068 387.378 733.758 386.714H733.698V391.012H731.512ZM733.654 383.981C733.654 385.428 734.275 386.389 735.353 386.389C736.476 386.389 737.067 385.399 737.067 383.981C737.067 382.577 736.476 381.617 735.353 381.617C734.26 381.617 733.654 382.533 733.654 383.981ZM740.332 385.753C740.332 383.966 741.779 383.375 743.316 383.286C743.892 383.249 744.97 383.198 745.31 383.183V382.533C745.295 381.868 744.837 381.469 744.025 381.469C743.286 381.469 742.813 381.809 742.695 382.355H740.612C740.745 380.967 741.957 379.874 744.084 379.874C745.827 379.874 747.482 380.657 747.482 382.592V387.999H745.413V386.891H745.354C744.955 387.629 744.202 388.147 743.005 388.147C741.469 388.147 740.332 387.349 740.332 385.753ZM742.429 385.694C742.429 386.315 742.932 386.64 743.626 386.64C744.616 386.64 745.325 385.975 745.31 385.133V384.542C744.978 384.557 744.047 384.608 743.67 384.645C742.917 384.719 742.429 385.074 742.429 385.694ZM749.195 387.999V377.303H751.382V381.321H751.441C751.751 380.671 752.386 379.874 753.731 379.874C755.503 379.874 756.995 381.248 756.995 383.995C756.995 386.669 755.562 388.132 753.731 388.132C752.416 388.132 751.751 387.378 751.441 386.714H751.352V387.999H749.195ZM751.337 383.981C751.337 385.428 751.958 386.389 753.036 386.389C754.159 386.389 754.75 385.399 754.75 383.981C754.75 382.577 754.159 381.617 753.036 381.617C751.943 381.617 751.337 382.533 751.337 383.981ZM758.399 387.999V379.977H760.585V387.999H758.399ZM759.492 378.928C758.827 378.928 758.295 378.426 758.295 377.82C758.295 377.2 758.827 376.697 759.492 376.697C760.142 376.697 760.674 377.2 760.674 377.82C760.674 378.426 760.142 378.928 759.492 378.928ZM764.471 377.303V387.999H762.284V377.303H764.471ZM766.169 387.999V379.977H768.356V387.999H766.169ZM767.263 378.928C766.598 378.928 766.066 378.426 766.066 377.82C766.066 377.2 766.598 376.697 767.263 376.697C767.913 376.697 768.445 377.2 768.445 377.82C768.445 378.426 767.913 378.928 767.263 378.928ZM774.28 379.977V381.617H772.773V385.532C772.773 386.167 773.083 386.329 773.526 386.344C773.748 386.344 774.132 386.329 774.398 386.3V388.028C774.162 388.073 773.778 388.102 773.231 388.102C771.65 388.102 770.572 387.393 770.587 385.842V381.617H769.479V379.977H770.587V378.057H772.773V379.977H774.28ZM776.939 391.012C776.511 391.012 776.112 390.998 775.831 390.968V389.269C776.112 389.284 776.437 389.299 776.717 389.299C777.146 389.299 777.5 389.254 777.766 388.56L777.899 388.22L775.018 379.977H777.308L778.992 385.886H779.081L780.78 379.977H783.099L779.967 388.885C779.509 390.17 778.638 391.012 776.939 391.012Z" fill="#005EB8"/>
<path d="M343.384 598.999V587.686H350.837V589.624H345.728V592.374H350.353V594.311H345.728V598.999H343.384ZM355.524 599.171C352.962 599.171 351.368 597.405 351.368 594.78C351.368 592.155 352.962 590.405 355.524 590.405C358.087 590.405 359.696 592.155 359.696 594.78C359.696 597.405 358.087 599.171 355.524 599.171ZM355.54 597.374C356.728 597.374 357.337 596.264 357.337 594.78C357.337 593.28 356.728 592.171 355.54 592.171C354.337 592.171 353.712 593.28 353.712 594.78C353.712 596.264 354.337 597.374 355.54 597.374ZM365.993 593.03C365.899 592.436 365.368 592.046 364.603 592.046C363.853 592.046 363.274 592.405 363.29 592.921C363.274 593.296 363.587 593.593 364.384 593.764L365.899 594.077C367.54 594.421 368.337 595.155 368.353 596.374C368.337 598.046 366.837 599.171 364.587 599.171C362.29 599.171 360.946 598.139 360.759 596.483H363.087C363.196 597.155 363.743 597.499 364.587 597.499C365.431 597.499 365.993 597.155 365.993 596.608C365.993 596.171 365.634 595.905 364.837 595.733L363.431 595.452C361.821 595.139 360.978 594.296 360.993 593.046C360.978 591.421 362.384 590.405 364.571 590.405C366.712 590.405 368.04 591.421 368.165 593.03H365.993ZM374.243 590.514V592.249H372.649V596.389C372.649 597.061 372.978 597.233 373.446 597.249C373.681 597.249 374.087 597.233 374.368 597.202V599.03C374.118 599.077 373.712 599.108 373.134 599.108C371.462 599.108 370.321 598.358 370.337 596.718V592.249H369.165V590.514H370.337V588.483H372.649V590.514H374.243ZM379.446 599.171C376.853 599.171 375.259 597.483 375.259 594.796C375.259 592.171 376.868 590.405 379.353 590.405C381.587 590.405 383.337 591.811 383.337 594.702V595.358H377.54C377.54 596.639 378.306 597.436 379.493 597.436C380.274 597.436 380.837 597.093 381.071 596.577H383.274C382.946 598.139 381.54 599.171 379.446 599.171ZM377.54 593.905H381.149C381.149 592.874 380.431 592.139 379.399 592.139C378.337 592.139 377.579 592.928 377.54 593.905ZM384.79 598.999V590.514H387.024V591.983H387.118C387.431 590.936 388.212 590.389 389.165 590.389C389.399 590.389 389.696 590.421 389.899 590.468V592.53C389.681 592.468 389.243 592.405 388.915 592.405C387.868 592.405 387.103 593.139 387.103 594.171V598.999H384.79ZM391.024 598.999V590.514H393.337V598.999H391.024ZM392.181 589.405C391.478 589.405 390.915 588.874 390.915 588.233C390.915 587.577 391.478 587.046 392.181 587.046C392.868 587.046 393.431 587.577 393.431 588.233C393.431 588.874 392.868 589.405 392.181 589.405ZM397.446 594.093V598.999H395.134V590.514H397.337V591.999H397.431C397.821 591.014 398.728 590.405 399.978 590.405C401.743 590.405 402.915 591.608 402.899 593.593V598.999H400.603V593.999C400.603 592.952 400.024 592.327 399.071 592.327C398.103 592.327 397.446 592.968 397.446 594.093ZM408.509 602.358C406.165 602.358 404.728 601.311 404.587 599.702H406.868C406.993 600.374 407.634 600.686 408.556 600.686C409.634 600.686 410.353 600.233 410.353 599.046V597.499H410.243C409.931 598.186 409.181 598.874 407.821 598.874C405.899 598.874 404.368 597.53 404.368 594.702C404.368 591.827 405.946 590.405 407.821 590.405C409.243 590.405 409.931 591.249 410.243 591.936H410.337V590.514H412.634V599.093C412.634 601.249 410.915 602.358 408.509 602.358ZM408.54 597.139C409.696 597.139 410.353 596.233 410.353 594.733C410.353 593.218 409.696 592.249 408.54 592.249C407.368 592.249 406.743 593.264 406.743 594.733C406.743 596.202 407.368 597.139 408.54 597.139ZM417.712 596.624C417.712 594.733 419.243 594.108 420.868 594.014C421.478 593.975 422.618 593.921 422.978 593.905V593.218C422.962 592.514 422.478 592.093 421.618 592.093C420.837 592.093 420.337 592.452 420.212 593.03H418.009C418.149 591.561 419.431 590.405 421.681 590.405C423.524 590.405 425.274 591.233 425.274 593.28V598.999H423.087V597.827H423.024C422.603 598.608 421.806 599.155 420.54 599.155C418.915 599.155 417.712 598.311 417.712 596.624ZM419.931 596.561C419.931 597.218 420.462 597.561 421.196 597.561C422.243 597.561 422.993 596.858 422.978 595.968V595.343C422.626 595.358 421.642 595.413 421.243 595.452C420.446 595.53 419.931 595.905 419.931 596.561ZM432.399 598.999L430.087 590.514H432.431L433.759 596.249H433.837L435.228 590.514H437.524L438.931 596.218H439.009L440.321 590.514H442.665L440.337 598.999H437.899L436.431 593.608H436.321L434.853 598.999H432.399ZM443.837 598.999V590.514H446.149V598.999H443.837ZM444.993 589.405C444.29 589.405 443.728 588.874 443.728 588.233C443.728 587.577 444.29 587.046 444.993 587.046C445.681 587.046 446.243 587.577 446.243 588.233C446.243 588.874 445.681 589.405 444.993 589.405ZM450.259 594.093V598.999H447.946V590.514H450.149V591.999H450.243C450.634 591.014 451.54 590.405 452.79 590.405C454.556 590.405 455.728 591.608 455.712 593.593V598.999H453.415V593.999C453.415 592.952 452.837 592.327 451.884 592.327C450.915 592.327 450.259 592.968 450.259 594.093ZM462.774 593.421V595.264H457.618V593.421H462.774ZM466.368 598.999L464.056 590.514H466.399L467.728 596.249H467.806L469.196 590.514H471.493L472.899 596.218H472.978L474.29 590.514H476.634L474.306 598.999H471.868L470.399 593.608H470.29L468.821 598.999H466.368ZM477.806 598.999V590.514H480.118V598.999H477.806ZM478.962 589.405C478.259 589.405 477.696 588.874 477.696 588.233C477.696 587.577 478.259 587.046 478.962 587.046C479.649 587.046 480.212 587.577 480.212 588.233C480.212 588.874 479.649 589.405 478.962 589.405ZM484.228 594.093V598.999H481.915V590.514H484.118V591.999H484.212C484.603 591.014 485.509 590.405 486.759 590.405C488.524 590.405 489.696 591.608 489.681 593.593V598.999H487.384V593.999C487.384 592.952 486.806 592.327 485.853 592.327C484.884 592.327 484.228 592.968 484.228 594.093ZM354.962 626.186V614.514H357.243V615.936H357.337C357.649 615.249 358.337 614.405 359.759 614.405C361.634 614.405 363.196 615.858 363.196 618.764C363.196 621.593 361.696 623.139 359.759 623.139C358.368 623.139 357.665 622.343 357.337 621.639H357.274V626.186H354.962ZM357.228 618.749C357.228 620.28 357.884 621.296 359.024 621.296C360.212 621.296 360.837 620.249 360.837 618.749C360.837 617.264 360.212 616.249 359.024 616.249C357.868 616.249 357.228 617.218 357.228 618.749ZM364.29 620.624C364.29 618.733 365.821 618.108 367.446 618.014C368.056 617.975 369.196 617.921 369.556 617.905V617.218C369.54 616.514 369.056 616.093 368.196 616.093C367.415 616.093 366.915 616.452 366.79 617.03H364.587C364.728 615.561 366.009 614.405 368.259 614.405C370.103 614.405 371.853 615.233 371.853 617.28V622.999H369.665V621.827H369.603C369.181 622.608 368.384 623.155 367.118 623.155C365.493 623.155 364.29 622.311 364.29 620.624ZM366.509 620.561C366.509 621.218 367.04 621.561 367.774 621.561C368.821 621.561 369.571 620.858 369.556 619.968V619.343C369.204 619.358 368.22 619.413 367.821 619.452C367.024 619.53 366.509 619.905 366.509 620.561ZM373.618 622.999V614.514H375.853V615.983H375.946C376.259 614.936 377.04 614.389 377.993 614.389C378.228 614.389 378.524 614.421 378.728 614.468V616.53C378.509 616.468 378.071 616.405 377.743 616.405C376.696 616.405 375.931 617.139 375.931 618.171V622.999H373.618ZM384.743 614.514V616.249H383.149V620.389C383.149 621.061 383.478 621.233 383.946 621.249C384.181 621.249 384.587 621.233 384.868 621.202V623.03C384.618 623.077 384.212 623.108 383.634 623.108C381.962 623.108 380.821 622.358 380.837 620.718V616.249H379.665V614.514H380.837V612.483H383.149V614.514H384.743ZM388.509 618.093V622.999H386.196V614.514H388.399V615.999H388.493C388.884 615.014 389.79 614.405 391.04 614.405C392.806 614.405 393.978 615.608 393.962 617.593V622.999H391.665V617.999C391.665 616.952 391.087 616.327 390.134 616.327C389.165 616.327 388.509 616.968 388.509 618.093ZM399.603 623.171C397.009 623.171 395.415 621.483 395.415 618.796C395.415 616.171 397.024 614.405 399.509 614.405C401.743 614.405 403.493 615.811 403.493 618.702V619.358H397.696C397.696 620.639 398.462 621.436 399.649 621.436C400.431 621.436 400.993 621.093 401.228 620.577H403.431C403.103 622.139 401.696 623.171 399.603 623.171ZM397.696 617.905H401.306C401.306 616.874 400.587 616.139 399.556 616.139C398.493 616.139 397.735 616.928 397.696 617.905ZM404.946 622.999V614.514H407.181V615.983H407.274C407.587 614.936 408.368 614.389 409.321 614.389C409.556 614.389 409.853 614.421 410.056 614.468V616.53C409.837 616.468 409.399 616.405 409.071 616.405C408.024 616.405 407.259 617.139 407.259 618.171V622.999H404.946ZM416.024 617.03C415.931 616.436 415.399 616.046 414.634 616.046C413.884 616.046 413.306 616.405 413.321 616.921C413.306 617.296 413.618 617.593 414.415 617.764L415.931 618.077C417.571 618.421 418.368 619.155 418.384 620.374C418.368 622.046 416.868 623.171 414.618 623.171C412.321 623.171 410.978 622.139 410.79 620.483H413.118C413.228 621.155 413.774 621.499 414.618 621.499C415.462 621.499 416.024 621.155 416.024 620.608C416.024 620.171 415.665 619.905 414.868 619.733L413.462 619.452C411.853 619.139 411.009 618.296 411.024 617.046C411.009 615.421 412.415 614.405 414.603 614.405C416.743 614.405 418.071 615.421 418.196 617.03H416.024ZM422.118 618.093V622.999H419.806V611.686H422.056V615.999H422.149C422.54 615.014 423.399 614.405 424.681 614.405C426.446 614.405 427.618 615.593 427.618 617.593V622.999H425.306V617.999C425.306 616.952 424.743 616.327 423.774 616.327C422.806 616.327 422.118 616.968 422.118 618.093ZM429.399 622.999V614.514H431.712V622.999H429.399ZM430.556 613.405C429.853 613.405 429.29 612.874 429.29 612.233C429.29 611.577 429.853 611.046 430.556 611.046C431.243 611.046 431.806 611.577 431.806 612.233C431.806 612.874 431.243 613.405 430.556 613.405ZM433.509 626.186V614.514H435.79V615.936H435.884C436.196 615.249 436.884 614.405 438.306 614.405C440.181 614.405 441.743 615.858 441.743 618.764C441.743 621.593 440.243 623.139 438.306 623.139C436.915 623.139 436.212 622.343 435.884 621.639H435.821V626.186H433.509ZM435.774 618.749C435.774 620.28 436.431 621.296 437.571 621.296C438.759 621.296 439.384 620.249 439.384 618.749C439.384 617.264 438.759 616.249 437.571 616.249C436.415 616.249 435.774 617.218 435.774 618.749ZM448.603 622.999L446.29 614.514H448.634L449.962 620.249H450.04L451.431 614.514H453.728L455.134 620.218H455.212L456.524 614.514H458.868L456.54 622.999H454.103L452.634 617.608H452.524L451.056 622.999H448.603ZM460.04 622.999V614.514H462.353V622.999H460.04ZM461.196 613.405C460.493 613.405 459.931 612.874 459.931 612.233C459.931 611.577 460.493 611.046 461.196 611.046C461.884 611.046 462.446 611.577 462.446 612.233C462.446 612.874 461.884 613.405 461.196 613.405ZM468.618 614.514V616.249H467.024V620.389C467.024 621.061 467.353 621.233 467.821 621.249C468.056 621.249 468.462 621.233 468.743 621.202V623.03C468.493 623.077 468.087 623.108 467.509 623.108C465.837 623.108 464.696 622.358 464.712 620.718V616.249H463.54V614.514H464.712V612.483H467.024V614.514H468.618ZM472.571 618.093V622.999H470.259V611.686H472.509V615.999H472.603C472.993 615.014 473.853 614.405 475.134 614.405C476.899 614.405 478.071 615.593 478.071 617.593V622.999H475.759V617.999C475.759 616.952 475.196 616.327 474.228 616.327C473.259 616.327 472.571 616.968 472.571 618.093ZM387.298 641.03C387.204 640.436 386.673 640.046 385.907 640.046C385.157 640.046 384.579 640.405 384.595 640.921C384.579 641.296 384.892 641.593 385.688 641.764L387.204 642.077C388.845 642.421 389.642 643.155 389.657 644.374C389.642 646.046 388.142 647.171 385.892 647.171C383.595 647.171 382.251 646.139 382.063 644.483H384.392C384.501 645.155 385.048 645.499 385.892 645.499C386.735 645.499 387.298 645.155 387.298 644.608C387.298 644.171 386.938 643.905 386.142 643.733L384.735 643.452C383.126 643.139 382.282 642.296 382.298 641.046C382.282 639.421 383.688 638.405 385.876 638.405C388.017 638.405 389.345 639.421 389.47 641.03H387.298ZM396.517 643.389V638.514H398.829V646.999H396.61V645.468H396.517C396.126 646.452 395.22 647.108 393.938 647.108C392.235 647.108 391.079 645.905 391.079 643.921V638.514H393.392V643.514C393.392 644.514 393.97 645.155 394.876 645.155C395.72 645.155 396.517 644.546 396.517 643.389ZM400.626 650.186V638.514H402.907V639.936H403.001C403.313 639.249 404.001 638.405 405.423 638.405C407.298 638.405 408.86 639.858 408.86 642.764C408.86 645.593 407.36 647.139 405.423 647.139C404.032 647.139 403.329 646.343 403.001 645.639H402.938V650.186H400.626ZM402.892 642.749C402.892 644.28 403.548 645.296 404.688 645.296C405.876 645.296 406.501 644.249 406.501 642.749C406.501 641.264 405.876 640.249 404.688 640.249C403.532 640.249 402.892 641.218 402.892 642.749ZM410.36 650.186V638.514H412.642V639.936H412.735C413.048 639.249 413.735 638.405 415.157 638.405C417.032 638.405 418.595 639.858 418.595 642.764C418.595 645.593 417.095 647.139 415.157 647.139C413.767 647.139 413.063 646.343 412.735 645.639H412.673V650.186H410.36ZM412.626 642.749C412.626 644.28 413.282 645.296 414.423 645.296C415.61 645.296 416.235 644.249 416.235 642.749C416.235 641.264 415.61 640.249 414.423 640.249C413.267 640.249 412.626 641.218 412.626 642.749ZM422.407 635.686V646.999H420.095V635.686H422.407ZM424.204 646.999V638.514H426.517V646.999H424.204ZM425.36 637.405C424.657 637.405 424.095 636.874 424.095 636.233C424.095 635.577 424.657 635.046 425.36 635.046C426.048 635.046 426.61 635.577 426.61 636.233C426.61 636.874 426.048 637.405 425.36 637.405ZM432.157 647.171C429.563 647.171 427.97 645.483 427.97 642.796C427.97 640.171 429.579 638.405 432.063 638.405C434.298 638.405 436.048 639.811 436.048 642.702V643.358H430.251C430.251 644.639 431.017 645.436 432.204 645.436C432.985 645.436 433.548 645.093 433.782 644.577H435.985C435.657 646.139 434.251 647.171 432.157 647.171ZM430.251 641.905H433.86C433.86 640.874 433.142 640.139 432.11 640.139C431.048 640.139 430.29 640.928 430.251 641.905ZM437.501 646.999V638.514H439.735V639.983H439.829C440.142 638.936 440.923 638.389 441.876 638.389C442.11 638.389 442.407 638.421 442.61 638.468V640.53C442.392 640.468 441.954 640.405 441.626 640.405C440.579 640.405 439.813 641.139 439.813 642.171V646.999H437.501ZM448.579 641.03C448.485 640.436 447.954 640.046 447.188 640.046C446.438 640.046 445.86 640.405 445.876 640.921C445.86 641.296 446.173 641.593 446.97 641.764L448.485 642.077C450.126 642.421 450.923 643.155 450.938 644.374C450.923 646.046 449.423 647.171 447.173 647.171C444.876 647.171 443.532 646.139 443.345 644.483H445.673C445.782 645.155 446.329 645.499 447.173 645.499C448.017 645.499 448.579 645.155 448.579 644.608C448.579 644.171 448.22 643.905 447.423 643.733L446.017 643.452C444.407 643.139 443.563 642.296 443.579 641.046C443.563 639.421 444.97 638.405 447.157 638.405C449.298 638.405 450.626 639.421 450.751 641.03H448.579Z" fill="#005EB8"/>
<path d="M416.849 209.423L416.849 242.406" stroke="#005EB8" stroke-width="1.40355"/>
<path d="M416.845 492.038L416.845 525.021" stroke="#005EB8" stroke-width="1.40355"/>
<path d="M416.845 168.038L416.845 201.021" stroke="#005EB8" stroke-width="1.40355"/>
<line x1="167.72" y1="348.297" x2="275.793" y2="348.297" stroke="#005EB8" stroke-width="1.40355"/>
<line x1="556.501" y1="348.297" x2="664.574" y2="348.297" stroke="#005EB8" stroke-width="1.40355"/>
<circle cx="417.019" cy="488.017" r="7.01775" fill="#24C2FF"/>
<circle cx="416.019" cy="208.017" r="7.01775" fill="#24C2FF"/>
<circle cx="275.792" cy="349.017" r="7.01775" fill="#24C2FF"/>
<circle cx="556.503" cy="349.017" r="7.01775" fill="#24C2FF"/>
</svg>
