<svg width="834" height="694" viewBox="0 0 834 694" fill="none" xmlns="http://www.w3.org/2000/svg">
<circle opacity="0.08" cx="416.41" cy="348.408" r="201.409" fill="#24C2FF"/>
<circle opacity="0.1" cx="416.406" cy="348.408" r="171.233" fill="#24C2FF"/>
<circle cx="416.411" cy="348.409" r="140.355" fill="#005EB8"/>
<circle cx="417.214" cy="84.2118" r="83.5112" fill="white" stroke="#005EB8" stroke-width="1.40355"/>
<circle cx="84.214" cy="348.212" r="83.5112" fill="white" stroke="#005EB8" stroke-width="1.40355"/>
<circle cx="749.214" cy="348.212" r="83.5112" fill="white" stroke="#005EB8" stroke-width="1.40355"/>
<circle cx="417.214" cy="609.212" r="83.5112" fill="white" stroke="#005EB8" stroke-width="1.40355"/>
<path d="M368.301 334.686V336.856H360.739V338.532H366.174V344.87H352.532V338.532H358.01V336.856H350.469V334.686H368.301ZM366.711 326.071V328.262H364.155V331.249H366.582V333.44H352.166V331.249H354.573V328.262H352.037V326.071H366.711ZM355.239 340.659V342.678H363.489V340.659H355.239ZM357.323 331.249H361.405V328.262H357.323V331.249ZM385.832 325.534V335.567H383.104V325.534H385.832ZM385.854 336.341V341.561H375.455V342.85H386.391V344.956H372.77V339.606H383.125V338.425H372.727V336.341H385.854ZM381.041 326.436V328.628H377.131C377.325 330.583 378.786 332.473 381.793 333.268L380.483 335.374C378.216 334.751 376.648 333.44 375.778 331.764C374.875 333.634 373.221 335.105 370.815 335.782L369.569 333.612C372.62 332.774 374.113 330.712 374.295 328.628H370.299V326.436H381.041ZM404.975 325.555V336.813H402.246V334.901H397.842V332.71H402.246V330.841H398.036C396.822 333.934 394.05 336.061 389.743 337.243L388.668 335.073C393.169 333.891 395.371 331.743 395.758 329.057H389.721V326.866H398.745C398.745 327.5 398.702 328.112 398.616 328.692H402.246V325.555H404.975ZM398.465 337.05C402.44 337.05 405.104 338.575 405.125 341.003C405.104 343.452 402.44 344.999 398.465 344.999C394.448 344.999 391.762 343.452 391.784 341.003C391.762 338.575 394.448 337.05 398.465 337.05ZM398.465 339.198C395.995 339.177 394.512 339.8 394.512 341.003C394.512 342.206 395.995 342.829 398.465 342.829C400.893 342.829 402.375 342.206 402.375 341.003C402.375 339.8 400.893 339.177 398.465 339.198ZM413.633 329.337C413.633 331.528 414.664 333.462 417.135 334.428L415.717 336.512C414.117 335.9 413.032 334.804 412.387 333.419C411.678 335.009 410.486 336.298 408.713 337.007L407.231 334.901C409.916 333.805 411.012 331.614 411.012 329.337V329.165H407.897V326.973H416.641V329.165H413.633V329.337ZM424.311 325.555V337.393H421.711V332.495H420.143V336.792H417.565V325.899H420.143V330.282H421.711V325.555H424.311ZM417.629 337.694C421.754 337.694 424.397 339.091 424.418 341.368C424.397 343.688 421.754 345.085 417.629 345.085C413.483 345.085 410.862 343.688 410.862 341.368C410.862 339.091 413.483 337.694 417.629 337.694ZM417.629 339.757C415.073 339.757 413.59 340.337 413.612 341.368C413.59 342.464 415.073 343.001 417.629 343.001C420.164 343.001 421.647 342.464 421.647 341.368C421.647 340.337 420.164 339.757 417.629 339.757ZM435.913 326.673V332.774H430.004V334.858C432.915 334.858 434.634 334.761 436.621 334.385L436.879 336.577C434.602 336.985 432.539 337.05 428.758 337.05H427.297V330.733H433.163V328.821H427.254V326.673H435.913ZM443.002 325.555V337.587H440.274V334.579H437.03V332.409H440.274V330.432H437.03V328.262H440.274V325.555H443.002ZM443.002 338.468V345.085H440.274V340.659H429.532V338.468H443.002ZM454.454 326.522C458.579 326.544 461.801 328.757 461.823 332.151C461.801 335.567 458.579 337.802 454.454 337.78C450.307 337.802 447.106 335.567 447.106 332.151C447.106 328.757 450.307 326.544 454.454 326.522ZM454.454 328.757C451.746 328.735 449.77 330.046 449.77 332.151C449.77 334.278 451.746 335.546 454.454 335.546C457.161 335.546 459.094 334.278 459.116 332.151C459.094 330.046 457.161 328.735 454.454 328.757ZM463.434 340.487V342.7H445.538V340.487H463.434ZM482.448 340.659V342.915H464.551V340.659H472.092V337.716H466.614V331.141H477.678V328.993H466.592V326.802H480.385V333.29H469.364V335.481H480.836V337.716H474.821V340.659H482.448ZM351.662 359.329V360.661C351.662 361.918 351.662 363.486 351.296 365.452H353.788V367.6H335.892V365.452H348.525C348.847 363.862 348.912 362.584 348.933 361.499H338.083V359.329H351.662ZM351.576 368.975V374.454H340.662V375.829H352.113V377.934H337.933V372.391H348.869V371.102H337.912V368.975H351.576ZM372.802 373.659V375.915H354.906V373.659H362.447V370.716H356.968V364.141H368.033V361.993H356.947V359.802H370.74V366.29H359.718V368.481H371.191V370.716H365.175V373.659H372.802ZM390.398 358.534V368.524H387.669V364.7H384.06V367.987H374.757V359.372H377.507V361.606H381.353V359.372H384.06V362.487H387.669V358.534H390.398ZM390.398 369.255V374.518H380.15V375.721H390.978V377.87H377.4V372.542H387.669V371.403H377.378V369.255H390.398ZM377.507 365.839H381.353V363.733H377.507V365.839ZM415.878 369.813V371.962H408.23V378.085H405.523V371.962H397.982V369.813H415.878ZM402.794 359.286V361.542H411.001V359.286H413.751V367.923H400.087V359.286H402.794ZM402.794 365.731H411.001V363.69H402.794V365.731ZM434.849 367.686V369.856H427.287V371.532H432.722V377.87H419.079V371.532H424.558V369.856H417.017V367.686H434.849ZM433.259 359.071V361.262H430.703V364.249H433.13V366.44H418.714V364.249H421.121V361.262H418.585V359.071H433.259ZM421.787 373.659V375.678H430.037V373.659H421.787ZM423.871 364.249H427.953V361.262H423.871V364.249ZM443.228 362.96C443.206 366.462 444.71 370.007 447.847 371.51L446.193 373.702C444.098 372.671 442.691 370.737 441.874 368.374C441.026 370.909 439.511 372.982 437.298 374.067L435.601 371.854C438.91 370.329 440.478 366.591 440.478 362.96V360.038H443.228V362.96ZM451.456 358.534V366.075H454.335V368.395H451.456V378.085H448.706V358.534H451.456ZM476.056 367.278V369.448H470.384V373.616H478.011V375.85H460.115V373.616H467.656V369.448H462.22V359.909H475.906V362.1H464.97V367.278H476.056ZM497.175 361.112V363.325H494.64V365.323H497.175V367.6H494.64V370.071H491.89V358.534H494.64V361.112H497.175ZM494.64 370.844V378.085H491.89V373.057H481.47V370.844H494.64ZM484.628 359.608C487.658 359.587 489.956 361.606 489.956 364.356C489.956 367.171 487.658 369.147 484.628 369.147C481.578 369.147 479.257 367.171 479.257 364.356C479.257 361.606 481.578 359.587 484.628 359.608ZM484.628 361.95C483.081 361.95 481.943 362.831 481.964 364.356C481.943 365.925 483.081 366.827 484.628 366.827C486.132 366.827 487.271 365.925 487.292 364.356C487.271 362.831 486.132 361.95 484.628 361.95Z" fill="white"/>
<path d="M392.228 66.4519V67.7957C392.228 69.5769 392.228 71.5769 391.649 74.5925L389.649 74.3894C390.188 71.7019 390.212 69.7019 390.228 68.03H381.853V66.4519H392.228ZM393.478 76.0769V77.7019H380.509V76.0769H385.149V71.1863H387.134V76.0769H393.478ZM406.556 65.2332V73.5613H404.665V70.1238H403.384V73.4988H401.509V65.4832H403.384V68.4988H404.665V65.2332H406.556ZM406.556 74.1082V79.4363H404.571V75.7175H396.634V74.1082H406.556ZM400.54 66.2019C400.54 69.78 398.821 72.1863 395.118 73.655L394.181 72.1707C396.86 71.1863 398.204 69.7175 398.509 67.7957H394.868V66.2019H400.54ZM424.821 71.6707V73.28H419.321V74.3269C421.798 74.5144 423.259 75.405 423.274 76.8738C423.259 78.5144 421.399 79.4363 418.321 79.4363C415.196 79.4363 413.337 78.5144 413.337 76.8738C413.337 75.3972 414.813 74.5066 417.337 74.3269V73.28H411.853V71.6707H424.821ZM418.321 75.7957C416.353 75.8113 415.353 76.155 415.368 76.8738C415.353 77.5613 416.353 77.9363 418.321 77.9363C420.243 77.9363 421.259 77.5613 421.274 76.8738C421.259 76.155 420.243 75.8113 418.321 75.7957ZM423.649 65.8269V67.3894H419.79C420.126 68.3894 421.571 69.3503 424.274 69.5769L423.571 71.1394C420.892 70.8816 419.079 69.866 418.321 68.4832C417.571 69.866 415.79 70.8816 413.087 71.1394L412.431 69.5769C415.063 69.3503 416.517 68.3816 416.884 67.3894H413.04V65.8269H423.649ZM437.587 65.2332V73.2488H435.587V65.2332H437.587ZM437.587 73.905V79.28H428.056V73.905H437.587ZM430.024 75.4832V77.6863H435.634V75.4832H430.024ZM431.134 67.1238C431.118 68.8582 432.165 70.4988 434.462 71.2175L433.493 72.7332C431.868 72.2566 430.743 71.2722 430.103 69.9988C429.454 71.3816 428.298 72.4753 426.603 72.9988L425.634 71.4363C428.009 70.7175 429.056 68.905 429.056 67.1238V65.7488H431.134V67.1238ZM444.118 66.1707C446.368 66.155 448.056 67.6238 448.056 69.655C448.056 71.7019 446.368 73.155 444.118 73.155C441.868 73.155 440.165 71.7019 440.165 69.655C440.165 67.6238 441.868 66.155 444.118 66.1707ZM444.118 67.8894C442.993 67.8894 442.134 68.5457 442.149 69.655C442.134 70.78 442.993 71.4207 444.118 71.4207C445.243 71.4207 446.103 70.78 446.118 69.655C446.103 68.5457 445.259 67.8894 444.118 67.8894ZM451.462 65.2175V79.4675H449.478V65.2175H451.462ZM439.571 74.9363C442.103 74.9519 445.618 74.905 448.665 74.4832L448.821 75.9207C445.665 76.53 442.29 76.5613 439.806 76.5613L439.571 74.9363ZM377.806 95.8738V97.4519H372.306V98.6707H376.259V103.28H366.337V98.6707H370.321V97.4519H364.837V95.8738H377.806ZM376.649 89.6082V91.2019H374.79V93.3738H376.556V94.9675H366.071V93.3738H367.821V91.2019H365.978V89.6082H376.649ZM368.306 100.218V101.686H374.306V100.218H368.306ZM369.821 93.3738H372.79V91.2019H369.821V93.3738ZM390.556 89.2175V96.5144H388.571V89.2175H390.556ZM390.571 97.0769V100.874H383.009V101.811H390.962V103.343H381.056V99.4519H388.587V98.5925H381.024V97.0769H390.571ZM387.071 89.8738V91.4675H384.228C384.368 92.8894 385.431 94.2644 387.618 94.8425L386.665 96.3738C385.017 95.9207 383.876 94.9675 383.243 93.7488C382.587 95.1082 381.384 96.1785 379.634 96.6707L378.728 95.0925C380.946 94.4832 382.032 92.9832 382.165 91.4675H379.259V89.8738H387.071ZM408.165 89.2332V97.4207H406.181V96.03H402.978V94.4363H406.181V93.0769H403.118C402.235 95.3269 400.22 96.8738 397.087 97.7332L396.306 96.155C399.579 95.2957 401.181 93.7332 401.462 91.78H397.071V90.1863H403.634C403.634 90.6472 403.603 91.0925 403.54 91.5144H406.181V89.2332H408.165ZM403.431 97.5925C406.321 97.5925 408.259 98.7019 408.274 100.468C408.259 102.249 406.321 103.374 403.431 103.374C400.509 103.374 398.556 102.249 398.571 100.468C398.556 98.7019 400.509 97.5925 403.431 97.5925ZM403.431 99.155C401.634 99.1394 400.556 99.5925 400.556 100.468C400.556 101.343 401.634 101.796 403.431 101.796C405.196 101.796 406.274 101.343 406.274 100.468C406.274 99.5925 405.196 99.1394 403.431 99.155ZM414.462 91.9832C414.462 93.5769 415.212 94.9832 417.009 95.6863L415.978 97.2019C414.813 96.7566 414.024 95.9597 413.556 94.9519C413.04 96.1082 412.173 97.0457 410.884 97.5613L409.806 96.03C411.759 95.2332 412.556 93.6394 412.556 91.9832V91.8582H410.29V90.2644H416.649V91.8582H414.462V91.9832ZM422.228 89.2332V97.8425H420.337V94.28H419.196V97.405H417.321V89.4832H419.196V92.6707H420.337V89.2332H422.228ZM417.368 98.0613C420.368 98.0613 422.29 99.0769 422.306 100.733C422.29 102.421 420.368 103.436 417.368 103.436C414.353 103.436 412.446 102.421 412.446 100.733C412.446 99.0769 414.353 98.0613 417.368 98.0613ZM417.368 99.5613C415.509 99.5613 414.431 99.9832 414.446 100.733C414.431 101.53 415.509 101.921 417.368 101.921C419.212 101.921 420.29 101.53 420.29 100.733C420.29 99.9832 419.212 99.5613 417.368 99.5613ZM430.665 90.0457V94.4832H426.368V95.9988C428.485 95.9988 429.735 95.9285 431.181 95.655L431.368 97.2488C429.712 97.5457 428.212 97.5925 425.462 97.5925H424.399V92.9988H428.665V91.6082H424.368V90.0457H430.665ZM435.821 89.2332V97.9832H433.837V95.7957H431.478V94.2175H433.837V92.78H431.478V91.2019H433.837V89.2332H435.821ZM435.821 98.6238V103.436H433.837V100.218H426.024V98.6238H435.821ZM452.728 89.2332V93.2957H454.54V94.9363H452.728V98.8894H450.728V89.2332H452.728ZM441.196 97.0613C442.235 97.0613 443.423 97.0613 444.649 97.03V96.2332C443.103 96.0144 442.134 95.2644 442.149 94.1707C442.134 92.8582 443.524 92.0457 445.634 92.0457C447.728 92.0457 449.103 92.8582 449.118 94.1707C449.103 95.2644 448.157 96.0066 446.634 96.2175V96.9519C447.806 96.905 448.97 96.8113 450.071 96.6707L450.212 98.0457C447.212 98.5769 443.915 98.6082 441.399 98.6082L441.196 97.0613ZM452.728 99.4675V103.436H450.728V100.999H443.009V99.4675H452.728ZM449.712 90.2644V91.7175H441.571V90.2644H444.649V89.1082H446.634V90.2644H449.712ZM445.634 93.3738C444.618 93.3738 444.04 93.6238 444.056 94.1707C444.04 94.6863 444.618 94.9832 445.634 94.9832C446.634 94.9832 447.196 94.6863 447.212 94.1707C447.196 93.6238 446.634 93.3738 445.634 93.3738ZM468.196 100.155V101.78H455.181V100.155H460.665V97.53H456.556V90.1238H458.556V92.3269H464.759V90.1238H466.743V97.53H462.649V100.155H468.196ZM458.556 95.9363H464.759V93.9207H458.556V95.9363Z" fill="#005EB8"/>
<path d="M54.5635 323.874V325.452H49.0635V326.671H53.0166V331.28H43.0947V326.671H47.0791V325.452H41.5947V323.874H54.5635ZM53.4072 317.608V319.202H51.5479V321.374H53.3135V322.968H42.8291V321.374H44.5791V319.202H42.7354V317.608H53.4072ZM45.0635 328.218V329.686H51.0635V328.218H45.0635ZM46.5791 321.374H49.5479V319.202H46.5791V321.374ZM67.3135 317.218V324.514H65.3291V317.218H67.3135ZM67.3291 325.077V328.874H59.7666V329.811H67.7197V331.343H57.8135V327.452H65.3447V326.593H57.7822V325.077H67.3291ZM63.8291 317.874V319.468H60.9854C61.126 320.889 62.1885 322.264 64.376 322.843L63.4229 324.374C61.7744 323.921 60.6338 322.968 60.001 321.749C59.3447 323.108 58.1416 324.178 56.3916 324.671L55.4854 323.093C57.7041 322.483 58.79 320.983 58.9229 319.468H56.0166V317.874H63.8291ZM85.9541 328.124V329.78H72.9385V328.124H85.9541ZM84.8604 318.468V320.061H82.8604V324.374H84.7979V325.936H74.0166V324.374H75.9229V320.061H73.9541V318.468H84.8604ZM77.9229 324.374H80.8916V320.061H77.9229V324.374ZM99.7822 328.218V329.858H86.7666V328.218H92.251V326.077H88.2666V321.296H96.3135V319.733H88.251V318.139H98.2822V322.858H90.2666V324.452H98.6104V326.077H94.2354V328.218H99.7822ZM105.157 320.796C105.157 323.093 105.798 325.468 107.735 326.718L106.657 328.264C105.431 327.522 104.649 326.303 104.204 324.843C103.688 326.452 102.837 327.796 101.548 328.577L100.329 327.108C102.438 325.796 103.22 323.296 103.22 320.889V318.436H105.157V320.796ZM112.923 317.218V331.436H111.017V317.218H112.923ZM109.938 317.421V330.78H108.079V323.639H106.235V322.014H108.079V317.421H109.938ZM121.907 319.093C121.907 321.171 123.751 323.405 126.97 323.952L126.095 325.608C123.618 325.116 121.774 323.725 120.86 321.889C119.915 323.71 118.071 325.108 115.61 325.608L114.751 323.952C117.907 323.389 119.767 321.155 119.782 319.093V318.061H121.907V319.093ZM127.438 328.046V329.686H114.423V328.046H127.438ZM56.4463 342.436V343.999H48.54V342.436H51.6025V341.093H53.5869V342.436H56.4463ZM52.5713 344.514C54.4932 344.514 55.9307 345.655 55.9463 347.249C55.9307 348.811 54.4932 349.952 52.5713 349.952C50.665 349.952 49.2275 348.811 49.2432 347.249C49.2275 345.655 50.665 344.514 52.5713 344.514ZM52.5713 346.014C51.6963 346.014 51.0869 346.483 51.1025 347.249C51.0869 347.983 51.6963 348.436 52.5713 348.436C53.4307 348.436 54.0869 347.983 54.0869 347.249C54.0869 346.483 53.4307 346.014 52.5713 346.014ZM60.4932 341.218V350.249H58.5088V348.749H56.5713V347.139H58.5088V345.983H56.6025V344.405H58.5088V341.218H60.4932ZM60.4932 350.921V355.436H58.5088V352.499H50.7275V350.921H60.4932ZM74.2432 341.233V351.608H72.2432V341.233H74.2432ZM74.6182 353.593V355.186H64.7119V350.608H66.7275V353.593H74.6182ZM67.79 343.389C67.7744 345.264 68.7744 347.108 71.1182 347.858L70.1025 349.421C68.501 348.889 67.3916 347.827 66.7588 346.468C66.126 347.928 64.9854 349.1 63.3213 349.671L62.29 348.093C64.6807 347.296 65.7119 345.311 65.7119 343.389V342.014H67.79V343.389ZM82.6494 341.421C85.915 341.421 87.8057 342.28 87.8213 343.843C87.8057 345.421 85.915 346.28 82.6494 346.28C79.3682 346.28 77.4619 345.421 77.4619 343.843C77.4619 342.28 79.3682 341.421 82.6494 341.421ZM82.6494 342.874C80.5557 342.874 79.54 343.218 79.5557 343.843C79.54 344.546 80.5557 344.811 82.6494 344.811C84.7588 344.811 85.7588 344.546 85.7588 343.843C85.7588 343.218 84.7588 342.874 82.6494 342.874ZM89.1338 346.952V348.53H76.165V346.952H89.1338ZM87.5557 349.358V352.983H79.6338V353.843H87.9307V355.343H77.6807V351.593H85.5869V350.811H77.665V349.358H87.5557ZM106.649 348.546V350.108H93.6494V348.546H99.1494V347.671H95.2744V341.561H105.134V343.093H97.2744V343.889H104.806V345.327H97.2744V346.139H105.259V347.671H101.149V348.546H106.649ZM100.149 350.764C103.29 350.749 105.087 351.593 105.103 353.093C105.087 354.624 103.29 355.436 100.149 355.436C96.9619 355.436 95.165 354.624 95.165 353.093C95.165 351.593 96.9619 350.749 100.149 350.764ZM100.149 352.233C98.1025 352.233 97.1494 352.499 97.165 353.093C97.1494 353.702 98.1025 353.968 100.149 353.968C102.149 353.968 103.087 353.702 103.103 353.093C103.087 352.499 102.149 352.233 100.149 352.233ZM118.79 341.233V345.593H120.712V347.218H118.79V351.843H116.79V341.233H118.79ZM115.946 342.718V344.296H107.509V342.718H110.743V341.202H112.728V342.718H115.946ZM111.728 344.796C113.79 344.796 115.228 345.905 115.228 347.546C115.228 349.186 113.79 350.264 111.728 350.264C109.649 350.264 108.196 349.186 108.196 347.546C108.196 345.905 109.649 344.796 111.728 344.796ZM111.728 346.311C110.774 346.327 110.134 346.764 110.149 347.546C110.134 348.327 110.774 348.749 111.728 348.749C112.681 348.749 113.337 348.327 113.337 347.546C113.337 346.764 112.681 346.327 111.728 346.311ZM119.306 353.593V355.186H109.571V351.03H111.556V353.593H119.306ZM62.7822 369.093C62.7822 371.389 63.9541 373.843 66.3447 374.843L65.2666 376.405C63.5869 375.694 62.4307 374.28 61.7979 372.546C61.1494 374.428 59.9697 375.991 58.2979 376.764L57.1572 375.186C59.5166 374.139 60.7354 371.499 60.7354 369.093V368.218H57.7197V366.593H65.751V368.218H62.7822V369.093ZM69.1729 365.218V379.436H67.1572V365.218H69.1729ZM84.0635 372.139V373.733H71.0947V372.139H76.5791V370.249H78.5479V372.139H84.0635ZM78.5791 365.921C78.5791 367.577 80.1729 369.155 83.376 369.546L82.6104 371.093C80.2119 370.733 78.4463 369.725 77.5479 368.296C76.6338 369.725 74.8682 370.741 72.4697 371.093L71.7666 369.546C74.9072 369.155 76.5479 367.53 76.5479 365.921V365.452H78.5791V365.921ZM82.4854 374.733V379.436H80.501V376.28H72.5322V374.733H82.4854ZM90.2979 367.155C90.2822 369.061 91.2666 370.811 93.5479 371.514L92.501 373.077C90.9697 372.546 89.9307 371.561 89.3447 370.28C88.7041 371.764 87.5557 372.936 85.8447 373.514L84.7979 371.921C87.2354 371.139 88.2666 369.233 88.2822 367.249V365.952H90.2979V367.155ZM96.9072 365.218V373.546H94.9229V369.452H92.251V367.827H94.9229V365.218H96.9072ZM92.0479 373.921C95.0791 373.921 96.9385 374.936 96.9541 376.686C96.9385 378.436 95.0791 379.436 92.0479 379.436C89.0166 379.436 87.1572 378.436 87.1572 376.686C87.1572 374.936 89.0166 373.921 92.0479 373.921ZM92.0479 375.468C90.1572 375.468 89.1416 375.874 89.1416 376.686C89.1416 377.468 90.1572 377.889 92.0479 377.889C93.9385 377.889 94.9697 377.468 94.9697 376.686C94.9697 375.874 93.9385 375.468 92.0479 375.468ZM106.829 366.171V367.764H104.001C104.017 369.421 105.009 371.022 107.282 371.686L106.329 373.249C104.759 372.772 103.673 371.819 103.048 370.593C102.415 372.03 101.259 373.171 99.5479 373.733L98.5322 372.155C100.892 371.413 101.954 369.569 101.985 367.764H99.0791V366.171H106.829ZM110.032 365.218V368.514H111.954V370.139H110.032V373.655H108.032V365.218H110.032ZM105.376 373.936C108.329 373.921 110.173 374.936 110.173 376.671C110.173 378.405 108.329 379.436 105.376 379.436C102.36 379.436 100.501 378.405 100.501 376.671C100.501 374.936 102.36 373.921 105.376 373.936ZM105.376 375.483C103.501 375.483 102.485 375.874 102.501 376.671C102.485 377.483 103.501 377.889 105.376 377.889C107.22 377.889 108.204 377.483 108.204 376.671C108.204 375.874 107.22 375.483 105.376 375.483Z" fill="#005EB8"/>
<path d="M725.728 329.914V338.01H723.837V329.914H725.728ZM725.728 338.601V343.358H723.837V340.108H716.481V338.601H725.728ZM722.419 330.697V332.204H719.716C719.731 333.778 720.72 335.432 722.922 336.09L721.961 337.552C720.454 337.087 719.391 336.119 718.785 334.893C718.172 336.223 717.079 337.279 715.506 337.803L714.531 336.341C716.746 335.624 717.781 333.881 717.795 332.204H715.033V330.697H722.419ZM738.935 329.929V340.078H737.045V339.015H734.474V337.729H737.045V329.929H738.935ZM739.231 341.615V343.122H729.215V339.103H731.091V337.316C729.887 337.367 728.742 337.375 727.723 337.375L727.501 335.883C729.968 335.868 733.292 335.838 736.129 335.484L736.232 336.828C735.168 337.006 734.068 337.131 732.982 337.212V339.768H731.091V341.615H739.231ZM731.874 330.387C733.824 330.372 735.227 331.362 735.227 332.795C735.227 334.228 733.824 335.159 731.874 335.159C729.88 335.159 728.491 334.228 728.491 332.795C728.491 331.362 729.865 330.372 731.874 330.387ZM731.874 331.761C730.914 331.761 730.264 332.13 730.279 332.795C730.264 333.445 730.914 333.8 731.874 333.8C732.775 333.8 733.425 333.445 733.44 332.795C733.425 332.13 732.775 331.761 731.874 331.761ZM751.773 331.259V332.736H749.055C749.092 334.088 750.067 335.447 752.202 336.016L751.345 337.463C749.816 337.065 748.752 336.223 748.139 335.129C747.548 336.333 746.477 337.271 744.889 337.7L744.003 336.252C746.137 335.669 747.149 334.221 747.179 332.736H744.475V331.259H747.179V329.855H749.085V331.259H751.773ZM754.772 329.914V333.076H756.589V334.612H754.772V337.788H752.881V329.914H754.772ZM754.772 338.35V343.21H745.982V338.35H754.772ZM747.844 339.842V341.703H752.911V339.842H747.844ZM760.888 330.86C762.092 330.86 763.097 331.525 763.71 332.677H766.664V329.914H768.526V343.387H766.664V338.35H763.857C763.252 339.679 762.188 340.448 760.888 340.448C758.849 340.448 757.387 338.601 757.402 335.646C757.387 332.721 758.849 330.86 760.888 330.86ZM760.888 332.559C759.884 332.559 759.189 333.652 759.204 335.646C759.189 337.656 759.884 338.734 760.888 338.734C761.907 338.734 762.572 337.656 762.572 335.646C762.572 333.652 761.907 332.559 760.888 332.559ZM764.242 334.199C764.323 334.642 764.375 335.129 764.375 335.646C764.375 336.067 764.338 336.466 764.286 336.843H766.664V334.199H764.242ZM774.258 330.712C776.326 330.712 777.936 332.071 777.951 334.007C777.936 335.632 776.806 336.85 775.218 337.198V339.029C776.282 338.985 777.338 338.896 778.335 338.763L778.468 340.152C775.661 340.684 772.633 340.684 770.343 340.654L770.092 339.133C771.059 339.125 772.175 339.125 773.342 339.103V337.212C771.695 336.88 770.564 335.654 770.564 334.007C770.564 332.071 772.13 330.712 774.258 330.712ZM774.258 332.308C773.194 332.308 772.396 332.928 772.411 334.007C772.396 335.07 773.194 335.705 774.258 335.705C775.292 335.705 776.09 335.07 776.09 334.007C776.09 332.928 775.292 332.308 774.258 332.308ZM780.935 329.914V335.188H782.767V336.769H780.935V343.358H779.044V329.914H780.935ZM732.339 361.468V366.358H730.463V362.945H723.106V361.468H732.339ZM732.339 352.914V360.862H730.463V359.163H727.449C726.807 359.858 725.854 360.271 724.761 360.271C722.722 360.271 721.171 358.868 721.186 356.918C721.171 355.012 722.722 353.624 724.761 353.638C725.854 353.631 726.807 354.037 727.449 354.717H730.463V352.914H732.339ZM724.761 355.219C723.712 355.219 722.958 355.869 722.973 356.918C722.958 358.026 723.712 358.661 724.761 358.661C725.751 358.661 726.519 358.026 726.519 356.918C726.519 355.869 725.751 355.219 724.761 355.219ZM728.232 357.657H730.463V356.238H728.247C728.284 356.453 728.306 356.682 728.306 356.918C728.306 357.176 728.277 357.42 728.232 357.657ZM746.566 354.717V356.283H744.749V357.568H746.566V359.119H744.749V361.04H742.858V352.929H744.749V354.717H746.566ZM740.73 353.727V357.73H736.446V358.912C738.67 358.898 740.176 358.809 741.883 358.513L742.09 360.02C740.154 360.375 738.426 360.449 735.708 360.449H734.57V356.312H738.899V355.204H734.555V353.727H740.73ZM740.317 361.246C743.109 361.246 744.882 362.221 744.882 363.832C744.882 365.427 743.109 366.343 740.317 366.343C737.466 366.343 735.708 365.427 735.708 363.832C735.708 362.221 737.466 361.246 740.317 361.246ZM740.317 362.709C738.529 362.709 737.554 363.078 737.569 363.832C737.554 364.556 738.529 364.94 740.317 364.94C742.09 364.94 743.02 364.556 743.02 363.832C743.02 363.078 742.09 362.709 740.317 362.709ZM761.309 352.914V356.076H763.126V357.612H761.309V360.715H759.418V352.914H761.309ZM757.557 353.801C757.572 357.391 755.311 359.902 751.308 361.01L750.554 359.488C753.516 358.698 755.215 357.176 755.503 355.308H751.19V353.801H757.557ZM756.922 360.877C759.655 360.877 761.457 361.941 761.457 363.625C761.457 365.324 759.655 366.373 756.922 366.373C754.189 366.373 752.357 365.324 752.371 363.625C752.357 361.941 754.189 360.877 756.922 360.877ZM756.922 362.34C755.223 362.34 754.218 362.798 754.233 363.625C754.218 364.437 755.223 364.91 756.922 364.895C758.591 364.91 759.595 364.437 759.595 363.625C759.595 362.798 758.591 362.34 756.922 362.34ZM774.472 352.914V358.38H776.23V359.946H774.472V366.358H772.566V352.914H774.472ZM763.555 362.561C764.537 362.561 765.682 362.561 766.879 362.532V361.379C765.446 361.099 764.515 360.19 764.53 358.942C764.515 357.435 765.874 356.416 767.839 356.416C769.759 356.416 771.133 357.435 771.148 358.942C771.133 360.19 770.188 361.106 768.77 361.379V362.458C769.833 362.406 770.904 362.317 771.901 362.177L772.02 363.551C769.154 364.083 766.081 364.098 763.806 364.098L763.555 362.561ZM771.798 354.407V355.884H763.821V354.407H766.879V352.988H768.77V354.407H771.798ZM767.839 357.849C766.923 357.849 766.302 358.248 766.317 358.942C766.302 359.651 766.923 360.035 767.839 360.035C768.725 360.035 769.331 359.651 769.331 358.942C769.331 358.248 768.725 357.849 767.839 357.849Z" fill="#005EB8"/>
<path d="M390.29 599.452V601.014H382.384V599.452H385.446V598.093H387.431V599.452H390.29ZM386.415 601.421C388.368 601.421 389.774 602.483 389.79 604.014C389.774 605.546 388.368 606.593 386.415 606.593C384.446 606.593 383.071 605.546 383.087 604.014C383.071 602.483 384.446 601.421 386.415 601.421ZM386.415 602.905C385.509 602.905 384.931 603.296 384.946 604.014C384.931 604.733 385.509 605.139 386.415 605.139C387.306 605.139 387.931 604.733 387.931 604.014C387.931 603.296 387.306 602.905 386.415 602.905ZM394.337 598.218V606.686H392.353V605.655H390.415V604.061H392.353V602.858H390.446V601.249H392.353V598.218H394.337ZM386.743 607.218V608.264H392.368V607.218H394.337V612.28H384.743V607.218H386.743ZM386.743 610.749H392.368V609.749H386.743V610.749ZM403.009 599.046V603.483H398.712V604.999C400.829 604.999 402.079 604.928 403.524 604.655L403.712 606.249C402.056 606.546 400.556 606.593 397.806 606.593H396.743V601.999H401.009V600.608H396.712V599.046H403.009ZM408.165 598.233V606.983H406.181V604.796H403.821V603.218H406.181V601.78H403.821V600.202H406.181V598.233H408.165ZM408.165 607.624V612.436H406.181V609.218H398.368V607.624H408.165ZM415.243 601.436C415.228 603.983 416.321 606.561 418.603 607.655L417.399 609.249C415.876 608.499 414.853 607.093 414.259 605.374C413.642 607.218 412.54 608.725 410.931 609.514L409.696 607.905C412.103 606.796 413.243 604.077 413.243 601.436V599.311H415.243V601.436ZM421.228 598.218V603.702H423.321V605.389H421.228V612.436H419.228V598.218H421.228ZM428.071 599.061C430.259 599.061 431.962 600.499 431.978 602.546C431.962 604.264 430.767 605.553 429.087 605.921V607.858C430.212 607.811 431.329 607.718 432.384 607.577L432.524 609.046C429.556 609.608 426.353 609.608 423.931 609.577L423.665 607.968C424.688 607.96 425.868 607.96 427.103 607.936V605.936C425.36 605.585 424.165 604.288 424.165 602.546C424.165 600.499 425.821 599.061 428.071 599.061ZM428.071 600.749C426.946 600.749 426.103 601.405 426.118 602.546C426.103 603.671 426.946 604.343 428.071 604.343C429.165 604.343 430.009 603.671 430.009 602.546C430.009 601.405 429.165 600.749 428.071 600.749ZM435.134 598.218V603.796H437.071V605.468H435.134V612.436H433.134V598.218H435.134ZM442.274 599.171C444.524 599.155 446.212 600.624 446.212 602.655C446.212 604.702 444.524 606.155 442.274 606.155C440.024 606.155 438.321 604.702 438.321 602.655C438.321 600.624 440.024 599.155 442.274 599.171ZM442.274 600.889C441.149 600.889 440.29 601.546 440.306 602.655C440.29 603.78 441.149 604.421 442.274 604.421C443.399 604.421 444.259 603.78 444.274 602.655C444.259 601.546 443.415 600.889 442.274 600.889ZM449.618 598.218V612.468H447.634V598.218H449.618ZM437.728 607.936C440.259 607.952 443.774 607.905 446.821 607.483L446.978 608.921C443.821 609.53 440.446 609.561 437.962 609.561L437.728 607.936ZM380.626 624.452C380.626 626.171 381.626 627.827 383.876 628.53L382.813 630.077C381.306 629.577 380.251 628.608 379.642 627.358C379.024 628.796 377.923 629.921 376.298 630.468L375.22 628.905C377.595 628.108 378.61 626.218 378.626 624.264V622.968H380.626V624.452ZM386.72 622.218V625.546H388.642V627.202H386.72V630.655H384.72V622.218H386.72ZM382.063 630.936C385.001 630.936 386.86 631.952 386.86 633.686C386.86 635.436 385.001 636.436 382.063 636.436C379.063 636.436 377.188 635.436 377.188 633.686C377.188 631.952 379.063 630.936 382.063 630.936ZM382.063 632.499C380.188 632.499 379.173 632.905 379.188 633.686C379.173 634.499 380.188 634.874 382.063 634.874C383.907 634.874 384.892 634.499 384.892 633.686C384.892 632.905 383.907 632.499 382.063 632.499ZM393.813 624.749C393.813 626.28 394.61 627.811 396.501 628.53L395.438 630.046C394.228 629.585 393.392 628.741 392.876 627.686C392.36 628.921 391.47 629.952 390.142 630.499L389.063 628.968C391.063 628.093 391.876 626.343 391.876 624.749V623.077H393.813V624.749ZM401.485 622.233V630.921H399.595V627.311H398.407V630.483H396.548V622.483H398.407V625.702H399.595V622.233H401.485ZM396.626 631.124C399.626 631.124 401.548 632.124 401.563 633.78C401.548 635.436 399.626 636.436 396.626 636.436C393.61 636.436 391.704 635.436 391.704 633.78C391.704 632.124 393.61 631.124 396.626 631.124ZM396.626 632.608C394.767 632.608 393.688 633.014 393.704 633.78C393.688 634.546 394.767 634.936 396.626 634.936C398.47 634.936 399.548 634.546 399.548 633.78C399.548 633.014 398.47 632.608 396.626 632.608ZM411.204 623.53V625.124H409.938V631.327C410.517 631.28 411.079 631.225 411.626 631.155L411.735 632.593C408.829 633.108 405.563 633.155 403.126 633.171L402.907 631.546C403.415 631.546 403.962 631.538 404.532 631.53V625.124H403.267V623.53H411.204ZM414.313 622.218V627.624H416.407V629.249H414.313V636.436H412.313V622.218H414.313ZM406.454 631.499C406.97 631.483 407.493 631.468 408.017 631.436V625.124H406.454V631.499ZM428.517 629.561V631.139H418.454V623.264H428.407V624.874H420.485V626.374H428.079V627.936H420.485V629.561H428.517ZM429.938 633.155V634.78H416.923V633.155H429.938ZM442.767 622.218V636.468H440.782V628.233H436.892V626.608H440.782V622.218H442.767ZM433.485 623.733V631.452C435.298 631.428 437.142 631.272 439.079 630.905L439.298 632.53C437.001 633.014 434.813 633.124 432.688 633.124H431.485V623.733H433.485ZM450.032 623.968C450.017 625.639 451.048 627.311 453.376 627.983L452.423 629.53C450.782 629.046 449.649 628.061 449.001 626.796C448.36 628.171 447.188 629.257 445.485 629.764L444.532 628.202C446.907 627.499 447.954 625.702 447.954 623.968V622.639H450.032V623.968ZM456.485 622.218V629.858H454.485V622.218H456.485ZM448.938 630.483V631.811H454.501V630.483H456.485V636.28H446.97V630.483H448.938ZM448.938 634.671H454.501V633.358H448.938V634.671Z" fill="#005EB8"/>
<path d="M416.849 209.423L416.849 242.406" stroke="#005EB8" stroke-width="1.40355"/>
<path d="M416.845 492.038L416.845 525.021" stroke="#005EB8" stroke-width="1.40355"/>
<path d="M416.845 168.038L416.845 201.021" stroke="#005EB8" stroke-width="1.40355"/>
<line x1="167.72" y1="348.297" x2="275.793" y2="348.297" stroke="#005EB8" stroke-width="1.40355"/>
<line x1="556.501" y1="348.297" x2="664.574" y2="348.297" stroke="#005EB8" stroke-width="1.40355"/>
<circle cx="417.019" cy="488.017" r="7.01775" fill="#24C2FF"/>
<circle cx="416.019" cy="208.017" r="7.01775" fill="#24C2FF"/>
<circle cx="275.792" cy="349.017" r="7.01775" fill="#24C2FF"/>
<circle cx="556.503" cy="349.017" r="7.01775" fill="#24C2FF"/>
</svg>
