<svg width="584" height="642" viewBox="0 0 584 642" fill="none" xmlns="http://www.w3.org/2000/svg">
<path opacity="0.3" d="M5 640.54L5 636.76L20 636.76L20 640.54L5 640.54ZM5 628.62L5 624.86L20 624.86L20 628.62L5 628.62ZM10.74 638.44L10.74 627.02L14.06 627.02L14.06 638.44L10.74 638.44ZM5 621.927L5 618.147L20 618.147L20 621.927L5 621.927ZM14.78 613.687C14.78 614.087 14.6867 614.454 14.5 614.787C14.3133 615.107 14.06 615.361 13.74 615.547C13.4067 615.734 13.04 615.827 12.64 615.827C12.24 615.827 11.88 615.734 11.56 615.547C11.24 615.361 10.9867 615.107 10.8 614.787C10.6 614.454 10.5 614.087 10.5 613.687C10.5 613.287 10.6 612.927 10.8 612.607C10.9867 612.287 11.24 612.034 11.56 611.847C11.88 611.661 12.24 611.567 12.64 611.567C13.04 611.567 13.4067 611.661 13.74 611.847C14.06 612.034 14.3133 612.287 14.5 612.607C14.6867 612.927 14.78 613.287 14.78 613.687ZM5 605.451L18.32 605.451L16.66 607.151L16.66 595.911L20 595.911L20 609.231L5 609.231L5 605.451ZM11.1 581.475L13.9 581.475L13.9 592.335L11.1 592.335L11.1 581.475ZM12.5 589.775L18.7 590.775L16.92 592.355L16.92 580.835L20 580.835L20 594.555L12.5 593.395L5 594.555L5 580.935L8.08 580.935L8.08 592.355L6.3 590.775L12.5 589.775ZM13.32 569.872L11.06 569.872L20 562.592L20 567.252L13.58 572.232L13.58 570.432L20 575.432L20 580.012L11.08 572.692L13.3 572.692L5 579.552L5 574.852L10.8 570.312L10.8 572.152L5 567.672L5 563.052L13.32 569.872Z" fill="#111111"/>
<line x1="11.5" y1="542" x2="11.5" y2="-2.18557e-08" stroke="#D2D2D2"/>
<g clip-path="url(#clip0_217_21)">
<path d="M539.245 187.945L539.255 187.815H408.285H352.475L328.485 310.335H384.305L398.075 239.965H528.935L486.995 454.185L551.135 401.445L583.675 242.785L539.245 187.945Z" fill="#F2F2F2"/>
<path d="M381.345 325.445H325.525L300.325 454.185H352.475H356.135H468.825L481.825 402.035H366.345L381.345 325.445Z" fill="#F2F2F2"/>
</g>
<defs>
<clipPath id="clip0_217_21">
<rect width="283.35" height="266.37" fill="white" transform="translate(300.325 187.815)"/>
</clipPath>
</defs>
</svg>
